<?xml version="1.0" encoding="UTF-8" standalone="no"?>
<svg
   viewBox="311.95 148.98 196.66 364.96"
   width="197"
   height="365"
   version="1.1"
   id="svg42"
   sodipodi:docname="clown_align.svg"
   inkscape:version="1.2.2 (b0a8486541, 2022-12-01)"
   xmlns:inkscape="http://www.inkscape.org/namespaces/inkscape"
   xmlns:sodipodi="http://sodipodi.sourceforge.net/DTD/sodipodi-0.dtd"
   xmlns="http://www.w3.org/2000/svg"
   xmlns:svg="http://www.w3.org/2000/svg"
   xmlns:sodipodi0="http://sodipodi.sourceforge.net/DTD/sodipodi-0.0.dtd">
  <defs
     id="defs46" />
  <sodipodi:namedview
     id="namedview44"
     pagecolor="#ffffff"
     bordercolor="#000000"
     borderopacity="0.25"
     inkscape:showpageshadow="2"
     inkscape:pageopacity="0.0"
     inkscape:pagecheckerboard="0"
     inkscape:deskcolor="#d1d1d1"
     showgrid="false"
     inkscape:zoom="2.6579466"
     inkscape:cx="137.70028"
     inkscape:cy="162.15525"
     inkscape:window-width="1678"
     inkscape:window-height="912"
     inkscape:window-x="0"
     inkscape:window-y="0"
     inkscape:window-maximized="1"
     inkscape:current-layer="clown-group" />
  <g
     inkscape:groupmode="layer"
     inkscape:label="marduk-happy (align to this)"
     sodipodi0:insensitive="true"
     style="display:none;opacity:0.5"
     id="g25">
    <path
       fill="#081c1a"
       d="m 526.963,274.054 c -0.303,-1.171 0.854,-1.047 0.25,-3.387 -1.297,-5.493 -2.953,-10.005 -4.713,-14.919 -1.047,-2.127 -1.268,-6.115 -2.568,-8.178 -0.336,-0.623 -0.734,-1.366 -1.193,-2.16 -0.498,-0.773 -1.039,-1.609 -1.588,-2.457 -1.059,-1.706 -2.354,-3.33 -3.348,-4.604 -0.979,-1.287 -1.828,-2.124 -2.072,-2.253 -0.27,-0.111 0.109,0.457 1.199,2.234 3.414,5.275 5.748,9.93 7.727,14.55 1.045,2.293 1.824,4.644 2.701,7.046 0.721,2.447 1.537,4.956 2.102,7.727 0.645,2.215 1.008,4.466 1.486,6.698 0.215,1.12 0.336,2.251 0.508,3.379 0.162,1.128 0.352,2.258 0.416,3.399 0.479,4.555 0.537,9.192 0.215,13.965 -0.121,1.333 -0.279,2.618 -0.533,3.868 -0.232,1.253 -0.453,2.487 -0.773,3.706 0.461,-1.582 0.746,-3.221 1.129,-4.903 0.301,-1.693 0.627,-3.448 0.85,-5.31 0.355,-2.45 0.205,-5.202 -0.191,-8.251 -0.234,-1.524 -0.434,-3.128 -0.711,-4.815 -0.342,-1.682 -0.575,-3.462 -0.893,-5.335 z"
       id="path284" />
    <path
       fill="#081c1a"
       d="m 520.225,242.4 c -7.707,-14.551 -18.338,-26.282 -30.285,-35.509 -1.068,-0.516 -1.871,-0.791 -3.047,-1.821 -0.818,-0.878 -1.758,-1.614 -2.688,-2.344 l -2.738,-1.861 c -0.938,-0.58 -1.873,-1.158 -2.803,-1.734 -0.672,-0.371 -1.352,-0.745 -2.041,-1.125 -0.01,-0.004 -0.043,-0.019 -0.059,-0.025 -1.15,-0.483 -0.91,-0.155 -0.324,0.355 0.682,0.524 1.27,1.065 1.766,1.533 -0.316,-0.296 -1.197,-1.027 -1.766,-1.533 -0.84,-0.621 -1.799,-1.273 -2.959,-1.979 -1.775,-0.939 -3.711,-1.767 -5.623,-2.796 2.219,0.951 4.115,1.827 5.623,2.796 1.145,0.564 2.242,1.106 3.342,1.649 0.32,0.152 0.639,0.305 0.973,0.464 -4.344,-2.561 -8.771,-4.942 -13.369,-6.971 -1.074,-0.431 -2.098,-0.842 -2.934,-1.178 -1.727,-0.583 -3.447,-1.166 -4.975,-1.766 -1.535,-0.577 -2.902,-1.105 -3.881,-1.733 -0.842,-0.283 -1.688,-0.611 -2.557,-0.874 0.152,0.078 0.316,0.163 0.471,0.243 -0.375,-0.152 -0.688,-0.28 -0.943,-0.384 -1.818,-0.535 -3.629,-1.126 -5.471,-1.618 -1.848,-0.464 -3.695,-0.962 -5.559,-1.402 -1.234,-0.129 -2.488,-0.26 -3.752,-0.392 l -1.895,-0.206 -1.906,-0.152 c 0,0 -1.641,-0.631 -2.447,-0.941 -1.061,0.102 -2.553,0.105 -4.285,0.029 2.008,0.524 3.795,1.17 5.473,1.671 2.412,0.882 5.801,-0.143 8.541,1.478 -2.74,-1.621 -6.129,-0.595 -8.541,-1.478 -1.678,-0.5 -3.465,-1.146 -5.473,-1.671 -1.799,-0.093 -3.842,-0.343 -5.917,-0.534 -2.071,-0.225 -4.157,-0.579 -6.03,-0.856 2.344,-0.23 4.497,-0.024 6.482,0.213 1.99,0.219 3.793,0.724 5.465,1.177 1.732,0.077 3.225,0.073 4.285,-0.029 0.807,0.31 2.447,0.941 2.447,0.941 l 1.906,0.152 1.895,0.206 c 1.264,0.131 2.518,0.262 3.752,0.392 -7.281,-1.692 -14.785,-2.767 -22.497,-3.282 -24.793,-1.666 -49.17,2.982 -70.947,13.708 -5.426,2.711 -10.725,5.737 -15.765,9.224 -5.033,3.493 -9.854,7.358 -14.392,11.622 -9.069,8.523 -16.9,18.769 -22.726,30.517 -6.308,12.727 -9.684,26.652 -9.936,40.482 -0.245,13.838 2.614,27.544 8.033,39.997 5.405,12.433 13.301,23.416 22.701,32.508 9.384,9.131 20.14,16.573 31.714,22.304 5.777,2.886 11.749,5.401 17.903,7.446 6.148,2.053 12.433,3.814 18.867,5.091 6.435,1.272 12.984,2.219 19.649,2.774 3.324,0.199 6.717,0.463 10.028,0.508 1.669,0.045 3.342,0.09 5.019,0.136 1.686,0 3.377,0 5.072,0 10.391,-0.051 25.499,-1.689 39.959,-6.543 l 2.699,-0.922 c 0.902,-0.295 1.793,-0.62 2.666,-0.997 1.754,-0.725 3.51,-1.42 5.223,-2.164 1.688,-0.818 3.354,-1.628 4.996,-2.424 1.635,-0.808 3.174,-1.763 4.713,-2.614 6.064,-3.582 11.293,-7.409 15.18,-10.898 2.561,-2.398 4.305,-4.656 5.707,-6.444 0.346,-0.452 0.67,-0.876 0.959,-1.286 0.264,-0.428 0.512,-0.827 0.742,-1.205 0.451,-0.757 0.811,-1.424 1.092,-2.012 1.125,-2.343 1.006,-3.394 0.346,-3.763 -1.334,-0.722 -4.76,1.198 -5.258,1.553 -1.67,1.186 -3.408,2.184 -4.992,3.294 -1.561,1.138 -3.188,2.161 -4.781,3.256 -0.791,0.556 -1.586,1.113 -2.389,1.682 -0.828,0.538 -1.666,1.085 -2.521,1.64 -0.854,0.554 -1.686,1.17 -2.588,1.728 -0.908,0.55 -1.84,1.111 -2.799,1.689 -3.797,2.348 -8.246,4.612 -13.648,6.801 -5.42,2.145 -11.908,3.981 -19.732,5.18 2.676,-0.378 4.408,-0.738 5.412,-0.846 1.006,-0.111 1.268,-0.028 0.918,0.209 -0.348,0.237 -1.309,0.627 -2.74,1.122 -1.432,0.491 -3.375,0.94 -5.635,1.499 -2.256,0.567 -4.904,0.931 -7.703,1.41 -1.412,0.188 -2.875,0.329 -4.361,0.486 -1.488,0.151 -2.998,0.313 -4.533,0.357 -1.531,0.057 -3.068,0.115 -4.596,0.174 -1.526,0.043 -3.051,-0.025 -4.539,-0.053 -2.974,-0.045 -5.832,-0.303 -8.411,-0.62 -7.434,-0.971 -15.4,-1.972 -23.78,-3.584 -8.354,-1.61 -17.099,-3.737 -25.712,-6.913 -8.609,-3.146 -17.174,-7.138 -24.957,-12.252 -3.941,-2.477 -7.595,-5.34 -11.1,-8.272 -1.678,-1.55 -3.426,-3.012 -4.966,-4.653 -0.785,-0.806 -1.581,-1.595 -2.343,-2.409 -0.731,-0.838 -1.462,-1.674 -2.188,-2.505 -0.738,-0.818 -1.438,-1.68 -2.128,-2.561 -0.701,-0.869 -1.41,-1.747 -2.126,-2.633 -1.326,-1.845 -2.795,-3.644 -4.07,-5.638 -2.698,-3.888 -5.183,-8.178 -7.334,-12.926 -5.373,-12.401 -7.854,-25.597 -7.325,-38.649 0.495,-13.041 4.019,-25.843 10.212,-37.465 12.375,-23.302 35.119,-41.669 62.713,-50.644 7.301,-2.432 14.307,-4.322 21.142,-5.734 6.833,-1.392 13.497,-2.378 20.081,-2.677 9.641,-0.378 19.842,1.35 27.456,2.836 3.016,0.534 5.881,1.242 8.68,1.869 2.764,0.753 5.48,1.377 8.063,2.216 5.221,1.507 10.07,3.313 14.766,5.224 -5.18,-2.284 -9.762,-4.037 -14.613,-5.468 -2.4,-0.797 -4.906,-1.377 -7.529,-2.095 -1.328,-0.298 -2.693,-0.606 -4.109,-0.927 -1.412,-0.342 -2.896,-0.612 -4.447,-0.885 -4.121,-0.777 -2.639,-0.852 0.604,-0.633 1.629,0.078 3.672,0.346 5.662,0.648 2.002,0.258 3.918,0.664 5.293,0.982 2.418,0.37 5.592,2.812 7.936,3.328 2.416,0.964 4.834,1.644 7.215,2.562 1.199,0.441 2.428,0.848 3.664,1.322 1.225,0.505 2.477,1.022 3.777,1.558 2.279,0.844 1.473,1.772 2.59,2.214 1.719,0.828 3.34,1.609 4.877,2.35 1.535,0.748 3.039,1.375 4.383,2.102 1.359,0.705 2.66,1.354 3.832,2.063 1.156,0.732 2.217,1.475 3.156,2.266 2.863,2.394 5.332,4.68 7.621,7.011 0.762,0.696 1.486,1.424 2.209,2.175 0.73,0.741 1.482,1.482 2.277,2.229 1.014,0.897 2.01,1.886 3.039,2.846 -0.5,-1.048 -0.465,-1.632 -0.408,-2.199 0.668,0.773 1.449,1.728 2.221,2.685 0.729,0.996 1.455,1.987 2.084,2.789 -0.629,-0.802 -1.355,-1.793 -2.084,-2.789 -0.771,-0.958 -1.553,-1.912 -2.221,-2.685 -0.057,0.567 -0.092,1.15 0.408,2.199 3.588,3.537 7.299,7.569 10.529,12.098 3.268,4.498 6.199,9.376 8.605,14.308 0.014,-0.053 0.027,-0.122 0.039,-0.177 -2.662,-5.847 -5.598,-11.346 -8.844,-17.252 1.418,2.546 0.951,2.413 -0.941,-0.271 -0.303,-0.818 -0.691,-1.584 -1.033,-2.369 3.658,4.436 7.037,9.23 8.754,14.477 0,0 0.355,0.51 0.736,1.178 0.395,0.664 0.867,1.461 1.18,1.988 0.627,1.721 0.266,1.784 0.148,2.25 0.49,1.151 0.986,2.318 1.48,3.486 -0.232,-1.339 -0.92,-4.07 -1.787,-6.391 -0.763,-2.362 -1.649,-4.314 -1.649,-4.314 z"
       id="path286" />
    <path
       fill="#081c1a"
       d="m 473.168,196.257 c 0.789,0.402 1.76,0.896 2.793,1.423 -3.652,-2.092 -7.379,-4.07 -11.236,-5.811 0.457,0.349 1.012,0.691 1.637,1.031 0.621,0.355 1.303,0.73 2.037,1.094 1.46,0.743 3.15,1.424 4.769,2.263 z"
       id="path288" />
    <path
       fill="#081c1a"
       d="m 512.338,341.377 c 0.314,-0.533 0.789,-1.337 1.184,-2.008 0.371,-0.686 0.668,-1.235 0.668,-1.235 3.807,-4.092 6.49,-9.379 8.609,-14.78 -0.531,0.686 -1.029,1.398 -1.598,2.085 -1.443,2.967 -1.346,3.467 0.217,0.95 -3.656,5.726 -7.137,11.006 -11.023,16.229 0.498,-0.13 0.716,0.148 1.943,-1.241 z"
       id="path295" />
    <path
       fill="#081c1a"
       d="m 354.375,467.427 c -0.119,-0.163 1.006,-0.075 0.768,-0.399 -0.285,-0.741 -0.764,-1.388 -0.738,-2.069 -0.238,-0.323 1.031,-0.752 0.792,-1.072 -0.286,-0.745 -1.719,-2.694 -1.697,-1.591 0.097,1.664 0.355,2.76 0.5,4.253 0.401,1.227 0.89,2.408 1.245,3.655 0.039,0.347 -0.061,0.665 -0.151,0.989 0.193,-0.418 0.384,-0.845 0.571,-1.318 0.335,-0.62 -1.076,-1.444 -1.29,-2.448 z"
       id="path338" />
    <path
       fill="#081c1a"
       d="m 357.739,476.548 c -0.12,-0.156 -0.358,-0.473 -0.358,-0.473 0.84,-0.666 0.553,-1.397 0.268,-2.133 l -0.576,0.304 c 0.047,0.417 0.359,0.473 0.621,0.114 -0.721,0.819 -0.859,1.616 -0.779,2.438 0.307,-0.044 0.658,-0.023 0.824,-0.25 z"
       id="path340" />
    <path
       fill="#081c1a"
       d="m 357.771,463.441 c 0.021,-2.062 0.215,-3.994 0.459,-5.876 -0.21,-0.158 -0.457,-0.276 -0.312,-0.464 0.204,-0.135 0.339,-0.276 0.43,-0.418 l 0.116,-0.821 c -0.022,-0.097 -0.045,-0.197 -0.067,-0.295 l -0.006,-0.011 c -0.117,-0.163 -0.294,-0.127 -0.466,-0.041 -0.127,0.098 -0.273,0.188 -0.428,0.262 0.1,-0.048 0.26,-0.18 0.428,-0.262 0.15,-0.122 0.273,-0.261 0.349,-0.426 -0.052,-0.257 -0.075,-0.521 0.009,-0.79 0.113,0.313 0.096,0.572 -0.009,0.79 0.034,0.161 0.08,0.318 0.123,0.478 l 0.091,0.139 0.291,-1.872 c -0.02,-0.146 -0.035,-0.285 -0.064,-0.4 -0.119,-0.463 -0.239,-0.927 0.326,-1.17 l 0.057,-0.333 c -0.035,0.019 -0.066,0.036 -0.105,0.057 0.037,-0.049 0.077,-0.087 0.115,-0.12 0.08,-0.468 0.16,-0.938 0.242,-1.411 -0.191,-0.323 -0.436,-0.659 -0.572,-0.991 0,0 0.388,-0.185 0.582,-0.276 -0.273,-0.15 -0.445,-0.349 -0.525,-0.571 -0.354,0.23 -0.74,0.438 -0.986,0.641 -0.584,0.277 1.079,0.796 -0.006,1.095 1.085,-0.299 -0.578,-0.817 0.006,-1.095 0.246,-0.202 0.633,-0.41 0.986,-0.641 -0.17,-0.465 0.07,-1.033 0.65,-1.46 0.436,0.618 -0.057,1.074 -0.65,1.46 0.08,0.223 0.252,0.421 0.525,0.571 -0.194,0.092 -0.582,0.276 -0.582,0.276 0.137,0.332 0.381,0.668 0.572,0.991 0.158,-0.923 0.318,-1.854 0.481,-2.806 1.172,-6.111 1.604,-11.797 2.708,-18.13 0.693,-3.422 1.525,-6.689 2.525,-9.866 0.977,-3.167 1.346,-6.257 1.846,-9.339 0.502,-3.083 1.23,-6.146 3.08,-9.21 1.304,-2.368 1.424,-7.049 1.654,-9.461 -1.373,-3.435 -6.397,-2.556 -6.691,-2.43 -4.383,1.39 -2.332,3.29 -5.309,7.041 1.738,-2.593 2.352,2.406 -0.791,4.664 -4.799,3.259 -2.006,9.153 -3.675,13.727 -0.424,1.146 -0.357,2.423 -0.593,3.825 -1.117,3.578 -1.404,7.124 -1.555,10.725 -0.1,3.608 -0.047,7.274 -0.56,11.115 -0.157,2.048 0.685,3.922 1.155,5.691 0.105,1.271 -0.537,2.573 -0.605,3.598 -0.1,1.61 0.199,3.022 0.603,4.379 -0.104,-1.492 -0.332,-2.597 -0.39,-4.261 0.008,-1.104 1.39,0.871 1.656,1.62 0.231,0.328 -1.051,0.73 -0.818,1.061 -0.045,0.679 0.416,1.336 0.685,2.083 0.229,0.328 -0.893,0.218 -0.778,0.383 0.187,1.009 1.577,1.863 1.227,2.476 -0.201,0.471 -0.404,0.895 -0.605,1.307 -0.08,0.264 -0.149,0.525 -0.125,0.812 0.081,0.182 0.163,0.367 0.246,0.554 0.354,-0.124 0.779,-0.15 1.206,-0.174 -0.079,0.257 -0.353,0.611 -0.434,0.87 0.081,-0.259 0.354,-0.613 0.434,-0.87 -0.427,0.023 -0.852,0.05 -1.206,0.174 0.563,1.344 1.125,2.882 1.541,4.304 l 0.1,-0.015 c -0.078,-0.822 0.057,-1.615 0.778,-2.425 -0.265,0.354 -0.575,0.293 -0.623,-0.13 l 0.575,-0.291 c 0.285,0.747 0.572,1.486 -0.268,2.134 0,0 0.24,0.324 0.358,0.484 -0.165,0.224 -0.519,0.194 -0.821,0.228 0.014,0.161 0.04,0.323 0.069,0.487 0.575,-0.315 1.341,-1.35 1.341,-1.35 z"
       id="path342" />
    <path
       fill="#081c1a"
       d="m 358.308,455.074 c 0.03,0.112 0.045,0.25 0.063,0.397 l 0.262,-1.571 c -0.565,0.244 -0.445,0.708 -0.325,1.174 z"
       id="path344" />
    <path
       fill="#081c1a"
       d="m 464.984,474.932 c -0.129,-0.16 1,-0.115 0.744,-0.434 -0.322,-0.745 -0.834,-1.367 -0.844,-2.054 -0.246,-0.301 0.967,-0.842 0.705,-1.152 -0.352,-0.747 -1.945,-2.545 -1.828,-1.439 0.25,1.654 0.596,2.729 0.801,4.212 0.488,1.214 0.941,2.374 1.32,3.652 0.039,0.354 -0.088,0.666 -0.189,0.985 0.213,-0.408 0.434,-0.831 0.605,-1.316 0.331,-0.64 -1.077,-1.469 -1.314,-2.454 z"
       id="path346" />
    <path
       fill="#081c1a"
       d="m 468.117,470.594 c -0.127,-2.173 -0.242,-4.214 -0.316,-6.216 -0.232,-0.132 -0.498,-0.215 -0.387,-0.433 0.178,-0.175 0.285,-0.343 0.354,-0.506 l -0.027,-0.876 c -0.039,-0.097 -0.078,-0.197 -0.119,-0.298 l -0.006,-0.008 c -0.143,-0.148 -0.309,-0.08 -0.467,0.037 -0.107,0.124 -0.238,0.242 -0.377,0.347 0.092,-0.066 0.225,-0.231 0.377,-0.347 0.129,-0.151 0.229,-0.316 0.27,-0.503 -0.102,-0.255 -0.174,-0.525 -0.145,-0.819 0.172,0.302 0.203,0.576 0.145,0.819 0.068,0.161 0.137,0.317 0.203,0.474 l 0.113,0.131 c -0.02,-0.668 -0.041,-1.332 -0.064,-1.998 -0.049,-0.15 -0.09,-0.292 -0.143,-0.405 -0.205,-0.46 -0.412,-0.915 0.094,-1.278 l -0.008,-0.359 c -0.031,0.027 -0.059,0.053 -0.094,0.08 0.027,-0.058 0.061,-0.104 0.09,-0.146 -0.02,-0.502 -0.041,-1.006 -0.063,-1.515 -0.254,-0.295 -0.564,-0.591 -0.768,-0.9 0,0 0.34,-0.276 0.508,-0.414 -0.299,-0.097 -0.508,-0.263 -0.635,-0.477 -0.293,0.316 -0.631,0.614 -0.826,0.874 -0.512,0.411 1.225,0.588 0.225,1.128 1,-0.54 -0.736,-0.717 -0.225,-1.128 0.195,-0.26 0.533,-0.558 0.826,-0.874 -0.262,-0.442 -0.158,-1.078 0.309,-1.651 0.566,0.538 0.193,1.121 -0.309,1.651 0.127,0.214 0.336,0.38 0.635,0.477 -0.168,0.138 -0.508,0.414 -0.508,0.414 0.203,0.31 0.514,0.605 0.768,0.9 -0.045,-0.991 -0.088,-1.992 -0.135,-3.015 -0.277,-6.593 -1.514,-12.526 -2.379,-19.286 -0.445,-3.673 -0.736,-7.233 -0.881,-10.77 -0.297,-7.067 -3.295,-12.821 -2.35,-20.327 0.273,-2.866 -1.578,-7.56 -2.414,-10.041 -2.777,-2.867 -6.91,0.258 -7.127,0.48 -3.375,3.172 -0.717,4.128 -1.916,8.916 0.553,-3.188 3.139,1.392 1.107,4.79 -3.137,4.942 1.594,9.574 1.668,14.62 0.01,1.258 0.508,2.479 0.754,3.926 0.281,7.709 3.52,14.201 4.586,22.075 0.361,2.06 1.707,3.704 2.533,5.364 0.396,1.25 0.043,2.694 0.186,3.727 0.248,1.627 0.797,2.973 1.453,4.261 -0.389,-1.479 -0.807,-2.536 -1.219,-4.188 -0.225,-1.108 1.539,0.578 1.959,1.288 0.291,0.287 -0.893,0.945 -0.6,1.229 0.086,0.69 0.662,1.264 1.068,1.975 0.289,0.29 -0.838,0.379 -0.691,0.524 0.352,0.977 1.867,1.616 1.627,2.299 -0.123,0.509 -0.24,0.971 -0.385,1.415 -0.043,0.28 -0.072,0.555 -0.006,0.84 0.104,0.173 0.215,0.352 0.32,0.531 0.336,-0.175 0.75,-0.259 1.17,-0.34 -0.043,0.274 -0.262,0.672 -0.305,0.944 0.043,-0.272 0.262,-0.67 0.305,-0.944 -0.42,0.081 -0.834,0.165 -1.17,0.34 0.779,1.285 1.434,2.799 1.98,4.234 l 0.102,-0.022 c -0.152,-0.846 -0.088,-1.671 0.559,-2.599 -0.232,0.399 -0.547,0.366 -0.633,-0.063 l 0.539,-0.369 c 0.367,0.74 0.707,1.495 -0.068,2.25 0,0 0.268,0.315 0.4,0.472 -0.145,0.249 -0.5,0.249 -0.797,0.309 0.027,0.165 0.068,0.331 0.109,0.499 0.549,-0.367 1.221,-1.525 1.221,-1.525 z"
       id="path348" />
    <path
       fill="#081c1a"
       d="m 467.67,484.545 c -0.084,-0.193 -0.246,-0.583 -0.246,-0.583 0.996,-0.538 0.805,-1.414 0.609,-2.225 l -0.607,0.25 c -0.004,0.442 0.297,0.553 0.6,0.202 -0.785,0.788 -1.117,1.554 -1.213,2.423 0.308,0.03 0.644,0.137 0.857,-0.067 z"
       id="path297" />
    <path
       fill="#081c1a"
       d="m 531.238,276.676 c 0.096,-0.779 0.236,-1.176 0.479,0.08 0,0.016 0.002,0.031 0.006,0.052 -0.174,-1.238 -0.291,-2.47 -0.557,-3.737 0.166,1.34 0.107,2.562 0.072,3.605 z"
       id="path293" />
    <path
       fill="#081c1a"
       d="m 531.762,293.013 c 0.09,-1.192 0.184,-2.386 0.275,-3.585 l 0.117,-3.604 c -0.111,1.208 -0.262,2.399 -0.49,3.612 -0.238,1.552 -0.043,2.38 0.098,3.577 z"
       id="path291" />
    <path
       fill="#888888"
       fill-opacity="1"
       d="m 413.6,364.12 h -2.47 -2.47 l -2.28,-0.45 -2.28,-0.44 -2.28,-0.45 -2.29,-0.45 -2.09,-0.9 -2.14,-0.79 -2.05,-1.01 -2.1,-0.89 -2.01,-1.11 -2,-1.14 -1.89,-1.4 -1.93,-1.29 -1.91,-1.35 -1.79,-1.64 -1.87,-1.43 -1.75,-1.74 -1.74,-1.75 -1.56,-1.56 -1.75,-1.74 -1.58,-1.81 -1.59,-1.81 -1.43,-1.88 -1.11,-2.01 -1.11,-2 -1.05,-2.04 -0.45,-2.28 0.45,-2.28 0.45,-2.28 0.94,-2.08 1.43,-1.88 1.74,-1.74 1.75,-1.75 1.88,-1.43 2.14,-0.79 2.27,-0.47 2.38,-0.21 2.28,0.45 2.1,0.9 2.06,0.98 1.95,1.26 1.8,1.6 1.88,1.43 1.75,1.74 1.87,1.43 2.06,0.98 2.1,0.9 2.09,0.9 2.29,0.45 2.28,0.45 2.28,0.44 2.47,0.01 h 2.47 l 2.28,-0.45 2.4,-0.17 2.16,-0.73 2.25,-0.54 2.01,-1.11 1.87,-1.43 1.88,-1.43 1.88,-1.42 1.95,-1.25 2.06,-0.97 2.13,-0.83 2.28,-0.45 2.28,-0.44 2.29,0.44 2.28,0.45 2.1,0.9 1.88,1.4 1.75,1.74 1.57,1.82 1.29,1.93 0.79,2.14 0.17,2.4 v 2.47 l -0.63,2.21 -0.72,2.17 -0.9,2.09 -1.34,1.91 -1.16,1.99 -1.43,1.88 -1.43,1.87 -1.74,1.75 -1.75,1.74 -1.76,1.71 -1.86,1.47 -1.88,1.42 -1.87,1.43 -2.01,1.11 -1.93,1.3 -2.09,0.92 -2.01,1.11 -2.14,0.79 -2.15,0.77 -2.13,0.82 -2.25,0.53 -2.28,0.44 z"
       id="path15" />
    <path
       fill="#888888"
       fill-opacity="1"
       d="m 341.3,235.31 h -0.83 -0.83 l -0.65,-0.45 -0.7,-0.32 -0.72,-0.27 -0.7,-0.31 -0.61,-0.55 -0.69,-0.35 -0.62,-0.51 -0.58,-0.59 -0.59,-0.59 -0.59,-0.59 -0.59,-0.58 -0.5,-0.63 -0.36,-0.68 -0.09,-0.8 0.45,-0.64 0.45,-0.65 0.41,-0.66 0.59,-0.59 0.59,-0.59 0.65,-0.43 0.66,-0.43 0.82,-0.01 h 0.83 l 0.77,-0.16 0.71,-0.29 0.65,-0.45 0.67,-0.39 0.59,-0.59 0.68,-0.37 0.65,-0.45 0.7,-0.31 0.77,-0.14 0.67,-0.4 0.81,-0.05 0.76,-0.18 0.72,-0.26 0.72,-0.28 0.72,-0.27 0.69,-0.35 0.75,-0.19 0.72,-0.27 0.65,-0.44 0.79,-0.11 0.69,-0.34 0.75,-0.2 0.73,-0.25 h 0.83 0.83 0.84 0.83 0.83 0.83 0.84 l 0.71,0.29 0.59,0.59 0.59,0.58 -0.31,0.59 0.72,0.12 0.59,-0.16 0.58,0.59 0.59,0.59 -0.23,0.59 -0.59,0.59 -0.59,0.59 -0.59,0.58 -0.58,0.59 -0.59,0.59 -0.59,-0.56 -0.7,-0.32 -0.61,0.53 -0.27,0.72 -0.59,0.59 -0.59,0.59 -0.03,0.82 -0.51,0.62 -0.59,0.59 -0.64,0.47 -0.67,0.39 -0.59,0.59 -0.59,0.58 -0.58,0.59 -0.72,0.27 -0.59,0.59 -0.72,0.27 -0.71,0.32 -0.64,0.44 -0.68,0.37 -0.59,0.59 -0.59,0.59 -0.59,0.59 -0.6,0.56 -0.71,-0.3 -0.77,-0.15 -0.67,-0.4 -0.81,-0.05 -0.76,0.17 -0.59,0.59 z"
       id="path17" />
    <path
       fill="#888888"
       fill-opacity="1"
       d="m 468.38,229.47 -0.79,-0.34 -0.66,-0.66 -0.79,-0.35 -0.66,0.66 -0.79,0.14 -0.66,-0.04 -0.88,0.14 -0.74,-0.45 -0.76,-0.44 -0.65,-0.66 -0.48,-0.73 -0.53,-0.11 -0.66,-0.23 -0.66,0.66 -0.66,-0.32 -0.66,-0.16 -0.79,0.34 -0.8,0.31 -0.78,-0.38 -0.9,-0.07 h -0.94 -0.93 l -0.92,-0.03 -0.76,-0.42 -0.82,-0.26 -0.67,0.26 -0.78,0.37 -0.9,0.08 -0.69,-0.6 -0.66,-0.66 -0.65,-0.66 -0.66,-0.66 -0.66,0.43 -0.79,0.35 -0.75,-0.45 -0.84,-0.22 -0.66,-0.66 -0.66,-0.66 -0.66,-0.66 -0.66,-0.66 -0.66,-0.66 -0.34,-0.79 -0.66,-0.66 -0.34,-0.79 -0.66,-0.66 -0.09,-0.9 -0.44,-0.74 v -0.94 l 0.51,-0.71 0.66,-0.66 0.66,-0.66 0.67,-0.64 0.78,-0.37 0.8,-0.34 0.85,-0.18 0.86,0.18 0.82,0.27 0.76,0.41 0.92,0.03 h 0.93 0.94 0.93 0.93 0.93 0.94 l 0.74,0.45 0.91,0.06 0.77,0.39 0.75,0.45 0.86,0.18 0.79,0.35 0.78,0.37 0.8,0.31 0.79,0.34 0.79,0.34 0.79,0.35 0.75,0.45 0.7,0.55 0.66,0.66 0.66,0.66 0.66,0.66 0.66,0.66 0.66,0.66 0.66,0.65 0.66,0.66 0.35,0.79 0.65,0.66 0.66,0.66 -0.07,0.79 -0.66,0.66 0.28,0.8 0.66,0.65 0.66,-0.35 0.66,-0.66 0.79,-0.02 0.66,0.66 0.66,0.66 -0.16,0.79 -0.66,0.66 z"
       id="path19" />
    <path
       fill="#888888"
       fill-opacity="1"
       d="m 359.71,288.72 -0.99,-0.45 h -1.18 l -1.12,-0.15 -0.96,-0.52 -0.97,-0.51 -0.93,-0.62 -0.87,-0.73 -0.83,-0.84 v -1.18 l -0.45,-0.99 -0.15,-1.12 -0.3,-1.05 v -1.18 l -0.45,-1 v -1.18 -1.18 -1.18 -1.18 -1.18 l 0.41,-1.01 0.04,-1.16 0.04,-1.16 0.41,-1.01 0.45,-1 0.06,-1.15 0.52,-0.97 0.51,-0.96 0.52,-0.97 0.52,-0.96 0.83,-0.84 0.52,-0.96 0.83,-0.84 0.97,-0.51 0.86,-0.78 0.94,-0.58 0.97,-0.51 0.96,-0.52 1.1,-0.2 1,-0.44 1.06,-0.27 1.11,-0.18 h 1.18 1.18 1.18 1.18 l 0.99,0.45 1.13,0.14 1.05,0.31 0.99,0.45 0.99,0.45 1,0.45 1.06,0.29 0.96,0.51 0.96,0.54 0.98,0.5 0.83,0.83 0.83,0.84 0.76,0.86 0.45,1 0.45,0.99 0.45,0.99 v 1.18 1.18 1.18 l -0.45,1 -0.45,0.99 -0.58,0.94 -0.52,0.97 -0.96,0.51 -1.02,0.41 -0.43,0.76 0.82,0.84 0.53,0.96 0.84,0.83 0.52,0.97 0.35,1.03 0.22,0.9 -0.22,1.09 -0.87,0.7 -1.17,0.02 -1.01,0.43 -0.99,0.44 -1.03,0.36 -1.1,0.2 -0.97,0.52 -1.06,0.27 -1,0.45 -0.96,0.51 -1.02,0.39 -1,0.45 -0.99,0.44 -1,0.45 -0.99,0.45 -1.06,0.29 -1.1,0.19 -1.01,0.42 -1.05,0.3 -1.12,0.15 h -1.18 z"
       id="path21" />
    <path
       fill="#888888"
       fill-opacity="1"
       d="m 462.99,285.13 h -1 -1.01 -1.01 l -0.82,-0.45 h -1 l -0.87,-0.33 -0.96,-0.12 -0.86,-0.35 -0.97,-0.1 -0.85,-0.37 -0.97,-0.08 -0.85,-0.39 -0.98,-0.06 h -1.01 l -0.82,-0.45 h -1 -1.01 l -0.89,-0.27 -0.94,-0.17 -0.88,-0.3 -0.85,-0.39 -0.91,-0.21 -0.83,-0.45 -0.79,-0.52 -0.84,-0.4 -0.65,-0.73 -0.45,-0.82 -0.4,-0.85 -0.08,-0.97 -0.42,-0.83 v -1.01 -1 -1.01 -1.01 l 0.04,-0.99 0.41,-0.83 0.06,-0.99 0.39,-0.84 0.45,-0.82 0.34,-0.86 0.4,-0.85 0.61,-0.75 0.49,-0.8 0.72,-0.71 0.71,-0.71 0.71,-0.72 0.71,-0.71 0.71,-0.71 0.85,-0.39 0.84,-0.4 0.71,-0.71 0.84,-0.39 0.96,-0.11 0.82,-0.45 0.88,-0.31 0.95,-0.14 0.82,-0.45 h 1.01 l 0.99,-0.03 0.84,-0.42 h 1 1.01 l 0.92,0.21 0.91,0.24 0.91,0.23 0.84,0.39 0.84,0.4 0.72,0.71 0.71,0.71 0.71,0.71 0.39,0.84 0.27,0.9 0.45,0.82 v 1 l -0.22,0.92 -0.06,0.84 0.4,0.84 0.71,0.72 0.08,0.97 0.44,0.82 v 1.01 l 0.42,0.83 0.03,1 0.44,0.82 0.01,1 0.15,0.95 0.3,0.88 v 1.01 1 l 0.45,0.82 V 279 l -0.45,0.82 v 1 l -0.37,0.86 -0.39,0.84 -0.72,0.71 -0.71,0.72 -0.84,0.39 -0.87,0.34 z"
       id="path23" />
  </g>
  <g
     inkscape:groupmode="layer"
     inkscape:label="clown (move/scale onto marduk)"
     id="g40">
    <g
       id="clown-group"
       transform="matrix(0.45949,0,0,0.45949,136.05734,30.724615)"
       style="display:inline">
      <path
         id="clown-head"
         inkscape:label="head"
         fill="#e6194b"
         fill-opacity="0.7"
         d="M 581.88672,324.05078 C 574.59923,324.02578 566.84999,324.15 561,324.5 c -11.69999,0.7 -20.70001,2.2 -31,4 -10.29999,1.8 -18.30001,3 -31,7 -12.69999,4 -33.50001,12 -45,17 -11.49999,5 -15.70001,7.80001 -24,13 -8.29999,5.19999 -15.40001,9.10001 -26,18 -10.59999,8.89999 -26.90001,23.40001 -37.5,35.5 -10.59999,12.09999 -18.70001,24.00001 -26,37 -7.29999,12.99999 -13.7,28.20001 -18,41 -4.3,12.79999 -6.5,22.50001 -8,36 -1.5,13.49999 -1.5,33.20001 -1,45 0.5,11.79999 2.3,18.20001 4,26 1.7,7.79999 1.7,10.30001 6,21 4.3,10.69999 11.50001,29.20001 20,43 8.49999,13.79999 19.90001,28.20001 31,40 11.09999,11.79999 23.30001,21.60001 35.5,30.5 12.19999,8.89999 23.60001,15.90001 38,23 14.39999,7.09999 41.11166,16.92857 48.5,19.5 7.06,2.45716 7.7892,2.18553 12.5,3.5 6.85501,1.91277 25.20001,6 38,8 12.79999,2 22.80002,3.5 39,4 16.19998,0.5 41.00002,0.5 58,-1 16.99998,-1.5 30.80001,-4.7 44,-8 13.19999,-3.3 21.70001,-5.70001 35,-12 13.29999,-6.29999 33.80001,-18.30001 45,-26 11.19999,-7.69999 17.40001,-15.30001 22.5,-20.5 5.09999,-5.19999 6.2,-7.5 8,-11 1.8,-3.5 3.4,-8.1 3,-10 -0.4,-1.9 -3.7,-1.6 -5.5,-1.5 -1.8,0.1 1.79999,-2.5 -5,2 -6.79999,4.5 -23.70001,17.50001 -36,25 -12.29999,7.49999 -26.70001,15.2 -38,20 -11.29999,4.8 -23.50001,6.7 -30,9 -6.49999,2.3 -2.20001,3.2 -9,5 -6.79999,1.8 -19.30001,4.8 -32,6 -12.69999,1.2 -29.00001,1.8 -44,1 -14.99999,-0.8 -31.20001,-3.5 -46,-6 -14.79999,-2.5 -28.20001,-4.8 -43,-9 -14.79999,-4.2 -33.50001,-10.80001 -46,-16 -12.49999,-5.19999 -19.00001,-8.80001 -29,-15 -9.99999,-6.19999 -20.40001,-12.60001 -31,-22 -10.59999,-9.39999 -23.90001,-23.70001 -32.5,-34.5 -8.59999,-10.79999 -13.70001,-19.50001 -19,-30 -5.29999,-10.49999 -9.8,-22.50001 -13,-33 -3.2,-10.49999 -4.8,-19.30001 -6,-30 -1.2,-10.69999 -1.8,-22.20001 -1,-34 0.8,-11.79999 2,-23.50001 6,-37 4,-13.49999 12.00001,-32.20001 18,-44 5.99999,-11.79999 9.40001,-16.80001 18,-27 8.59999,-10.19999 22.60001,-24.90001 33.5,-34.5 10.89999,-9.59999 20.20001,-16.00001 32,-23 11.79999,-6.99999 24.20001,-13.30001 39,-19 14.79999,-5.69999 34.50002,-11.3 50,-15 15.49998,-3.7 30.00001,-5.8 43,-7 12.99999,-1.2 24.50001,-0.8 35,0 10.49999,0.8 21.30001,4.3 28,5 6.69999,0.7 5.80001,-1.5 12,-1 6.19999,0.5 19.60001,2.6 25,4 5.39999,1.4 6.5,3.3 7.5,4.5 0.0204,0.0245 -0.007,0.0478 0.01,0.0723 0.62462,0.0236 1.38228,0.12091 2.49023,0.42773 6.49999,1.8 28.00001,9.8 35,13 6.99999,3.2 0.20001,2.2 7,6 6.79999,3.8 22.10001,8.30001 34,17 11.89999,8.69999 26.40001,23.40001 37.5,35.5 11.09999,12.09999 23.30001,29.30001 29,37 5.69999,7.69999 4.4,7.2 5,9 0.12744,0.38233 0.12069,0.70265 0.22266,1.11523 0.46316,-0.27219 0.96995,-0.53838 1.27734,-0.61523 0.8,-0.2 2.2,1.9 2.5,1.5 0.3,-0.4 2.8,2.69999 -1,-4 -3.8,-6.69999 -16.00001,-27.20001 -22,-36 -5.99999,-8.79999 -7.60001,-10.20001 -14,-17 -6.39999,-6.79999 -16.40001,-16.60001 -24.5,-23.5 -8.09999,-6.89999 -13.70001,-11.50001 -24,-18 -10.29999,-6.49999 -24.50001,-14.80001 -38,-21 -13.49999,-6.19999 -27.50002,-11.7 -43,-16 -15.49998,-4.3 -41.20001,-8.7 -50,-10 -8.79999,-1.3 -1.2,1.7 -3,2 -1.8,0.3 -5.2,0.5 -8,0 -2.8,-0.5 -1.00001,-2.5 -9,-3 -4,-0.25 -10.82579,-0.42422 -18.11328,-0.44922 z" />
      <path
         id="clown-l-brow"
         inkscape:label="l-brow"
         fill="#3cb44b"
         fill-opacity="0.7"
         d="m 453,436.5 c -3.2,1.5 -7.7,0.3 -10,0 -2.3,-0.3 -2.9,-0.1 -4,-2 -1.1,-1.9 -3.7,-5.8 -2.5,-9.5 1.2,-3.7 5.7,-9.1 9.5,-12.5 3.8,-3.4 8.5,-5.8 13,-8 4.5,-2.2 9,-4 14,-5 5,-1 10.7,-1.7 16,-1 5.3,0.7 12.2,3.3 16,5 3.8,1.7 5.8,3.8 6.5,5.5 0.7,1.7 -1.3,3.4 -2.5,4.5 -1.2,1.1 -2.7,1.8 -5,2 -2.3,0.2 -5.8,-1.5 -9,-1 -3.2,0.5 -7.2,3.3 -10,4 -2.8,0.7 -3.2,-1.5 -7,0 -3.8,1.5 -11.8,6 -16,9 -4.2,3 -5.8,7.5 -9,9 z" />
      <path
         id="clown-r-brow"
         inkscape:label="r-brow"
         fill="#4363d8"
         fill-opacity="0.7"
         d="m 723,431.5 c -2.1,0.7 -5.5,0.5 -8,-1 -2.5,-1.5 -3,-5.7 -7,-8 -4,-2.3 -10.7,-4.8 -17,-6 -6.3,-1.2 -16,-1.2 -21,-1 -5,0.2 -6.8,2.1 -9,2 -2.2,-0.1 -3.4,-0.9 -4.5,-2.5 -1.1,-1.6 -3.3,-4.6 -2,-7 1.3,-2.4 7.3,-6.4 9.5,-7.5 2.2,-1.1 1.5,1.7 4,1 2.5,-0.7 5.3,-4.7 11,-5 5.7,-0.3 17.3,1.7 23,3 5.7,1.3 6.9,1.6 11,5 4.1,3.4 11.1,11.9 13.5,15.5 2.4,3.6 1.6,4.1 1,6 -0.6,1.9 -2.4,4.8 -4.5,5.5 z" />
      <path
         id="clown-l-eye"
         inkscape:label="l-eye"
         fill="#f58231"
         fill-opacity="0.7"
         d="m 518.34065,553.29037 c -8,0 -26.6,-0.3 -35,-2 -8.4,-1.7 -12.6,-6.4 -15.5,-8.5 -2.9,-2.1 -2,-0.2 -2,-4 0,-3.8 0.5,-13.7 2,-19 1.5,-5.3 4.1,-9.2 7,-13 2.9,-3.8 5.7,-6.9 10.5,-9.5 4.8,-2.6 12.7,-5 18,-6 5.3,-1 9.2,-1 14,0 4.8,1 11.8,4.3 15,6 3.2,1.7 3.2,2.6 4.5,4.5 1.3,1.9 2.7,4.2 3,7 0.3,2.8 1,6.7 -1,10 -2,3.3 -9.5,6.7 -11,10 -1.5,3.3 0.8,6.8 2,10 1.2,3.2 4.7,6.9 5,9 0.3,2.1 -0.7,2.6 -3.5,3.5 -2.8,0.9 -5,2 -13,2 z" />
      <path
         id="clown-r-eye"
         inkscape:label="r-eye"
         fill="#911eb4"
         fill-opacity="0.7"
         d="m 694.31566,560.29069 c -5.8,0.2 -14.5,0.8 -20,0 -5.5,-0.8 -10.2,-3.3 -13,-5 -2.8,-1.7 -2.6,-1.7 -3.5,-5.5 -0.9,-3.8 -2.2,-11.7 -2,-17 0.2,-5.3 0.6,-10.1 3,-15 2.4,-4.9 6.6,-10.9 11.5,-14.5 4.9,-3.6 12.7,-5.8 18,-7 5.3,-1.2 10.5,-0.5 14,0 3.5,0.5 4.9,1.3 7,3 2.1,1.7 4.6,4.4 5.5,7.5 0.9,3.1 -0.3,8.5 0,11 0.3,2.5 1.8,0.2 2,4 0.2,3.8 -1.7,14.8 -1,19 0.7,4.2 3.8,3.8 5,6 1.2,2.2 3.9,4.9 2,7 -1.9,2.1 -8.7,4.4 -13.5,5.5 -4.8,1.1 -9.2,0.8 -15,1 z" />
      <path
         id="clown-mouth"
         inkscape:label="mouth"
         fill="#42d4f4"
         fill-opacity="0.7"
         d="m 604.86468,739.85758 c -10.5,1.3 -24.7,0.3 -32,0 -7.3,-0.3 -6.7,-0.7 -12,-2 -5.3,-1.3 -13.5,-3.5 -20,-6 -6.5,-2.5 -13.3,-5.8 -19,-9 -5.7,-3.2 -9.6,-5.6 -15,-10 -5.4,-4.4 -13.1,-11.4 -17.5,-16.5 -4.4,-5.1 -7.5,-10 -9,-14 -1.5,-4 -1.1,-7.4 0,-10 1.1,-2.6 4.1,-4.6 6.5,-5.5 2.4,-0.9 1.5,-2.7 8,0 6.5,2.7 21.5,11.8 31,16 9.5,4.2 17.3,6.8 26,9 8.7,2.2 18,3.3 26,4 8,0.7 15,0.5 22,0 7,-0.5 14,-1.7 20,-3 6,-1.3 6.5,-0.5 16,-5 9.5,-4.5 32.7,-18.3 41,-22 8.3,-3.7 6.6,-0.9 9,0 2.4,0.9 4.6,2.9 5.5,5.5 0.9,2.6 0.7,7 0,10 -0.7,3 -1.7,4.5 -4,8 -2.3,3.5 -5.9,8.6 -10,13 -4.1,4.4 -7.6,8.6 -14.5,13.5 -6.9,4.9 -17.3,12 -27,16 -9.7,4 -20.5,6.7 -31,8 z" />
      <path
         id="clown-nose"
         inkscape:label="nose"
         fill="#f032e6"
         fill-opacity="0.7"
         d="m 595.93245,645.70727 c -5.7,0.3 -11,0 -17,-2 -6,-2 -14.1,-6.3 -19,-10 -4.9,-3.7 -7.8,-7.4 -10.5,-12.5 -2.7,-5.1 -5.2,-12.8 -6,-18 -0.8,-5.2 -0.3,-8.3 1,-13 1.3,-4.7 3.6,-10.4 7,-15 3.4,-4.6 7.9,-9.2 13.5,-12.5 5.6,-3.3 13.2,-6 20,-7 6.8,-1 14.8,-0.3 21,1 6.2,1.3 11.4,4.1 16,7 4.6,2.9 8.2,5.7 11.5,10.5 3.3,4.8 6.8,11.8 8,18 1.2,6.2 1,12.7 -1,19 -2,6.3 -6.4,13.9 -11,19 -4.6,5.1 -10.9,8.9 -16.5,11.5 -5.6,2.6 -11.3,3.7 -17,4 z" />
      <path
         id="clown-lipstick"
         inkscape:label="lipstick"
         fill="#9a6324"
         fill-opacity="0.7"
         d="m 604.3368,755.28312 c -11,0.3 -26.2,-0.2 -38,-2 -11.8,-1.8 -21.5,-4.5 -33,-9 -11.5,-4.5 -27.2,-12.7 -36,-18 -8.8,-5.3 -17.7,-13.7 -16.5,-13.5 1.2,0.2 17.7,11.6 23.5,14.5 5.8,2.9 7.5,1.3 11,3 3.5,1.7 5.2,4.8 10,7 4.8,2.2 10.2,4.3 19,6 8.8,1.7 25,3.3 34,4 9,0.7 10.7,1 20,0 9.3,-1 25.7,-3.3 36,-6 10.3,-2.7 19.3,-7 26,-10 6.7,-3 9.8,-5.3 14,-8 4.2,-2.7 6.1,-3.4 11,-8 4.9,-4.6 13.6,-12.3 18.5,-19.5 4.9,-7.2 9.2,-17.5 11,-24 1.8,-6.5 1.4,-10.4 0,-15 -1.4,-4.6 -5.4,-9.8 -8.5,-12.5 -3.1,-2.7 -6.3,-3.5 -10,-4 -3.7,-0.5 -8.3,0 -12,1 -3.7,1 -3.7,0.7 -10,5 -6.3,4.3 -20.7,16.2 -28,21 -7.3,4.8 -10.8,5.8 -16,8 -5.2,2.2 -7,3.7 -15,5 -8,1.3 -23.8,3 -33,3 -9.2,0 -15.7,-1.7 -22,-3 -6.3,-1.3 -9.7,-2.3 -16,-5 -6.3,-2.7 -13.8,-6 -22,-11 -8.2,-5 -19.7,-15.3 -27,-19 -7.3,-3.7 -12.8,-3 -17,-3 -4.2,0 -5.6,1.6 -8,3 -2.4,1.4 -4.6,2.6 -6.5,5.5 -1.9,2.9 -4.5,7 -5,12 -0.5,5 0,12 2,18 2,6 8.6,14.9 10,18 1.4,3.1 0.3,1.8 -1.5,0.5 -1.8,-1.3 -6.6,-4.1 -9.5,-8.5 -2.9,-4.4 -6.7,-12.2 -8,-18 -1.3,-5.8 -1,-12.2 0,-17 1,-4.8 2.9,-8.4 6,-12 3.1,-3.6 7.7,-7.6 12.5,-9.5 4.8,-1.9 10.2,-2.8 16,-2 5.8,0.8 12.2,3.2 19,7 6.8,3.8 14.7,11.5 22,16 7.3,4.5 14,8.2 22,11 8,2.8 17.2,5 26,6 8.8,1 19,0.8 27,0 8,-0.8 14.7,-2.8 21,-5 6.3,-2.2 9.5,-3.2 17,-8 7.5,-4.8 21,-16.3 28,-21 7,-4.7 8.8,-5.7 14,-7 5.2,-1.3 11.8,-1.8 17,-1 5.2,0.8 10.1,2.9 14,6 3.9,3.1 7.4,7.3 9.5,12.5 2.1,5.2 3.2,13.2 3,19 -0.2,5.8 -0.7,9 -4,16 -3.3,7 -9.9,18.6 -16,26 -6.1,7.4 -12.6,12.9 -20.5,18.5 -7.9,5.6 -18.2,11.2 -27,15 -8.8,3.8 -17,6 -26,8 -9,2 -17,3.7 -28,4 z" />
      <path
         id="clown-l-top-makeup"
         inkscape:label="l-top-makeup"
         fill="#469990"
         fill-opacity="0.7"
         d="m 488.34065,483.29037 c -2.8,0.4 -7.5,6.5 -4.5,-1.5 3,-8 15.2,-46.5 22.5,-46.5 7.3,0 22.5,39.2 21.5,46.5 -1,7.3 -20.9,-2.8 -27.5,-2.5 -6.6,0.3 -9.2,3.6 -12,4 z" />
      <path
         id="clown-l-bottom-makeup"
         inkscape:label="l-bottom-makeup"
         fill="#800000"
         fill-opacity="0.7"
         d="m 501.34065,603.29037 c -2,3.8 -1.1,1.6 -2.5,-1.5 -1.4,-3.1 -2.9,-10.2 -6,-17 -3.1,-6.8 -12.6,-19.9 -12.5,-23.5 0.1,-3.6 6.2,1.9 13,2 6.8,0.1 24.6,-4.1 27.5,-1.5 2.9,2.6 -6.7,10.1 -10,17 -3.3,6.9 -7.5,20.7 -9.5,24.5 z" />
      <path
         id="clown-r-top-makeup"
         inkscape:label="r-top-makeup"
         fill="#000075"
         fill-opacity="0.7"
         d="m 712.31566,489.29069 c -2.4,-0.3 -8.8,-3.3 -13,-4 -4.2,-0.7 -7.2,-0.6 -12,0 -4.8,0.6 -17.2,10.7 -16.5,3.5 0.7,-7.2 16.7,-38.8 20.5,-46.5 3.8,-7.7 1.1,-2.4 2.5,0.5 1.4,2.9 2.7,9.7 6,17 3.3,7.3 11.9,22.1 14,27 2.1,4.9 0.9,2.8 -1.5,2.5 z" />
      <path
         id="clown-r-bottom-makeup"
         inkscape:label="r-bottom-makeup"
         fill="#e07b00"
         fill-opacity="0.7"
         d="m 693.31566,609.29069 c -1.7,3.3 -1.1,2.4 -2.5,-0.5 -1.4,-2.9 -2.8,-10.5 -6,-17 -3.2,-6.5 -11.1,-17.9 -13,-22 -1.9,-4.1 -1.7,-2.6 1.5,-2.5 3.2,0.1 11.6,2.9 18,3 6.4,0.1 18.9,-5.6 20.5,-2.5 1.6,3.1 -7.9,14.1 -11,21 -3.1,6.9 -5.8,17.2 -7.5,20.5 z" />
    </g>
  </g>
</svg>
