<?xml version="1.0" encoding="UTF-8" standalone="no"?>
<svg
   viewBox="0 0 1254 1254"
   width="1254"
   height="1254"
   version="1.1"
   id="svg42"
   sodipodi:docname="clown.svg"
   inkscape:version="1.2.2 (b0a8486541, 2022-12-01)"
   xmlns:inkscape="http://www.inkscape.org/namespaces/inkscape"
   xmlns:sodipodi="http://sodipodi.sourceforge.net/DTD/sodipodi-0.dtd"
   xmlns:xlink="http://www.w3.org/1999/xlink"
   xmlns="http://www.w3.org/2000/svg"
   xmlns:svg="http://www.w3.org/2000/svg"
   xmlns:sodipodi0="http://sodipodi.sourceforge.net/DTD/sodipodi-0.0.dtd">
  <defs
     id="defs46" />
  <sodipodi:namedview
     id="namedview44"
     pagecolor="#ffffff"
     bordercolor="#000000"
     borderopacity="0.25"
     inkscape:showpageshadow="2"
     inkscape:pageopacity="0.0"
     inkscape:pagecheckerboard="0"
     inkscape:deskcolor="#d1d1d1"
     showgrid="false"
     inkscape:zoom="0.54704944"
     inkscape:cx="510.92274"
     inkscape:cy="563.02041"
     inkscape:window-width="1678"
     inkscape:window-height="912"
     inkscape:window-x="0"
     inkscape:window-y="0"
     inkscape:window-maximized="1"
     inkscape:current-layer="g4" />
  <g
     inkscape:groupmode="layer"
     inkscape:label="reference (source png)"
     sodipodi0:insensitive="true"
     style="opacity:0.18"
     id="g4">
    <!-- reference image stripped; regenerate via tools/trace_png.py -->
  </g>
  <g
     inkscape:groupmode="layer"
     id="layer5"
     inkscape:label="lipstick">
    <path
       id="part-7"
       inkscape:label="part-7"
       fill="#f032e6"
       fill-rule="evenodd"
       fill-opacity="0.85"
       d="M 603.0,764.5 C 592.0,764.8 576.8,764.3 565.0,762.5 C 553.2,760.7 543.5,758.0 532.0,753.5 C 520.5,749.0 504.8,740.8 496.0,735.5 C 487.2,730.2 478.3,721.8 479.5,722.0 C 480.7,722.2 497.2,733.6 503.0,736.5 C 508.8,739.4 510.5,737.8 514.0,739.5 C 517.5,741.2 519.2,744.3 524.0,746.5 C 528.8,748.7 534.2,750.8 543.0,752.5 C 551.8,754.2 568.0,755.8 577.0,756.5 C 586.0,757.2 587.7,757.5 597.0,756.5 C 606.3,755.5 622.7,753.2 633.0,750.5 C 643.3,747.8 652.3,743.5 659.0,740.5 C 665.7,737.5 668.8,735.2 673.0,732.5 C 677.2,729.8 679.1,729.1 684.0,724.5 C 688.9,719.9 697.6,712.2 702.5,705.0 C 707.4,697.8 711.7,687.5 713.5,681.0 C 715.3,674.5 714.9,670.6 713.5,666.0 C 712.1,661.4 708.1,656.2 705.0,653.5 C 701.9,650.8 698.7,650.0 695.0,649.5 C 691.3,649.0 686.7,649.5 683.0,650.5 C 679.3,651.5 679.3,651.2 673.0,655.5 C 666.7,659.8 652.3,671.7 645.0,676.5 C 637.7,681.3 634.2,682.3 629.0,684.5 C 623.8,686.7 622.0,688.2 614.0,689.5 C 606.0,690.8 590.2,692.5 581.0,692.5 C 571.8,692.5 565.3,690.8 559.0,689.5 C 552.7,688.2 549.3,687.2 543.0,684.5 C 536.7,681.8 529.2,678.5 521.0,673.5 C 512.8,668.5 501.3,658.2 494.0,654.5 C 486.7,650.8 481.2,651.5 477.0,651.5 C 472.8,651.5 471.4,653.1 469.0,654.5 C 466.6,655.9 464.4,657.1 462.5,660.0 C 460.6,662.9 458.0,667.0 457.5,672.0 C 457.0,677.0 457.5,684.0 459.5,690.0 C 461.5,696.0 468.1,704.9 469.5,708.0 C 470.9,711.1 469.8,709.8 468.0,708.5 C 466.2,707.2 461.4,704.4 458.5,700.0 C 455.6,695.6 451.8,687.8 450.5,682.0 C 449.2,676.2 449.5,669.8 450.5,665.0 C 451.5,660.2 453.4,656.6 456.5,653.0 C 459.6,649.4 464.2,645.4 469.0,643.5 C 473.8,641.6 479.2,640.7 485.0,641.5 C 490.8,642.3 497.2,644.7 504.0,648.5 C 510.8,652.3 518.7,660.0 526.0,664.5 C 533.3,669.0 540.0,672.7 548.0,675.5 C 556.0,678.3 565.2,680.5 574.0,681.5 C 582.8,682.5 593.0,682.3 601.0,681.5 C 609.0,680.7 615.7,678.7 622.0,676.5 C 628.3,674.3 631.5,673.3 639.0,668.5 C 646.5,663.7 660.0,652.2 667.0,647.5 C 674.0,642.8 675.8,641.8 681.0,640.5 C 686.2,639.2 692.8,638.7 698.0,639.5 C 703.2,640.3 708.1,642.4 712.0,645.5 C 715.9,648.6 719.4,652.8 721.5,658.0 C 723.6,663.2 724.7,671.2 724.5,677.0 C 724.3,682.8 723.8,686.0 720.5,693.0 C 717.2,700.0 710.6,711.6 704.5,719.0 C 698.4,726.4 691.9,731.9 684.0,737.5 C 676.1,743.1 665.8,748.7 657.0,752.5 C 648.2,756.3 640.0,758.5 631.0,760.5 C 622.0,762.5 614.0,764.2 603.0,764.5 Z" />
  </g>
  <g
     inkscape:groupmode="layer"
     id="layer-traced"
     inkscape:label="traced parts">
    <path
       id="part-1"
       inkscape:label="part-1"
       d="m 505.51631,787.55667 -7.97345,-1.57509 C 494.34179,785.34923 489.03297,785.31374 487.5,787 c -2,2.2 -2.5,4.2 -3,7 -0.5,2.8 1.5,6.7 0,10 -1.5,3.3 -7.2,4.70001 -9,10 -1.8,5.29999 -0.8,15.00001 -2,22 -1.2,6.99999 -3.8,9.70001 -5,20 -1.2,10.29999 -2,32.50001 -2,42 0,9.49999 1.2,12 2,15 0.8,3 2.8,1.5 3,3 0.2,1.5 -2.2,3.8 -2,6 0.2,2.2 2.7,4.5 3,7 0.3,2.5 -1.6,5.1 -1,8 0.6,2.9 3.3,8.5 4.5,9.5 1.2,1 2.1,-0.9 2.5,-3.5 0.4,-2.6 -1.7,0.29999 0,-12 1.7,-12.29999 7,-47.00001 10,-62 3,-14.99999 6.2,-19.70001 8,-28 1.8,-8.29999 1.3,-16.00001 3,-22 1.7,-5.99999 5.4,-8.20001 7,-14 1.32219,-4.79295 4.46926,-16.36615 -0.98369,-17.44333 z"
       sodipodi:nodetypes="ssssssssssssssssssssss" />
    <path
       id="path1140"
       inkscape:label="part-1"
       d="M 682.50977 351.07227 C 679.46993 350.95725 681.33182 353.58295 681 353.5 C 680.60817 353.40204 683.33622 352.2473 682.50977 351.07227 z " />
    <path
       id="path1138"
       inkscape:label="part-1"
       d="M 831.64648 471.08984 C 831.42158 470.8777 831.30164 470.84473 831 470.5 C 828.2 467.3 814.4 446.2 815.5 450 C 816.6 453.8 832.20001 479.80001 837.5 493 C 842.79999 506.19999 845.2 524.5 847 529.5 C 848.8 534.5 848.6 525.4 848.5 523 C 848.4 520.6 848.7 521.29999 846.5 515 C 844.3 508.70001 837.3 491.19999 835.5 485 C 833.7 478.80001 836.2 480.2 835.5 478 C 834.8 475.8 831.8 473.4 831.5 472 C 831.42837 471.66572 831.50351 471.36439 831.64648 471.08984 z " />
    <path
       id="path1136"
       inkscape:label="part-1"
       d="M 832.72266 470.11523 C 832.26821 470.3823 831.87223 470.65636 831.64648 471.08984 C 833.06583 472.42869 833.04904 471.43585 832.72266 470.11523 z " />
    <path
       id="part-2"
       inkscape:label="part-2"
       fill="#3cb44b"
       fill-rule="evenodd"
       fill-opacity="0.85"
       d="M 895.0,577.5 C 894.0,577.0 892.6,577.6 891.5,572.0 C 890.4,566.4 889.2,548.9 888.5,544.0 C 887.8,539.1 889.4,542.6 887.0,542.5 C 884.6,542.4 877.1,544.2 874.0,543.5 C 870.9,542.8 869.4,539.9 868.5,538.0 C 867.6,536.1 867.8,533.8 868.5,532.0 C 869.2,530.2 869.8,528.5 873.0,527.5 C 876.2,526.5 885.1,552.6 887.5,526.0 C 889.9,499.4 888.1,394.8 887.5,368.0 C 886.9,341.2 901.8,365.8 884.0,365.5 C 866.2,365.2 799.1,367.2 781.0,366.5 C 762.9,365.8 776.4,362.8 775.5,361.0 C 774.6,359.2 774.8,357.8 775.5,356.0 C 776.2,354.2 761.6,351.4 780.0,350.5 C 798.4,349.6 868.1,350.8 886.0,350.5 C 903.9,350.2 887.2,371.9 887.5,349.0 C 887.8,326.1 886.6,236.4 887.5,213.0 C 888.4,189.6 891.2,209.2 893.0,208.5 C 894.8,207.8 896.2,207.6 898.0,208.5 C 899.8,209.4 902.6,190.6 903.5,214.0 C 904.4,237.4 903.2,326.2 903.5,349.0 C 903.8,371.8 879.4,350.4 905.0,350.5 C 930.6,350.6 1023.5,348.8 1057.0,349.5 C 1090.5,350.2 1096.2,353.1 1106.0,354.5 C 1115.8,355.9 1115.7,356.7 1115.5,358.0 C 1115.3,359.3 1112.4,361.2 1105.0,362.5 C 1097.6,363.8 1104.3,365.0 1071.0,365.5 C 1037.7,366.0 932.9,365.2 905.0,365.5 C 877.1,365.8 903.9,340.2 903.5,367.0 C 903.1,393.8 902.4,499.2 902.5,526.0 C 902.6,552.8 876.6,527.2 904.0,527.5 C 931.4,527.8 1033.7,526.8 1067.0,527.5 C 1100.3,528.2 1096.2,530.5 1104.0,531.5 C 1111.8,532.5 1112.1,532.8 1114.0,533.5 C 1115.9,534.2 1118.3,534.8 1115.5,536.0 C 1112.7,537.2 1107.2,539.2 1097.0,540.5 C 1086.8,541.8 1086.3,543.0 1054.0,543.5 C 1021.7,544.0 928.6,542.8 903.0,543.5 C 877.4,544.2 901.4,542.8 900.5,548.0 C 899.6,553.2 898.4,570.1 897.5,575.0 C 896.6,579.9 896.0,578.0 895.0,577.5 Z" />
    <path
       id="part-3"
       inkscape:label="part-3"
       fill="#4363d8"
       fill-rule="evenodd"
       fill-opacity="0.85"
       d="M 895.0,1006.5 C 893.8,1006.7 892.6,1004.4 891.5,999.0 C 890.4,993.6 889.2,988.3 888.5,974.0 C 887.8,959.7 890.2,923.4 887.5,913.0 C 884.8,902.6 875.3,912.8 872.0,911.5 C 868.7,910.2 867.5,907.5 867.5,905.0 C 867.5,902.5 868.7,898.3 872.0,896.5 C 875.3,894.7 884.9,921.9 887.5,894.0 C 890.1,866.1 887.8,756.8 887.5,729.0 C 887.2,701.2 891.9,727.8 886.0,727.5 C 880.1,727.2 858.4,728.4 852.0,727.5 C 845.6,726.6 848.2,723.6 847.5,722.0 C 846.8,720.4 846.8,719.6 847.5,718.0 C 848.2,716.4 845.6,713.4 852.0,712.5 C 858.4,711.6 880.1,712.8 886.0,712.5 C 891.9,712.2 887.2,723.9 887.5,711.0 C 887.8,698.1 886.8,648.4 887.5,635.0 C 888.2,621.6 890.4,631.4 892.0,630.5 C 893.6,629.6 895.1,628.6 897.0,629.5 C 898.9,630.4 902.4,622.4 903.5,636.0 C 904.6,649.6 903.2,698.2 903.5,711.0 C 903.8,723.8 878.1,712.2 905.0,712.5 C 931.9,712.8 1031.2,711.7 1065.0,712.5 C 1098.8,713.3 1099.6,716.1 1108.0,717.5 C 1116.4,718.9 1114.8,720.0 1115.5,721.0 C 1116.2,722.0 1114.6,722.8 1112.0,723.5 C 1109.4,724.2 1110.2,724.7 1100.0,725.5 C 1089.8,726.3 1083.5,728.2 1051.0,728.5 C 1018.5,728.8 929.6,727.4 905.0,727.5 C 880.4,727.6 903.8,701.2 903.5,729.0 C 903.2,756.8 903.2,866.2 903.5,894.0 C 903.8,921.8 878.2,895.2 905.0,895.5 C 931.8,895.8 1031.2,894.8 1064.0,895.5 C 1096.8,896.2 1093.4,898.1 1102.0,899.5 C 1110.6,900.9 1115.8,902.5 1115.5,904.0 C 1115.2,905.5 1109.1,907.2 1100.0,908.5 C 1090.9,909.8 1093.5,911.0 1061.0,911.5 C 1028.5,912.0 931.2,911.2 905.0,911.5 C 878.8,911.8 904.1,902.6 903.5,913.0 C 902.9,923.4 902.3,959.8 901.5,974.0 C 900.7,988.2 899.6,992.6 898.5,998.0 C 897.4,1003.4 896.2,1006.3 895.0,1006.5 Z" />
    <path
       id="part-4"
       inkscape:label="part-4"
       fill="#f58231"
       fill-rule="evenodd"
       fill-opacity="0.85"
       d="M 267.0,565.5 C 265.6,569.2 265.7,567.8 264.5,564.0 C 263.3,560.2 281.4,546.1 260.0,542.5 C 238.6,538.9 157.4,543.4 136.0,542.5 C 114.6,541.6 132.2,538.6 131.5,537.0 C 130.8,535.4 130.8,534.6 131.5,533.0 C 132.2,531.4 114.8,528.2 136.0,527.5 C 157.2,526.8 238.2,528.6 259.0,528.5 C 279.8,528.4 260.6,531.4 260.5,527.0 C 260.4,522.6 258.7,528.7 258.5,502.0 C 258.3,475.3 259.6,389.8 259.5,367.0 C 259.4,344.2 279.1,365.8 258.0,365.5 C 236.9,365.2 154.6,366.6 133.0,365.5 C 111.4,364.4 128.9,361.1 128.5,359.0 C 128.1,356.9 129.4,354.6 130.5,353.0 C 131.6,351.4 114.1,349.9 135.0,349.5 C 155.9,349.1 235.4,350.8 256.0,350.5 C 276.6,350.2 258.1,373.9 258.5,348.0 C 258.9,322.1 257.6,221.6 258.5,195.0 C 259.4,168.4 262.2,189.6 264.0,188.5 C 265.8,187.4 267.2,187.8 269.0,188.5 C 270.8,189.2 273.6,166.2 274.5,193.0 C 275.4,219.8 274.2,322.8 274.5,349.0 C 274.8,375.2 259.9,350.2 276.0,350.5 C 292.1,350.8 349.2,349.8 371.0,350.5 C 392.8,351.2 398.8,353.2 407.0,354.5 C 415.2,355.8 418.8,356.8 420.5,358.0 C 422.2,359.2 423.9,360.2 417.0,361.5 C 410.1,362.8 402.5,364.8 379.0,365.5 C 355.5,366.2 293.4,365.2 276.0,365.5 C 258.6,365.8 274.8,342.1 274.5,367.0 C 274.2,391.9 274.8,488.2 274.5,515.0 C 274.2,541.8 271.8,525.4 272.5,528.0 C 273.2,530.6 274.2,529.8 279.0,530.5 C 283.8,531.2 296.4,531.6 301.0,532.5 C 305.6,533.4 307.3,534.8 306.5,536.0 C 305.7,537.2 301.6,538.6 296.0,539.5 C 290.4,540.4 277.8,537.2 273.0,541.5 C 268.2,545.8 268.4,561.8 267.0,565.5 Z" />
    <path
       id="part-8"
       inkscape:label="part-8"
       fill="#bfef45"
       fill-rule="evenodd"
       fill-opacity="0.85"
       d="M 342.0,907.5 C 337.0,908.5 334.5,908.2 331.0,907.5 C 327.5,906.8 323.8,905.0 321.0,903.5 C 318.2,902.0 317.2,901.8 314.0,898.5 C 310.8,895.2 305.9,891.2 301.5,884.0 C 297.1,876.8 292.2,867.8 287.5,855.0 C 282.8,842.2 274.9,815.6 273.0,807.5 C 271.1,799.4 274.4,804.9 276.0,806.5 C 277.6,808.1 280.8,812.9 282.5,817.0 C 284.2,821.1 284.8,827.7 286.5,831.0 C 288.2,834.3 291.7,835.5 292.5,837.0 C 293.3,838.5 290.8,838.3 291.5,840.0 C 292.2,841.7 295.7,845.2 296.5,847.0 C 297.3,848.8 295.3,849.5 296.5,851.0 C 297.7,852.5 301.7,853.5 303.5,856.0 C 305.3,858.5 303.2,860.9 307.5,866.0 C 311.8,871.1 323.6,882.9 329.0,886.5 C 334.4,890.1 334.7,889.2 340.0,887.5 C 345.3,885.8 353.7,881.2 361.0,876.5 C 368.3,871.8 374.5,868.3 384.0,859.5 C 393.5,850.7 409.3,831.2 418.0,823.5 C 426.7,815.8 431.8,816.8 436.0,813.5 C 440.2,810.2 442.4,805.9 443.5,804.0 C 444.6,802.1 440.1,804.8 442.5,802.0 C 444.9,799.2 453.6,790.2 458.0,787.5 C 462.4,784.8 466.4,785.4 469.0,785.5 C 471.6,785.6 472.4,786.9 473.5,788.0 C 474.6,789.1 475.3,790.0 475.5,792.0 C 475.7,794.0 476.5,796.2 474.5,800.0 C 472.5,803.8 474.8,803.2 463.5,815.0 C 452.2,826.8 421.9,857.2 407.0,870.5 C 392.1,883.8 381.7,889.3 374.0,894.5 C 366.3,899.7 366.3,899.3 361.0,901.5 C 355.7,903.7 347.0,906.5 342.0,907.5 Z" />
    <path
       id="part-9"
       inkscape:label="part-9"
       fill="#fabed4"
       fill-rule="evenodd"
       fill-opacity="0.85"
       d="M 823.0,943.5 C 821.0,942.3 814.2,935.4 812.5,933.0 C 810.8,930.6 814.0,931.2 812.5,929.0 C 811.0,926.8 804.8,922.0 803.5,920.0 C 802.2,918.0 804.6,917.8 804.5,917.0 C 804.4,916.2 803.8,915.5 803.0,915.5 C 802.2,915.5 800.6,918.1 799.5,917.0 C 798.4,915.9 798.7,911.8 796.5,909.0 C 794.3,906.2 795.0,911.0 786.5,900.0 C 778.0,889.0 754.7,855.0 745.5,843.0 C 736.3,831.0 734.8,833.7 731.5,828.0 C 728.2,822.3 727.7,813.0 725.5,809.0 C 723.3,805.0 720.5,806.3 718.5,804.0 C 716.5,801.7 714.3,797.7 713.5,795.0 C 712.7,792.3 712.6,790.4 713.5,788.0 C 714.4,785.6 716.4,781.8 719.0,780.5 C 721.6,779.2 725.6,778.8 729.0,780.5 C 732.4,782.2 735.6,785.4 739.5,791.0 C 743.4,796.6 747.3,806.5 752.5,814.0 C 757.7,821.5 763.8,826.7 770.5,836.0 C 777.2,845.3 786.3,859.7 792.5,870.0 C 798.7,880.3 805.0,892.5 807.5,898.0 C 810.0,903.5 807.0,901.8 807.5,903.0 C 808.0,904.2 808.3,900.7 810.5,905.0 C 812.7,909.3 818.2,923.2 820.5,929.0 C 822.8,934.8 824.1,937.6 824.5,940.0 C 824.9,942.4 825.0,944.7 823.0,943.5 Z" />
    <path
       id="part-12"
       inkscape:label="part-12"
       fill="#9A6324"
       fill-rule="evenodd"
       fill-opacity="0.85"
       d="M 714.0,970.5 C 713.8,971.3 712.2,971.1 711.5,969.0 C 710.8,966.9 709.2,959.6 709.5,958.0 C 709.8,956.4 712.2,959.5 713.0,959.5 C 713.8,959.5 714.9,959.4 714.5,958.0 C 714.1,956.6 711.0,953.0 710.5,951.0 C 710.0,949.0 712.2,948.3 711.5,946.0 C 710.8,943.7 707.0,939.0 706.5,937.0 C 706.0,935.0 708.6,935.1 708.5,934.0 C 708.4,932.9 706.8,930.7 706.0,930.5 C 705.2,930.3 703.9,934.4 703.5,933.0 C 703.1,931.6 704.5,925.7 703.5,922.0 C 702.5,918.3 700.0,919.3 697.5,911.0 C 695.0,902.7 690.5,882.7 688.5,872.0 C 686.5,861.3 686.8,853.5 685.5,847.0 C 684.2,840.5 680.7,838.0 680.5,833.0 C 680.3,828.0 684.5,822.8 684.5,817.0 C 684.5,811.2 680.1,802.4 680.5,798.0 C 680.9,793.6 684.8,792.1 687.0,790.5 C 689.2,788.9 691.6,787.9 694.0,788.5 C 696.4,789.1 699.6,790.4 701.5,794.0 C 703.4,797.6 704.8,803.7 705.5,810.0 C 706.2,816.3 704.7,825.0 705.5,832.0 C 706.3,839.0 709.5,844.7 710.5,852.0 C 711.5,859.3 710.5,867.0 711.5,876.0 C 712.5,885.0 715.2,892.2 716.5,906.0 C 717.8,919.8 720.2,949.3 719.5,959.0 C 718.8,968.7 713.4,962.1 712.5,964.0 C 711.6,965.9 714.2,969.7 714.0,970.5 Z" />
    <path
       id="part-13"
       inkscape:label="part-13"
       fill="#800000"
       fill-rule="evenodd"
       fill-opacity="0.85"
       d="M 267.0,978.5 C 265.5,982.3 264.4,976.9 263.5,974.0 C 262.6,971.1 262.2,969.8 261.5,961.0 C 260.8,952.2 260.2,929.8 259.5,921.0 C 258.8,912.2 263.2,910.1 257.0,908.5 C 250.8,906.9 240.7,911.0 222.0,911.5 C 203.3,912.0 158.6,912.2 145.0,911.5 C 131.4,910.8 141.2,908.9 140.5,907.0 C 139.8,905.1 139.8,901.9 140.5,900.0 C 141.2,898.1 130.6,896.2 145.0,895.5 C 159.4,894.8 208.3,895.0 227.0,895.5 C 245.7,896.0 251.8,898.2 257.0,898.5 C 262.2,898.8 258.2,901.1 258.5,897.0 C 258.8,892.9 257.2,878.9 258.5,874.0 C 259.8,869.1 264.1,868.4 266.0,867.5 C 267.9,866.6 268.6,867.6 270.0,868.5 C 271.4,869.4 273.8,867.6 274.5,873.0 C 275.2,878.4 273.9,896.1 274.5,901.0 C 275.1,905.9 277.3,901.8 278.0,902.5 C 278.7,903.2 279.1,904.2 278.5,905.0 C 277.9,905.8 275.5,899.3 274.5,907.0 C 273.5,914.7 273.8,939.1 272.5,951.0 C 271.2,962.9 268.5,974.7 267.0,978.5 Z" />
    <path
       id="part-14"
       inkscape:label="part-14"
       fill="#808000"
       fill-rule="evenodd"
       fill-opacity="0.85"
       d="M 466.0,330.5 C 464.8,333.2 464.4,331.8 463.5,329.0 C 462.6,326.2 461.5,324.0 460.5,314.0 C 459.5,304.0 458.0,289.3 457.5,269.0 C 457.0,248.7 456.4,205.9 457.5,192.0 C 458.6,178.1 462.2,186.6 464.0,185.5 C 465.8,184.4 466.4,184.8 468.0,185.5 C 469.6,186.2 472.6,173.8 473.5,190.0 C 474.4,206.2 474.0,262.5 473.5,283.0 C 473.0,303.5 471.8,305.1 470.5,313.0 C 469.2,320.9 467.2,327.8 466.0,330.5 Z" />
    <path
       id="part-15"
       inkscape:label="part-15"
       fill="#000075"
       fill-rule="evenodd"
       fill-opacity="0.85"
       d="M 671.0,326.5 C 670.0,328.2 669.2,325.9 668.5,324.0 C 667.8,322.1 667.5,324.7 666.5,315.0 C 665.5,305.3 663.2,285.2 662.5,266.0 C 661.8,246.8 661.6,211.9 662.5,200.0 C 663.4,188.1 666.1,195.4 668.0,194.5 C 669.9,193.6 672.2,193.8 674.0,194.5 C 675.8,195.2 677.8,185.4 678.5,199.0 C 679.2,212.6 679.2,256.8 678.5,276.0 C 677.8,295.2 675.8,305.6 674.5,314.0 C 673.2,322.4 672.0,324.8 671.0,326.5 Z" />
    <path
       id="part-16"
       inkscape:label="part-16"
       fill="#a9a9a9"
       fill-rule="evenodd"
       fill-opacity="0.85"
       d="M 261.0,724.5 C 255.0,724.7 248.5,722.8 242.0,720.5 C 235.5,718.2 225.9,713.2 222.0,710.5 C 218.1,707.8 220.2,706.1 218.5,704.0 C 216.8,701.9 212.3,699.8 211.5,698.0 C 210.7,696.2 215.5,695.2 213.5,693.0 C 211.5,690.8 201.8,687.8 199.5,685.0 C 197.2,682.2 198.6,678.4 199.5,676.0 C 200.4,673.6 201.9,672.4 205.0,670.5 C 208.1,668.6 211.8,665.5 218.0,664.5 C 224.2,663.5 237.8,663.9 242.0,664.5 C 246.2,665.1 243.5,666.7 243.5,668.0 C 243.5,669.3 243.6,671.2 242.0,672.5 C 240.4,673.8 237.5,674.8 234.0,675.5 C 230.5,676.2 224.2,675.8 221.0,676.5 C 217.8,677.2 214.5,678.8 214.5,680.0 C 214.5,681.2 217.1,682.4 221.0,683.5 C 224.9,684.6 231.5,686.0 238.0,686.5 C 244.5,687.0 255.8,685.9 260.0,686.5 C 264.2,687.1 263.3,689.2 263.5,690.0 C 263.7,690.8 262.6,691.4 261.0,691.5 C 259.4,691.6 260.1,689.9 254.0,690.5 C 247.9,691.1 227.2,692.5 224.5,695.0 C 221.8,697.5 232.8,702.2 238.0,705.5 C 243.2,708.8 250.5,712.5 256.0,714.5 C 261.5,716.5 266.2,717.6 271.0,717.5 C 275.8,717.4 283.3,713.7 284.5,714.0 C 285.7,714.3 281.9,717.8 278.0,719.5 C 274.1,721.2 267.0,724.3 261.0,724.5 Z" />
    <path
       id="part-19"
       inkscape:label="part-19"
       fill="#e6194B"
       fill-rule="evenodd"
       fill-opacity="0.85"
       d="M 162.0,728.5 C 151.5,729.0 129.9,729.1 123.0,728.5 C 116.1,727.9 120.8,727.6 120.5,725.0 C 120.2,722.4 112.2,715.1 121.5,713.0 C 130.8,710.9 164.2,711.5 176.0,712.5 C 187.8,713.5 189.8,717.3 192.5,719.0 C 195.2,720.7 193.1,721.4 192.0,722.5 C 190.9,723.6 191.0,724.5 186.0,725.5 C 181.0,726.5 172.5,728.0 162.0,728.5 Z" />
    <path
       id="part-20"
       inkscape:label="part-20"
       fill="#3cb44b"
       fill-rule="evenodd"
       fill-opacity="0.85"
       d="M 338.0,728.5 C 327.3,729.0 310.9,728.9 305.0,728.5 C 299.1,728.1 302.8,728.6 302.5,726.0 C 302.2,723.4 294.2,715.2 303.5,713.0 C 312.8,710.8 346.2,711.5 358.0,712.5 C 369.8,713.5 371.8,717.4 374.5,719.0 C 377.2,720.6 375.4,720.9 374.5,722.0 C 373.6,723.1 375.1,724.4 369.0,725.5 C 362.9,726.6 348.7,728.0 338.0,728.5 Z" />
    <path
       id="part-25"
       inkscape:label="part-25"
       fill="#f032e6"
       fill-rule="evenodd"
       fill-opacity="0.85"
       d="M 261.0,674.5 C 259.2,674.5 254.8,673.4 253.5,672.0 C 252.2,670.6 252.8,668.3 253.5,666.0 C 254.2,663.7 256.2,662.8 257.5,658.0 C 258.8,653.2 260.5,644.5 261.5,637.0 C 262.5,629.5 263.5,618.8 263.5,613.0 C 263.5,607.2 261.4,604.8 261.5,602.0 C 261.6,599.2 263.2,596.8 264.0,596.5 C 264.8,596.2 266.4,599.1 266.5,600.0 C 266.6,600.9 263.7,598.3 264.5,602.0 C 265.3,605.7 270.3,614.7 271.5,622.0 C 272.7,629.3 271.7,639.8 271.5,646.0 C 271.3,652.2 271.7,655.7 270.5,659.0 C 269.3,662.3 265.5,663.8 264.5,666.0 C 263.5,668.2 265.1,670.6 264.5,672.0 C 263.9,673.4 262.8,674.5 261.0,674.5 Z" />
    <path
       id="part-26"
       inkscape:label="part-26"
       fill="#bfef45"
       fill-rule="evenodd"
       fill-opacity="0.85"
       d="M 250.0,747.5 C 245.9,748.4 243.2,748.7 239.0,747.5 C 234.8,746.3 229.1,743.4 225.0,740.5 C 220.9,737.6 216.2,732.8 214.5,730.0 C 212.8,727.2 215.2,726.0 214.5,724.0 C 213.8,722.0 211.0,719.7 210.5,718.0 C 210.0,716.3 210.9,715.1 211.5,714.0 C 212.1,712.9 212.6,711.9 214.0,711.5 C 215.4,711.1 218.2,709.8 220.0,711.5 C 221.8,713.2 221.2,717.7 224.5,722.0 C 227.8,726.3 235.6,734.2 240.0,737.5 C 244.4,740.8 247.3,741.0 251.0,741.5 C 254.7,742.0 259.9,740.4 262.0,740.5 C 264.1,740.6 265.5,740.8 263.5,742.0 C 261.5,743.2 254.1,746.6 250.0,747.5 Z" />
  </g>
  <g
     inkscape:groupmode="layer"
     id="layer-head"
     inkscape:label="head">
    <path
       id="path1134"
       inkscape:label="part-1"
       d="M 581.88672,324.05078 C 574.59923,324.02578 566.84999,324.15 561,324.5 c -11.69999,0.7 -20.70001,2.2 -31,4 -10.29999,1.8 -18.30001,3 -31,7 -12.69999,4 -33.50001,12 -45,17 -11.49999,5 -15.70001,7.80001 -24,13 -8.29999,5.19999 -15.40001,9.10001 -26,18 -10.59999,8.89999 -26.90001,23.40001 -37.5,35.5 -10.59999,12.09999 -18.70001,24.00001 -26,37 -7.29999,12.99999 -13.7,28.20001 -18,41 -4.3,12.79999 -6.5,22.50001 -8,36 -1.5,13.49999 -1.5,33.20001 -1,45 0.5,11.79999 2.3,18.20001 4,26 1.7,7.79999 1.7,10.30001 6,21 4.3,10.69999 11.50001,29.20001 20,43 8.49999,13.79999 19.90001,28.20001 31,40 11.09999,11.79999 23.30001,21.60001 35.5,30.5 12.19999,8.89999 23.60001,15.90001 38,23 14.39999,7.09999 41.11166,16.92857 48.5,19.5 7.06,2.45716 7.7892,2.18553 12.5,3.5 6.85501,1.91277 25.20001,6 38,8 12.79999,2 22.80002,3.5 39,4 16.19998,0.5 41.00002,0.5 58,-1 16.99998,-1.5 30.80001,-4.7 44,-8 13.19999,-3.3 21.70001,-5.70001 35,-12 13.29999,-6.29999 33.80001,-18.30001 45,-26 11.19999,-7.69999 17.40001,-15.30001 22.5,-20.5 5.09999,-5.19999 6.2,-7.5 8,-11 1.8,-3.5 3.4,-8.1 3,-10 -0.4,-1.9 -3.7,-1.6 -5.5,-1.5 -1.8,0.1 1.79999,-2.5 -5,2 -6.79999,4.5 -23.70001,17.50001 -36,25 -12.29999,7.49999 -26.70001,15.2 -38,20 -11.29999,4.8 -23.50001,6.7 -30,9 -6.49999,2.3 -2.20001,3.2 -9,5 -6.79999,1.8 -19.30001,4.8 -32,6 -12.69999,1.2 -29.00001,1.8 -44,1 -14.99999,-0.8 -31.20001,-3.5 -46,-6 -14.79999,-2.5 -28.20001,-4.8 -43,-9 -14.79999,-4.2 -33.50001,-10.80001 -46,-16 -12.49999,-5.19999 -19.00001,-8.80001 -29,-15 -9.99999,-6.19999 -20.40001,-12.60001 -31,-22 -10.59999,-9.39999 -23.90001,-23.70001 -32.5,-34.5 -8.59999,-10.79999 -13.70001,-19.50001 -19,-30 -5.29999,-10.49999 -9.8,-22.50001 -13,-33 -3.2,-10.49999 -4.8,-19.30001 -6,-30 -1.2,-10.69999 -1.8,-22.20001 -1,-34 0.8,-11.79999 2,-23.50001 6,-37 4,-13.49999 12.00001,-32.20001 18,-44 5.99999,-11.79999 9.40001,-16.80001 18,-27 8.59999,-10.19999 22.60001,-24.90001 33.5,-34.5 10.89999,-9.59999 20.20001,-16.00001 32,-23 11.79999,-6.99999 24.20001,-13.30001 39,-19 14.79999,-5.69999 34.50002,-11.3 50,-15 15.49998,-3.7 30.00001,-5.8 43,-7 12.99999,-1.2 24.50001,-0.8 35,0 10.49999,0.8 21.30001,4.3 28,5 6.69999,0.7 5.80001,-1.5 12,-1 6.19999,0.5 19.60001,2.6 25,4 5.39999,1.4 6.5,3.3 7.5,4.5 0.0204,0.0245 -0.007,0.0478 0.01,0.0723 0.62462,0.0236 1.38228,0.12091 2.49023,0.42773 6.49999,1.8 28.00001,9.8 35,13 6.99999,3.2 0.20001,2.2 7,6 6.79999,3.8 22.10001,8.30001 34,17 11.89999,8.69999 26.40001,23.40001 37.5,35.5 11.09999,12.09999 23.30001,29.30001 29,37 5.69999,7.69999 4.4,7.2 5,9 0.12744,0.38233 0.12069,0.70265 0.22266,1.11523 0.46316,-0.27219 0.96995,-0.53838 1.27734,-0.61523 0.8,-0.2 2.2,1.9 2.5,1.5 0.3,-0.4 2.8,2.69999 -1,-4 -3.8,-6.69999 -16.00001,-27.20001 -22,-36 -5.99999,-8.79999 -7.60001,-10.20001 -14,-17 -6.39999,-6.79999 -16.40001,-16.60001 -24.5,-23.5 -8.09999,-6.89999 -13.70001,-11.50001 -24,-18 -10.29999,-6.49999 -24.50001,-14.80001 -38,-21 -13.49999,-6.19999 -27.50002,-11.7 -43,-16 -15.49998,-4.3 -41.20001,-8.7 -50,-10 -8.79999,-1.3 -1.2,1.7 -3,2 -1.8,0.3 -5.2,0.5 -8,0 -2.8,-0.5 -1.00001,-2.5 -9,-3 -4,-0.25 -10.82579,-0.42422 -18.11328,-0.44922 z"
       sodipodi:nodetypes="sssssssssssssssssssssssssssssssssssssssssssssssssssssssssssscssssssscsssssssssssssss" />
  </g>
  <g
     inkscape:groupmode="layer"
     id="layer-l-brow"
     inkscape:label="l-brow">
    <path
       id="part-17"
       inkscape:label="part-17"
       fill="#e07b00"
       fill-rule="evenodd"
       fill-opacity="0.85"
       d="M 453.0,436.5 C 449.8,438.0 445.3,436.8 443.0,436.5 C 440.7,436.2 440.1,436.4 439.0,434.5 C 437.9,432.6 435.3,428.7 436.5,425.0 C 437.7,421.3 442.2,415.9 446.0,412.5 C 449.8,409.1 454.5,406.7 459.0,404.5 C 463.5,402.3 468.0,400.5 473.0,399.5 C 478.0,398.5 483.7,397.8 489.0,398.5 C 494.3,399.2 501.2,401.8 505.0,403.5 C 508.8,405.2 510.8,407.3 511.5,409.0 C 512.2,410.7 510.2,412.4 509.0,413.5 C 507.8,414.6 506.3,415.3 504.0,415.5 C 501.7,415.7 498.2,414.0 495.0,414.5 C 491.8,415.0 487.8,417.8 485.0,418.5 C 482.2,419.2 481.8,417.0 478.0,418.5 C 474.2,420.0 466.2,424.5 462.0,427.5 C 457.8,430.5 456.2,435.0 453.0,436.5 Z" />
  </g>
  <g
     inkscape:groupmode="layer"
     id="layer-r-brow"
     inkscape:label="r-brow">
    <path
       id="part-18"
       inkscape:label="part-18"
       fill="#00a86b"
       fill-rule="evenodd"
       fill-opacity="0.85"
       d="M 723.0,431.5 C 720.9,432.2 717.5,432.0 715.0,430.5 C 712.5,429.0 712.0,424.8 708.0,422.5 C 704.0,420.2 697.3,417.7 691.0,416.5 C 684.7,415.3 675.0,415.3 670.0,415.5 C 665.0,415.7 663.2,417.6 661.0,417.5 C 658.8,417.4 657.6,416.6 656.5,415.0 C 655.4,413.4 653.2,410.4 654.5,408.0 C 655.8,405.6 661.8,401.6 664.0,400.5 C 666.2,399.4 665.5,402.2 668.0,401.5 C 670.5,400.8 673.3,396.8 679.0,396.5 C 684.7,396.2 696.3,398.2 702.0,399.5 C 707.7,400.8 708.9,401.1 713.0,404.5 C 717.1,407.9 724.1,416.4 726.5,420.0 C 728.9,423.6 728.1,424.1 727.5,426.0 C 726.9,427.9 725.1,430.8 723.0,431.5 Z" />
  </g>
  <g
     inkscape:groupmode="layer"
     id="layer-l-eye"
     inkscape:label="l-eye">
    <path
       id="part-10"
       inkscape:label="part-10"
       fill="#469990"
       fill-rule="evenodd"
       fill-opacity="0.85"
       d="M 492.0,569.5 C 484.0,569.5 465.4,569.2 457.0,567.5 C 448.6,565.8 444.4,561.1 441.5,559.0 C 438.6,556.9 439.5,558.8 439.5,555.0 C 439.5,551.2 440.0,541.3 441.5,536.0 C 443.0,530.7 445.6,526.8 448.5,523.0 C 451.4,519.2 454.2,516.1 459.0,513.5 C 463.8,510.9 471.7,508.5 477.0,507.5 C 482.3,506.5 486.2,506.5 491.0,507.5 C 495.8,508.5 502.8,511.8 506.0,513.5 C 509.2,515.2 509.2,516.1 510.5,518.0 C 511.8,519.9 513.2,522.2 513.5,525.0 C 513.8,527.8 514.5,531.7 512.5,535.0 C 510.5,538.3 503.0,541.7 501.5,545.0 C 500.0,548.3 502.3,551.8 503.5,555.0 C 504.7,558.2 508.2,561.9 508.5,564.0 C 508.8,566.1 507.8,566.6 505.0,567.5 C 502.2,568.4 500.0,569.5 492.0,569.5 Z" />
  </g>
  <g
     inkscape:groupmode="layer"
     id="layer-r-eye"
     inkscape:label="r-eye">
    <path
       id="part-11"
       inkscape:label="part-11"
       fill="#dcbeff"
       fill-rule="evenodd"
       fill-opacity="0.85"
       d="M 692.0,567.5 C 686.2,567.7 677.5,568.3 672.0,567.5 C 666.5,566.7 661.8,564.2 659.0,562.5 C 656.2,560.8 656.4,560.8 655.5,557.0 C 654.6,553.2 653.3,545.3 653.5,540.0 C 653.7,534.7 654.1,529.9 656.5,525.0 C 658.9,520.1 663.1,514.1 668.0,510.5 C 672.9,506.9 680.7,504.7 686.0,503.5 C 691.3,502.3 696.5,503.0 700.0,503.5 C 703.5,504.0 704.9,504.8 707.0,506.5 C 709.1,508.2 711.6,510.9 712.5,514.0 C 713.4,517.1 712.2,522.5 712.5,525.0 C 712.8,527.5 714.3,525.2 714.5,529.0 C 714.7,532.8 712.8,543.8 713.5,548.0 C 714.2,552.2 717.3,551.8 718.5,554.0 C 719.7,556.2 722.4,558.9 720.5,561.0 C 718.6,563.1 711.8,565.4 707.0,566.5 C 702.2,567.6 697.8,567.3 692.0,567.5 Z" />
  </g>
  <g
     inkscape:groupmode="layer"
     id="layer-mouth"
     inkscape:label="mouth">
    <path
       id="part-5"
       inkscape:label="part-5"
       fill="#911eb4"
       fill-rule="evenodd"
       fill-opacity="0.85"
       d="M 606.0,746.5 C 595.5,747.8 581.3,746.8 574.0,746.5 C 566.7,746.2 567.3,745.8 562.0,744.5 C 556.7,743.2 548.5,741.0 542.0,738.5 C 535.5,736.0 528.7,732.7 523.0,729.5 C 517.3,726.3 513.4,723.9 508.0,719.5 C 502.6,715.1 494.9,708.1 490.5,703.0 C 486.1,697.9 483.0,693.0 481.5,689.0 C 480.0,685.0 480.4,681.6 481.5,679.0 C 482.6,676.4 485.6,674.4 488.0,673.5 C 490.4,672.6 489.5,670.8 496.0,673.5 C 502.5,676.2 517.5,685.3 527.0,689.5 C 536.5,693.7 544.3,696.3 553.0,698.5 C 561.7,700.7 571.0,701.8 579.0,702.5 C 587.0,703.2 594.0,703.0 601.0,702.5 C 608.0,702.0 615.0,700.8 621.0,699.5 C 627.0,698.2 627.5,699.0 637.0,694.5 C 646.5,690.0 669.7,676.2 678.0,672.5 C 686.3,668.8 684.6,671.6 687.0,672.5 C 689.4,673.4 691.6,675.4 692.5,678.0 C 693.4,680.6 693.2,685.0 692.5,688.0 C 691.8,691.0 690.8,692.5 688.5,696.0 C 686.2,699.5 682.6,704.6 678.5,709.0 C 674.4,713.4 670.9,717.6 664.0,722.5 C 657.1,727.4 646.7,734.5 637.0,738.5 C 627.3,742.5 616.5,745.2 606.0,746.5 Z" />
  </g>
  <g
     inkscape:groupmode="layer"
     id="layer-nose"
     inkscape:label="nose">
    <path
       id="part-6"
       inkscape:label="part-6"
       fill="#42d4f4"
       fill-rule="evenodd"
       fill-opacity="0.85"
       d="M 590.0,652.5 C 584.3,652.8 579.0,652.5 573.0,650.5 C 567.0,648.5 558.9,644.2 554.0,640.5 C 549.1,636.8 546.2,633.1 543.5,628.0 C 540.8,622.9 538.3,615.2 537.5,610.0 C 536.7,604.8 537.2,601.7 538.5,597.0 C 539.8,592.3 542.1,586.6 545.5,582.0 C 548.9,577.4 553.4,572.8 559.0,569.5 C 564.6,566.2 572.2,563.5 579.0,562.5 C 585.8,561.5 593.8,562.2 600.0,563.5 C 606.2,564.8 611.4,567.6 616.0,570.5 C 620.6,573.4 624.2,576.2 627.5,581.0 C 630.8,585.8 634.3,592.8 635.5,599.0 C 636.7,605.2 636.5,611.7 634.5,618.0 C 632.5,624.3 628.1,631.9 623.5,637.0 C 618.9,642.1 612.6,645.9 607.0,648.5 C 601.4,651.1 595.7,652.2 590.0,652.5 Z" />
  </g>
  <g
     inkscape:groupmode="layer"
     id="layer1"
     inkscape:label="l-top-makeup">
    <path
       id="part-21"
       inkscape:label="part-21"
       fill="#4363d8"
       fill-rule="evenodd"
       fill-opacity="0.85"
       d="M 462.0,499.5 C 459.2,499.9 454.5,506.0 457.5,498.0 C 460.5,490.0 472.7,451.5 480.0,451.5 C 487.3,451.5 502.5,490.7 501.5,498.0 C 500.5,505.3 480.6,495.2 474.0,495.5 C 467.4,495.8 464.8,499.1 462.0,499.5 Z" />
  </g>
  <g
     inkscape:groupmode="layer"
     id="layer2"
     inkscape:label="l-bottom-makeup">
    <path
       id="part-23"
       inkscape:label="part-23"
       fill="#911eb4"
       fill-rule="evenodd"
       fill-opacity="0.85"
       d="M 475.0,619.5 C 473.0,623.3 473.9,621.1 472.5,618.0 C 471.1,614.9 469.6,607.8 466.5,601.0 C 463.4,594.2 453.9,581.1 454.0,577.5 C 454.1,573.9 460.2,579.4 467.0,579.5 C 473.8,579.6 491.6,575.4 494.5,578.0 C 497.4,580.6 487.8,588.1 484.5,595.0 C 481.2,601.9 477.0,615.7 475.0,619.5 Z" />
  </g>
  <g
     inkscape:groupmode="layer"
     id="layer3"
     inkscape:label="r-top-makeup">
    <path
       id="part-22"
       inkscape:label="part-22"
       fill="#f58231"
       fill-rule="evenodd"
       fill-opacity="0.85"
       d="M 710.0,496.5 C 707.6,496.2 701.2,493.2 697.0,492.5 C 692.8,491.8 689.8,491.9 685.0,492.5 C 680.2,493.1 667.8,503.2 668.5,496.0 C 669.2,488.8 685.2,457.2 689.0,449.5 C 692.8,441.8 690.1,447.1 691.5,450.0 C 692.9,452.9 694.2,459.7 697.5,467.0 C 700.8,474.3 709.4,489.1 711.5,494.0 C 713.6,498.9 712.4,496.8 710.0,496.5 Z" />
  </g>
  <g
     inkscape:groupmode="layer"
     id="layer4"
     inkscape:label="r-bottom-makeup">
    <path
       id="part-24"
       inkscape:label="part-24"
       fill="#42d4f4"
       fill-rule="evenodd"
       fill-opacity="0.85"
       d="M 691.0,616.5 C 689.3,619.8 689.9,618.9 688.5,616.0 C 687.1,613.1 685.7,605.5 682.5,599.0 C 679.3,592.5 671.4,581.1 669.5,577.0 C 667.6,572.9 667.8,574.4 671.0,574.5 C 674.2,574.6 682.6,577.4 689.0,577.5 C 695.4,577.6 707.9,571.9 709.5,575.0 C 711.1,578.1 701.6,589.1 698.5,596.0 C 695.4,602.9 692.7,613.2 691.0,616.5 Z" />
  </g>
</svg>
