<?xml version="1.0" encoding="UTF-8" standalone="no"?>
<svg
   viewBox="0 0 1254 1254"
   width="1254"
   height="1254"
   version="1.1"
   id="svg34"
   sodipodi:docname="confused.svg"
   inkscape:version="1.2.2 (b0a8486541, 2022-12-01)"
   xmlns:inkscape="http://www.inkscape.org/namespaces/inkscape"
   xmlns:sodipodi="http://sodipodi.sourceforge.net/DTD/sodipodi-0.dtd"
   xmlns:xlink="http://www.w3.org/1999/xlink"
   xmlns="http://www.w3.org/2000/svg"
   xmlns:svg="http://www.w3.org/2000/svg"
   xmlns:sodipodi0="http://sodipodi.sourceforge.net/DTD/sodipodi-0.0.dtd">
  <defs
     id="defs38" />
  <sodipodi:namedview
     id="namedview36"
     pagecolor="#ffffff"
     bordercolor="#000000"
     borderopacity="0.25"
     inkscape:showpageshadow="2"
     inkscape:pageopacity="0.0"
     inkscape:pagecheckerboard="0"
     inkscape:deskcolor="#d1d1d1"
     showgrid="false"
     inkscape:zoom="0.77364474"
     inkscape:cx="535.12934"
     inkscape:cy="433.01529"
     inkscape:window-width="1678"
     inkscape:window-height="912"
     inkscape:window-x="0"
     inkscape:window-y="0"
     inkscape:window-maximized="1"
     inkscape:current-layer="g4" />
  <g
     inkscape:groupmode="layer"
     inkscape:label="reference (source png)"
     sodipodi0:insensitive="true"
     style="opacity:0.18"
     id="g4">
    <!-- reference image stripped; regenerate via tools/trace_png.py -->
  </g>
  <g
     inkscape:groupmode="layer"
     id="layer-traced"
     inkscape:label="traced parts">
    <path
       id="part-2"
       inkscape:label="part-2"
       fill="#3cb44b"
       fill-rule="evenodd"
       fill-opacity="0.85"
       d="M 895.0,577.5 C 894.0,577.0 892.6,577.4 891.5,572.0 C 890.4,566.6 891.4,549.8 888.5,545.0 C 885.6,540.2 877.3,544.7 874.0,543.5 C 870.7,542.3 869.4,539.8 868.5,538.0 C 867.6,536.2 867.8,534.8 868.5,533.0 C 869.2,531.2 869.8,528.7 873.0,527.5 C 876.2,526.3 885.1,552.6 887.5,526.0 C 889.9,499.4 887.8,394.6 887.5,368.0 C 887.2,341.4 903.9,366.8 886.0,366.5 C 868.1,366.2 798.4,367.2 780.0,366.5 C 761.6,365.8 776.2,363.8 775.5,362.0 C 774.8,360.2 774.6,357.9 775.5,356.0 C 776.4,354.1 762.6,351.4 781.0,350.5 C 799.4,349.6 868.2,350.8 886.0,350.5 C 903.8,350.2 887.2,371.8 887.5,349.0 C 887.8,326.2 886.6,237.4 887.5,214.0 C 888.4,190.6 891.1,209.2 893.0,208.5 C 894.9,207.8 897.2,208.6 899.0,209.5 C 900.8,210.4 902.8,190.8 903.5,214.0 C 904.2,237.2 903.2,326.2 903.5,349.0 C 903.8,371.8 877.6,350.2 905.0,350.5 C 932.4,350.8 1034.8,349.8 1068.0,350.5 C 1101.2,351.2 1096.1,353.2 1104.0,354.5 C 1111.9,355.8 1113.8,357.0 1115.5,358.0 C 1117.2,359.0 1115.6,359.8 1114.0,360.5 C 1112.4,361.2 1115.2,361.5 1106.0,362.5 C 1096.8,363.5 1092.5,365.8 1059.0,366.5 C 1025.5,367.2 930.9,366.2 905.0,366.5 C 879.1,366.8 903.9,342.1 903.5,368.0 C 903.1,393.9 902.4,495.4 902.5,522.0 C 902.6,548.6 876.9,526.6 904.0,527.5 C 931.1,528.4 1031.0,526.7 1065.0,527.5 C 1099.0,528.3 1099.6,531.1 1108.0,532.5 C 1116.4,533.9 1117.2,534.7 1115.5,536.0 C 1113.8,537.3 1107.6,539.2 1098.0,540.5 C 1088.4,541.8 1090.5,543.0 1058.0,543.5 C 1025.5,544.0 929.2,542.8 903.0,543.5 C 876.8,544.2 901.4,542.8 900.5,548.0 C 899.6,553.2 898.4,570.1 897.5,575.0 C 896.6,579.9 896.0,578.0 895.0,577.5 Z" />
    <path
       id="part-3"
       inkscape:label="part-3"
       fill="#4363d8"
       fill-rule="evenodd"
       fill-opacity="0.85"
       d="M 896.0,1005.5 C 894.5,1010.3 893.6,1006.4 892.5,1003.0 C 891.4,999.6 890.3,1000.0 889.5,985.0 C 888.7,970.0 890.4,925.2 887.5,913.0 C 884.6,900.8 875.3,912.8 872.0,911.5 C 868.7,910.2 867.5,907.5 867.5,905.0 C 867.5,902.5 868.7,898.3 872.0,896.5 C 875.3,894.7 884.9,921.9 887.5,894.0 C 890.1,866.1 887.8,756.8 887.5,729.0 C 887.2,701.2 891.9,727.8 886.0,727.5 C 880.1,727.2 858.4,728.4 852.0,727.5 C 845.6,726.6 848.2,723.6 847.5,722.0 C 846.8,720.4 846.8,719.6 847.5,718.0 C 848.2,716.4 845.6,713.4 852.0,712.5 C 858.4,711.6 880.1,712.8 886.0,712.5 C 891.9,712.2 887.2,723.9 887.5,711.0 C 887.8,698.1 886.4,648.6 887.5,635.0 C 888.6,621.4 891.8,629.9 894.0,629.5 C 896.2,629.1 899.4,631.4 901.0,632.5 C 902.6,633.6 903.1,622.9 903.5,636.0 C 903.9,649.1 903.2,698.2 903.5,711.0 C 903.8,723.8 878.2,712.2 905.0,712.5 C 931.8,712.8 1030.3,711.7 1064.0,712.5 C 1097.7,713.3 1098.4,716.1 1107.0,717.5 C 1115.6,718.9 1116.5,719.7 1115.5,721.0 C 1114.5,722.3 1110.6,724.2 1101.0,725.5 C 1091.4,726.8 1090.7,728.2 1058.0,728.5 C 1025.3,728.8 930.8,727.4 905.0,727.5 C 879.2,727.6 903.8,701.2 903.5,729.0 C 903.2,756.8 903.2,866.2 903.5,894.0 C 903.8,921.8 878.2,895.2 905.0,895.5 C 931.8,895.8 1031.2,894.8 1064.0,895.5 C 1096.8,896.2 1093.4,898.1 1102.0,899.5 C 1110.6,900.9 1116.0,902.5 1115.5,904.0 C 1115.0,905.5 1108.1,907.2 1099.0,908.5 C 1089.9,909.8 1093.3,911.0 1061.0,911.5 C 1028.7,912.0 931.2,911.2 905.0,911.5 C 878.8,911.8 904.1,902.6 903.5,913.0 C 902.9,923.4 902.8,958.6 901.5,974.0 C 900.2,989.4 897.5,1000.7 896.0,1005.5 Z" />
    <path
       id="part-4"
       inkscape:label="part-4"
       fill="#f58231"
       fill-rule="evenodd"
       fill-opacity="0.85"
       d="M 267.0,565.5 C 265.6,569.2 265.7,567.8 264.5,564.0 C 263.3,560.2 281.2,545.9 260.0,542.5 C 238.8,539.1 158.4,544.4 137.0,543.5 C 115.6,542.6 132.2,538.9 131.5,537.0 C 130.8,535.1 131.6,533.6 132.5,532.0 C 133.4,530.4 115.9,528.1 137.0,527.5 C 158.1,526.9 238.4,528.6 259.0,528.5 C 279.6,528.4 260.6,530.6 260.5,527.0 C 260.4,523.4 258.8,533.5 258.5,507.0 C 258.2,480.5 258.8,391.4 258.5,368.0 C 258.2,344.6 277.8,366.8 257.0,366.5 C 236.2,366.2 155.4,367.9 134.0,366.5 C 112.6,365.1 128.7,360.7 128.5,358.0 C 128.3,355.3 111.6,351.8 133.0,350.5 C 154.4,349.2 236.1,350.8 257.0,350.5 C 277.9,350.2 258.2,374.9 258.5,349.0 C 258.8,323.1 257.4,221.8 258.5,195.0 C 259.6,168.2 263.1,189.4 265.0,188.5 C 266.9,187.6 268.4,188.6 270.0,189.5 C 271.6,190.4 273.8,167.4 274.5,194.0 C 275.2,220.6 274.2,322.9 274.5,349.0 C 274.8,375.1 260.6,350.2 276.0,350.5 C 291.4,350.8 345.3,349.8 367.0,350.5 C 388.7,351.2 397.1,353.2 406.0,354.5 C 414.9,355.8 418.1,357.1 420.5,358.0 C 422.9,358.9 421.1,359.4 420.5,360.0 C 419.9,360.6 423.1,360.6 417.0,361.5 C 410.9,362.4 407.5,364.7 384.0,365.5 C 360.5,366.3 294.2,366.1 276.0,366.5 C 257.8,366.9 274.8,343.2 274.5,368.0 C 274.2,392.8 274.8,488.3 274.5,515.0 C 274.2,541.7 271.9,525.4 272.5,528.0 C 273.1,530.6 273.4,529.8 278.0,530.5 C 282.6,531.2 295.2,531.6 300.0,532.5 C 304.8,533.4 307.0,534.8 306.5,536.0 C 306.0,537.2 302.6,538.6 297.0,539.5 C 291.4,540.4 278.0,537.2 273.0,541.5 C 268.0,545.8 268.4,561.8 267.0,565.5 Z" />
    <path
       id="part-5"
       inkscape:label="part-5"
       fill="#911eb4"
       fill-rule="evenodd"
       fill-opacity="0.85"
       d="M 342.0,907.5 C 337.8,908.2 334.5,908.2 331.0,907.5 C 327.5,906.8 325.6,906.9 321.0,903.5 C 316.4,900.1 309.1,895.1 303.5,887.0 C 297.9,878.9 292.6,868.2 287.5,855.0 C 282.4,841.8 274.8,815.3 273.0,807.5 C 271.2,799.7 274.8,806.1 276.5,808.0 C 278.2,809.9 281.8,815.2 283.5,819.0 C 285.2,822.8 285.0,828.0 286.5,831.0 C 288.0,834.0 291.7,835.5 292.5,837.0 C 293.3,838.5 290.8,838.3 291.5,840.0 C 292.2,841.7 295.8,845.3 296.5,847.0 C 297.2,848.7 294.9,848.8 295.5,850.0 C 296.1,851.2 298.8,853.8 300.0,854.5 C 301.2,855.2 301.2,852.1 302.5,854.0 C 303.8,855.9 303.6,860.9 307.5,866.0 C 311.4,871.1 322.1,880.9 326.0,884.5 C 329.9,888.1 328.8,887.0 331.0,887.5 C 333.2,888.0 334.5,889.0 339.0,887.5 C 343.5,886.0 350.7,883.0 358.0,878.5 C 365.3,874.0 372.8,869.8 383.0,860.5 C 393.2,851.2 410.3,830.2 419.0,822.5 C 427.7,814.8 430.9,817.4 435.0,814.5 C 439.1,811.6 442.2,806.9 443.5,805.0 C 444.8,803.1 440.2,805.8 442.5,803.0 C 444.8,800.2 453.6,791.4 457.0,788.5 C 460.4,785.6 461.0,786.0 463.0,785.5 C 465.0,785.0 467.1,784.9 469.0,785.5 C 470.9,786.1 473.4,786.9 474.5,789.0 C 475.6,791.1 477.7,793.2 475.5,798.0 C 473.3,802.8 473.1,805.8 461.5,818.0 C 449.9,830.2 420.6,858.8 406.0,871.5 C 391.4,884.2 382.3,889.2 374.0,894.5 C 365.7,899.8 361.3,901.3 356.0,903.5 C 350.7,905.7 346.2,906.8 342.0,907.5 Z" />
    <path
       id="part-6"
       inkscape:label="part-6"
       fill="#42d4f4"
       fill-rule="evenodd"
       fill-opacity="0.85"
       d="M 819.0,948.5 C 818.0,947.7 815.7,942.0 815.5,941.0 C 815.3,940.0 817.3,942.7 818.0,942.5 C 818.7,942.3 820.2,941.4 819.5,940.0 C 818.8,938.6 814.7,935.8 813.5,934.0 C 812.3,932.2 814.2,931.3 812.5,929.0 C 810.8,926.7 804.8,922.0 803.5,920.0 C 802.2,918.0 804.6,917.8 804.5,917.0 C 804.4,916.2 803.8,915.5 803.0,915.5 C 802.2,915.5 800.6,918.1 799.5,917.0 C 798.4,915.9 798.8,912.0 796.5,909.0 C 794.2,906.0 793.8,909.8 785.5,899.0 C 777.2,888.2 755.5,855.8 746.5,844.0 C 737.5,832.2 734.8,833.7 731.5,828.0 C 728.2,822.3 728.7,814.0 726.5,810.0 C 724.3,806.0 720.7,806.5 718.5,804.0 C 716.3,801.5 714.2,798.0 713.5,795.0 C 712.8,792.0 713.2,788.6 714.5,786.0 C 715.8,783.4 718.6,780.4 721.0,779.5 C 723.4,778.6 725.4,777.9 729.0,780.5 C 732.6,783.1 739.2,790.4 742.5,795.0 C 745.8,799.6 744.2,801.5 748.5,808.0 C 752.8,814.5 759.8,820.8 768.5,834.0 C 777.2,847.2 791.2,869.5 800.5,887.0 C 809.8,904.5 820.8,929.6 824.5,939.0 C 828.2,948.4 823.6,943.1 823.0,943.5 C 822.4,943.9 821.6,941.6 821.0,941.5 C 820.4,941.4 819.4,942.2 819.5,943.0 C 819.6,943.8 821.6,945.1 821.5,946.0 C 821.4,946.9 820.0,949.3 819.0,948.5 Z" />
    <path
       id="part-9"
       inkscape:label="part-9"
       fill="#fabed4"
       fill-rule="evenodd"
       fill-opacity="0.85"
       d="M 718.0,961.5 C 716.7,960.2 712.6,954.8 711.5,952.0 C 710.4,949.2 712.0,946.7 711.5,945.0 C 711.0,943.3 708.8,943.0 708.5,942.0 C 708.2,941.0 709.8,939.8 709.5,939.0 C 709.2,938.2 706.7,938.0 706.5,937.0 C 706.3,936.0 708.8,934.2 708.5,933.0 C 708.2,931.8 705.3,932.0 704.5,930.0 C 703.7,928.0 704.5,923.8 703.5,921.0 C 702.5,918.2 701.0,921.5 698.5,913.0 C 696.0,904.5 690.5,880.5 688.5,870.0 C 686.5,859.5 687.7,855.7 686.5,850.0 C 685.3,844.3 682.3,840.2 681.5,836.0 C 680.7,831.8 681.0,827.8 681.5,825.0 C 682.0,822.2 684.0,821.0 684.5,819.0 C 685.0,817.0 685.0,814.7 684.5,813.0 C 684.0,811.3 682.0,811.7 681.5,809.0 C 681.0,806.3 680.8,799.9 681.5,797.0 C 682.2,794.1 684.1,792.9 686.0,791.5 C 687.9,790.1 690.6,788.4 693.0,788.5 C 695.4,788.6 698.4,788.8 700.5,792.0 C 702.6,795.2 704.7,801.7 705.5,808.0 C 706.3,814.3 704.7,822.8 705.5,830.0 C 706.3,837.2 709.5,843.5 710.5,851.0 C 711.5,858.5 710.2,862.8 711.5,875.0 C 712.8,887.2 717.2,909.8 718.5,924.0 C 719.8,938.2 719.6,953.8 719.5,960.0 C 719.4,966.2 719.3,962.8 718.0,961.5 Z" />
    <path
       id="part-10"
       inkscape:label="part-10"
       fill="#469990"
       fill-rule="evenodd"
       fill-opacity="0.85"
       d="M 267.0,978.5 C 265.8,981.3 265.2,978.6 264.5,977.0 C 263.8,975.4 263.8,980.4 262.5,969.0 C 261.2,957.6 263.6,918.1 257.0,908.5 C 250.4,898.9 241.7,911.0 223.0,911.5 C 204.3,912.0 158.8,912.4 145.0,911.5 C 131.2,910.6 141.2,907.9 140.5,906.0 C 139.8,904.1 139.8,901.8 140.5,900.0 C 141.2,898.2 130.6,896.2 145.0,895.5 C 159.4,894.8 208.3,895.0 227.0,895.5 C 245.7,896.0 251.8,898.2 257.0,898.5 C 262.2,898.8 258.2,901.1 258.5,897.0 C 258.8,892.9 257.2,878.9 258.5,874.0 C 259.8,869.1 264.1,868.4 266.0,867.5 C 267.9,866.6 268.6,867.6 270.0,868.5 C 271.4,869.4 273.8,867.8 274.5,873.0 C 275.2,878.2 273.8,894.7 274.5,900.0 C 275.2,905.3 278.5,903.8 278.5,905.0 C 278.5,906.2 275.7,897.8 274.5,907.0 C 273.3,916.2 272.8,948.1 271.5,960.0 C 270.2,971.9 268.2,975.7 267.0,978.5 Z" />
    <path
       id="part-12"
       inkscape:label="part-12"
       fill="#9A6324"
       fill-rule="evenodd"
       fill-opacity="0.85"
       d="M 466.0,330.5 C 465.0,331.8 464.2,330.8 463.5,329.0 C 462.8,327.2 462.3,327.7 461.5,320.0 C 460.7,312.3 459.0,304.7 458.5,283.0 C 458.0,261.3 457.4,206.2 458.5,190.0 C 459.6,173.8 463.1,186.1 465.0,185.5 C 466.9,184.9 468.4,185.4 470.0,186.5 C 471.6,187.6 473.8,177.8 474.5,192.0 C 475.2,206.2 475.3,250.5 474.5,272.0 C 473.7,293.5 470.9,311.2 469.5,321.0 C 468.1,330.8 467.0,329.2 466.0,330.5 Z" />
    <path
       id="part-15"
       inkscape:label="part-15"
       fill="#000075"
       fill-rule="evenodd"
       fill-opacity="0.85"
       d="M 671.0,326.5 C 670.0,327.8 669.2,326.1 668.5,324.0 C 667.8,321.9 667.3,321.7 666.5,314.0 C 665.7,306.3 664.0,297.2 663.5,278.0 C 663.0,258.8 662.8,212.9 663.5,199.0 C 664.2,185.1 666.1,195.1 668.0,194.5 C 669.9,193.9 673.2,194.8 675.0,195.5 C 676.8,196.2 677.8,197.6 678.5,199.0 C 679.2,200.4 679.3,192.7 679.5,204.0 C 679.7,215.3 680.3,248.3 679.5,267.0 C 678.7,285.7 675.9,306.1 674.5,316.0 C 673.1,325.9 672.0,325.2 671.0,326.5 Z" />
    <path
       id="part-16"
       inkscape:label="part-16"
       fill="#a9a9a9"
       fill-rule="evenodd"
       fill-opacity="0.85"
       d="M 261.0,724.5 C 255.0,724.7 248.5,722.8 242.0,720.5 C 235.5,718.2 225.9,713.2 222.0,710.5 C 218.1,707.8 220.2,706.1 218.5,704.0 C 216.8,701.9 212.3,699.8 211.5,698.0 C 210.7,696.2 215.5,695.2 213.5,693.0 C 211.5,690.8 201.7,688.0 199.5,685.0 C 197.3,682.0 197.2,678.4 200.5,675.0 C 203.8,671.6 214.1,666.1 219.0,664.5 C 223.9,662.9 226.5,665.7 230.0,665.5 C 233.5,665.3 237.8,663.1 240.0,663.5 C 242.2,663.9 243.3,666.3 243.5,668.0 C 243.7,669.7 244.6,672.1 241.0,673.5 C 237.4,674.9 226.2,675.2 222.0,676.5 C 217.8,677.8 215.0,679.7 215.5,681.0 C 216.0,682.3 220.4,683.4 225.0,684.5 C 229.6,685.6 237.2,687.0 243.0,687.5 C 248.8,688.0 256.5,687.2 260.0,687.5 C 263.5,687.8 263.7,688.8 264.0,689.5 C 264.3,690.2 264.7,691.3 262.0,691.5 C 259.3,691.7 251.2,690.2 248.0,690.5 C 244.8,690.8 246.9,692.8 243.0,693.5 C 239.1,694.2 226.2,693.5 224.5,695.0 C 222.8,696.5 227.8,699.2 233.0,702.5 C 238.2,705.8 249.5,712.0 256.0,714.5 C 262.5,717.0 267.8,717.7 272.0,717.5 C 276.2,717.3 278.9,714.1 281.0,713.5 C 283.1,712.9 285.0,713.0 284.5,714.0 C 284.0,715.0 281.9,717.8 278.0,719.5 C 274.1,721.2 267.0,724.3 261.0,724.5 Z" />
    <path
       id="part-17"
       inkscape:label="part-17"
       fill="#e07b00"
       fill-rule="evenodd"
       fill-opacity="0.85"
       d="M 173.0,728.5 C 162.3,729.0 131.8,729.1 123.0,728.5 C 114.2,727.9 120.9,727.1 120.5,725.0 C 120.1,722.9 120.1,718.1 120.5,716.0 C 120.9,713.9 113.8,713.1 123.0,712.5 C 132.2,711.9 165.5,712.0 176.0,712.5 C 186.5,713.0 183.1,714.1 186.0,715.5 C 188.9,716.9 193.3,719.3 193.5,721.0 C 193.7,722.7 190.4,724.2 187.0,725.5 C 183.6,726.8 183.7,728.0 173.0,728.5 Z" />
    <path
       id="part-18"
       inkscape:label="part-18"
       fill="#00a86b"
       fill-rule="evenodd"
       fill-opacity="0.85"
       d="M 345.0,728.5 C 334.3,729.0 312.1,728.9 305.0,728.5 C 297.9,728.1 302.9,728.1 302.5,726.0 C 302.1,723.9 302.1,718.2 302.5,716.0 C 302.9,713.8 295.9,713.1 305.0,712.5 C 314.1,711.9 345.4,711.4 357.0,712.5 C 368.6,713.6 371.6,717.4 374.5,719.0 C 377.4,720.6 375.4,720.9 374.5,722.0 C 373.6,723.1 373.9,724.4 369.0,725.5 C 364.1,726.6 355.7,728.0 345.0,728.5 Z" />
    <path
       id="part-19"
       inkscape:label="part-19"
       fill="#e6194B"
       fill-rule="evenodd"
       fill-opacity="0.85"
       d="M 262.0,674.5 C 260.6,674.9 257.4,674.9 256.0,674.5 C 254.6,674.1 253.9,673.6 253.5,672.0 C 253.1,670.4 252.8,667.5 253.5,665.0 C 254.2,662.5 256.2,661.7 257.5,657.0 C 258.8,652.3 260.7,646.5 261.5,637.0 C 262.3,627.5 262.1,606.2 262.5,600.0 C 262.9,593.8 262.5,595.8 264.0,599.5 C 265.5,603.2 270.2,614.4 271.5,622.0 C 272.8,629.6 271.7,639.0 271.5,645.0 C 271.3,651.0 271.7,654.5 270.5,658.0 C 269.3,661.5 265.5,663.7 264.5,666.0 C 263.5,668.3 264.9,670.6 264.5,672.0 C 264.1,673.4 263.4,674.1 262.0,674.5 Z" />
    <path
       id="part-20"
       inkscape:label="part-20"
       fill="#3cb44b"
       fill-rule="evenodd"
       fill-opacity="0.85"
       d="M 250.0,747.5 C 245.8,748.2 243.2,748.7 239.0,747.5 C 234.8,746.3 229.1,743.6 225.0,740.5 C 220.9,737.4 216.2,731.9 214.5,729.0 C 212.8,726.1 215.2,724.8 214.5,723.0 C 213.8,721.2 210.8,719.7 210.5,718.0 C 210.2,716.3 210.9,714.1 212.5,713.0 C 214.1,711.9 218.0,710.0 220.0,711.5 C 222.0,713.0 221.2,717.7 224.5,722.0 C 227.8,726.3 235.4,734.2 240.0,737.5 C 244.6,740.8 248.3,741.0 252.0,741.5 C 255.7,742.0 259.9,740.2 262.0,740.5 C 264.1,740.8 266.5,741.8 264.5,743.0 C 262.5,744.2 254.2,746.8 250.0,747.5 Z" />
    <path
       id="part-21"
       inkscape:label="part-21"
       fill="#4363d8"
       fill-rule="evenodd"
       fill-opacity="0.85"
       d="M 848.0,528.5 C 846.0,523.3 840.8,501.2 835.5,488.0 C 830.2,474.8 816.3,451.7 816.0,449.5 C 815.7,447.3 828.2,463.4 833.5,475.0 C 838.8,486.6 845.1,510.1 847.5,519.0 C 849.9,527.9 850.0,533.7 848.0,528.5 Z" />
  </g>
  <g
     inkscape:groupmode="layer"
     id="layer-head"
     inkscape:label="head">
    <path
       id="part-1"
       inkscape:label="part-1"
       fill="#e6194B"
       fill-rule="evenodd"
       fill-opacity="0.85"
       d="M 472.0,953.5 C 471.7,952.5 469.3,943.5 469.5,942.0 C 469.7,940.5 472.2,944.5 473.0,944.5 C 473.8,944.5 474.8,943.4 474.5,942.0 C 474.2,940.6 471.8,938.2 471.5,936.0 C 471.2,933.8 472.8,931.5 472.5,929.0 C 472.2,926.5 469.7,923.2 469.5,921.0 C 469.3,918.8 471.7,917.3 471.5,916.0 C 471.3,914.7 468.8,914.8 468.5,913.0 C 468.2,911.2 469.8,907.8 469.5,905.0 C 469.2,902.2 466.7,904.0 466.5,896.0 C 466.3,888.0 467.2,867.7 468.5,857.0 C 469.8,846.3 473.3,839.0 474.5,832.0 C 475.7,825.0 473.7,820.0 475.5,815.0 C 477.3,810.0 484.0,805.5 485.5,802.0 C 487.0,798.5 484.2,796.5 484.5,794.0 C 484.8,791.5 485.7,789.2 487.5,787.0 C 489.3,784.8 503.6,786.1 495.5,781.0 C 487.4,775.9 454.9,764.9 439.0,756.5 C 423.1,748.1 412.6,740.8 400.0,730.5 C 387.4,720.2 373.1,705.9 363.5,695.0 C 353.9,684.1 349.0,676.5 342.5,665.0 C 336.0,653.5 329.2,639.5 324.5,626.0 C 319.8,612.5 316.2,599.2 314.5,584.0 C 312.8,568.8 312.5,551.3 314.5,535.0 C 316.5,518.7 321.3,500.5 326.5,486.0 C 331.7,471.5 340.2,457.5 345.5,448.0 C 350.8,438.5 352.6,436.4 358.5,429.0 C 364.4,421.6 370.1,413.4 381.0,403.5 C 391.9,393.6 409.0,379.2 424.0,369.5 C 439.0,359.8 455.7,351.8 471.0,345.5 C 486.3,339.2 499.8,335.0 516.0,331.5 C 532.2,328.0 554.2,325.7 568.0,324.5 C 581.8,323.3 592.7,324.0 599.0,324.5 C 605.3,325.0 601.5,327.2 606.0,327.5 C 610.5,327.8 613.3,324.5 626.0,326.5 C 638.7,328.5 668.0,335.5 682.0,339.5 C 696.0,343.5 700.5,346.2 710.0,350.5 C 719.5,354.8 727.8,358.5 739.0,365.5 C 750.2,372.5 767.6,385.1 777.0,392.5 C 786.4,399.9 789.6,403.8 795.5,410.0 C 801.4,416.2 806.5,421.8 812.5,430.0 C 818.5,438.2 827.7,452.5 831.5,459.0 C 835.3,465.5 835.5,467.5 835.5,469.0 C 835.5,470.5 833.8,471.0 831.5,468.0 C 829.2,465.0 825.8,457.2 821.5,451.0 C 817.2,444.8 815.4,441.4 805.5,431.0 C 795.6,420.6 774.9,398.4 762.0,388.5 C 749.1,378.6 734.5,375.2 728.0,371.5 C 721.5,367.8 729.8,369.7 723.0,366.5 C 716.2,363.3 693.5,354.5 687.0,352.5 C 680.5,350.5 685.2,354.3 684.0,354.5 C 682.8,354.7 680.4,354.1 680.0,353.5 C 679.6,352.9 681.7,351.8 681.5,351.0 C 681.3,350.2 681.1,349.4 679.0,348.5 C 676.9,347.6 672.7,346.2 669.0,345.5 C 665.3,344.8 659.5,344.3 657.0,344.5 C 654.5,344.7 654.7,346.7 654.0,346.5 C 653.3,346.3 654.0,343.7 653.0,343.5 C 652.0,343.3 649.2,345.5 648.0,345.5 C 646.8,345.5 652.8,344.7 646.0,343.5 C 639.2,342.3 618.3,339.3 607.0,338.5 C 595.7,337.7 588.7,337.7 578.0,338.5 C 567.3,339.3 555.8,340.8 543.0,343.5 C 530.2,346.2 513.0,350.8 501.0,354.5 C 489.0,358.2 480.8,361.2 471.0,365.5 C 461.2,369.8 452.2,374.2 442.0,380.5 C 431.8,386.8 419.9,395.1 410.0,403.5 C 400.1,411.9 390.9,420.9 382.5,431.0 C 374.1,441.1 365.3,454.0 359.5,464.0 C 353.7,474.0 351.2,480.2 347.5,491.0 C 343.8,501.8 339.5,517.3 337.5,529.0 C 335.5,540.7 335.0,549.3 335.5,561.0 C 336.0,572.7 338.0,587.5 340.5,599.0 C 343.0,610.5 345.5,619.0 350.5,630.0 C 355.5,641.0 363.5,654.7 370.5,665.0 C 377.5,675.3 384.4,683.6 392.5,692.0 C 400.6,700.4 408.2,707.8 419.0,715.5 C 429.8,723.2 443.0,731.7 457.0,738.5 C 471.0,745.3 488.3,751.8 503.0,756.5 C 517.7,761.2 528.5,763.5 545.0,766.5 C 561.5,769.5 586.7,773.2 602.0,774.5 C 617.3,775.8 624.2,775.7 637.0,774.5 C 649.8,773.3 670.7,769.5 679.0,767.5 C 687.3,765.5 681.0,764.7 687.0,762.5 C 693.0,760.3 705.0,758.5 715.0,754.5 C 725.0,750.5 734.5,746.0 747.0,738.5 C 759.5,731.0 781.7,714.8 790.0,709.5 C 798.3,704.2 795.1,706.8 797.0,706.5 C 798.9,706.2 800.9,706.8 801.5,708.0 C 802.1,709.2 802.2,710.7 800.5,714.0 C 798.8,717.3 795.8,722.9 791.5,728.0 C 787.2,733.1 780.2,739.9 775.0,744.5 C 769.8,749.1 768.5,750.3 760.0,755.5 C 751.5,760.7 735.8,770.2 724.0,775.5 C 712.2,780.8 704.0,784.0 689.0,787.5 C 674.0,791.0 651.2,795.0 634.0,796.5 C 616.8,798.0 601.7,797.3 586.0,796.5 C 570.3,795.7 552.7,793.5 540.0,791.5 C 527.3,789.5 515.4,782.8 510.0,784.5 C 504.6,786.2 509.2,795.9 507.5,802.0 C 505.8,808.1 501.3,814.2 499.5,821.0 C 497.7,827.8 498.3,834.7 496.5,843.0 C 494.7,851.3 491.5,854.2 488.5,871.0 C 485.5,887.8 481.3,931.2 478.5,944.0 C 475.7,956.8 472.6,946.4 471.5,948.0 C 470.4,949.6 472.3,954.5 472.0,953.5 Z" />
  </g>
  <g
     inkscape:groupmode="layer"
     id="layer-l-brow"
     inkscape:label="l-brow">
    <path
       id="part-13"
       inkscape:label="part-13"
       fill="#800000"
       fill-rule="evenodd"
       fill-opacity="0.85"
       d="M 448.0,485.5 C 439.7,486.8 434.2,486.1 429.0,484.5 C 423.8,482.9 418.6,478.2 416.5,476.0 C 414.4,473.8 416.1,472.2 416.5,471.0 C 416.9,469.8 416.1,468.8 419.0,468.5 C 421.9,468.2 428.7,470.2 434.0,469.5 C 439.3,468.8 445.3,466.7 451.0,464.5 C 456.7,462.3 462.3,460.2 468.0,456.5 C 473.7,452.8 481.7,444.7 485.0,442.5 C 488.3,440.3 485.8,444.3 488.0,443.5 C 490.2,442.7 495.2,438.4 498.0,437.5 C 500.8,436.6 503.6,436.9 504.5,438.0 C 505.4,439.1 503.4,442.8 503.5,444.0 C 503.6,445.2 504.3,445.5 505.0,445.5 C 505.7,445.5 507.4,442.9 507.5,444.0 C 507.6,445.1 507.8,449.0 505.5,452.0 C 503.2,455.0 496.4,458.9 493.5,462.0 C 490.6,465.1 490.4,468.1 488.0,470.5 C 485.6,472.9 485.7,474.0 479.0,476.5 C 472.3,479.0 456.3,484.2 448.0,485.5 Z" />
  </g>
  <g
     inkscape:groupmode="layer"
     id="layer-r-brow"
     inkscape:label="r-brow">
    <path
       id="part-14"
       inkscape:label="part-14"
       fill="#808000"
       fill-rule="evenodd"
       fill-opacity="0.85"
       d="M 736.0,468.5 C 734.8,468.8 733.8,470.0 731.0,467.5 C 728.2,465.0 723.3,457.3 719.0,453.5 C 714.7,449.7 709.2,446.7 705.0,444.5 C 700.8,442.3 698.5,441.0 694.0,440.5 C 689.5,440.0 681.8,442.0 678.0,441.5 C 674.2,441.0 673.8,438.2 671.0,437.5 C 668.2,436.8 663.2,437.9 661.0,437.5 C 658.8,437.1 658.1,436.4 657.5,435.0 C 656.9,433.6 657.8,430.3 657.5,429.0 C 657.2,427.7 653.9,428.8 655.5,427.0 C 657.1,425.2 661.9,420.2 667.0,418.5 C 672.1,416.8 681.0,416.7 686.0,416.5 C 691.0,416.3 692.5,416.0 697.0,417.5 C 701.5,419.0 707.4,421.8 713.0,425.5 C 718.6,429.2 727.6,437.1 730.5,440.0 C 733.4,442.9 729.7,441.5 730.5,443.0 C 731.3,444.5 734.2,446.3 735.5,449.0 C 736.8,451.7 738.0,456.2 738.5,459.0 C 739.0,461.8 738.9,464.4 738.5,466.0 C 738.1,467.6 737.2,468.2 736.0,468.5 Z" />
  </g>
  <g
     inkscape:groupmode="layer"
     id="layer-l-eye"
     inkscape:label="l-eye">
    <path
       id="part-8"
       inkscape:label="part-8"
       fill="#bfef45"
       fill-rule="evenodd"
       fill-opacity="0.85"
       d="M 487.0,574.5 C 483.3,575.3 481.8,575.2 478.0,574.5 C 474.2,573.8 467.6,572.4 464.0,570.5 C 460.4,568.6 458.2,565.4 456.5,563.0 C 454.8,560.6 454.0,559.3 453.5,556.0 C 453.0,552.7 452.0,549.3 453.5,543.0 C 455.0,536.7 459.8,523.6 462.5,518.0 C 465.2,512.4 467.2,511.6 470.0,509.5 C 472.8,507.4 475.7,506.2 479.0,505.5 C 482.3,504.8 486.0,504.5 490.0,505.5 C 494.0,506.5 499.6,508.8 503.0,511.5 C 506.4,514.2 508.8,517.9 510.5,522.0 C 512.2,526.1 513.3,530.8 513.5,536.0 C 513.7,541.2 512.7,548.5 511.5,553.0 C 510.3,557.5 508.4,560.2 506.5,563.0 C 504.6,565.8 503.2,567.6 500.0,569.5 C 496.8,571.4 490.7,573.7 487.0,574.5 Z" />
  </g>
  <g
     inkscape:groupmode="layer"
     id="layer-r-eye"
     inkscape:label="r-eye">
    <path
       id="part-7"
       inkscape:label="part-7"
       fill="#f032e6"
       fill-rule="evenodd"
       fill-opacity="0.85"
       d="M 686.0,566.5 C 680.5,566.5 669.1,564.4 664.0,562.5 C 658.9,560.6 657.6,557.9 655.5,555.0 C 653.4,552.1 652.2,549.5 651.5,545.0 C 650.8,540.5 651.0,533.0 651.5,528.0 C 652.0,523.0 653.3,518.5 654.5,515.0 C 655.7,511.5 656.6,509.6 658.5,507.0 C 660.4,504.4 663.1,501.4 666.0,499.5 C 668.9,497.6 672.5,496.2 676.0,495.5 C 679.5,494.8 683.2,494.5 687.0,495.5 C 690.8,496.5 696.1,499.4 699.0,501.5 C 701.9,503.6 702.8,503.8 704.5,508.0 C 706.2,512.2 708.8,520.8 709.5,527.0 C 710.2,533.2 709.5,540.2 708.5,545.0 C 707.5,549.8 705.4,553.1 703.5,556.0 C 701.6,558.9 699.9,560.8 697.0,562.5 C 694.1,564.2 691.5,566.5 686.0,566.5 Z" />
  </g>
  <g
     inkscape:groupmode="layer"
     id="layer-mouth"
     inkscape:label="mouth">
    <path
       id="part-11"
       inkscape:label="part-11"
       fill="#dcbeff"
       fill-rule="evenodd"
       fill-opacity="0.85"
       d="M 571.0,714.5 C 565.0,716.5 563.6,714.4 561.0,713.5 C 558.4,712.6 556.9,710.8 555.5,709.0 C 554.1,707.2 553.0,705.3 552.5,703.0 C 552.0,700.7 551.3,698.8 552.5,695.0 C 553.7,691.2 556.1,684.6 559.5,680.0 C 562.9,675.4 568.4,670.6 573.0,667.5 C 577.6,664.4 581.5,662.7 587.0,661.5 C 592.5,660.3 599.5,659.5 606.0,660.5 C 612.5,661.5 620.9,664.6 626.0,667.5 C 631.1,670.4 634.6,674.2 636.5,678.0 C 638.4,681.8 638.6,686.6 637.5,690.0 C 636.4,693.4 636.8,696.6 630.0,698.5 C 623.2,700.4 606.8,698.8 597.0,701.5 C 587.2,704.2 577.0,712.5 571.0,714.5 Z" />
  </g>
</svg>
