<svg xmlns="http://www.w3.org/2000/svg" xmlns:inkscape="http://www.inkscape.org/namespaces/inkscape" xmlns:sodipodi="http://sodipodi.sourceforge.net/DTD/sodipodi-0.0.dtd" xmlns:xlink="http://www.w3.org/1999/xlink" viewBox="250.23 154.54 309.67 353.95" width="310" height="354">
  <g inkscape:groupmode="layer" inkscape:label="marduk-happy (align to this)" sodipodi:insensitive="true" style="opacity:0.5">
    
   <path fill="#081C1A" d="M526.963,274.054c-0.303-1.171,0.854-1.047,0.25-3.387c-1.297-5.493-2.953-10.005-4.713-14.919        c-1.047-2.127-1.268-6.115-2.568-8.178c-0.336-0.623-0.734-1.366-1.193-2.16c-0.498-0.773-1.039-1.609-1.588-2.457        c-1.059-1.706-2.354-3.33-3.348-4.604c-0.979-1.287-1.828-2.124-2.072-2.253c-0.27-0.111,0.109,0.457,1.199,2.234        c3.414,5.275,5.748,9.93,7.727,14.55c1.045,2.293,1.824,4.644,2.701,7.046c0.721,2.447,1.537,4.956,2.102,7.727        c0.645,2.215,1.008,4.466,1.486,6.698c0.215,1.12,0.336,2.251,0.508,3.379c0.162,1.128,0.352,2.258,0.416,3.399        c0.479,4.555,0.537,9.192,0.215,13.965c-0.121,1.333-0.279,2.618-0.533,3.868c-0.232,1.253-0.453,2.487-0.773,3.706        c0.461-1.582,0.746-3.221,1.129-4.903c0.301-1.693,0.627-3.448,0.85-5.31c0.355-2.45,0.205-5.202-0.191-8.251        c-0.234-1.524-0.434-3.128-0.711-4.815C527.514,277.707,527.281,275.927,526.963,274.054z" id="path284" />
   <path fill="#081C1A" d="M520.225,242.4c-7.707-14.551-18.338-26.282-30.285-35.509c-1.068-0.516-1.871-0.791-3.047-1.821        c-0.818-0.878-1.758-1.614-2.688-2.344l-2.738-1.861c-0.938-0.58-1.873-1.158-2.803-1.734        c-0.672-0.371-1.352-0.745-2.041-1.125c-0.01-0.004-0.043-0.019-0.059-0.025c-1.15-0.483-0.91-0.155-0.324,0.355        c0.682,0.524,1.27,1.065,1.766,1.533c-0.316-0.296-1.197-1.027-1.766-1.533c-0.84-0.621-1.799-1.273-2.959-1.979        c-1.775-0.939-3.711-1.767-5.623-2.796c2.219,0.951,4.115,1.827,5.623,2.796c1.145,0.564,2.242,1.106,3.342,1.649        c0.32,0.152,0.639,0.305,0.973,0.464c-4.344-2.561-8.771-4.942-13.369-6.971c-1.074-0.431-2.098-0.842-2.934-1.178        c-1.727-0.583-3.447-1.166-4.975-1.766c-1.535-0.577-2.902-1.105-3.881-1.733c-0.842-0.283-1.688-0.611-2.557-0.874        c0.152,0.078,0.316,0.163,0.471,0.243c-0.375-0.152-0.688-0.28-0.943-0.384c-1.818-0.535-3.629-1.126-5.471-1.618        c-1.848-0.464-3.695-0.962-5.559-1.402c-1.234-0.129-2.488-0.26-3.752-0.392l-1.895-0.206l-1.906-0.152        c0,0-1.641-0.631-2.447-0.941c-1.061,0.102-2.553,0.105-4.285,0.029c2.008,0.524,3.795,1.17,5.473,1.671        c2.412,0.882,5.801-0.143,8.541,1.478c-2.74-1.621-6.129-0.595-8.541-1.478c-1.678-0.5-3.465-1.146-5.473-1.671        c-1.799-0.093-3.842-0.343-5.917-0.534c-2.071-0.225-4.157-0.579-6.03-0.856c2.344-0.23,4.497-0.024,6.482,0.213        c1.99,0.219,3.793,0.724,5.465,1.177c1.732,0.077,3.225,0.073,4.285-0.029c0.807,0.31,2.447,0.941,2.447,0.941l1.906,0.152        l1.895,0.206c1.264,0.131,2.518,0.262,3.752,0.392c-7.281-1.692-14.785-2.767-22.497-3.282        c-24.793-1.666-49.17,2.982-70.947,13.708c-5.426,2.711-10.725,5.737-15.765,9.224c-5.033,3.493-9.854,7.358-14.392,11.622        c-9.069,8.523-16.9,18.769-22.726,30.517c-6.308,12.727-9.684,26.652-9.936,40.482c-0.245,13.838,2.614,27.544,8.033,39.997        c5.405,12.433,13.301,23.416,22.701,32.508c9.384,9.131,20.14,16.573,31.714,22.304c5.777,2.886,11.749,5.401,17.903,7.446        c6.148,2.053,12.433,3.814,18.867,5.091c6.435,1.272,12.984,2.219,19.649,2.774c3.324,0.199,6.717,0.463,10.028,0.508        c1.669,0.045,3.342,0.09,5.019,0.136c1.686,0,3.377,0,5.072,0c10.391-0.051,25.499-1.689,39.959-6.543l2.699-0.922        c0.902-0.295,1.793-0.62,2.666-0.997c1.754-0.725,3.51-1.42,5.223-2.164c1.688-0.818,3.354-1.628,4.996-2.424        c1.635-0.808,3.174-1.763,4.713-2.614c6.064-3.582,11.293-7.409,15.18-10.898c2.561-2.398,4.305-4.656,5.707-6.444        c0.346-0.452,0.67-0.876,0.959-1.286c0.264-0.428,0.512-0.827,0.742-1.205c0.451-0.757,0.811-1.424,1.092-2.012        c1.125-2.343,1.006-3.394,0.346-3.763c-1.334-0.722-4.76,1.198-5.258,1.553c-1.67,1.186-3.408,2.184-4.992,3.294        c-1.561,1.138-3.188,2.161-4.781,3.256c-0.791,0.556-1.586,1.113-2.389,1.682c-0.828,0.538-1.666,1.085-2.521,1.64        c-0.854,0.554-1.686,1.17-2.588,1.728c-0.908,0.55-1.84,1.111-2.799,1.689c-3.797,2.348-8.246,4.612-13.648,6.801        c-5.42,2.145-11.908,3.981-19.732,5.18c2.676-0.378,4.408-0.738,5.412-0.846c1.006-0.111,1.268-0.028,0.918,0.209        c-0.348,0.237-1.309,0.627-2.74,1.122c-1.432,0.491-3.375,0.94-5.635,1.499c-2.256,0.567-4.904,0.931-7.703,1.41        c-1.412,0.188-2.875,0.329-4.361,0.486c-1.488,0.151-2.998,0.313-4.533,0.357c-1.531,0.057-3.068,0.115-4.596,0.174        c-1.526,0.043-3.051-0.025-4.539-0.053c-2.974-0.045-5.832-0.303-8.411-0.62c-7.434-0.971-15.4-1.972-23.78-3.584        c-8.354-1.61-17.099-3.737-25.712-6.913c-8.609-3.146-17.174-7.138-24.957-12.252c-3.941-2.477-7.595-5.34-11.1-8.272        c-1.678-1.55-3.426-3.012-4.966-4.653c-0.785-0.806-1.581-1.595-2.343-2.409c-0.731-0.838-1.462-1.674-2.188-2.505        c-0.738-0.818-1.438-1.68-2.128-2.561c-0.701-0.869-1.41-1.747-2.126-2.633c-1.326-1.845-2.795-3.644-4.07-5.638        c-2.698-3.888-5.183-8.178-7.334-12.926c-5.373-12.401-7.854-25.597-7.325-38.649c0.495-13.041,4.019-25.843,10.212-37.465        c12.375-23.302,35.119-41.669,62.713-50.644c7.301-2.432,14.307-4.322,21.142-5.734c6.833-1.392,13.497-2.378,20.081-2.677        c9.641-0.378,19.842,1.35,27.456,2.836c3.016,0.534,5.881,1.242,8.68,1.869c2.764,0.753,5.48,1.377,8.063,2.216        c5.221,1.507,10.07,3.313,14.766,5.224c-5.18-2.284-9.762-4.037-14.613-5.468c-2.4-0.797-4.906-1.377-7.529-2.095        c-1.328-0.298-2.693-0.606-4.109-0.927c-1.412-0.342-2.896-0.612-4.447-0.885c-4.121-0.777-2.639-0.852,0.604-0.633        c1.629,0.078,3.672,0.346,5.662,0.648c2.002,0.258,3.918,0.664,5.293,0.982c2.418,0.37,5.592,2.812,7.936,3.328        c2.416,0.964,4.834,1.644,7.215,2.562c1.199,0.441,2.428,0.848,3.664,1.322c1.225,0.505,2.477,1.022,3.777,1.558        c2.279,0.844,1.473,1.772,2.59,2.214c1.719,0.828,3.34,1.609,4.877,2.35c1.535,0.748,3.039,1.375,4.383,2.102        c1.359,0.705,2.66,1.354,3.832,2.063c1.156,0.732,2.217,1.475,3.156,2.266c2.863,2.394,5.332,4.68,7.621,7.011        c0.762,0.696,1.486,1.424,2.209,2.175c0.73,0.741,1.482,1.482,2.277,2.229c1.014,0.897,2.01,1.886,3.039,2.846        c-0.5-1.048-0.465-1.632-0.408-2.199c0.668,0.773,1.449,1.728,2.221,2.685c0.729,0.996,1.455,1.987,2.084,2.789        c-0.629-0.802-1.355-1.793-2.084-2.789c-0.771-0.958-1.553-1.912-2.221-2.685c-0.057,0.567-0.092,1.15,0.408,2.199        c3.588,3.537,7.299,7.569,10.529,12.098c3.268,4.498,6.199,9.376,8.605,14.308c0.014-0.053,0.027-0.122,0.039-0.177        c-2.662-5.847-5.598-11.346-8.844-17.252c1.418,2.546,0.951,2.413-0.941-0.271c-0.303-0.818-0.691-1.584-1.033-2.369        c3.658,4.436,7.037,9.23,8.754,14.477c0,0,0.355,0.51,0.736,1.178c0.395,0.664,0.867,1.461,1.18,1.988        c0.627,1.721,0.266,1.784,0.148,2.25c0.49,1.151,0.986,2.318,1.48,3.486c-0.232-1.339-0.92-4.07-1.787-6.391        C521.111,244.352,520.225,242.4,520.225,242.4z" id="path286" />
   <path fill="#081C1A" d="M473.168,196.257c0.789,0.402,1.76,0.896,2.793,1.423c-3.652-2.092-7.379-4.07-11.236-5.811        c0.457,0.349,1.012,0.691,1.637,1.031c0.621,0.355,1.303,0.73,2.037,1.094C469.859,194.737,471.549,195.418,473.168,196.257z" id="path288" />
   <path fill="#081C1A" d="M512.338,341.377c0.314-0.533,0.789-1.337,1.184-2.008c0.371-0.686,0.668-1.235,0.668-1.235        c3.807-4.092,6.49-9.379,8.609-14.78c-0.531,0.686-1.029,1.398-1.598,2.085c-1.443,2.967-1.346,3.467,0.217,0.95        c-3.656,5.726-7.137,11.006-11.023,16.229C510.893,342.488,511.111,342.766,512.338,341.377z" id="path295" />
  
   <path fill="#081C1A" d="M354.375,467.427c-0.119-0.163,1.006-0.075,0.768-0.399c-0.285-0.741-0.764-1.388-0.738-2.069       c-0.238-0.323,1.031-0.752,0.792-1.072c-0.286-0.745-1.719-2.694-1.697-1.591c0.097,1.664,0.355,2.76,0.5,4.253       c0.401,1.227,0.89,2.408,1.245,3.655c0.039,0.347-0.061,0.665-0.151,0.989c0.193-0.418,0.384-0.845,0.571-1.318       C356,469.255,354.589,468.431,354.375,467.427z" id="path338" />
   <path fill="#081C1A" d="M357.739,476.548c-0.12-0.156-0.358-0.473-0.358-0.473c0.84-0.666,0.553-1.397,0.268-2.133       l-0.576,0.304c0.047,0.417,0.359,0.473,0.621,0.114c-0.721,0.819-0.859,1.616-0.779,2.438       C357.222,476.754,357.573,476.775,357.739,476.548z" id="path340" />
   <path fill="#081C1A" d="M357.771,463.441c0.021-2.062,0.215-3.994,0.459-5.876c-0.21-0.158-0.457-0.276-0.312-0.464       c0.204-0.135,0.339-0.276,0.43-0.418l0.116-0.821c-0.022-0.097-0.045-0.197-0.067-0.295l-0.006-0.011       c-0.117-0.163-0.294-0.127-0.466-0.041c-0.127,0.098-0.273,0.188-0.428,0.262c0.1-0.048,0.26-0.18,0.428-0.262       c0.15-0.122,0.273-0.261,0.349-0.426c-0.052-0.257-0.075-0.521,0.009-0.79c0.113,0.313,0.096,0.572-0.009,0.79       c0.034,0.161,0.08,0.318,0.123,0.478l0.091,0.139l0.291-1.872c-0.02-0.146-0.035-0.285-0.064-0.4       c-0.119-0.463-0.239-0.927,0.326-1.17l0.057-0.333c-0.035,0.019-0.066,0.036-0.105,0.057c0.037-0.049,0.077-0.087,0.115-0.12       c0.08-0.468,0.16-0.938,0.242-1.411c-0.191-0.323-0.436-0.659-0.572-0.991c0,0,0.388-0.185,0.582-0.276       c-0.273-0.15-0.445-0.349-0.525-0.571c-0.354,0.23-0.74,0.438-0.986,0.641c-0.584,0.277,1.079,0.796-0.006,1.095       c1.085-0.299-0.578-0.817,0.006-1.095c0.246-0.202,0.633-0.41,0.986-0.641c-0.17-0.465,0.07-1.033,0.65-1.46       c0.436,0.618-0.057,1.074-0.65,1.46c0.08,0.223,0.252,0.421,0.525,0.571c-0.194,0.092-0.582,0.276-0.582,0.276       c0.137,0.332,0.381,0.668,0.572,0.991c0.158-0.923,0.318-1.854,0.481-2.806c1.172-6.111,1.604-11.797,2.708-18.13       c0.693-3.422,1.525-6.689,2.525-9.866c0.977-3.167,1.346-6.257,1.846-9.339c0.502-3.083,1.23-6.146,3.08-9.21       c1.304-2.368,1.424-7.049,1.654-9.461c-1.373-3.435-6.397-2.556-6.691-2.43c-4.383,1.39-2.332,3.29-5.309,7.041       c1.738-2.593,2.352,2.406-0.791,4.664c-4.799,3.259-2.006,9.153-3.675,13.727c-0.424,1.146-0.357,2.423-0.593,3.825       c-1.117,3.578-1.404,7.124-1.555,10.725c-0.1,3.608-0.047,7.274-0.56,11.115c-0.157,2.048,0.685,3.922,1.155,5.691       c0.105,1.271-0.537,2.573-0.605,3.598c-0.1,1.61,0.199,3.022,0.603,4.379c-0.104-1.492-0.332-2.597-0.39-4.261       c0.008-1.104,1.39,0.871,1.656,1.62c0.231,0.328-1.051,0.73-0.818,1.061c-0.045,0.679,0.416,1.336,0.685,2.083       c0.229,0.328-0.893,0.218-0.778,0.383c0.187,1.009,1.577,1.863,1.227,2.476c-0.201,0.471-0.404,0.895-0.605,1.307       c-0.08,0.264-0.149,0.525-0.125,0.812c0.081,0.182,0.163,0.367,0.246,0.554c0.354-0.124,0.779-0.15,1.206-0.174       c-0.079,0.257-0.353,0.611-0.434,0.87c0.081-0.259,0.354-0.613,0.434-0.87c-0.427,0.023-0.852,0.05-1.206,0.174       c0.563,1.344,1.125,2.882,1.541,4.304l0.1-0.015c-0.078-0.822,0.057-1.615,0.778-2.425c-0.265,0.354-0.575,0.293-0.623-0.13       l0.575-0.291c0.285,0.747,0.572,1.486-0.268,2.134c0,0,0.24,0.324,0.358,0.484c-0.165,0.224-0.519,0.194-0.821,0.228       c0.014,0.161,0.04,0.323,0.069,0.487C357.005,464.476,357.771,463.441,357.771,463.441z" id="path342" />
   <path fill="#081C1A" d="M358.308,455.074c0.03,0.112,0.045,0.25,0.063,0.397l0.262-1.571       C358.068,454.144,358.188,454.608,358.308,455.074z" id="path344" />
   <path fill="#081C1A" d="M464.984,474.932c-0.129-0.16,1-0.115,0.744-0.434c-0.322-0.745-0.834-1.367-0.844-2.054       c-0.246-0.301,0.967-0.842,0.705-1.152c-0.352-0.747-1.945-2.545-1.828-1.439c0.25,1.654,0.596,2.729,0.801,4.212       c0.488,1.214,0.941,2.374,1.32,3.652c0.039,0.354-0.088,0.666-0.189,0.985c0.213-0.408,0.434-0.831,0.605-1.316       C466.629,476.746,465.221,475.917,464.984,474.932z" id="path346" />
   <path fill="#081C1A" d="M468.117,470.594c-0.127-2.173-0.242-4.214-0.316-6.216c-0.232-0.132-0.498-0.215-0.387-0.433       c0.178-0.175,0.285-0.343,0.354-0.506l-0.027-0.876c-0.039-0.097-0.078-0.197-0.119-0.298l-0.006-0.008       c-0.143-0.148-0.309-0.08-0.467,0.037c-0.107,0.124-0.238,0.242-0.377,0.347c0.092-0.066,0.225-0.231,0.377-0.347       c0.129-0.151,0.229-0.316,0.27-0.503c-0.102-0.255-0.174-0.525-0.145-0.819c0.172,0.302,0.203,0.576,0.145,0.819       c0.068,0.161,0.137,0.317,0.203,0.474l0.113,0.131c-0.02-0.668-0.041-1.332-0.064-1.998c-0.049-0.15-0.09-0.292-0.143-0.405       c-0.205-0.46-0.412-0.915,0.094-1.278l-0.008-0.359c-0.031,0.027-0.059,0.053-0.094,0.08c0.027-0.058,0.061-0.104,0.09-0.146       c-0.02-0.502-0.041-1.006-0.063-1.515c-0.254-0.295-0.564-0.591-0.768-0.9c0,0,0.34-0.276,0.508-0.414       c-0.299-0.097-0.508-0.263-0.635-0.477c-0.293,0.316-0.631,0.614-0.826,0.874c-0.512,0.411,1.225,0.588,0.225,1.128       c1-0.54-0.736-0.717-0.225-1.128c0.195-0.26,0.533-0.558,0.826-0.874c-0.262-0.442-0.158-1.078,0.309-1.651       c0.566,0.538,0.193,1.121-0.309,1.651c0.127,0.214,0.336,0.38,0.635,0.477c-0.168,0.138-0.508,0.414-0.508,0.414       c0.203,0.31,0.514,0.605,0.768,0.9c-0.045-0.991-0.088-1.992-0.135-3.015c-0.277-6.593-1.514-12.526-2.379-19.286       c-0.445-3.673-0.736-7.233-0.881-10.77c-0.297-7.067-3.295-12.821-2.35-20.327c0.273-2.866-1.578-7.56-2.414-10.041       c-2.777-2.867-6.91,0.258-7.127,0.48c-3.375,3.172-0.717,4.128-1.916,8.916c0.553-3.188,3.139,1.392,1.107,4.79       c-3.137,4.942,1.594,9.574,1.668,14.62c0.01,1.258,0.508,2.479,0.754,3.926c0.281,7.709,3.52,14.201,4.586,22.075       c0.361,2.06,1.707,3.704,2.533,5.364c0.396,1.25,0.043,2.694,0.186,3.727c0.248,1.627,0.797,2.973,1.453,4.261       c-0.389-1.479-0.807-2.536-1.219-4.188c-0.225-1.108,1.539,0.578,1.959,1.288c0.291,0.287-0.893,0.945-0.6,1.229       c0.086,0.69,0.662,1.264,1.068,1.975c0.289,0.29-0.838,0.379-0.691,0.524c0.352,0.977,1.867,1.616,1.627,2.299       c-0.123,0.509-0.24,0.971-0.385,1.415c-0.043,0.28-0.072,0.555-0.006,0.84c0.104,0.173,0.215,0.352,0.32,0.531       c0.336-0.175,0.75-0.259,1.17-0.34c-0.043,0.274-0.262,0.672-0.305,0.944c0.043-0.272,0.262-0.67,0.305-0.944       c-0.42,0.081-0.834,0.165-1.17,0.34c0.779,1.285,1.434,2.799,1.98,4.234l0.102-0.022c-0.152-0.846-0.088-1.671,0.559-2.599       c-0.232,0.399-0.547,0.366-0.633-0.063l0.539-0.369c0.367,0.74,0.707,1.495-0.068,2.25c0,0,0.268,0.315,0.4,0.472       c-0.145,0.249-0.5,0.249-0.797,0.309c0.027,0.165,0.068,0.331,0.109,0.499C467.445,471.752,468.117,470.594,468.117,470.594z" id="path348" />
   <path fill="#081C1A" d="M467.67,484.545c-0.084-0.193-0.246-0.583-0.246-0.583c0.996-0.538,0.805-1.414,0.609-2.225       l-0.607,0.25c-0.004,0.442,0.297,0.553,0.6,0.202c-0.785,0.788-1.117,1.554-1.213,2.423       C467.121,484.642,467.457,484.749,467.67,484.545z" id="path297" />
   <path fill="#081C1A" d="M531.238,276.676c0.096-0.779,0.236-1.176,0.479,0.08c0,0.016,0.002,0.031,0.006,0.052        c-0.174-1.238-0.291-2.47-0.557-3.737C531.332,274.411,531.273,275.633,531.238,276.676z" id="path293" />
   <path fill="#081C1A" d="M531.762,293.013c0.09-1.192,0.184-2.386,0.275-3.585l0.117-3.604        c-0.111,1.208-0.262,2.399-0.49,3.612C531.426,290.988,531.621,291.816,531.762,293.013z" id="path291" />
  <path fill="#888" d="M 413.60,364.12 L 411.13,364.12 L 408.66,364.12 L 406.38,363.67 L 404.10,363.23 L 401.82,362.78 L 399.53,362.33 L 397.44,361.43 L 395.30,360.64 L 393.25,359.63 L 391.15,358.74 L 389.14,357.63 L 387.14,356.49 L 385.25,355.09 L 383.32,353.80 L 381.41,352.45 L 379.62,350.81 L 377.75,349.38 L 376.00,347.64 L 374.26,345.89 L 372.70,344.33 L 370.95,342.59 L 369.37,340.78 L 367.78,338.97 L 366.35,337.09 L 365.24,335.08 L 364.13,333.08 L 363.08,331.04 L 362.63,328.76 L 363.08,326.48 L 363.53,324.20 L 364.47,322.12 L 365.90,320.24 L 367.64,318.50 L 369.39,316.75 L 371.27,315.32 L 373.41,314.53 L 375.68,314.06 L 378.06,313.85 L 380.34,314.30 L 382.44,315.20 L 384.50,316.18 L 386.45,317.44 L 388.25,319.04 L 390.13,320.47 L 391.88,322.21 L 393.75,323.64 L 395.81,324.62 L 397.91,325.52 L 400.00,326.42 L 402.29,326.87 L 404.57,327.32 L 406.85,327.76 L 409.32,327.77 L 411.79,327.77 L 414.07,327.32 L 416.47,327.15 L 418.63,326.42 L 420.88,325.88 L 422.89,324.77 L 424.76,323.34 L 426.64,321.91 L 428.52,320.49 L 430.47,319.24 L 432.53,318.27 L 434.66,317.44 L 436.94,316.99 L 439.22,316.55 L 441.51,316.99 L 443.79,317.44 L 445.89,318.34 L 447.77,319.74 L 449.52,321.48 L 451.09,323.30 L 452.38,325.23 L 453.17,327.37 L 453.34,329.77 L 453.34,332.24 L 452.71,334.45 L 451.99,336.62 L 451.09,338.71 L 449.75,340.62 L 448.59,342.61 L 447.16,344.49 L 445.73,346.36 L 443.99,348.11 L 442.24,349.85 L 440.48,351.56 L 438.62,353.03 L 436.74,354.45 L 434.87,355.88 L 432.86,356.99 L 430.93,358.29 L 428.84,359.21 L 426.83,360.32 L 424.69,361.11 L 422.54,361.88 L 420.41,362.70 L 418.16,363.23 L 415.88,363.67 Z"/><path fill="#888" d="M 341.30,235.31 L 340.47,235.31 L 339.64,235.31 L 338.99,234.86 L 338.29,234.54 L 337.57,234.27 L 336.87,233.96 L 336.26,233.41 L 335.57,233.06 L 334.95,232.55 L 334.37,231.96 L 333.78,231.37 L 333.19,230.78 L 332.60,230.20 L 332.10,229.57 L 331.74,228.89 L 331.65,228.09 L 332.10,227.45 L 332.55,226.80 L 332.96,226.14 L 333.55,225.55 L 334.14,224.96 L 334.79,224.53 L 335.45,224.10 L 336.27,224.09 L 337.10,224.09 L 337.87,223.93 L 338.58,223.64 L 339.23,223.19 L 339.90,222.80 L 340.49,222.21 L 341.17,221.84 L 341.82,221.39 L 342.52,221.08 L 343.29,220.94 L 343.96,220.54 L 344.77,220.49 L 345.53,220.31 L 346.25,220.05 L 346.97,219.77 L 347.69,219.50 L 348.38,219.15 L 349.13,218.96 L 349.85,218.69 L 350.50,218.25 L 351.29,218.14 L 351.98,217.80 L 352.73,217.60 L 353.46,217.35 L 354.29,217.35 L 355.12,217.35 L 355.96,217.35 L 356.79,217.35 L 357.62,217.35 L 358.45,217.35 L 359.29,217.35 L 360.00,217.64 L 360.59,218.23 L 361.18,218.81 L 360.87,219.40 L 361.59,219.52 L 362.18,219.36 L 362.76,219.95 L 363.35,220.54 L 363.12,221.13 L 362.53,221.72 L 361.94,222.31 L 361.35,222.89 L 360.77,223.48 L 360.18,224.07 L 359.59,223.51 L 358.89,223.19 L 358.28,223.72 L 358.01,224.44 L 357.42,225.03 L 356.83,225.62 L 356.80,226.44 L 356.29,227.06 L 355.70,227.65 L 355.06,228.12 L 354.39,228.51 L 353.80,229.10 L 353.21,229.68 L 352.63,230.27 L 351.91,230.54 L 351.32,231.13 L 350.60,231.40 L 349.89,231.72 L 349.25,232.16 L 348.57,232.53 L 347.98,233.12 L 347.39,233.71 L 346.80,234.30 L 346.20,234.86 L 345.49,234.56 L 344.72,234.41 L 344.05,234.01 L 343.24,233.96 L 342.48,234.13 L 341.89,234.72 Z"/><path fill="#888" d="M 468.38,229.47 L 467.59,229.13 L 466.93,228.47 L 466.14,228.12 L 465.48,228.78 L 464.69,228.92 L 464.03,228.88 L 463.15,229.02 L 462.41,228.57 L 461.65,228.13 L 461.00,227.47 L 460.52,226.74 L 459.99,226.63 L 459.33,226.40 L 458.67,227.06 L 458.01,226.74 L 457.35,226.58 L 456.56,226.92 L 455.76,227.23 L 454.98,226.85 L 454.08,226.78 L 453.14,226.78 L 452.21,226.78 L 451.29,226.75 L 450.53,226.33 L 449.71,226.07 L 449.04,226.33 L 448.26,226.70 L 447.36,226.78 L 446.67,226.18 L 446.01,225.52 L 445.36,224.86 L 444.70,224.20 L 444.04,224.63 L 443.25,224.98 L 442.50,224.53 L 441.66,224.31 L 441.00,223.65 L 440.34,222.99 L 439.68,222.33 L 439.02,221.67 L 438.36,221.01 L 438.02,220.22 L 437.36,219.56 L 437.02,218.77 L 436.36,218.11 L 436.27,217.21 L 435.83,216.47 L 435.83,215.53 L 436.34,214.82 L 437.00,214.16 L 437.66,213.50 L 438.33,212.86 L 439.11,212.49 L 439.91,212.15 L 440.76,211.97 L 441.62,212.15 L 442.44,212.42 L 443.20,212.83 L 444.12,212.86 L 445.05,212.86 L 445.99,212.86 L 446.92,212.86 L 447.85,212.86 L 448.78,212.86 L 449.72,212.86 L 450.46,213.31 L 451.37,213.37 L 452.14,213.76 L 452.89,214.21 L 453.75,214.39 L 454.54,214.74 L 455.32,215.11 L 456.12,215.42 L 456.91,215.76 L 457.70,216.10 L 458.49,216.45 L 459.24,216.90 L 459.94,217.45 L 460.60,218.11 L 461.26,218.77 L 461.92,219.43 L 462.58,220.09 L 463.24,220.75 L 463.90,221.40 L 464.56,222.06 L 464.91,222.85 L 465.56,223.51 L 466.22,224.17 L 466.15,224.96 L 465.49,225.62 L 465.77,226.42 L 466.43,227.07 L 467.09,226.72 L 467.75,226.06 L 468.54,226.04 L 469.20,226.70 L 469.86,227.36 L 469.70,228.15 L 469.04,228.81 Z"/><path fill="#888" d="M 359.71,288.72 L 358.72,288.27 L 357.54,288.27 L 356.42,288.12 L 355.46,287.60 L 354.49,287.09 L 353.56,286.47 L 352.69,285.74 L 351.86,284.90 L 351.86,283.72 L 351.41,282.73 L 351.26,281.61 L 350.96,280.56 L 350.96,279.38 L 350.51,278.38 L 350.51,277.20 L 350.51,276.02 L 350.51,274.84 L 350.51,273.66 L 350.51,272.48 L 350.92,271.47 L 350.96,270.31 L 351.00,269.15 L 351.41,268.14 L 351.86,267.14 L 351.92,265.99 L 352.44,265.02 L 352.95,264.06 L 353.47,263.09 L 353.99,262.13 L 354.82,261.29 L 355.34,260.33 L 356.17,259.49 L 357.14,258.98 L 358.00,258.20 L 358.94,257.62 L 359.91,257.11 L 360.87,256.59 L 361.97,256.39 L 362.97,255.95 L 364.03,255.68 L 365.14,255.50 L 366.32,255.50 L 367.50,255.50 L 368.68,255.50 L 369.86,255.50 L 370.85,255.95 L 371.98,256.09 L 373.03,256.40 L 374.02,256.85 L 375.01,257.30 L 376.01,257.75 L 377.07,258.04 L 378.03,258.55 L 378.99,259.09 L 379.97,259.59 L 380.80,260.42 L 381.63,261.26 L 382.39,262.12 L 382.84,263.12 L 383.29,264.11 L 383.74,265.10 L 383.74,266.28 L 383.74,267.46 L 383.74,268.64 L 383.29,269.64 L 382.84,270.63 L 382.26,271.57 L 381.74,272.54 L 380.78,273.05 L 379.76,273.46 L 379.33,274.22 L 380.15,275.06 L 380.68,276.02 L 381.52,276.85 L 382.04,277.82 L 382.39,278.85 L 382.61,279.75 L 382.39,280.84 L 381.52,281.54 L 380.35,281.56 L 379.34,281.99 L 378.35,282.43 L 377.32,282.79 L 376.22,282.99 L 375.25,283.51 L 374.19,283.78 L 373.19,284.23 L 372.23,284.74 L 371.21,285.13 L 370.21,285.58 L 369.22,286.02 L 368.22,286.47 L 367.23,286.92 L 366.17,287.21 L 365.07,287.40 L 364.06,287.82 L 363.01,288.12 L 361.89,288.27 L 360.71,288.27 Z"/><path fill="#888" d="M 462.99,285.13 L 461.99,285.13 L 460.98,285.13 L 459.97,285.13 L 459.15,284.68 L 458.15,284.68 L 457.28,284.35 L 456.32,284.23 L 455.46,283.88 L 454.49,283.78 L 453.64,283.41 L 452.67,283.33 L 451.82,282.94 L 450.84,282.88 L 449.83,282.88 L 449.01,282.43 L 448.01,282.43 L 447.00,282.43 L 446.11,282.16 L 445.17,281.99 L 444.29,281.69 L 443.44,281.30 L 442.53,281.09 L 441.70,280.64 L 440.91,280.12 L 440.07,279.72 L 439.42,278.99 L 438.97,278.17 L 438.57,277.32 L 438.49,276.35 L 438.07,275.52 L 438.07,274.51 L 438.07,273.51 L 438.07,272.50 L 438.07,271.49 L 438.11,270.50 L 438.52,269.67 L 438.58,268.68 L 438.97,267.84 L 439.42,267.02 L 439.76,266.16 L 440.16,265.31 L 440.77,264.56 L 441.26,263.76 L 441.98,263.05 L 442.69,262.34 L 443.40,261.62 L 444.11,260.91 L 444.82,260.20 L 445.67,259.81 L 446.51,259.41 L 447.22,258.70 L 448.06,258.31 L 449.02,258.20 L 449.84,257.75 L 450.72,257.44 L 451.67,257.30 L 452.49,256.85 L 453.50,256.85 L 454.49,256.82 L 455.33,256.40 L 456.33,256.40 L 457.34,256.40 L 458.26,256.61 L 459.17,256.85 L 460.08,257.08 L 460.92,257.47 L 461.76,257.87 L 462.48,258.58 L 463.19,259.29 L 463.90,260.00 L 464.29,260.84 L 464.56,261.74 L 465.01,262.56 L 465.01,263.56 L 464.79,264.48 L 464.73,265.32 L 465.13,266.16 L 465.84,266.88 L 465.92,267.85 L 466.36,268.67 L 466.36,269.68 L 466.78,270.51 L 466.81,271.51 L 467.25,272.33 L 467.26,273.33 L 467.41,274.28 L 467.71,275.16 L 467.71,276.17 L 467.71,277.17 L 468.16,277.99 L 468.16,279.00 L 467.71,279.82 L 467.71,280.82 L 467.34,281.68 L 466.95,282.52 L 466.23,283.23 L 465.52,283.95 L 464.68,284.34 L 463.81,284.68 Z"/>
  </g>
  <g inkscape:groupmode="layer" inkscape:label="girl (move/scale onto marduk)">
    <g id="girl-group" transform="matrix(0.45949,0,0,0.45949,136.05734,30.724615)">
      <g inkscape:label="neckless-1" id="girl-neckless-1"><path
       id="part-23"
       inkscape:label="part-23"
       fill="#e6194B"
       fill-rule="evenodd"
       fill-opacity="0.7"
       d="m 499.74154,822.00182 c -4.63505,1.09777 -11.09973,-0.85383 -14.63701,-2.4395 -3.53727,-1.58568 -5.12295,-4.3911 -6.70862,-6.70863 -1.58568,-2.31753 -2.68346,-3.65925 -2.43951,-7.3185 0.24395,-3.65925 0.73185,-10.85578 3.65926,-14.63701 2.9274,-3.78123 9.39207,-7.19653 14.02713,-7.92838 4.63505,-0.73185 9.87998,1.09778 13.41725,3.65925 3.53728,2.56148 7.07455,7.19653 7.92838,11.58763 0.85383,4.39111 0.12198,10.73381 -2.4395,14.63701 -2.56148,3.9032 -8.17233,8.05035 -12.80738,9.14813 z"
       style="stroke-width:1.21975;fill:#ffffff" /><path
       id="path1780"
       inkscape:label="part-23"
       fill="#e6194B"
       fill-rule="evenodd"
       fill-opacity="0.7"
       d="M 499.0,818.5 C 495.2,819.4 489.9,817.8 487.0,816.5 C 484.1,815.2 482.8,812.9 481.5,811.0 C 480.2,809.1 479.3,808.0 479.5,805.0 C 479.7,802.0 480.1,796.1 482.5,793.0 C 484.9,789.9 490.2,787.1 494.0,786.5 C 497.8,785.9 502.1,787.4 505.0,789.5 C 507.9,791.6 510.8,795.4 511.5,799.0 C 512.2,802.6 511.6,807.8 509.5,811.0 C 507.4,814.2 502.8,817.6 499.0,818.5 Z" /></g>
      <g inkscape:label="neckless-2" id="girl-neckless-2"><path
       id="path1782"
       inkscape:label="part-25"
       fill="#3cb44b"
       fill-rule="evenodd"
       fill-opacity="0.7"
       d="m 522.29298,852.17352 c -4.25972,-0.25817 -11.87558,-2.71074 -15.48989,-5.1633 -3.61431,-2.45257 -5.29238,-5.29238 -5.80871,-9.68119 -0.51633,-4.3888 -0.12908,-12.39191 2.58165,-16.78072 2.71073,-4.3888 8.51944,-8.7776 13.55366,-9.68118 5.03421,-0.90358 12.77916,1.41991 16.78071,3.87247 4.00156,2.45257 6.32504,6.32504 7.09954,10.97201 0.77449,4.64697 -1.16174,13.03733 -2.58165,16.78072 -1.41991,3.74339 -3.09798,4.13064 -5.80871,5.80871 -2.71073,1.67807 -6.06688,4.13064 -10.3266,3.87248 z"
       style="stroke-width:1.29082;fill:#ffffff" /><path
       id="part-25"
       inkscape:label="part-25"
       fill="#3cb44b"
       fill-rule="evenodd"
       fill-opacity="0.7"
       d="M 522.0,847.5 C 518.7,847.3 512.8,845.4 510.0,843.5 C 507.2,841.6 505.9,839.4 505.5,836.0 C 505.1,832.6 505.4,826.4 507.5,823.0 C 509.6,819.6 514.1,816.2 518.0,815.5 C 521.9,814.8 527.9,816.6 531.0,818.5 C 534.1,820.4 535.9,823.4 536.5,827.0 C 537.1,830.6 535.6,837.1 534.5,840.0 C 533.4,842.9 532.1,843.2 530.0,844.5 C 527.9,845.8 525.3,847.7 522.0,847.5 Z" /></g>
      <g inkscape:label="neckless-3" id="girl-neckless-3"><path
       id="path1784"
       inkscape:label="part-27"
       fill="#4363d8"
       fill-rule="evenodd"
       fill-opacity="0.7"
       d="m 560.33628,869.2732 c -4.24557,1.99792 -10.61393,0.37461 -13.73568,0 -3.12174,-0.37461 -2.99687,-0.49948 -4.99479,-2.49739 -1.99791,-1.99792 -5.74401,-5.36941 -6.86784,-9.36524 -1.12382,-3.99583 -1.74817,-10.7388 0,-14.98437 1.74818,-4.24558 6.11862,-8.86576 10.61394,-10.61394 4.49531,-1.74817 11.73776,-1.99791 16.23307,0 4.49531,1.99792 8.86575,7.61706 10.61393,11.86263 1.74818,4.24558 1.99792,9.49011 0,13.73568 -1.99792,4.24557 -7.61706,9.86471 -11.86263,11.86263 z"
       style="stroke-width:1.2487;fill:#ffffff" /><path
       id="part-27"
       inkscape:label="part-27"
       fill="#4363d8"
       fill-rule="evenodd"
       fill-opacity="0.7"
       d="M 559.0,865.5 C 555.6,867.1 550.5,865.8 548.0,865.5 C 545.5,865.2 545.6,865.1 544.0,863.5 C 542.4,861.9 539.4,859.2 538.5,856.0 C 537.6,852.8 537.1,847.4 538.5,844.0 C 539.9,840.6 543.4,836.9 547.0,835.5 C 550.6,834.1 556.4,833.9 560.0,835.5 C 563.6,837.1 567.1,841.6 568.5,845.0 C 569.9,848.4 570.1,852.6 568.5,856.0 C 566.9,859.4 562.4,863.9 559.0,865.5 Z" /></g>
      <g inkscape:label="neckless-4" id="girl-neckless-4"><path
       id="path1786"
       inkscape:label="part-29"
       fill="#f58231"
       fill-rule="evenodd"
       fill-opacity="0.7"
       d="m 595.05815,877.68601 c -4.31785,1.14296 -10.66764,-0.38099 -13.96952,-1.26996 -3.30189,-0.88897 -3.93687,-2.03193 -5.71481,-4.44484 -1.77794,-2.41292 -4.69884,-6.09579 -5.07982,-10.15966 -0.38099,-4.06386 0.12699,-10.03265 2.53991,-13.96951 2.41292,-3.93687 7.23875,-8.38172 12.06459,-9.52468 4.82583,-1.14296 12.44557,0.127 16.50943,2.53992 4.06386,2.41291 7.36575,7.23875 8.25471,12.06458 0.88897,4.82583 -0.12699,12.44557 -2.53991,16.50943 -2.41291,4.06386 -7.74673,7.11176 -12.06458,8.25472 z"
       style="stroke-width:1.26996;fill:#ffffff" /><path
       id="part-29"
       inkscape:label="part-29"
       fill="#f58231"
       fill-rule="evenodd"
       fill-opacity="0.7"
       d="M 594.0,873.5 C 590.6,874.4 585.6,873.2 583.0,872.5 C 580.4,871.8 579.9,870.9 578.5,869.0 C 577.1,867.1 574.8,864.2 574.5,861.0 C 574.2,857.8 574.6,853.1 576.5,850.0 C 578.4,846.9 582.2,843.4 586.0,842.5 C 589.8,841.6 595.8,842.6 599.0,844.5 C 602.2,846.4 604.8,850.2 605.5,854.0 C 606.2,857.8 605.4,863.8 603.5,867.0 C 601.6,870.2 597.4,872.6 594.0,873.5 Z" /></g>
      <g inkscape:label="neckless-5" id="girl-neckless-5"><path
       id="path1788"
       inkscape:label="part-28"
       fill="#911eb4"
       fill-rule="evenodd"
       fill-opacity="0.7"
       d="m 628.21341,874.5138 c -3.49633,-0.24973 -8.99057,-0.87408 -12.4869,-3.74607 -3.49634,-2.87198 -7.24241,-8.61596 -8.11649,-13.11125 -0.87408,-4.49528 -0.12487,-9.86465 2.49738,-13.73559 2.62225,-3.87094 8.36623,-8.24136 13.11125,-9.36518 4.74502,-1.12382 11.11335,0.37461 14.98429,2.49738 3.87094,2.12278 6.74292,6.74293 8.11648,10.61387 1.37356,3.87094 0.37461,9.61492 0,12.4869 -0.3746,2.87199 -0.87408,2.99686 -2.49738,4.99477 -1.6233,1.9979 -4.24554,5.2445 -6.86779,6.86779 -2.62225,1.6233 -5.2445,2.74712 -8.74084,2.49738 z"
       style="stroke-width:1.24869;fill:#ffffff" /><path
       id="part-28"
       inkscape:label="part-28"
       fill="#911eb4"
       fill-rule="evenodd"
       fill-opacity="0.7"
       d="M 628.0,870.5 C 625.2,870.3 620.8,869.8 618.0,867.5 C 615.2,865.2 612.2,860.6 611.5,857.0 C 610.8,853.4 611.4,849.1 613.5,846.0 C 615.6,842.9 620.2,839.4 624.0,838.5 C 627.8,837.6 632.9,838.8 636.0,840.5 C 639.1,842.2 641.4,845.9 642.5,849.0 C 643.6,852.1 642.8,856.7 642.5,859.0 C 642.2,861.3 641.8,861.4 640.5,863.0 C 639.2,864.6 637.1,867.2 635.0,868.5 C 632.9,869.8 630.8,870.7 628.0,870.5 Z" /></g>
      <g inkscape:label="neckless-6" id="girl-neckless-6"><path
       id="path1790"
       inkscape:label="part-24"
       fill="#42d4f4"
       fill-rule="evenodd"
       fill-opacity="0.7"
       d="m 663.53782,857.61566 c -4.75964,0.87678 -10.14555,-1.37779 -13.77791,-3.75761 -3.63236,-2.37982 -7.01421,-6.38794 -8.14149,-10.64657 -1.12729,-4.25862 -0.87678,-10.77182 1.25253,-15.03044 2.12932,-4.25863 8.01624,-8.89302 11.89911,-10.64657 3.88286,-1.75355 8.14149,-0.62627 11.27283,0 3.13135,0.62627 5.13541,1.6283 7.51523,3.75761 2.37982,2.12931 6.13743,4.8849 6.88895,9.39403 0.75152,4.50913 0.37576,13.02639 -2.50507,17.53552 -2.88084,4.50913 -9.64454,8.51725 -14.40418,9.39403 z"
       style="stroke-width:1.25254;fill:#ffffff" /><path
       id="part-24"
       inkscape:label="part-24"
       fill="#42d4f4"
       fill-rule="evenodd"
       fill-opacity="0.7"
       d="M 663.0,853.5 C 659.2,854.2 654.9,852.4 652.0,850.5 C 649.1,848.6 646.4,845.4 645.5,842.0 C 644.6,838.6 644.8,833.4 646.5,830.0 C 648.2,826.6 652.9,822.9 656.0,821.5 C 659.1,820.1 662.5,821.0 665.0,821.5 C 667.5,822.0 669.1,822.8 671.0,824.5 C 672.9,826.2 675.9,828.4 676.5,832.0 C 677.1,835.6 676.8,842.4 674.5,846.0 C 672.2,849.6 666.8,852.8 663.0,853.5 Z" /></g>
      <g inkscape:label="neckless-7" id="girl-neckless-7"><path
       id="path1792"
       inkscape:label="part-26"
       fill="#f032e6"
       fill-rule="evenodd"
       fill-opacity="0.7"
       d="m 691.56468,828.91785 c -3.03783,-0.24303 -9.59955,0.12151 -13.36646,-2.43027 -3.76691,-2.55178 -8.01987,-8.14139 -9.11349,-12.75889 -1.09362,-4.6175 0.85059,-11.05771 2.43026,-14.58159 1.57968,-3.52388 4.37448,-5.10356 6.68323,-6.68323 2.30876,-1.57967 4.00994,-2.43026 7.2908,-2.43026 3.28086,0 8.62744,0.12151 12.15132,2.43026 3.52389,2.30875 7.53382,7.65534 9.1135,11.54376 1.57967,3.88842 1.70118,8.2629 0,12.15133 -1.70119,3.88842 -7.77685,9.47803 -10.32863,11.54375 -2.55178,2.06573 -1.8227,1.45816 -4.86053,1.21514 z"
       style="stroke-width:1.21513;fill:#ffffff" /><path
       id="part-26"
       inkscape:label="part-26"
       fill="#f032e6"
       fill-rule="evenodd"
       fill-opacity="0.7"
       d="M 691.0,825.5 C 688.5,825.3 683.1,825.6 680.0,823.5 C 676.9,821.4 673.4,816.8 672.5,813.0 C 671.6,809.2 673.2,803.9 674.5,801.0 C 675.8,798.1 678.1,796.8 680.0,795.5 C 681.9,794.2 683.3,793.5 686.0,793.5 C 688.7,793.5 693.1,793.6 696.0,795.5 C 698.9,797.4 702.2,801.8 703.5,805.0 C 704.8,808.2 704.9,811.8 703.5,815.0 C 702.1,818.2 697.1,822.8 695.0,824.5 C 692.9,826.2 693.5,825.7 691.0,825.5 Z" /></g>
      <g inkscape:label="mouth" id="girl-mouth"><path
       id="part-1"
       inkscape:label="part-1"
       fill="#bfef45"
       fill-rule="evenodd"
       fill-opacity="0.7"
       d="M 595.0,730.5 C 585.8,731.2 579.5,730.0 571.0,727.5 C 562.5,725.0 552.0,720.0 544.0,715.5 C 536.0,711.0 529.8,706.2 523.0,700.5 C 516.2,694.8 508.6,686.8 503.5,681.0 C 498.4,675.2 495.0,671.0 492.5,666.0 C 490.0,661.0 488.5,655.3 488.5,651.0 C 488.5,646.7 489.9,643.9 492.5,640.0 C 495.1,636.1 500.4,630.4 504.0,627.5 C 507.6,624.6 510.2,623.3 514.0,622.5 C 517.8,621.7 522.5,621.3 527.0,622.5 C 531.5,623.7 535.7,625.8 541.0,629.5 C 546.3,633.2 551.8,640.8 559.0,644.5 C 566.2,648.2 577.3,650.3 584.0,651.5 C 590.7,652.7 593.8,652.2 599.0,651.5 C 604.2,650.8 609.0,650.7 615.0,647.5 C 621.0,644.3 629.2,636.0 635.0,632.5 C 640.8,629.0 644.2,627.2 650.0,626.5 C 655.8,625.8 664.4,626.2 670.0,628.5 C 675.6,630.8 680.4,636.2 683.5,640.0 C 686.6,643.8 687.8,647.0 688.5,651.0 C 689.2,655.0 688.7,659.7 687.5,664.0 C 686.3,668.3 684.8,671.8 681.5,677.0 C 678.2,682.2 673.6,688.9 667.5,695.0 C 661.4,701.1 651.9,708.8 645.0,713.5 C 638.1,718.2 634.3,720.7 626.0,723.5 C 617.7,726.3 604.2,729.8 595.0,730.5 Z" /></g>
      <g inkscape:label="l-eye" id="girl-l-eye"><path
       id="part-8"
       inkscape:label="part-8"
       fill="#fabed4"
       fill-rule="evenodd"
       fill-opacity="0.7"
       d="M 479.0,565.5 C 474.8,566.2 473.2,566.2 470.0,565.5 C 466.8,564.8 462.4,563.2 460.0,561.5 C 457.6,559.8 457.0,559.0 455.5,555.0 C 454.0,551.0 454.6,540.4 451.0,537.5 C 447.4,534.6 438.2,538.0 434.0,537.5 C 429.8,537.0 428.4,535.9 426.0,534.5 C 423.6,533.1 421.1,530.9 419.5,529.0 C 417.9,527.1 416.9,524.8 416.5,523.0 C 416.1,521.2 414.6,518.2 417.0,518.5 C 419.4,518.8 427.2,523.3 431.0,524.5 C 434.8,525.7 438.2,525.6 440.0,525.5 C 441.8,525.4 443.2,526.1 441.5,524.0 C 439.8,521.9 431.8,516.9 429.5,513.0 C 427.2,509.1 425.8,500.8 428.0,500.5 C 430.2,500.2 438.3,509.3 443.0,511.5 C 447.7,513.7 451.8,515.5 456.0,513.5 C 460.2,511.5 464.0,502.7 468.0,499.5 C 472.0,496.3 475.7,495.3 480.0,494.5 C 484.3,493.7 489.0,493.5 494.0,494.5 C 499.0,495.5 505.6,498.1 510.0,500.5 C 514.4,502.9 518.2,506.6 520.5,509.0 C 522.8,511.4 523.0,512.5 523.5,515.0 C 524.0,517.5 525.0,520.7 523.5,524.0 C 522.0,527.3 514.8,532.0 514.5,535.0 C 514.2,538.0 520.0,539.5 521.5,542.0 C 523.0,544.5 527.9,546.8 523.5,550.0 C 519.1,553.2 502.4,558.9 495.0,561.5 C 487.6,564.1 483.2,564.8 479.0,565.5 Z" /></g>
      <g inkscape:label="r-eye" id="girl-r-eye"><path
       id="part-9"
       inkscape:label="part-9"
       fill="#469990"
       fill-rule="evenodd"
       fill-opacity="0.7"
       d="M 700.0,562.5 C 697.4,563.6 701.0,564.5 693.0,562.5 C 685.0,560.5 659.8,553.4 652.0,550.5 C 644.2,547.6 647.8,546.9 646.5,545.0 C 645.2,543.1 644.8,542.2 644.5,539.0 C 644.2,535.8 643.8,529.8 644.5,526.0 C 645.2,522.2 646.1,519.6 648.5,516.0 C 650.9,512.4 654.2,507.8 659.0,504.5 C 663.8,501.2 672.0,498.0 677.0,496.5 C 682.0,495.0 685.2,495.0 689.0,495.5 C 692.8,496.0 696.5,496.5 700.0,499.5 C 703.5,502.5 706.2,511.5 710.0,513.5 C 713.8,515.5 718.5,513.7 723.0,511.5 C 727.5,509.3 734.4,501.2 737.0,500.5 C 739.6,499.8 738.8,504.8 738.5,507.0 C 738.2,509.2 738.0,511.2 735.5,514.0 C 733.0,516.8 725.2,522.1 723.5,524.0 C 721.8,525.9 723.1,525.4 725.0,525.5 C 726.9,525.6 731.0,525.7 735.0,524.5 C 739.0,523.3 746.9,518.1 749.0,518.5 C 751.1,518.9 748.8,524.5 747.5,527.0 C 746.2,529.5 743.6,531.8 741.0,533.5 C 738.4,535.2 736.7,536.8 732.0,537.5 C 727.3,538.2 716.9,534.4 713.0,537.5 C 709.1,540.6 710.7,551.8 708.5,556.0 C 706.3,560.2 702.6,561.4 700.0,562.5 Z" /></g>
      <g inkscape:label="r-brow" id="girl-r-brow"><path
       id="part-19"
       inkscape:label="part-19"
       fill="#dcbeff"
       fill-rule="evenodd"
       fill-opacity="0.7"
       d="M 741.0,461.5 C 739.8,461.6 735.2,455.0 733.0,453.5 C 730.8,452.0 729.3,453.5 728.0,452.5 C 726.7,451.5 727.0,449.2 725.0,447.5 C 723.0,445.8 719.2,444.0 716.0,442.5 C 712.8,441.0 708.2,439.0 706.0,438.5 C 703.8,438.0 706.3,440.3 703.0,439.5 C 699.7,438.7 689.8,434.5 686.0,433.5 C 682.2,432.5 682.0,434.5 680.0,433.5 C 678.0,432.5 676.2,428.5 674.0,427.5 C 671.8,426.5 669.6,428.9 667.0,427.5 C 664.4,426.1 659.9,421.4 658.5,419.0 C 657.1,416.6 657.4,414.6 658.5,413.0 C 659.6,411.4 660.2,409.8 665.0,409.5 C 669.8,409.2 679.5,409.5 687.0,411.5 C 694.5,413.5 702.4,416.6 710.0,421.5 C 717.6,426.4 727.4,435.8 732.5,441.0 C 737.6,446.2 739.1,449.6 740.5,453.0 C 741.9,456.4 742.2,461.4 741.0,461.5 Z" /></g>
      <g inkscape:label="l-brow" id="girl-l-brow"><path
       id="part-20"
       inkscape:label="part-20"
       fill="#9A6324"
       fill-rule="evenodd"
       fill-opacity="0.7"
       d="M 418.0,461.5 C 415.1,463.1 416.4,458.9 416.5,457.0 C 416.6,455.1 416.4,454.6 418.5,450.0 C 420.6,445.4 424.2,434.6 429.0,429.5 C 433.8,424.4 441.5,422.0 447.0,419.5 C 452.5,417.0 456.5,415.5 462.0,414.5 C 467.5,413.5 475.6,413.1 480.0,413.5 C 484.4,413.9 487.6,414.9 488.5,417.0 C 489.4,419.1 486.6,424.1 485.5,426.0 C 484.4,427.9 483.2,428.1 482.0,428.5 C 480.8,428.9 479.5,427.7 478.0,428.5 C 476.5,429.3 475.5,432.3 473.0,433.5 C 470.5,434.7 466.0,434.3 463.0,435.5 C 460.0,436.7 457.7,439.7 455.0,440.5 C 452.3,441.3 449.7,439.5 447.0,440.5 C 444.3,441.5 441.2,445.3 439.0,446.5 C 436.8,447.7 437.5,445.0 434.0,447.5 C 430.5,450.0 420.9,459.9 418.0,461.5 Z" /></g>
      <g inkscape:label="l-earring" id="girl-l-earring"><path
       id="path2003"
       inkscape:label="part-14"
       fill="#800000"
       fill-rule="evenodd"
       fill-opacity="0.7"
       d="m 332.10849,671.01279 c -3.58684,0.5978 -9.5649,0.5978 -13.15174,0 -3.58684,-0.59781 -5.49982,-1.5543 -8.36929,-3.58684 -2.86947,-2.03254 -6.93455,-5.8585 -8.96709,-8.96709 -2.03255,-3.1086 -2.98904,-6.33675 -3.58684,-9.56491 -0.59781,-3.22815 -0.59781,-6.33674 0,-9.5649 0.5978,-3.22815 1.55429,-6.4563 3.58684,-9.5649 2.03254,-3.10859 5.02157,-6.57587 8.96709,-8.96709 5.22776,-3.88978 10.40683,-5.12794 16.14077,-5.38026 6.5928,-0.29011 9.92359,2.98903 13.74955,5.38026 3.82596,2.39122 6.93455,6.09762 8.96709,8.96709 2.03254,2.86947 3.34772,3.94552 3.58684,8.36929 0.23912,4.42377 -0.35869,13.03218 -2.39123,17.93419 -2.03254,4.90201 -7.05411,8.84753 -10.1627,11.35832 -3.1086,2.51079 -4.78245,2.98903 -8.36929,3.58684 z"
       sodipodi:nodetypes="ssssssscsssssss"
       style="stroke-width:1.19561;fill:#ffffff" /><path
       id="part-14"
       inkscape:label="part-14"
       fill="#800000"
       fill-rule="evenodd"
       fill-opacity="0.7"
       d="m 331,666.5 c -3,0.5 -8,0.5 -11,0 -3,-0.5 -4.6,-1.3 -7,-3 -2.4,-1.7 -5.8,-4.9 -7.5,-7.5 -1.7,-2.6 -2.5,-5.3 -3,-8 -0.5,-2.7 -0.5,-5.3 0,-8 0.5,-2.7 1.3,-5.4 3,-8 1.7,-2.6 4.2,-5.5 7.5,-7.5 4.37245,-3.25338 8.70418,-4.28896 13.5,-4.5 5.51416,-0.24265 8.3,2.5 11.5,4.5 3.2,2 5.8,5.1 7.5,7.5 1.7,2.4 2.8,3.3 3,7 0.2,3.7 -0.3,10.9 -2,15 -1.7,4.1 -5.9,7.4 -8.5,9.5 -2.6,2.1 -4,2.5 -7,3 z M 315.5,640 c 1.6,-1.2 5.4,-5.2 6,-7 0.6,-1.8 -1.4,-3.1 -2.5,-3.5 -1.1,-0.4 -2.6,-0.1 -4,1 -1.4,1.1 -4,3.8 -4.5,5.5 -0.5,1.7 0.7,3.8 1.5,4.5 0.8,0.7 1.9,0.7 3.5,-0.5 z"
       sodipodi:nodetypes="ssssssscssssssssssssss" /></g>
      <g inkscape:label="l-earring-top" id="girl-l-earring-top"><path
       id="circle2001"
       style="fill:#ffffff;stroke:#000000;stroke-width:1.17878;stroke-opacity:0"
       d="m 340.96696,601.25189 a 15.146954,15.146954 0 0 1 -15.14695,15.14696 15.146954,15.146954 0 0 1 -15.14696,-15.14696 15.146954,15.146954 0 0 1 15.14696,-15.14695 15.146954,15.146954 0 0 1 15.14695,15.14695 z" /><path
       id="path1970"
       style="fill:#aa4400;stroke:#000000;stroke-opacity:0"
       d="m 338.6697,601.25189 a 12.849689,12.849689 0 0 1 -12.84969,12.84969 12.849689,12.849689 0 0 1 -12.84969,-12.84969 12.849689,12.849689 0 0 1 12.84969,-12.84969 12.849689,12.849689 0 0 1 12.84969,12.84969 z" /></g>
      <g inkscape:label="r-earring" id="girl-r-earring"><path
       id="path2197"
       inkscape:label="part-15"
       fill="#000075"
       fill-rule="evenodd"
       fill-opacity="0.7"
       d="m 854.12015,670.91075 c -3.61199,0.602 -9.63197,0.602 -13.24397,0 -3.61199,-0.60199 -5.53838,-1.56519 -8.42797,-3.61199 -2.8896,-2.04679 -6.98319,-5.65878 -9.02998,-9.02997 -2.0468,-3.37119 -3.61199,-6.01999 -3.61199,-10.83598 0,-4.81598 1.56519,-13.48476 3.61199,-18.05995 2.04679,-4.57519 4.88886,-7.16086 9.02998,-9.02998 4.86788,-2.19715 25.4035,-3.40011 31.30392,1.204 3.48505,2.71939 4.69558,3.49159 6.62198,6.62198 1.9264,3.13039 4.57519,6.98318 4.81599,12.03997 0.2408,5.05679 -1.5652,13.48477 -3.61199,18.05996 -2.0468,4.57519 -6.14039,6.98318 -9.02998,9.02997 -2.88959,2.0468 -4.81599,3.01 -8.42798,3.61199 z"
       sodipodi:nodetypes="sssssssssssss"
       style="stroke-width:1.204;fill:#ffffff" /><path
       id="part-15"
       inkscape:label="part-15"
       fill="#000075"
       fill-rule="evenodd"
       fill-opacity="0.7"
       d="m 853,666.5 c -3,0.5 -8,0.5 -11,0 -3,-0.5 -4.6,-1.3 -7,-3 -2.4,-1.7 -5.8,-4.7 -7.5,-7.5 -1.7,-2.8 -3,-5 -3,-9 0,-4 1.3,-11.2 3,-15 1.7,-3.8 4.06053,-5.94757 7.5,-7.5 4.0431,-1.82488 21.09931,-2.82402 26,1 2.89457,2.25864 3.9,2.9 5.5,5.5 1.6,2.6 3.8,5.8 4,10 0.2,4.2 -1.3,11.2 -3,15 -1.7,3.8 -5.1,5.8 -7.5,7.5 -2.4,1.7 -4,2.5 -7,3 z M 836.5,640 c 1.8,-0.8 6.1,-5.2 7,-7 0.9,-1.8 0,-3.5 -1.5,-3.5 -1.5,0 -5.9,2.1 -7.5,3.5 -1.6,1.4 -2.3,3.8 -2,5 0.3,1.2 2.2,2.8 4,2 z"
       sodipodi:nodetypes="sssssssssssssssssss" /></g>
      <g inkscape:label="r-earring-top" id="girl-r-earring-top"><path
       id="circle2127"
       style="fill:#ffffff;stroke:#000000;stroke-width:1.21586;stroke-opacity:0"
       d="M 864.26715,601.16449 A 16.772158,16.772158 0 0 1 847.495,617.93665 16.772158,16.772158 0 0 1 830.72284,601.16449 16.772158,16.772158 0 0 1 847.495,584.39233 16.772158,16.772158 0 0 1 864.26715,601.16449 Z" /><path
       id="path2070"
       style="fill:#ff00ff;stroke:#000000;stroke-opacity:0"
       d="M 861.28948,601.16449 A 13.794485,13.794485 0 0 1 847.495,614.95897 13.794485,13.794485 0 0 1 833.70051,601.16449 13.794485,13.794485 0 0 1 847.495,587.37 a 13.794485,13.794485 0 0 1 13.79448,13.79449 z" /></g>
      <g inkscape:label="necklace" id="girl-necklace"></g>
      <g inkscape:label="head" id="girl-head"></g>
    </g>
  </g>
</svg>