<?xml version="1.0" encoding="UTF-8" standalone="no"?>
<!-- Created with Inkscape (http://www.inkscape.org/) -->

<svg
   width="210mm"
   height="297mm"
   viewBox="0 0 210 297"
   version="1.1"
   id="svg462"
   inkscape:version="1.2.2 (b0a8486541, 2022-12-01)"
   sodipodi:docname="hand-thumbs-up.svg"
   xmlns:inkscape="http://www.inkscape.org/namespaces/inkscape"
   xmlns:sodipodi="http://sodipodi.sourceforge.net/DTD/sodipodi-0.dtd"
   xmlns="http://www.w3.org/2000/svg"
   xmlns:svg="http://www.w3.org/2000/svg">
  <sodipodi:namedview
     id="namedview464"
     pagecolor="#ffffff"
     bordercolor="#000000"
     borderopacity="0.25"
     inkscape:showpageshadow="2"
     inkscape:pageopacity="0.0"
     inkscape:pagecheckerboard="0"
     inkscape:deskcolor="#d1d1d1"
     inkscape:document-units="mm"
     showgrid="false"
     inkscape:zoom="2.8284271"
     inkscape:cx="338.35059"
     inkscape:cy="219.91021"
     inkscape:window-width="1678"
     inkscape:window-height="912"
     inkscape:window-x="0"
     inkscape:window-y="0"
     inkscape:window-maximized="1"
     inkscape:current-layer="layer6" />
  <defs
     id="defs459" />
  <g
     inkscape:label="Layer 1"
     inkscape:groupmode="layer"
     id="layer1" />
  <g
     inkscape:groupmode="layer"
     id="layer2"
     inkscape:label="pinky">
    <path
       fill="#081c1a"
       d="m 85.640976,76.291938 c -0.0101,0.02994 -0.0961,-0.146235 -0.114551,-0.08844 -0.06441,0.09436 -0.105846,0.213433 -0.192891,0.256956 -0.02124,0.06267 -0.173393,-0.113507 -0.196025,-0.0578 -0.06998,0.086 -0.236761,0.430349 -0.08983,0.362454 0.222486,-0.109676 0.344697,-0.22179 0.516001,-0.354098 0.121863,-0.145538 0.219005,-0.303263 0.321021,-0.457855 0.03551,-0.03308 0.08008,-0.04387 0.125344,-0.05571 -0.06581,0.0045 -0.131611,0.01079 -0.201595,0.02089 -0.09888,-0.0021 -0.05849,0.272972 -0.167474,0.373596 z"
       id="path329"
       style="display:inline;stroke-width:0.348179" />
    <path
       fill="#081c1a"
       d="m 84.897962,76.01827 c -0.24094,0.111417 -0.486406,0.161903 -0.72456,0.203684 -0.0097,0.04213 -0.01497,0.086 -0.04422,0.06824 -0.02507,-0.03099 -0.0484,-0.04979 -0.06929,-0.06058 l -0.10515,0.0056 -0.03447,0.02054 -0.0014,0.0017 c -0.01567,0.02507 -0.0063,0.05362 0.0101,0.08078 0.01706,0.01845 0.03343,0.04004 0.0484,0.06441 -0.0094,-0.01532 -0.03203,-0.0383 -0.0484,-0.06441 -0.02019,-0.02228 -0.04143,-0.03865 -0.06441,-0.04666 -0.03029,0.01706 -0.06302,0.02925 -0.09853,0.02263 0.03586,-0.0282 0.06824,-0.03377 0.09853,-0.02263 l 0.05536,-0.03621 0.01427,-0.01985 c -0.08078,0.0024 -0.159814,0.0097 -0.239547,0.0049 -0.01776,0.0066 -0.03482,0.01079 -0.0484,0.0188 -0.05501,0.02855 -0.11281,0.05745 -0.152502,-0.03586 l -0.04213,-0.0042 c 0.0035,0.0056 0.0056,0.01045 0.0087,0.01706 -0.007,-0.0056 -0.01184,-0.01149 -0.01636,-0.01811 -0.05954,-0.0073 -0.118381,-0.0063 -0.177571,-0.02054 -0.03865,0.03482 -0.08008,0.07938 -0.122211,0.104802 0,0 -0.02402,-0.06615 -0.03586,-0.09993 -0.01845,0.04805 -0.04422,0.07973 -0.07312,0.09436 0.0289,0.05989 0.05606,0.12604 0.08252,0.167822 0.04004,0.09993 0.09993,-0.191847 0.144843,-0.0042 -0.04492,-0.187669 -0.104802,0.104105 -0.144843,0.0042 -0.02646,-0.04178 -0.05362,-0.108284 -0.08252,-0.167822 -0.05954,0.0296 -0.133004,-0.0031 -0.180008,-0.110025 0.08008,-0.06998 0.131959,0.0073 0.180008,0.110025 0.0289,-0.01497 0.05466,-0.04666 0.07312,-0.09436 0.01149,0.03377 0.03586,0.09993 0.03586,0.09993 0.04178,-0.02542 0.08322,-0.06998 0.122211,-0.104802 -0.114203,-0.02263 -0.229102,-0.04561 -0.346786,-0.06894 -0.733613,-0.211344 -1.396546,-0.434179 -2.031972,-0.916058 -0.335993,-0.267054 -0.623241,-0.569969 -0.855476,-0.91397 -0.451588,-0.667111 -1.155954,-1.02295 -1.284084,-1.959551 -0.05815,-0.340867 -0.466908,-0.731175 -0.638908,-0.956099 -0.470738,-0.123952 -1.084577,0.472479 -1.110342,0.522268 -0.452981,0.617322 -0.007,0.573103 -0.01079,1.265631 -0.03412,-0.442536 0.525054,-0.06441 0.378122,0.520527 -0.11838,0.440446 0.07033,0.717945 0.331118,0.94252 0.258349,0.230495 0.58703,0.404236 0.769128,0.701581 0.09575,0.146931 0.251037,0.241984 0.399709,0.381604 0.326592,0.435572 0.774002,0.730827 1.262845,0.9655 0.491977,0.234324 1.019816,0.412244 1.594659,0.612447 0.316843,0.08287 0.634382,-0.03134 0.908747,-0.09923 0.191847,0.0031 0.395183,0.09644 0.556042,0.107935 0.252429,0.0073 0.470389,-0.08078 0.66154,-0.180357 -0.221094,0.05083 -0.387175,0.119078 -0.644828,0.142754 -0.169563,0.0017 0.124997,-0.239199 0.225968,-0.30779 0.04318,-0.04596 0.124648,0.168518 0.170956,0.12221 0.102365,-0.0073 0.189758,-0.09331 0.287596,-0.167822 0.03934,-0.05049 0.05919,0.145539 0.07973,0.12047 0.144842,-0.0672 0.208211,-0.331118 0.306049,-0.293515 0.07068,0.01288 0.139272,0.02646 0.206818,0.03865 0.04004,6.96e-4 0.08008,-0.001 0.118033,-0.01915 l 0.06198,-0.06755 c -0.03691,-0.05153 -0.06441,-0.120819 -0.09122,-0.190106 0.0376,0.0014 0.100276,0.0296 0.138575,0.03064 -0.0383,-10e-4 -0.100972,-0.02925 -0.138575,-0.03064 0.02681,0.06929 0.05397,0.138227 0.09122,0.190106 0.15111,-0.154244 0.304657,-0.340868 0.449151,-0.481184 l -0.0094,-0.01532 c -0.09436,0.05745 -0.204033,0.07973 -0.348179,0.007 0.05919,0.02368 0.07277,0.07695 0.02368,0.108284 l -0.07138,-0.07764 c 0.07277,-0.08705 0.137878,-0.170608 0.275409,-0.07242 0,0 0.02193,-0.05501 0.03238,-0.08252 0.0383,0.01462 0.06197,0.07173 0.08809,0.117685 0.01915,-0.01114 0.0376,-0.02228 0.05397,-0.03865 -0.08078,-0.06929 -0.257653,-0.138575 -0.258001,-0.138575 z"
       id="path331"
       style="display:inline;stroke-width:0.348179" />
  </g>
  <g
     inkscape:groupmode="layer"
     id="layer3"
     inkscape:label="ring">
    <path
       fill="#081c1a"
       d="m 88.686845,71.491248 c 0.0066,0.03621 -0.167474,-0.05501 -0.156333,0.01323 -0.01776,0.139968 -0.0056,0.291774 -0.07521,0.405977 0.0042,0.08078 -0.237806,0.01358 -0.239199,0.08391 -0.02437,0.06859 -0.05049,0.216219 -0.06163,0.331466 -0.01427,0.109329 -0.0091,0.18175 0.07799,0.104106 0.111418,-0.138227 0.193588,-0.261134 0.267054,-0.377774 0.06789,-0.120122 0.106542,-0.247207 0.16817,-0.382649 0.03273,-0.121166 0.03656,-0.241984 0.03168,-0.360713 -3.48e-4,-0.117685 -10e-4,-0.233628 -10e-4,-0.345394 0.0087,-0.06024 0.02994,-0.11072 0.05501,-0.163295 -0.04526,0.06511 -0.08217,0.130915 -0.142753,0.200202 -0.08774,0.08356 0.104105,0.293515 0.07625,0.490933 z"
       id="path323"
       style="display:inline;stroke-width:0.348179" />
    <path
       fill="#081c1a"
       d="m 88.359208,69.895196 c 0.02089,0.02437 0.06198,0.07346 0.06198,0.07346 -0.147279,0.100276 -0.09784,0.209604 -0.04944,0.327985 l 0.09993,-0.03969 c -0.0073,-0.0665 -0.06198,-0.07834 -0.107587,-0.02542 0.125693,-0.11838 0.152154,-0.246858 0.138923,-0.375336 -0.05292,0.0077 -0.114551,0.0045 -0.143798,0.039 z"
       id="path325"
       style="display:inline;stroke-width:0.348179" />
    <path
       fill="#081c1a"
       d="m 87.820228,71.769791 c -0.202641,0.244421 -0.482925,0.378122 -0.751371,0.476308 -0.0073,0.04178 -0.008,0.08809 -0.04561,0.07486 -0.03342,-0.02507 -0.06198,-0.03969 -0.08809,-0.04735 l -0.123256,0.02542 -0.039,0.02716 -0.001,0.0017 c -0.01706,0.0282 -0.0042,0.05571 0.01776,0.07938 0.02124,0.01532 0.04213,0.03517 0.06198,0.05606 -0.01253,-0.01358 -0.04074,-0.03273 -0.06198,-0.05606 -0.02577,-0.01811 -0.05153,-0.03134 -0.07973,-0.03482 -0.03517,0.02054 -0.07555,0.03168 -0.119077,0.02681 0.04213,-0.03029 0.08217,-0.03412 0.119077,-0.02681 l 0.06302,-0.04631 0.01532,-0.02263 c -0.09261,0.02437 -0.190454,0.02263 -0.286203,0.02751 -0.02124,0.0084 -0.04074,0.01567 -0.0571,0.02507 -0.06511,0.03517 -0.132656,0.07451 -0.18349,-0.01776 l -0.05153,-0.0045 c 0.0042,0.0063 0.007,0.01079 0.01114,0.01706 -0.008,-0.0052 -0.01497,-0.01184 -0.02089,-0.01776 l -0.217263,-0.01845 c -0.04596,0.03865 -0.09436,0.08739 -0.144495,0.11664 0,0 -0.03168,-0.06685 -0.0477,-0.100624 -0.02089,0.04805 -0.05049,0.07869 -0.08461,0.09366 0.0376,0.06058 0.07312,0.127085 0.107588,0.169563 0.05153,0.100624 0.113854,-0.199506 0.175134,-0.01567 -0.06128,-0.183838 -0.123256,0.116292 -0.175134,0.01567 -0.03447,-0.04248 -0.06964,-0.10898 -0.107588,-0.169563 -0.07173,0.03064 -0.162251,-0.0097 -0.226316,-0.109328 0.09505,-0.0773 0.162948,0.0073 0.226316,0.109328 0.03447,-0.01497 0.06406,-0.04561 0.08461,-0.09366 0.01602,0.03377 0.0477,0.100624 0.0477,0.100624 0.05049,-0.02925 0.09853,-0.07799 0.144495,-0.11664 -0.140317,-0.0056 -0.283418,-0.03795 -0.427912,-0.06163 -0.920934,-0.190454 -1.771535,-0.420252 -2.677844,-0.828318 -0.485362,-0.23885 -0.93312,-0.506948 -1.347452,-0.817524 -0.819614,-0.613839 -1.765616,-0.800115 -2.417407,-1.726967 -0.255215,-0.33843 -0.922325,-0.617669 -1.247524,-0.795589 -0.585637,0.01985 -0.825533,0.861395 -0.827274,0.916755 -0.105846,0.779225 0.316495,0.573451 0.673727,1.266327 -0.266705,-0.431394 0.510778,-0.235717 0.645871,0.396576 0.184187,0.958188 1.255534,0.839111 1.865891,1.333873 0.155636,0.123255 0.355143,0.181401 0.561613,0.287248 1.010415,0.716204 2.184126,0.834933 3.476218,1.174755 0.35166,0.07486 0.703669,-0.06372 1.011459,-0.125344 0.22945,-0.02193 0.460641,0.09853 0.656318,0.09192 0.152154,-0.0056 0.293863,-0.0282 0.424778,-0.06232 0.135441,-0.04387 0.262179,-0.103757 0.380211,-0.164689 -0.135441,0.04109 -0.257652,0.07834 -0.382648,0.115944 -0.121167,0.02646 -0.247904,0.05153 -0.402843,0.07138 -0.20473,0.0181 0.142405,-0.255215 0.26183,-0.315799 0.05118,-0.04561 0.155984,0.169912 0.212389,0.114203 0.127782,-0.01845 0.231887,-0.123255 0.352009,-0.196721 0.047,-0.05188 0.08078,0.142057 0.106891,0.112462 0.183838,-0.09679 0.241984,-0.377426 0.368025,-0.359321 0.09262,-0.0084 0.181401,-0.01706 0.268446,-0.02507 0.05118,-0.01253 0.103061,-0.02855 0.149369,-0.05989 0.02228,-0.03064 0.047,-0.05641 0.0672,-0.09366 -0.05432,-0.03482 -0.09993,-0.09296 -0.145538,-0.153198 0.04561,-0.01358 0.122559,-0.01985 0.168518,-0.0383 -0.04631,0.0188 -0.123255,0.02472 -0.168518,0.0383 0.04561,0.06058 0.09122,0.118729 0.145538,0.153198 0.07416,-0.12221 0.149021,-0.245118 0.222138,-0.365587 0.06511,-0.1243 0.111766,-0.26009 0.161904,-0.374989 l -0.01602,-0.008 c -0.08252,0.110721 -0.178964,0.224923 -0.371158,0.209604 0.07521,-0.0024 0.106891,0.04248 0.05606,0.09436 l -0.104454,-0.04492 c 0.06998,-0.109676 0.102364,-0.225272 0.279587,-0.215871 0,0 6.97e-4,-0.0665 0.0014,-0.09993 0.04561,-0.0101 0.09262,0.02994 0.138575,0.0571 0.01602,-0.02228 0.02994,-0.047 0.04283,-0.07103 -0.120469,-0.01184 -0.32485,0.02576 -0.32485,0.02576 z"
       id="path327"
       style="display:inline;stroke-width:0.348179" />
  </g>
  <g
     inkscape:groupmode="layer"
     id="layer4"
     inkscape:label="middle">
    <path
       fill="#081c1a"
       d="m 85.699122,67.845815 c -0.02751,0.03099 -0.07799,-0.15877 -0.130219,-0.09714 -0.137531,0.100972 -0.250689,0.215871 -0.397969,0.25034 -0.05919,0.06058 -0.206122,-0.134397 -0.262178,-0.08008 -0.140316,0.0867 -0.506252,0.400406 -0.270884,0.356187 0.355491,-0.08287 0.581111,-0.181401 0.895168,-0.305004 0.241637,-0.151458 0.461337,-0.323807 0.68069,-0.517394 0.0672,-0.03969 0.137879,-0.06998 0.210997,-0.09923 -0.101321,0.03134 -0.202989,0.05258 -0.312665,0.06964 -0.145539,0.01428 -0.207515,0.305702 -0.41294,0.42269 z"
       id="path319"
       style="display:inline;stroke-width:0.348179" />
    <path
       fill="#081c1a"
       d="m 84.713427,67.501466 c -0.412244,0.0759 -0.807775,0.104453 -1.19495,0.106194 -0.02716,0.04004 -0.04561,0.08635 -0.08704,0.06511 -0.03168,-0.03342 -0.06302,-0.05362 -0.09401,-0.0665 l -0.168518,-0.0042 c -0.01915,0.0056 -0.03865,0.01149 -0.05849,0.01741 l -0.0021,0.0014 c -0.03064,0.02298 -0.02124,0.05258 -3.49e-4,0.08113 0.02228,0.02019 0.04318,0.04387 0.06163,0.06859 -0.01149,-0.01602 -0.04143,-0.04108 -0.06163,-0.06859 -0.02751,-0.02368 -0.05745,-0.04213 -0.09261,-0.05327 -0.05083,0.01253 -0.10515,0.02089 -0.160859,0.0097 0.06198,-0.02402 0.114899,-0.02472 0.160859,-0.0097 0.03238,-0.008 0.06372,-0.0188 0.0947,-0.02925 l 0.02646,-0.01845 c -0.128478,-0.0031 -0.256956,-0.01427 -0.384389,-0.02193 -0.02994,0.0056 -0.0578,0.0097 -0.08008,0.01706 -0.09331,0.02681 -0.186275,0.05083 -0.242332,-0.04457 l -0.06824,-0.007 c 0.0042,0.0059 0.008,0.01114 0.01288,0.01741 -0.0101,-0.0059 -0.01845,-0.01219 -0.02576,-0.0188 l -0.289336,-0.03134 c -0.06372,0.03482 -0.129871,0.07939 -0.196025,0.10515 0,0 -0.04109,-0.0665 -0.06163,-0.09993 -0.02855,0.0484 -0.0672,0.07834 -0.112113,0.09261 0.04979,0.06163 0.0947,0.128478 0.137878,0.169912 0.06302,0.100275 0.153547,-0.192195 0.22562,-0.0049 -0.07207,-0.18732 -0.162947,0.10515 -0.22562,0.0049 -0.04317,-0.04143 -0.08844,-0.108632 -0.137878,-0.169912 -0.09366,0.03029 -0.211345,-0.01079 -0.301523,-0.110721 0.123255,-0.07695 0.218308,0.0084 0.301523,0.110721 0.04492,-0.01427 0.08356,-0.04422 0.112113,-0.09261 0.02054,0.03343 0.06163,0.09993 0.06163,0.09993 0.06581,-0.02577 0.132308,-0.07033 0.196025,-0.10515 -0.188365,-0.02472 -0.379167,-0.04944 -0.573103,-0.07486 -1.242998,-0.19707 -2.400693,-0.315102 -3.645085,-0.664326 -0.333555,-0.100275 -0.656317,-0.214478 -0.951224,-0.34783 -0.148325,-0.0665 -0.286552,-0.141013 -0.29839,-0.184883 -0.0094,0.0028 0.0063,-0.02646 -0.02368,0.0035 -0.14026,-0.05939 -0.170648,0.10828 -0.236063,0.236075 -0.0045,0.0066 -0.05536,0.01427 -0.03308,0.0091 0.01776,-0.0031 0.03273,-0.001 0.04457,0.0038 0.0073,0.0021 0.0056,0.0049 0.01915,0.0084 0.02263,0.0038 0.04492,0.0087 0.06546,0.01636 0.04213,0.01358 0.07973,0.03412 0.112114,0.05919 0.01741,0.02194 0.09505,0.06024 0.151109,0.09993 l 0.03412,0.02298 0.0035,0.0028 c -0.0038,0.0066 0.02577,-0.0073 0.04109,-0.01462 l 0.134049,-0.06824 c -0.792355,-0.440978 -1.24162,-0.950104 -1.902799,-0.613143 -0.0188,0.04561 -0.03517,0.07973 -0.05083,0.13579 -0.01567,0.06372 -0.02855,0.130219 -0.03656,0.197418 -0.03934,0.276802 0.0059,0.537588 0.1243,0.786884 0.02785,0.06023 0.06093,0.122559 0.09262,0.173393 l 0.08078,0.107239 c 0.0564,0.06998 0.118381,0.137531 0.18349,0.199158 0.07416,0.07312 0.112114,0.09679 0.158422,0.130219 l 0.140664,0.09436 c 0.106195,0.06894 0.176527,0.100623 0.246163,0.13196 l 0.2197,0.0947 0.303264,0.104106 c 0.398665,0.123255 0.781314,0.195676 1.167792,0.254518 0.771217,0.116989 1.540344,0.165037 2.352297,0.283766 0.433134,0.04387 0.829362,-0.10515 1.197039,-0.181053 0.267053,-0.01741 0.5449,0.09401 0.763208,0.09888 0.340867,0.01045 0.638212,-0.05606 0.918844,-0.146583 -0.314405,0.04039 -0.5449,0.09053 -0.896212,0.108632 -0.232584,0.0042 0.170607,-0.244074 0.32311,-0.29839 0.0658,-0.04283 0.166429,0.175831 0.232583,0.132308 0.14345,0.0028 0.275758,-0.08983 0.427912,-0.146235 0.06441,-0.04422 0.06093,0.152502 0.09366,0.129871 0.211345,-0.05118 0.361062,-0.30779 0.496503,-0.261483 0.100624,0.02472 0.195677,0.0484 0.288641,0.07103 0.0571,0.0077 0.11455,0.01184 0.174437,-0.0024 l 0.110025,-0.06024 c -0.03656,-0.05675 -0.05432,-0.128478 -0.07138,-0.200899 0.05501,0.0049 0.137531,0.04039 0.193587,0.04596 -0.05606,-0.0056 -0.138227,-0.04109 -0.193587,-0.04596 0.01706,0.07242 0.03482,0.144146 0.07138,0.200899 0.28098,-0.142057 0.574495,-0.29073 0.839807,-0.424778 l -0.0073,-0.01636 c -0.164688,0.05049 -0.334251,0.06267 -0.523661,-0.03551 0.08078,0.03308 0.07973,0.08774 -0.0056,0.111069 l -0.07834,-0.08844 c 0.142754,-0.07555 0.278892,-0.146236 0.442536,-0.03447 0,0 0.05536,-0.05501 0.08287,-0.08182 0.05153,0.01811 0.06163,0.07904 0.08147,0.128826 0.03203,-0.0097 0.06406,-0.02054 0.09575,-0.03551 -0.09018,-0.07799 -0.32694,-0.165385 -0.32694,-0.165385 z"
       id="path321"
       style="display:inline;stroke-width:0.348179"
       sodipodi:nodetypes="ccccccccccccccccccccccccccccccccccccccccccccccccccccccccccccccccccccccccccccccccccccccccccc" />
  </g>
  <g
     inkscape:groupmode="layer"
     id="layer5"
     inkscape:label="pointer">
    <path
       fill="#081c1a"
       d="m 85.379463,65.592381 c -0.376315,0.08523 -0.737372,0.117299 -1.090802,0.119254 -0.02479,0.04496 -0.04163,0.09697 -0.07945,0.07312 -0.02892,-0.03753 -0.05753,-0.06021 -0.08582,-0.07468 l -0.15383,-0.0047 c -0.01748,0.0063 -0.03528,0.0129 -0.05339,0.01955 l -0.0019,0.0016 c -0.02797,0.02581 -0.01939,0.05905 -3.19e-4,0.09111 0.02034,0.02267 0.03942,0.04927 0.05626,0.07703 -0.01049,-0.01799 -0.03782,-0.04613 -0.05626,-0.07703 -0.02511,-0.02659 -0.05244,-0.04731 -0.08454,-0.05982 -0.0464,0.01407 -0.09599,0.02346 -0.146839,0.01089 0.05658,-0.02697 0.104885,-0.02776 0.146839,-0.01089 0.02956,-0.009 0.05817,-0.02111 0.08645,-0.03285 l 0.02415,-0.02072 c -0.11728,-0.0035 -0.234561,-0.01602 -0.350887,-0.02463 -0.02733,0.0063 -0.05276,0.01089 -0.0731,0.01916 -0.08518,0.03011 -0.17004,0.05708 -0.221212,-0.05005 l -0.06229,-0.0079 c 0.0038,0.0066 0.0073,0.01251 0.01176,0.01955 -0.0092,-0.0066 -0.01684,-0.01369 -0.02351,-0.02111 l -0.264118,-0.03519 c -0.05817,0.0391 -0.118552,0.08915 -0.17894,0.118081 0,0 -0.03751,-0.07468 -0.05626,-0.112219 -0.02606,0.05435 -0.06134,0.08797 -0.102341,0.103999 0.04545,0.06921 0.08645,0.144278 0.12586,0.190808 0.05753,0.112607 0.140165,-0.215831 0.205956,-0.0055 -0.06579,-0.210356 -0.148745,0.118082 -0.205956,0.0055 -0.03941,-0.04653 -0.08073,-0.121992 -0.12586,-0.190808 -0.381013,-0.07578 0.03673,-0.113253 0.102341,-0.103999 0.01875,0.03754 0.05626,0.112219 0.05626,0.112219 0.06007,-0.02894 0.120776,-0.07898 0.17894,-0.118081 -0.171948,-0.02776 -0.329584,-0.144113 -0.506617,-0.172663 -1.134662,-0.221305 -2.095305,-0.103254 -3.231239,-0.495426 -0.304484,-0.112607 -0.711802,-0.402861 -0.981005,-0.552612 -0.135398,-0.07468 -0.261577,-0.158355 -0.272384,-0.20762 -0.0086,0.0031 0.0058,-0.02971 -0.02162,0.0039 -0.128035,-0.06669 -0.155774,0.121596 -0.215488,0.265108 -0.0041,0.0074 -0.05053,0.01602 -0.0302,0.01022 0.01621,-0.0035 0.02988,-0.0011 0.04069,0.0043 0.0067,0.0024 0.0051,0.0055 0.01748,0.0094 0.02066,0.0043 0.041,0.0098 0.05975,0.01837 0.03846,0.01525 0.07278,0.03832 0.102343,0.06647 0.01589,0.02464 0.08676,0.06765 0.137938,0.11222 l 0.03115,0.02581 0.0032,0.0031 c -0.0035,0.0074 0.02352,-0.0082 0.03751,-0.01642 l 0.122366,-0.07663 c -0.723326,-0.495147 -1.055984,-1.099021 -1.659537,-0.720621 -0.01716,0.05122 -0.10955,0.121676 -0.12385,0.184626 -0.01431,0.07156 -0.02606,0.146233 -0.03337,0.221697 -0.03591,0.310843 0.0054,0.603701 0.113466,0.883655 0.02542,0.06764 0.05562,0.137632 0.08455,0.194717 l 0.07374,0.120428 c 0.05148,0.07859 0.108064,0.154444 0.167499,0.22365 0.0677,0.08211 0.102342,0.108693 0.144614,0.146234 l 0.128404,0.105964 c 0.09694,0.07742 0.161142,0.112998 0.224709,0.148189 l 0.200551,0.106346 0.276832,0.116909 c 0.363918,0.138413 0.713217,0.21974 1.066011,0.285819 0.704,0.131376 1.406092,0.185333 2.147278,0.318663 0.395382,0.04927 0.757077,-0.118081 1.092708,-0.203319 0.243778,-0.01955 0.497408,0.105572 0.696689,0.111041 0.311158,0.01174 0.582587,-0.06296 0.83876,-0.16461 -0.287002,0.04536 -0.497408,0.101663 -0.8181,0.121991 0.344371,-0.474658 0.865029,-0.20381 0.983376,-0.204883 0.192925,-0.05747 0.329593,-0.345642 0.45323,-0.29364 0.09185,0.02776 0.178622,0.05435 0.263483,0.07976 0.05212,0.0086 0.104567,0.0133 0.159234,-0.0027 l 0.100435,-0.06765 c -0.03337,-0.06373 -0.04958,-0.144279 -0.06516,-0.225606 0.05021,0.0055 0.125544,0.04536 0.176714,0.05161 -0.05117,-0.0063 -0.126179,-0.04614 -0.176714,-0.05161 0.01557,0.08133 0.03178,0.161873 0.06516,0.225606 0.256491,-0.159528 0.524424,-0.326485 0.766612,-0.477018 l -0.0067,-0.01837 c -0.150335,0.0567 -0.305119,0.07038 -0.478021,-0.03988 0.07374,0.03715 0.07278,0.09853 -0.0051,0.124728 l -0.07151,-0.09932 c 0.130312,-0.08484 0.254585,-0.16422 0.403966,-0.03871 0,0 0.05053,-0.06178 0.07565,-0.09188 0.04704,0.02034 0.05626,0.08876 0.07437,0.144669 0.02924,-0.01089 0.05848,-0.02307 0.0874,-0.03988 -0.08232,-0.08758 -0.298444,-0.185725 -0.298444,-0.185725 z"
       id="path321-3"
       style="display:inline;stroke-width:0.352522"
       sodipodi:nodetypes="cccccccccccccccccccccccccccccccccccccccccccccccccccccccccccccccccccccccccccccccccccccc" />
  </g>
  <g
     inkscape:groupmode="layer"
     id="layer6"
     inkscape:label="thumb">
    <path
       fill="#081c1a"
       d="m 85.3687,52.959426 c 0.02785,0.0195 -0.163992,0.06267 -0.108284,0.100972 0.08356,0.101668 0.196025,0.181401 0.224924,0.290729 0.05884,0.04039 -0.141361,0.165734 -0.08913,0.205774 0.07486,0.103757 0.38822,0.357232 0.344349,0.180705 -0.07242,-0.264268 -0.1626,-0.427912 -0.266357,-0.658406 -0.127782,-0.175134 -0.267401,-0.3346 -0.386827,-0.50869 -0.02368,-0.05153 -0.02193,-0.107239 -0.02437,-0.162599 -0.0094,0.07799 -0.0188,0.155288 -0.02855,0.237458 -0.02542,0.113854 0.2486,0.165037 0.334252,0.314057 z"
       id="path313"
       style="display:inline;stroke-width:0.348179" />
    <path
       fill="#081c1a"
       d="m 84.29422,51.790938 c 0.02925,0.01358 0.0867,0.04143 0.0867,0.04143 -0.09157,0.156681 -0.001,0.239199 0.09122,0.32694 l 0.07381,-0.08217 c -0.03447,-0.05815 -0.08774,-0.04457 -0.107239,0.02472 0.06372,-0.166778 0.03482,-0.294908 -0.0296,-0.408414 -0.04561,0.0296 -0.102365,0.05258 -0.114899,0.09749 z"
       id="path315"
       style="display:inline;stroke-width:0.348179" />
    <path
       fill="#081c1a"
       d="m 84.977695,53.737954 c 0.06406,0.321021 0.114899,0.625678 0.142057,0.924763 0.04074,0.01776 0.08635,0.02751 0.0672,0.06198 -0.03064,0.0282 -0.04979,0.05432 -0.06128,0.07973 l 0.0049,0.13196 c 0.007,0.01393 0.01358,0.02855 0.02089,0.04387 l 0.001,10e-4 c 0.02472,0.02193 0.05432,0.01079 0.08078,-0.0077 0.01915,-0.02019 0.04143,-0.0383 0.06546,-0.05501 -0.01497,0.01044 -0.03865,0.03621 -0.06546,0.05501 -0.02194,0.02368 -0.03865,0.04944 -0.047,0.0773 0.01706,0.0383 0.02855,0.07973 0.02228,0.123255 -0.02855,-0.04491 -0.03343,-0.086 -0.02228,-0.123255 l -0.03517,-0.07033 -0.02019,-0.0188 0.007,0.300478 c 0.0073,0.02194 0.01428,0.04352 0.02263,0.06058 0.03482,0.06859 0.06894,0.137878 -0.02054,0.191846 v 0.05327 c 0.0056,-0.0038 0.0097,-0.0073 0.01637,-0.01219 -0.0052,0.0087 -0.01045,0.01602 -0.01602,0.02193 -3.49e-4,0.07521 0.0035,0.150414 -0.0028,0.226317 0.04004,0.04561 0.08983,0.09261 0.121166,0.140664 0,0 -0.06337,0.03865 -0.09436,0.05849 0.05049,0.01636 0.08496,0.04352 0.103409,0.07695 0.05536,-0.04526 0.117685,-0.08774 0.155636,-0.125693 0.09436,-0.05919 -0.203685,-0.09784 -0.02298,-0.173393 -0.180705,0.07556 0.117337,0.114203 0.02298,0.173393 -0.03795,0.03795 -0.100275,0.08043 -0.155636,0.125693 0.03934,0.06859 0.0101,0.163992 -0.07973,0.244421 -0.08913,-0.0867 -0.01393,-0.168867 0.07973,-0.244421 -0.01845,-0.03343 -0.05292,-0.06058 -0.103409,-0.07695 0.03134,-0.01985 0.09436,-0.05849 0.09436,-0.05849 -0.03134,-0.0484 -0.08078,-0.09505 -0.121166,-0.140664 -0.007,0.14902 -0.01358,0.298389 -0.02124,0.451936 -0.04979,0.981168 -0.03377,1.881907 -0.138575,2.894411 -0.07904,0.546989 -0.174089,1.069954 -0.327288,1.57725 -0.288292,1.005889 -0.118729,1.9693 -0.732568,2.937934 -0.216568,0.371507 -0.224924,1.107905 -0.262876,1.482546 0.243029,0.54107 1.112084,0.432438 1.164659,0.412592 0.758682,-0.205774 0.407369,-0.518439 0.911532,-1.116262 -0.297693,0.413637 -0.411547,-0.386478 0.123255,-0.751022 0.819962,-0.530973 0.308487,-1.480805 0.558828,-2.225907 0.06058,-0.188017 0.04004,-0.394835 0.06929,-0.623241 0.324503,-1.180326 0.04909,-2.30564 0.06546,-3.571271 -0.0056,-0.335992 -0.204033,-0.624981 -0.324503,-0.90039 -0.047,-0.203337 0.03517,-0.430349 0.02368,-0.598171 -0.01915,-0.263572 -0.123255,-0.486406 -0.23119,-0.692528 0.06128,0.237806 0.142056,0.410851 0.191846,0.678949 0.02193,0.178615 -0.254171,-0.104454 -0.327984,-0.216568 -0.04979,-0.04561 0.158073,-0.147628 0.107935,-0.194284 -0.01288,-0.110372 -0.112114,-0.202291 -0.181053,-0.313709 -0.04979,-0.04526 0.146235,-0.06337 0.121863,-0.086 -0.06337,-0.157377 -0.32694,-0.246511 -0.285159,-0.355839 0.0188,-0.07904 0.03586,-0.154591 0.05327,-0.229101 0.0028,-0.04492 0.0042,-0.08948 -0.01184,-0.134049 l -0.06441,-0.07904 c -0.05501,0.03343 -0.12604,0.05362 -0.197417,0.07347 0.0031,-0.04317 0.03517,-0.109677 0.0383,-0.153547 -0.0035,0.04387 -0.03551,0.110373 -0.0383,0.153547 0.07138,-0.01985 0.142405,-0.04004 0.197417,-0.07347 -0.151806,-0.191846 -0.297344,-0.412592 -0.419555,-0.615928 l -0.01706,0.0066 c 0.04317,0.124996 0.04909,0.25626 -0.04422,0.411896 0.03203,-0.06546 0.0867,-0.06894 0.110025,-0.0052 l -0.08739,0.06859 c -0.07521,-0.104802 -0.149717,-0.206818 -0.03099,-0.343304 0,0 -0.05153,-0.04004 -0.07764,-0.06023 0.01985,-0.04178 0.08008,-0.05258 0.129871,-0.07173 -0.0084,-0.02437 -0.01637,-0.04944 -0.02994,-0.07277 -0.08182,0.07451 -0.17583,0.267749 -0.17583,0.267749 z"
       id="path317"
       style="display:inline;stroke-width:0.348179" />
  </g>
</svg>
