<?xml version="1.0" encoding="UTF-8" standalone="no"?>
<svg
   width="349.0"
   height="129.0"
   viewBox="0 0 349.00 129.00"
   version="1.1"
   id="svg1056"
   sodipodi:docname="hand-spread-closed.svg"
   inkscape:version="1.2.2 (b0a8486541, 2022-12-01)"
   xmlns:inkscape="http://www.inkscape.org/namespaces/inkscape"
   xmlns:sodipodi="http://sodipodi.sourceforge.net/DTD/sodipodi-0.dtd"
   xmlns="http://www.w3.org/2000/svg"
   xmlns:svg="http://www.w3.org/2000/svg">
  <defs
     id="defs1060">
    <inkscape:path-effect
       effect="bend_path"
       id="path-effect1992"
       is_visible="true"
       lpeversion="1"
       bendpath="M 17.961677,94.060673 H 68.161148"
       prop_scale="1"
       scale_y_rel="false"
       vertical="false"
       hide_knot="false" />
    <inkscape:path-effect
       effect="bend_path"
       id="path-effect1990"
       is_visible="true"
       lpeversion="1"
       bendpath="m 62.466274,85.716638 c 0,0 -26.548012,-4.329085 -27.261366,-13.453296 -0.677099,-8.660478 27.456164,0 27.456164,0"
       prop_scale="1"
       scale_y_rel="false"
       vertical="false"
       hide_knot="false"
       bendpath-nodetypes="csc" />
    <inkscape:path-effect
       effect="bend_path"
       id="path-effect1966"
       is_visible="true"
       lpeversion="1"
       bendpath="M 76.618649,30.455626 H 97.820014"
       prop_scale="1"
       scale_y_rel="false"
       vertical="false"
       hide_knot="false" />
    <inkscape:path-effect
       effect="bend_path"
       id="path-effect1885"
       is_visible="true"
       lpeversion="1"
       bendpath="m 72.965729,60.604019 c 0,0 -28.25195,-5.220775 -24.819961,-13.855266 3.330885,-8.380126 31.10775,0 31.10775,0"
       prop_scale="1"
       scale_y_rel="false"
       vertical="false"
       hide_knot="false"
       bendpath-nodetypes="csc" />
    <inkscape:path-effect
       effect="bend_path"
       id="path-effect1883"
       is_visible="true"
       lpeversion="1"
       bendpath="m 17.038018,46.748753 h 62.2155"
       prop_scale="1"
       scale_y_rel="false"
       vertical="false"
       hide_knot="false" />
  </defs>
  <sodipodi:namedview
     id="namedview1058"
     pagecolor="#ffffff"
     bordercolor="#000000"
     borderopacity="0.25"
     inkscape:showpageshadow="2"
     inkscape:pageopacity="0.0"
     inkscape:pagecheckerboard="0"
     inkscape:deskcolor="#d1d1d1"
     showgrid="false"
     inkscape:zoom="10.616732"
     inkscape:cx="59.010625"
     inkscape:cy="96.07476"
     inkscape:window-width="1678"
     inkscape:window-height="912"
     inkscape:window-x="0"
     inkscape:window-y="0"
     inkscape:window-maximized="1"
     inkscape:current-layer="layer-ring" />
  <g
     inkscape:groupmode="layer"
     id="layer-arm"
     inkscape:label="arm">
    <path
       fill="#081c1a"
       d="M 313.5,79 C 305.24832,81.204382 296.56692,77.831516 287.96537,78.009303 264.48295,78.494667 240.92218,79.781552 217.5,78 210.7839,77.489156 204.20666,77 197.53535,77 H 174.5 c -6.7355,0 -13.32383,0.362972 -19.96465,1 -5.3127,0.509627 -9.86858,-1.426947 -15.39285,-0.930365 -8.74005,0.785652 -17.13107,2.045201 -25.95499,0.1836 -10.40858,-2.19592 -10.00363,-14.593485 0.37946,-15.885527 5.59844,-0.696654 11.05771,1.209592 16.67745,-0.683078 9.32309,-3.13992 18.94339,2.141122 28.74522,0.05784 8.8449,-1.879897 17.97832,-2.445652 27.02395,-1.81883 11.44652,0.793194 22.86974,2.387983 34.3398,2.203089 C 232.44624,60.931796 244.52141,61.459156 256.5,60 c 6.68607,-0.814455 13.29397,-0.908276 19.96465,-1 4.78267,-0.06576 9.48734,0.28968 14.29844,0.91543 8.20972,1.067786 16.77058,-1.943356 24.93787,-0.646415 7.73804,1.228779 17.23061,-0.828662 23.16902,4.718659 7.86729,7.349175 -1.62076,16.432263 -11.15388,13.876582 C 323.40945,76.709709 318.10477,77.769865 313.5,79 Z"
       id="path1035"
       sodipodi:nodetypes="ssssssssssssssssssss" />
  </g>
  <g
     inkscape:groupmode="layer"
     id="layer-pointer"
     inkscape:label="pointer">
    <path
       fill="#081c1a"
       d="m 74.107761,54.923103 c -0.487833,-0.127318 -0.97894,-0.251693 -1.473152,-0.373527 -1.042144,-0.255386 -2.079042,-0.496396 -3.110655,-0.719643 -2.029885,-0.439277 -3.401878,-1.660048 -5.431763,-2.099326 -0.101268,-0.02212 -0.202549,-0.03941 -0.303778,-0.05242 -2.086799,-0.231775 -3.849961,1.159161 -5.57352,-0.02106 -0.940244,-0.643841 -1.925581,-0.589817 -2.797809,-0.554079 -0.613033,0.06106 -0.985029,-0.02471 -1.351621,-0.385032 -0.190701,-0.187441 -0.340825,-0.298175 -0.424229,-0.347108 0.06272,-0.225721 0.10333,-0.433496 0.562096,-1.214426 0,0 0,0 0,0 0.206159,-0.777766 0.108454,-1.383406 -0.400116,-1.88786 -0.207705,-0.02256 -0.359425,0.05412 -0.488474,0.247126 -0.225392,0.337097 -0.08869,0.797128 0.197222,1.302846 0.798594,1.189677 2.278912,1.854527 3.677044,2.777448 1.130998,0.746582 2.027436,1.805354 2.896631,3.010701 0.628921,0.874107 1.235378,1.805679 1.914933,2.698084 1.457519,1.914041 4.653523,0.923799 6.558684,2.478897 0.251647,0.205404 0.482847,0.456236 0.688365,0.765818 0.493067,0.742736 1.307972,1.573496 1.952427,2.44429 0.290064,0.39199 0.550948,0.797314 0.727576,1.205079 0.07031,0.16235 0.130122,0.32686 0.174012,0.491707 0.01561,0.0553 0.03044,0.111112 0.04378,0.16716 -0.04194,0.663989 0.990051,-2.986301 1.047962,-3.11469 0.05791,-0.128389 -1.295951,4.946666 -1.313416,4.530475 0,0 -1e-6,-1e-6 -1e-6,-1e-6 -0.03498,0.05234 -0.0712,0.103923 -0.109312,0.157305 -0.01783,0.02398 -0.03624,0.04795 -0.05525,0.07192 -0.0981,0.123691 -0.200918,0.238775 -0.306942,0.346615 -0.34583,0.351674 -0.747664,0.617228 -1.182206,0.813957 0,0 0,0 0,0 -1.067231,0.483019 -2.366266,0.535063 -3.655567,0.380809 0,0 -10e-7,-10e-7 -10e-7,-10e-7 -0.743874,-0.08744 -1.486715,-0.244844 -2.191658,-0.427961 -1.407583,-0.365635 -2.822999,-0.763158 -4.242859,-1.199106 -1.472445,-0.452093 -2.819738,-0.527737 -3.998933,-0.831998 -0.830871,-0.183927 -1.607503,-0.51539 -2.260382,-1.231618 -1.743457,-1.912625 -4.224484,-3.140385 -6.865292,-4.797357 -0.427719,-0.268372 -0.850211,-0.558945 -1.265608,-0.871213 -1.53602,-1.029309 -3.1012,-2.986142 -4.30454,-5.757853 0,0 10e-7,-2e-6 10e-7,-2e-6 -1.100324,-3.013355 -0.81403,-6.035805 0.533846,-8.630923 0.780379,-1.265212 1.664966,-2.25057 2.601025,-2.984714 1.037031,-0.813334 2.116653,-1.457747 3.238005,-1.900678 2.182046,-0.875586 4.133814,-1.467808 5.891108,-1.666774 2.357708,-0.319343 4.602621,-0.272545 6.286714,0.818943 1.859979,1.205483 3.642065,1.516472 5.360347,2.111863 1.124322,0.380093 2.179921,0.871836 3.036323,1.798448 1.227502,1.328136 2.055139,3.695515 3.810749,3.754043 0.864406,0.02882 1.664086,0.189823 2.370491,0.466336 0,0 0,0 0,0 1.248503,0.489029 2.195072,1.336113 2.710423,2.45965 0.118698,0.25874 0.213555,0.531456 0.283479,0.817794 0.08019,0.328373 0.120084,0.654533 0.125916,0.973804 0.01773,0.968061 -0.313965,1.968589 -0.771596,2.657248 0,0 0,0 0,0 -0.322706,0.485713 -0.726905,0.876965 -1.183112,1.11671 0,0 0,0 0,0 -0.501573,0.263732 -1.057785,0.352952 -1.627366,0.204298 z"
       id="path1038"
       sodipodi:nodetypes="ssssssssssssssssssss"
       inkscape:path-effect="#path-effect1885"
       inkscape:original-d="m 76.5,56 h -5 c -2.40944,0 -4.095051,-0.952476 -6.174661,-1.087507 -2.349018,-0.152523 -4.393813,1.681109 -6.805308,0.491881 -2.113011,-1.04203 -4.431709,-0.274827 -6.53194,-1.333196 C 49.19241,52.662352 45.653083,53.929008 42.85468,52.341567 40.37732,50.936243 37.65076,51.338581 35.010981,50.926703 32.441696,50.525824 30.499627,48.768029 28.373644,47.254562 26.176262,45.690267 22.950807,48.20962 20.696384,46.024756 19.257413,44.630183 16.19891,43.122898 17.255687,40.720381 18.294271,38.359224 21.152721,38 23.552029,38 H 27.5 c 2.36574,0 4.051985,-1.079183 5.763944,-0.07449 1.936425,1.136424 4.124583,1.170484 6.286039,1.048732 3.160325,-0.178018 6.277367,0.482451 9.254825,1.71928 3.47415,1.443154 7.946948,-0.509481 11.086731,1.555401 2.783867,1.830813 5.797728,0.923375 8.230033,2.832129 C 69.501475,46.163932 70.77763,48.331976 72.5,48 c 2.666248,-0.513902 4.959499,0.31587 6.124015,2.314379 C 80.097849,52.843731 78.818193,56 76.5,56 Z"
       class="UnoptimicedTransforms" />
  </g>
  <g
     inkscape:groupmode="layer"
     id="layer-thumb"
     inkscape:label="thumb">
    <path
       fill="#081c1a"
       d="m 91,48.5 c 0.247529,-3.534725 -4.666667,-5.333333 -7,-8 -3.095979,-3.538262 -2.413719,-9.146268 -4.661992,-13.323984 -0.871267,-1.618978 -1.960146,-3.172073 -2.446162,-4.944342 -0.425413,-1.551276 1.164357,-2.718599 0.263308,-4.573201 -0.876287,-1.803636 -0.494196,-4.028143 -0.148042,-5.98513 0.179039,-1.012201 1.601305,-1.333081 2.372009,-2.0237708 C 80.153126,8.9559244 80.613176,8.1252156 81.5,8 c 1.777425,-0.2509645 3.73605,0.1956664 5,2 1.262732,1.802595 2.709335,3.569728 3.099162,5.837285 0.551873,3.210152 1.487265,6.398863 3.210159,9.217273 1.649814,2.698862 1.88313,5.907694 2.490805,8.94607 C 95.533417,35.167085 95.766708,36.333543 96,37.5 c 0.366889,1.834444 1,3.067079 1,4.614044 0,2.461985 1.845031,6.54514 0,7.385956 -4.690678,2.137632 -6.56797,7.110639 -6,-1 z"
       id="path1041"
       sodipodi:nodetypes="ssssssssssssssss" />
  </g>
  <g
     inkscape:groupmode="layer"
     id="layer-middle"
     inkscape:label="middle">
    <path
       fill="#081c1a"
       d="m 43.273976,72.4487 c 0.07044,0.01662 0.141067,0.03501 0.211957,0.05527 2.301291,0.609658 4.525966,1.962578 7.299064,3.435626 0.0378,0.06521 0.07744,0.12678 0.118811,0.184922 1.459978,1.680711 4.414171,0.0043 6.402227,1.109099 2.89489,0.135309 5.879191,2.083184 6.060445,4.897659 -0.0771,3.805667 -5.556523,6.097143 -9.186655,3.895639 -1.91298,0.110117 -3.750375,0.280146 -5.587269,-0.217392 -0.183299,0.08673 -0.36808,0.168235 -0.554219,0.244015 -1.859882,0.619898 -4.005694,0.598126 -6.099505,-0.740553 -1.802409,-1.313771 -3.61772,-1.251135 -5.54712,-1.939885 -0.691675,-0.239412 -1.415748,-0.618919 -2.112764,-1.258246 -0.919619,-0.714907 -1.849027,-1.576424 -2.756027,-2.60786 -1.447975,-1.58003 -2.51653,-3.848611 -2.924702,-6.727126 1e-6,-10e-7 0,-3e-6 0,-3e-6 -0.281211,-2.912021 0.802605,-5.768586 3.248988,-8.163548 0,0 2e-6,-10e-7 2e-6,-10e-7 2.491688,-1.848908 4.692829,-2.69958 6.269903,-2.80285 -10e-7,10e-7 1e-6,0 1e-6,0 4.187029,-0.699168 7.962854,-0.492108 11.113868,-0.07554 0.154383,0.18357 0.319011,0.346898 0.49187,0.49277 1.802727,1.400738 4.639339,1.165908 6.755257,1.882314 1.307578,0.02845 2.33427,0.535101 3.281283,1.114418 0,0 0,0 0,0 1.024636,0.624249 1.96712,1.336298 3.120435,1.663343 0,0 0,0 0,0 0.100874,0.0286 0.203764,0.05439 0.308925,0.0771 0.256425,0.208216 0.426916,0.402655 0.525002,0.584626 0,0 0,0 0,0 0.242121,0.449281 0.05334,0.797163 -0.337033,1.13203 -0.317762,0.272549 -0.778018,0.531295 -1.236121,0.788752 -0.76294,0.428726 -1.546636,0.863359 -1.831376,1.394449 -0.633235,0.982621 -1.423722,1.210043 -2.289905,1.118572 -1.299027,-0.137086 -2.76629,-0.968071 -4.065316,-1.105156 -1.992271,0.353413 -3.932909,1.196405 -5.853376,1.773875 -1.61662,0.486958 -3.120139,0.744083 -4.624956,0.508695 -1.394862,-0.239571 -2.601606,-0.115181 -3.434713,0.669994 -0.140555,0.167543 -0.247892,0.333593 -0.311996,0.498908 -0.350277,-0.0018 -0.40589,-0.217898 -0.0735,-0.434002 0.621634,-0.886798 0.774937,-1.430435 0.673436,-2.035889 -0.06856,-0.0591 -0.08315,-0.0669 -0.02157,-0.01679 0.02546,0.07257 0.130358,0.221809 0.287901,0.398873 0.459372,0.45247 1.480497,0.679544 2.579195,0.220084 0.03162,-0.0052 0.06328,-0.01036 0.09498,-0.01546 0.0015,-2.46e-4 0.003,-4.91e-4 0.0046,-7.36e-4 z"
       id="path1044"
       sodipodi:nodetypes="ssssssssssssssssssssssssssss"
       inkscape:path-effect="#path-effect1990"
       inkscape:original-d="m 29.5,79 c -3.002101,0.94202 -6.188348,0.426999 -9.223749,-0.05378 -1.718108,-1.574413 -3.96217,0.938619 -6.030566,0.322307 -2.580956,0.56545 -5.6431514,-0.61704 -6.4084694,-3.305453 -0.7583036,-3.734498 3.5079664,-7.240748 7.0600954,-5.994356 1.60797,-0.567461 3.127169,-1.17529 4.806047,-1.133887 1.460832,-1.397438 3.203967,-2.237805 5.260263,-1.834486 2.271915,0.633755 3.691542,-1.298124 5.881997,-1.112048 C 37.063746,65.592203 43.281873,65.296101 49.5,65 c 1.63302,1.670926 4.211344,0.708748 6.273025,0.956012 2.341846,-0.575576 4.044452,1.250843 6.129658,1.07987 2.243515,1.125743 -1.174724,2.992326 -1.486832,4.533999 -0.76977,2.761457 -3.503438,1.295511 -5.487779,1.542845 -3.026148,1.398977 -5.761346,4.171963 -9.341209,3.887274 -1.772645,-0.166235 -3.306162,-0.01103 -4.724922,0.932668 -2.035673,-0.224634 -4.050823,-0.61198 -6.122746,-0.548559 -1.812593,-0.08763 -3.902009,0.07201 -5.143351,1.544719 l -0.09145,0.06791 z"
       class="UnoptimicedTransforms" />
  </g>
  <g
     inkscape:groupmode="layer"
     id="layer-pinky"
     inkscape:label="pinky">
    <path
       fill="#081c1a"
       d="m 50.5,121 c -2.113751,0.72597 -5.424204,-1.05456 -4.456804,-4.09246 1.369161,-4.29954 5.112729,-3.40075 7.041034,-7.15773 2.027221,-3.9497 6.915934,-5.44993 10.508116,-7.97324 4.597057,-3.229173 8.947249,-7.135337 14.419049,-8.700229 3.302586,-0.944513 4.627806,-4.345987 8.223003,-4.739524 2.535168,-0.277504 3.84447,-3.245776 6.055542,-4.389843 2.488875,-1.28781 0.796248,-4.448243 3.804168,-4.990348 1.920629,-0.346147 3.756101,-1.209324 5.221552,1.529501 2.28992,4.279709 -3.915213,4.401811 -3.31566,7.867815 0.351936,2.034535 0.01187,3.678145 -2.239939,4.805466 -3.773252,1.888996 -4.955119,6.932722 -9.184881,8.293812 -4.165411,1.34039 -6.711272,5.34475 -10.914259,6.6663 -4.15451,1.3063 -6.577371,6.11867 -10.957694,6.73438 -3.628297,0.51 -4.92186,4.38536 -9.097817,3.78514 C 53.562735,118.34544 52.332926,120.37048 50.5,121 Z"
       id="path1047"
       sodipodi:nodetypes="ssssssssssssssss" />
  </g>
  <g
     inkscape:groupmode="layer"
     id="layer-ring"
     inkscape:label="ring">
    <path
       fill="#081c1a"
       d="m 25.4,105 c -1.902153,0.39033 -4.044063,0.38088 -5.520047,-1.06976 -2.483681,-0.79719 -2.442783,-3.38435 -1.129108,-5.227352 0.545507,-1.551484 1.872586,-3.023627 3.638624,-2.702888 1.336549,-0.03527 2.931721,0.289846 3.833562,-0.997985 1.363039,-2.078459 3.836274,-2.701661 6.052497,-3.44152 2.707113,-0.676738 5.40345,-1.464669 7.845604,-2.853105 C 43.353838,87.050727 46.647594,85.012792 50.4,85 c 4.012407,0.599276 8.184499,1.188248 12.194251,0.273279 1.669194,-0.58519 3.301299,-4.070646 5.063224,-1.3358 1.629662,2.470869 -2.216587,3.644034 -1.986648,5.979031 -0.676963,2.273429 -3.716929,0.108279 -5.11769,1.67698 -1.797288,1.429421 -3.645288,2.778441 -5.517768,4.109053 -1.983646,1.617778 -4.774407,1.192819 -6.794325,2.821178 -1.859031,0.685349 -3.991274,0.290774 -5.32788,2.117099 -1.796678,0.57796 -3.930014,0.23459 -5.478309,1.73135 -2.544056,1.70179 -5.759303,-0.39504 -8.376311,1.12131 C 27.860712,104.03996 26.72978,104.81162 25.4,105 Z"
       id="path1050"
       sodipodi:nodetypes="ssssssssssssssssssss"
       inkscape:path-effect="#path-effect1992"
       inkscape:original-d="m 25.5,105 c -1.902153,0.39033 -4.044063,0.38088 -5.520047,-1.06976 -2.483681,-0.79719 -2.442783,-3.38435 -1.129108,-5.227352 0.545507,-1.551484 1.872586,-3.023627 3.638624,-2.702888 1.336549,-0.03527 2.931721,0.289846 3.833562,-0.997985 1.363039,-2.078459 3.836274,-2.701661 6.052497,-3.44152 2.707113,-0.676738 5.40345,-1.464669 7.845604,-2.853105 C 43.453838,87.050727 46.747594,85.012792 50.5,85 c 4.012407,0.599276 8.184499,1.188248 12.194251,0.273279 1.669194,-0.58519 3.301299,-4.070646 5.063224,-1.3358 1.629662,2.470869 -2.216587,3.644034 -1.986648,5.979031 -0.676963,2.273429 -3.716929,0.108279 -5.11769,1.67698 -1.797288,1.429421 -3.645288,2.778441 -5.517768,4.109053 -1.983646,1.617778 -4.774407,1.192819 -6.794325,2.821178 -1.859031,0.685349 -3.991274,0.290774 -5.32788,2.117099 -1.796678,0.57796 -3.930014,0.23459 -5.478309,1.73135 -2.544056,1.70179 -5.759303,-0.39504 -8.376311,1.12131 C 27.960712,104.03996 26.82978,104.81162 25.5,105 Z"
       class="UnoptimicedTransforms" />
  </g>
  <g
     inkscape:groupmode="layer"
     id="layer-wrist"
     inkscape:label="wrist (marker)">
    <circle
       cx="105.50"
       cy="69.50"
       r="3"
       fill="#e00"
       id="circle1053" />
  </g>
  <g
     inkscape:groupmode="layer"
     id="g1064"
     inkscape:label="elbow (marker)">
    <circle
       cx="226.81122"
       cy="69.914185"
       r="3"
       fill="#ee0000"
       id="circle1062" />
  </g>
</svg>
