<?xml version="1.0" encoding="UTF-8" standalone="no"?>
<svg
   width="349.0"
   height="129.0"
   viewBox="0 0 349.00 129.00"
   version="1.1"
   id="svg1056"
   sodipodi:docname="hand-spread.svg"
   inkscape:version="1.2.2 (b0a8486541, 2022-12-01)"
   xmlns:inkscape="http://www.inkscape.org/namespaces/inkscape"
   xmlns:sodipodi="http://sodipodi.sourceforge.net/DTD/sodipodi-0.dtd"
   xmlns="http://www.w3.org/2000/svg"
   xmlns:svg="http://www.w3.org/2000/svg">
  <defs
     id="defs1060" />
  <sodipodi:namedview
     id="namedview1058"
     pagecolor="#ffffff"
     bordercolor="#000000"
     borderopacity="0.25"
     inkscape:showpageshadow="2"
     inkscape:pageopacity="0.0"
     inkscape:pagecheckerboard="0"
     inkscape:deskcolor="#d1d1d1"
     showgrid="false"
     inkscape:zoom="3.7535817"
     inkscape:cx="122.54962"
     inkscape:cy="56.479389"
     inkscape:window-width="1678"
     inkscape:window-height="912"
     inkscape:window-x="0"
     inkscape:window-y="0"
     inkscape:window-maximized="1"
     inkscape:current-layer="layer-thumb" />
  <g
     inkscape:groupmode="layer"
     id="layer-arm"
     inkscape:label="arm">
    <path
       fill="#081c1a"
       d="M 313.5,79 C 305.24832,81.204382 296.56692,77.831516 287.96537,78.009303 264.48295,78.494667 240.92218,79.781552 217.5,78 210.7839,77.489156 204.20666,77 197.53535,77 H 174.5 c -6.7355,0 -13.32383,0.362972 -19.96465,1 -5.3127,0.509627 -9.86858,-1.426947 -15.39285,-0.930365 -8.74005,0.785652 -17.13107,2.045201 -25.95499,0.1836 -10.40858,-2.19592 -10.00363,-14.593485 0.37946,-15.885527 5.59844,-0.696654 11.05771,1.209592 16.67745,-0.683078 9.32309,-3.13992 18.94339,2.141122 28.74522,0.05784 8.8449,-1.879897 17.97832,-2.445652 27.02395,-1.81883 11.44652,0.793194 22.86974,2.387983 34.3398,2.203089 C 232.44624,60.931796 244.52141,61.459156 256.5,60 c 6.68607,-0.814455 13.29397,-0.908276 19.96465,-1 4.78267,-0.06576 9.48734,0.28968 14.29844,0.91543 8.20972,1.067786 16.77058,-1.943356 24.93787,-0.646415 7.73804,1.228779 17.23061,-0.828662 23.16902,4.718659 7.86729,7.349175 -1.62076,16.432263 -11.15388,13.876582 C 323.40945,76.709709 318.10477,77.769865 313.5,79 Z"
       id="path1035"
       sodipodi:nodetypes="ssssssssssssssssssss" />
  </g>
  <g
     inkscape:groupmode="layer"
     id="layer-pointer"
     inkscape:label="pointer">
    <path
       fill="#081c1a"
       d="m 76.5,56 h -5 c -2.40944,0 -4.095051,-0.952476 -6.174661,-1.087507 -2.349018,-0.152523 -4.393813,1.681109 -6.805308,0.491881 -2.113011,-1.04203 -4.431709,-0.274827 -6.53194,-1.333196 C 49.19241,52.662352 45.653083,53.929008 42.85468,52.341567 40.37732,50.936243 37.65076,51.338581 35.010981,50.926703 32.441696,50.525824 30.499627,48.768029 28.373644,47.254562 26.176262,45.690267 22.950807,48.20962 20.696384,46.024756 19.257413,44.630183 16.19891,43.122898 17.255687,40.720381 18.294271,38.359224 21.152721,38 23.552029,38 H 27.5 c 2.36574,0 4.051985,-1.079183 5.763944,-0.07449 1.936425,1.136424 4.124583,1.170484 6.286039,1.048732 3.160325,-0.178018 6.277367,0.482451 9.254825,1.71928 3.47415,1.443154 7.946948,-0.509481 11.086731,1.555401 2.783867,1.830813 5.797728,0.923375 8.230033,2.832129 C 69.501475,46.163932 70.77763,48.331976 72.5,48 c 2.666248,-0.513902 4.959499,0.31587 6.124015,2.314379 C 80.097849,52.843731 78.818193,56 76.5,56 Z"
       id="path1038"
       sodipodi:nodetypes="ssssssssssssssssssss" />
  </g>
  <g
     inkscape:groupmode="layer"
     id="layer-thumb"
     inkscape:label="thumb">
    <path
       fill="#081c1a"
       d="m 91,48.5 c 0.247529,-3.534725 -4.666667,-5.333333 -7,-8 -3.095979,-3.538262 -2.413719,-9.146268 -4.661992,-13.323984 -0.871267,-1.618978 -1.960146,-3.172073 -2.446162,-4.944342 -0.425413,-1.551276 1.164357,-2.718599 0.263308,-4.573201 -0.876287,-1.803636 -0.494196,-4.028143 -0.148042,-5.98513 0.179039,-1.012201 1.601305,-1.333081 2.372009,-2.0237708 C 80.153126,8.9559244 80.613176,8.1252156 81.5,8 c 1.777425,-0.2509645 3.73605,0.1956664 5,2 1.262732,1.802595 2.709335,3.569728 3.099162,5.837285 0.551873,3.210152 1.487265,6.398863 3.210159,9.217273 1.649814,2.698862 1.88313,5.907694 2.490805,8.94607 C 95.533417,35.167085 95.766708,36.333543 96,37.5 c 0.366889,1.834444 1,3.067079 1,4.614044 0,2.461985 1.845031,6.54514 0,7.385956 -4.690678,2.137632 -6.56797,7.110639 -6,-1 z"
       id="path1041"
       sodipodi:nodetypes="ssssssssssssssss" />
  </g>
  <g
     inkscape:groupmode="layer"
     id="layer-middle"
     inkscape:label="middle">
    <path
       fill="#081c1a"
       d="m 29.5,79 c -3.002101,0.94202 -6.188348,0.426999 -9.223749,-0.05378 -1.718108,-1.574413 -3.96217,0.938619 -6.030566,0.322307 -2.580956,0.56545 -5.6431514,-0.61704 -6.4084694,-3.305453 -0.7583036,-3.734498 3.5079664,-7.240748 7.0600954,-5.994356 1.60797,-0.567461 3.127169,-1.17529 4.806047,-1.133887 1.460832,-1.397438 3.203967,-2.237805 5.260263,-1.834486 2.271915,0.633755 3.691542,-1.298124 5.881997,-1.112048 C 37.063746,65.592203 43.281873,65.296101 49.5,65 c 1.63302,1.670926 4.211344,0.708748 6.273025,0.956012 2.341846,-0.575576 4.044452,1.250843 6.129658,1.07987 2.243515,1.125743 -1.174724,2.992326 -1.486832,4.533999 -0.76977,2.761457 -3.503438,1.295511 -5.487779,1.542845 -3.026148,1.398977 -5.761346,4.171963 -9.341209,3.887274 -1.772645,-0.166235 -3.306162,-0.01103 -4.724922,0.932668 -2.035673,-0.224634 -4.050823,-0.61198 -6.122746,-0.548559 -1.812593,-0.08763 -3.902009,0.07201 -5.143351,1.544719 l -0.09145,0.06791 z"
       id="path1044"
       sodipodi:nodetypes="ssssssssssssssssssssssssssss" />
  </g>
  <g
     inkscape:groupmode="layer"
     id="layer-pinky"
     inkscape:label="pinky">
    <path
       fill="#081c1a"
       d="m 50.5,121 c -2.113751,0.72597 -5.424204,-1.05456 -4.456804,-4.09246 1.369161,-4.29954 5.112729,-3.40075 7.041034,-7.15773 2.027221,-3.9497 6.915934,-5.44993 10.508116,-7.97324 4.597057,-3.229173 8.947249,-7.135337 14.419049,-8.700229 3.302586,-0.944513 4.627806,-4.345987 8.223003,-4.739524 2.535168,-0.277504 3.84447,-3.245776 6.055542,-4.389843 2.488875,-1.28781 0.796248,-4.448243 3.804168,-4.990348 1.920629,-0.346147 3.756101,-1.209324 5.221552,1.529501 2.28992,4.279709 -3.915213,4.401811 -3.31566,7.867815 0.351936,2.034535 0.01187,3.678145 -2.239939,4.805466 -3.773252,1.888996 -4.955119,6.932722 -9.184881,8.293812 -4.165411,1.34039 -6.711272,5.34475 -10.914259,6.6663 -4.15451,1.3063 -6.577371,6.11867 -10.957694,6.73438 -3.628297,0.51 -4.92186,4.38536 -9.097817,3.78514 C 53.562735,118.34544 52.332926,120.37048 50.5,121 Z"
       id="path1047"
       sodipodi:nodetypes="ssssssssssssssss" />
  </g>
  <g
     inkscape:groupmode="layer"
     id="layer-ring"
     inkscape:label="ring">
    <path
       fill="#081c1a"
       d="m 25.5,105 c -1.902153,0.39033 -4.044063,0.38088 -5.520047,-1.06976 -2.483681,-0.79719 -2.442783,-3.38435 -1.129108,-5.227352 0.545507,-1.551484 1.872586,-3.023627 3.638624,-2.702888 1.336549,-0.03527 2.931721,0.289846 3.833562,-0.997985 1.363039,-2.078459 3.836274,-2.701661 6.052497,-3.44152 2.707113,-0.676738 5.40345,-1.464669 7.845604,-2.853105 C 43.453838,87.050727 46.747594,85.012792 50.5,85 c 4.012407,0.599276 8.184499,1.188248 12.194251,0.273279 1.669194,-0.58519 3.301299,-4.070646 5.063224,-1.3358 1.629662,2.470869 -2.216587,3.644034 -1.986648,5.979031 -0.676963,2.273429 -3.716929,0.108279 -5.11769,1.67698 -1.797288,1.429421 -3.645288,2.778441 -5.517768,4.109053 -1.983646,1.617778 -4.774407,1.192819 -6.794325,2.821178 -1.859031,0.685349 -3.991274,0.290774 -5.32788,2.117099 -1.796678,0.57796 -3.930014,0.23459 -5.478309,1.73135 -2.544056,1.70179 -5.759303,-0.39504 -8.376311,1.12131 C 27.960712,104.03996 26.82978,104.81162 25.5,105 Z"
       id="path1050"
       sodipodi:nodetypes="ssssssssssssssssssss" />
  </g>
  <g
     inkscape:groupmode="layer"
     id="layer-wrist"
     inkscape:label="wrist (marker)">
    <circle
       cx="105.50"
       cy="69.50"
       r="3"
       fill="#e00"
       id="circle1053" />
  </g>
  <g
     inkscape:groupmode="layer"
     id="g1064"
     inkscape:label="elbow (marker)">
    <circle
       cx="226.81122"
       cy="69.914185"
       r="3"
       fill="#ee0000"
       id="circle1062" />
  </g>
</svg>
