<svg xmlns="http://www.w3.org/2000/svg" xmlns:inkscape="http://www.inkscape.org/namespaces/inkscape" xmlns:sodipodi="http://sodipodi.sourceforge.net/DTD/sodipodi-0.0.dtd" xmlns:xlink="http://www.w3.org/1999/xlink" viewBox="257.29 145.37 299.09 363.11" width="299" height="363">
  <g inkscape:groupmode="layer" inkscape:label="marduk-happy (align to this)" sodipodi:insensitive="true" style="opacity:0.5">
    
   <path fill="#081C1A" d="M526.963,274.054c-0.303-1.171,0.854-1.047,0.25-3.387c-1.297-5.493-2.953-10.005-4.713-14.919        c-1.047-2.127-1.268-6.115-2.568-8.178c-0.336-0.623-0.734-1.366-1.193-2.16c-0.498-0.773-1.039-1.609-1.588-2.457        c-1.059-1.706-2.354-3.33-3.348-4.604c-0.979-1.287-1.828-2.124-2.072-2.253c-0.27-0.111,0.109,0.457,1.199,2.234        c3.414,5.275,5.748,9.93,7.727,14.55c1.045,2.293,1.824,4.644,2.701,7.046c0.721,2.447,1.537,4.956,2.102,7.727        c0.645,2.215,1.008,4.466,1.486,6.698c0.215,1.12,0.336,2.251,0.508,3.379c0.162,1.128,0.352,2.258,0.416,3.399        c0.479,4.555,0.537,9.192,0.215,13.965c-0.121,1.333-0.279,2.618-0.533,3.868c-0.232,1.253-0.453,2.487-0.773,3.706        c0.461-1.582,0.746-3.221,1.129-4.903c0.301-1.693,0.627-3.448,0.85-5.31c0.355-2.45,0.205-5.202-0.191-8.251        c-0.234-1.524-0.434-3.128-0.711-4.815C527.514,277.707,527.281,275.927,526.963,274.054z" id="path284" />
   <path fill="#081C1A" d="M520.225,242.4c-7.707-14.551-18.338-26.282-30.285-35.509c-1.068-0.516-1.871-0.791-3.047-1.821        c-0.818-0.878-1.758-1.614-2.688-2.344l-2.738-1.861c-0.938-0.58-1.873-1.158-2.803-1.734        c-0.672-0.371-1.352-0.745-2.041-1.125c-0.01-0.004-0.043-0.019-0.059-0.025c-1.15-0.483-0.91-0.155-0.324,0.355        c0.682,0.524,1.27,1.065,1.766,1.533c-0.316-0.296-1.197-1.027-1.766-1.533c-0.84-0.621-1.799-1.273-2.959-1.979        c-1.775-0.939-3.711-1.767-5.623-2.796c2.219,0.951,4.115,1.827,5.623,2.796c1.145,0.564,2.242,1.106,3.342,1.649        c0.32,0.152,0.639,0.305,0.973,0.464c-4.344-2.561-8.771-4.942-13.369-6.971c-1.074-0.431-2.098-0.842-2.934-1.178        c-1.727-0.583-3.447-1.166-4.975-1.766c-1.535-0.577-2.902-1.105-3.881-1.733c-0.842-0.283-1.688-0.611-2.557-0.874        c0.152,0.078,0.316,0.163,0.471,0.243c-0.375-0.152-0.688-0.28-0.943-0.384c-1.818-0.535-3.629-1.126-5.471-1.618        c-1.848-0.464-3.695-0.962-5.559-1.402c-1.234-0.129-2.488-0.26-3.752-0.392l-1.895-0.206l-1.906-0.152        c0,0-1.641-0.631-2.447-0.941c-1.061,0.102-2.553,0.105-4.285,0.029c2.008,0.524,3.795,1.17,5.473,1.671        c2.412,0.882,5.801-0.143,8.541,1.478c-2.74-1.621-6.129-0.595-8.541-1.478c-1.678-0.5-3.465-1.146-5.473-1.671        c-1.799-0.093-3.842-0.343-5.917-0.534c-2.071-0.225-4.157-0.579-6.03-0.856c2.344-0.23,4.497-0.024,6.482,0.213        c1.99,0.219,3.793,0.724,5.465,1.177c1.732,0.077,3.225,0.073,4.285-0.029c0.807,0.31,2.447,0.941,2.447,0.941l1.906,0.152        l1.895,0.206c1.264,0.131,2.518,0.262,3.752,0.392c-7.281-1.692-14.785-2.767-22.497-3.282        c-24.793-1.666-49.17,2.982-70.947,13.708c-5.426,2.711-10.725,5.737-15.765,9.224c-5.033,3.493-9.854,7.358-14.392,11.622        c-9.069,8.523-16.9,18.769-22.726,30.517c-6.308,12.727-9.684,26.652-9.936,40.482c-0.245,13.838,2.614,27.544,8.033,39.997        c5.405,12.433,13.301,23.416,22.701,32.508c9.384,9.131,20.14,16.573,31.714,22.304c5.777,2.886,11.749,5.401,17.903,7.446        c6.148,2.053,12.433,3.814,18.867,5.091c6.435,1.272,12.984,2.219,19.649,2.774c3.324,0.199,6.717,0.463,10.028,0.508        c1.669,0.045,3.342,0.09,5.019,0.136c1.686,0,3.377,0,5.072,0c10.391-0.051,25.499-1.689,39.959-6.543l2.699-0.922        c0.902-0.295,1.793-0.62,2.666-0.997c1.754-0.725,3.51-1.42,5.223-2.164c1.688-0.818,3.354-1.628,4.996-2.424        c1.635-0.808,3.174-1.763,4.713-2.614c6.064-3.582,11.293-7.409,15.18-10.898c2.561-2.398,4.305-4.656,5.707-6.444        c0.346-0.452,0.67-0.876,0.959-1.286c0.264-0.428,0.512-0.827,0.742-1.205c0.451-0.757,0.811-1.424,1.092-2.012        c1.125-2.343,1.006-3.394,0.346-3.763c-1.334-0.722-4.76,1.198-5.258,1.553c-1.67,1.186-3.408,2.184-4.992,3.294        c-1.561,1.138-3.188,2.161-4.781,3.256c-0.791,0.556-1.586,1.113-2.389,1.682c-0.828,0.538-1.666,1.085-2.521,1.64        c-0.854,0.554-1.686,1.17-2.588,1.728c-0.908,0.55-1.84,1.111-2.799,1.689c-3.797,2.348-8.246,4.612-13.648,6.801        c-5.42,2.145-11.908,3.981-19.732,5.18c2.676-0.378,4.408-0.738,5.412-0.846c1.006-0.111,1.268-0.028,0.918,0.209        c-0.348,0.237-1.309,0.627-2.74,1.122c-1.432,0.491-3.375,0.94-5.635,1.499c-2.256,0.567-4.904,0.931-7.703,1.41        c-1.412,0.188-2.875,0.329-4.361,0.486c-1.488,0.151-2.998,0.313-4.533,0.357c-1.531,0.057-3.068,0.115-4.596,0.174        c-1.526,0.043-3.051-0.025-4.539-0.053c-2.974-0.045-5.832-0.303-8.411-0.62c-7.434-0.971-15.4-1.972-23.78-3.584        c-8.354-1.61-17.099-3.737-25.712-6.913c-8.609-3.146-17.174-7.138-24.957-12.252c-3.941-2.477-7.595-5.34-11.1-8.272        c-1.678-1.55-3.426-3.012-4.966-4.653c-0.785-0.806-1.581-1.595-2.343-2.409c-0.731-0.838-1.462-1.674-2.188-2.505        c-0.738-0.818-1.438-1.68-2.128-2.561c-0.701-0.869-1.41-1.747-2.126-2.633c-1.326-1.845-2.795-3.644-4.07-5.638        c-2.698-3.888-5.183-8.178-7.334-12.926c-5.373-12.401-7.854-25.597-7.325-38.649c0.495-13.041,4.019-25.843,10.212-37.465        c12.375-23.302,35.119-41.669,62.713-50.644c7.301-2.432,14.307-4.322,21.142-5.734c6.833-1.392,13.497-2.378,20.081-2.677        c9.641-0.378,19.842,1.35,27.456,2.836c3.016,0.534,5.881,1.242,8.68,1.869c2.764,0.753,5.48,1.377,8.063,2.216        c5.221,1.507,10.07,3.313,14.766,5.224c-5.18-2.284-9.762-4.037-14.613-5.468c-2.4-0.797-4.906-1.377-7.529-2.095        c-1.328-0.298-2.693-0.606-4.109-0.927c-1.412-0.342-2.896-0.612-4.447-0.885c-4.121-0.777-2.639-0.852,0.604-0.633        c1.629,0.078,3.672,0.346,5.662,0.648c2.002,0.258,3.918,0.664,5.293,0.982c2.418,0.37,5.592,2.812,7.936,3.328        c2.416,0.964,4.834,1.644,7.215,2.562c1.199,0.441,2.428,0.848,3.664,1.322c1.225,0.505,2.477,1.022,3.777,1.558        c2.279,0.844,1.473,1.772,2.59,2.214c1.719,0.828,3.34,1.609,4.877,2.35c1.535,0.748,3.039,1.375,4.383,2.102        c1.359,0.705,2.66,1.354,3.832,2.063c1.156,0.732,2.217,1.475,3.156,2.266c2.863,2.394,5.332,4.68,7.621,7.011        c0.762,0.696,1.486,1.424,2.209,2.175c0.73,0.741,1.482,1.482,2.277,2.229c1.014,0.897,2.01,1.886,3.039,2.846        c-0.5-1.048-0.465-1.632-0.408-2.199c0.668,0.773,1.449,1.728,2.221,2.685c0.729,0.996,1.455,1.987,2.084,2.789        c-0.629-0.802-1.355-1.793-2.084-2.789c-0.771-0.958-1.553-1.912-2.221-2.685c-0.057,0.567-0.092,1.15,0.408,2.199        c3.588,3.537,7.299,7.569,10.529,12.098c3.268,4.498,6.199,9.376,8.605,14.308c0.014-0.053,0.027-0.122,0.039-0.177        c-2.662-5.847-5.598-11.346-8.844-17.252c1.418,2.546,0.951,2.413-0.941-0.271c-0.303-0.818-0.691-1.584-1.033-2.369        c3.658,4.436,7.037,9.23,8.754,14.477c0,0,0.355,0.51,0.736,1.178c0.395,0.664,0.867,1.461,1.18,1.988        c0.627,1.721,0.266,1.784,0.148,2.25c0.49,1.151,0.986,2.318,1.48,3.486c-0.232-1.339-0.92-4.07-1.787-6.391        C521.111,244.352,520.225,242.4,520.225,242.4z" id="path286" />
   <path fill="#081C1A" d="M473.168,196.257c0.789,0.402,1.76,0.896,2.793,1.423c-3.652-2.092-7.379-4.07-11.236-5.811        c0.457,0.349,1.012,0.691,1.637,1.031c0.621,0.355,1.303,0.73,2.037,1.094C469.859,194.737,471.549,195.418,473.168,196.257z" id="path288" />
   <path fill="#081C1A" d="M512.338,341.377c0.314-0.533,0.789-1.337,1.184-2.008c0.371-0.686,0.668-1.235,0.668-1.235        c3.807-4.092,6.49-9.379,8.609-14.78c-0.531,0.686-1.029,1.398-1.598,2.085c-1.443,2.967-1.346,3.467,0.217,0.95        c-3.656,5.726-7.137,11.006-11.023,16.229C510.893,342.488,511.111,342.766,512.338,341.377z" id="path295" />
  
   <path fill="#081C1A" d="M354.375,467.427c-0.119-0.163,1.006-0.075,0.768-0.399c-0.285-0.741-0.764-1.388-0.738-2.069       c-0.238-0.323,1.031-0.752,0.792-1.072c-0.286-0.745-1.719-2.694-1.697-1.591c0.097,1.664,0.355,2.76,0.5,4.253       c0.401,1.227,0.89,2.408,1.245,3.655c0.039,0.347-0.061,0.665-0.151,0.989c0.193-0.418,0.384-0.845,0.571-1.318       C356,469.255,354.589,468.431,354.375,467.427z" id="path338" />
   <path fill="#081C1A" d="M357.739,476.548c-0.12-0.156-0.358-0.473-0.358-0.473c0.84-0.666,0.553-1.397,0.268-2.133       l-0.576,0.304c0.047,0.417,0.359,0.473,0.621,0.114c-0.721,0.819-0.859,1.616-0.779,2.438       C357.222,476.754,357.573,476.775,357.739,476.548z" id="path340" />
   <path fill="#081C1A" d="M357.771,463.441c0.021-2.062,0.215-3.994,0.459-5.876c-0.21-0.158-0.457-0.276-0.312-0.464       c0.204-0.135,0.339-0.276,0.43-0.418l0.116-0.821c-0.022-0.097-0.045-0.197-0.067-0.295l-0.006-0.011       c-0.117-0.163-0.294-0.127-0.466-0.041c-0.127,0.098-0.273,0.188-0.428,0.262c0.1-0.048,0.26-0.18,0.428-0.262       c0.15-0.122,0.273-0.261,0.349-0.426c-0.052-0.257-0.075-0.521,0.009-0.79c0.113,0.313,0.096,0.572-0.009,0.79       c0.034,0.161,0.08,0.318,0.123,0.478l0.091,0.139l0.291-1.872c-0.02-0.146-0.035-0.285-0.064-0.4       c-0.119-0.463-0.239-0.927,0.326-1.17l0.057-0.333c-0.035,0.019-0.066,0.036-0.105,0.057c0.037-0.049,0.077-0.087,0.115-0.12       c0.08-0.468,0.16-0.938,0.242-1.411c-0.191-0.323-0.436-0.659-0.572-0.991c0,0,0.388-0.185,0.582-0.276       c-0.273-0.15-0.445-0.349-0.525-0.571c-0.354,0.23-0.74,0.438-0.986,0.641c-0.584,0.277,1.079,0.796-0.006,1.095       c1.085-0.299-0.578-0.817,0.006-1.095c0.246-0.202,0.633-0.41,0.986-0.641c-0.17-0.465,0.07-1.033,0.65-1.46       c0.436,0.618-0.057,1.074-0.65,1.46c0.08,0.223,0.252,0.421,0.525,0.571c-0.194,0.092-0.582,0.276-0.582,0.276       c0.137,0.332,0.381,0.668,0.572,0.991c0.158-0.923,0.318-1.854,0.481-2.806c1.172-6.111,1.604-11.797,2.708-18.13       c0.693-3.422,1.525-6.689,2.525-9.866c0.977-3.167,1.346-6.257,1.846-9.339c0.502-3.083,1.23-6.146,3.08-9.21       c1.304-2.368,1.424-7.049,1.654-9.461c-1.373-3.435-6.397-2.556-6.691-2.43c-4.383,1.39-2.332,3.29-5.309,7.041       c1.738-2.593,2.352,2.406-0.791,4.664c-4.799,3.259-2.006,9.153-3.675,13.727c-0.424,1.146-0.357,2.423-0.593,3.825       c-1.117,3.578-1.404,7.124-1.555,10.725c-0.1,3.608-0.047,7.274-0.56,11.115c-0.157,2.048,0.685,3.922,1.155,5.691       c0.105,1.271-0.537,2.573-0.605,3.598c-0.1,1.61,0.199,3.022,0.603,4.379c-0.104-1.492-0.332-2.597-0.39-4.261       c0.008-1.104,1.39,0.871,1.656,1.62c0.231,0.328-1.051,0.73-0.818,1.061c-0.045,0.679,0.416,1.336,0.685,2.083       c0.229,0.328-0.893,0.218-0.778,0.383c0.187,1.009,1.577,1.863,1.227,2.476c-0.201,0.471-0.404,0.895-0.605,1.307       c-0.08,0.264-0.149,0.525-0.125,0.812c0.081,0.182,0.163,0.367,0.246,0.554c0.354-0.124,0.779-0.15,1.206-0.174       c-0.079,0.257-0.353,0.611-0.434,0.87c0.081-0.259,0.354-0.613,0.434-0.87c-0.427,0.023-0.852,0.05-1.206,0.174       c0.563,1.344,1.125,2.882,1.541,4.304l0.1-0.015c-0.078-0.822,0.057-1.615,0.778-2.425c-0.265,0.354-0.575,0.293-0.623-0.13       l0.575-0.291c0.285,0.747,0.572,1.486-0.268,2.134c0,0,0.24,0.324,0.358,0.484c-0.165,0.224-0.519,0.194-0.821,0.228       c0.014,0.161,0.04,0.323,0.069,0.487C357.005,464.476,357.771,463.441,357.771,463.441z" id="path342" />
   <path fill="#081C1A" d="M358.308,455.074c0.03,0.112,0.045,0.25,0.063,0.397l0.262-1.571       C358.068,454.144,358.188,454.608,358.308,455.074z" id="path344" />
   <path fill="#081C1A" d="M464.984,474.932c-0.129-0.16,1-0.115,0.744-0.434c-0.322-0.745-0.834-1.367-0.844-2.054       c-0.246-0.301,0.967-0.842,0.705-1.152c-0.352-0.747-1.945-2.545-1.828-1.439c0.25,1.654,0.596,2.729,0.801,4.212       c0.488,1.214,0.941,2.374,1.32,3.652c0.039,0.354-0.088,0.666-0.189,0.985c0.213-0.408,0.434-0.831,0.605-1.316       C466.629,476.746,465.221,475.917,464.984,474.932z" id="path346" />
   <path fill="#081C1A" d="M468.117,470.594c-0.127-2.173-0.242-4.214-0.316-6.216c-0.232-0.132-0.498-0.215-0.387-0.433       c0.178-0.175,0.285-0.343,0.354-0.506l-0.027-0.876c-0.039-0.097-0.078-0.197-0.119-0.298l-0.006-0.008       c-0.143-0.148-0.309-0.08-0.467,0.037c-0.107,0.124-0.238,0.242-0.377,0.347c0.092-0.066,0.225-0.231,0.377-0.347       c0.129-0.151,0.229-0.316,0.27-0.503c-0.102-0.255-0.174-0.525-0.145-0.819c0.172,0.302,0.203,0.576,0.145,0.819       c0.068,0.161,0.137,0.317,0.203,0.474l0.113,0.131c-0.02-0.668-0.041-1.332-0.064-1.998c-0.049-0.15-0.09-0.292-0.143-0.405       c-0.205-0.46-0.412-0.915,0.094-1.278l-0.008-0.359c-0.031,0.027-0.059,0.053-0.094,0.08c0.027-0.058,0.061-0.104,0.09-0.146       c-0.02-0.502-0.041-1.006-0.063-1.515c-0.254-0.295-0.564-0.591-0.768-0.9c0,0,0.34-0.276,0.508-0.414       c-0.299-0.097-0.508-0.263-0.635-0.477c-0.293,0.316-0.631,0.614-0.826,0.874c-0.512,0.411,1.225,0.588,0.225,1.128       c1-0.54-0.736-0.717-0.225-1.128c0.195-0.26,0.533-0.558,0.826-0.874c-0.262-0.442-0.158-1.078,0.309-1.651       c0.566,0.538,0.193,1.121-0.309,1.651c0.127,0.214,0.336,0.38,0.635,0.477c-0.168,0.138-0.508,0.414-0.508,0.414       c0.203,0.31,0.514,0.605,0.768,0.9c-0.045-0.991-0.088-1.992-0.135-3.015c-0.277-6.593-1.514-12.526-2.379-19.286       c-0.445-3.673-0.736-7.233-0.881-10.77c-0.297-7.067-3.295-12.821-2.35-20.327c0.273-2.866-1.578-7.56-2.414-10.041       c-2.777-2.867-6.91,0.258-7.127,0.48c-3.375,3.172-0.717,4.128-1.916,8.916c0.553-3.188,3.139,1.392,1.107,4.79       c-3.137,4.942,1.594,9.574,1.668,14.62c0.01,1.258,0.508,2.479,0.754,3.926c0.281,7.709,3.52,14.201,4.586,22.075       c0.361,2.06,1.707,3.704,2.533,5.364c0.396,1.25,0.043,2.694,0.186,3.727c0.248,1.627,0.797,2.973,1.453,4.261       c-0.389-1.479-0.807-2.536-1.219-4.188c-0.225-1.108,1.539,0.578,1.959,1.288c0.291,0.287-0.893,0.945-0.6,1.229       c0.086,0.69,0.662,1.264,1.068,1.975c0.289,0.29-0.838,0.379-0.691,0.524c0.352,0.977,1.867,1.616,1.627,2.299       c-0.123,0.509-0.24,0.971-0.385,1.415c-0.043,0.28-0.072,0.555-0.006,0.84c0.104,0.173,0.215,0.352,0.32,0.531       c0.336-0.175,0.75-0.259,1.17-0.34c-0.043,0.274-0.262,0.672-0.305,0.944c0.043-0.272,0.262-0.67,0.305-0.944       c-0.42,0.081-0.834,0.165-1.17,0.34c0.779,1.285,1.434,2.799,1.98,4.234l0.102-0.022c-0.152-0.846-0.088-1.671,0.559-2.599       c-0.232,0.399-0.547,0.366-0.633-0.063l0.539-0.369c0.367,0.74,0.707,1.495-0.068,2.25c0,0,0.268,0.315,0.4,0.472       c-0.145,0.249-0.5,0.249-0.797,0.309c0.027,0.165,0.068,0.331,0.109,0.499C467.445,471.752,468.117,470.594,468.117,470.594z" id="path348" />
   <path fill="#081C1A" d="M467.67,484.545c-0.084-0.193-0.246-0.583-0.246-0.583c0.996-0.538,0.805-1.414,0.609-2.225       l-0.607,0.25c-0.004,0.442,0.297,0.553,0.6,0.202c-0.785,0.788-1.117,1.554-1.213,2.423       C467.121,484.642,467.457,484.749,467.67,484.545z" id="path297" />
   <path fill="#081C1A" d="M531.238,276.676c0.096-0.779,0.236-1.176,0.479,0.08c0,0.016,0.002,0.031,0.006,0.052        c-0.174-1.238-0.291-2.47-0.557-3.737C531.332,274.411,531.273,275.633,531.238,276.676z" id="path293" />
   <path fill="#081C1A" d="M531.762,293.013c0.09-1.192,0.184-2.386,0.275-3.585l0.117-3.604        c-0.111,1.208-0.262,2.399-0.49,3.612C531.426,290.988,531.621,291.816,531.762,293.013z" id="path291" />
  <path fill="#888" d="M 413.60,364.12 L 411.13,364.12 L 408.66,364.12 L 406.38,363.67 L 404.10,363.23 L 401.82,362.78 L 399.53,362.33 L 397.44,361.43 L 395.30,360.64 L 393.25,359.63 L 391.15,358.74 L 389.14,357.63 L 387.14,356.49 L 385.25,355.09 L 383.32,353.80 L 381.41,352.45 L 379.62,350.81 L 377.75,349.38 L 376.00,347.64 L 374.26,345.89 L 372.70,344.33 L 370.95,342.59 L 369.37,340.78 L 367.78,338.97 L 366.35,337.09 L 365.24,335.08 L 364.13,333.08 L 363.08,331.04 L 362.63,328.76 L 363.08,326.48 L 363.53,324.20 L 364.47,322.12 L 365.90,320.24 L 367.64,318.50 L 369.39,316.75 L 371.27,315.32 L 373.41,314.53 L 375.68,314.06 L 378.06,313.85 L 380.34,314.30 L 382.44,315.20 L 384.50,316.18 L 386.45,317.44 L 388.25,319.04 L 390.13,320.47 L 391.88,322.21 L 393.75,323.64 L 395.81,324.62 L 397.91,325.52 L 400.00,326.42 L 402.29,326.87 L 404.57,327.32 L 406.85,327.76 L 409.32,327.77 L 411.79,327.77 L 414.07,327.32 L 416.47,327.15 L 418.63,326.42 L 420.88,325.88 L 422.89,324.77 L 424.76,323.34 L 426.64,321.91 L 428.52,320.49 L 430.47,319.24 L 432.53,318.27 L 434.66,317.44 L 436.94,316.99 L 439.22,316.55 L 441.51,316.99 L 443.79,317.44 L 445.89,318.34 L 447.77,319.74 L 449.52,321.48 L 451.09,323.30 L 452.38,325.23 L 453.17,327.37 L 453.34,329.77 L 453.34,332.24 L 452.71,334.45 L 451.99,336.62 L 451.09,338.71 L 449.75,340.62 L 448.59,342.61 L 447.16,344.49 L 445.73,346.36 L 443.99,348.11 L 442.24,349.85 L 440.48,351.56 L 438.62,353.03 L 436.74,354.45 L 434.87,355.88 L 432.86,356.99 L 430.93,358.29 L 428.84,359.21 L 426.83,360.32 L 424.69,361.11 L 422.54,361.88 L 420.41,362.70 L 418.16,363.23 L 415.88,363.67 Z"/><path fill="#888" d="M 341.30,235.31 L 340.47,235.31 L 339.64,235.31 L 338.99,234.86 L 338.29,234.54 L 337.57,234.27 L 336.87,233.96 L 336.26,233.41 L 335.57,233.06 L 334.95,232.55 L 334.37,231.96 L 333.78,231.37 L 333.19,230.78 L 332.60,230.20 L 332.10,229.57 L 331.74,228.89 L 331.65,228.09 L 332.10,227.45 L 332.55,226.80 L 332.96,226.14 L 333.55,225.55 L 334.14,224.96 L 334.79,224.53 L 335.45,224.10 L 336.27,224.09 L 337.10,224.09 L 337.87,223.93 L 338.58,223.64 L 339.23,223.19 L 339.90,222.80 L 340.49,222.21 L 341.17,221.84 L 341.82,221.39 L 342.52,221.08 L 343.29,220.94 L 343.96,220.54 L 344.77,220.49 L 345.53,220.31 L 346.25,220.05 L 346.97,219.77 L 347.69,219.50 L 348.38,219.15 L 349.13,218.96 L 349.85,218.69 L 350.50,218.25 L 351.29,218.14 L 351.98,217.80 L 352.73,217.60 L 353.46,217.35 L 354.29,217.35 L 355.12,217.35 L 355.96,217.35 L 356.79,217.35 L 357.62,217.35 L 358.45,217.35 L 359.29,217.35 L 360.00,217.64 L 360.59,218.23 L 361.18,218.81 L 360.87,219.40 L 361.59,219.52 L 362.18,219.36 L 362.76,219.95 L 363.35,220.54 L 363.12,221.13 L 362.53,221.72 L 361.94,222.31 L 361.35,222.89 L 360.77,223.48 L 360.18,224.07 L 359.59,223.51 L 358.89,223.19 L 358.28,223.72 L 358.01,224.44 L 357.42,225.03 L 356.83,225.62 L 356.80,226.44 L 356.29,227.06 L 355.70,227.65 L 355.06,228.12 L 354.39,228.51 L 353.80,229.10 L 353.21,229.68 L 352.63,230.27 L 351.91,230.54 L 351.32,231.13 L 350.60,231.40 L 349.89,231.72 L 349.25,232.16 L 348.57,232.53 L 347.98,233.12 L 347.39,233.71 L 346.80,234.30 L 346.20,234.86 L 345.49,234.56 L 344.72,234.41 L 344.05,234.01 L 343.24,233.96 L 342.48,234.13 L 341.89,234.72 Z"/><path fill="#888" d="M 468.38,229.47 L 467.59,229.13 L 466.93,228.47 L 466.14,228.12 L 465.48,228.78 L 464.69,228.92 L 464.03,228.88 L 463.15,229.02 L 462.41,228.57 L 461.65,228.13 L 461.00,227.47 L 460.52,226.74 L 459.99,226.63 L 459.33,226.40 L 458.67,227.06 L 458.01,226.74 L 457.35,226.58 L 456.56,226.92 L 455.76,227.23 L 454.98,226.85 L 454.08,226.78 L 453.14,226.78 L 452.21,226.78 L 451.29,226.75 L 450.53,226.33 L 449.71,226.07 L 449.04,226.33 L 448.26,226.70 L 447.36,226.78 L 446.67,226.18 L 446.01,225.52 L 445.36,224.86 L 444.70,224.20 L 444.04,224.63 L 443.25,224.98 L 442.50,224.53 L 441.66,224.31 L 441.00,223.65 L 440.34,222.99 L 439.68,222.33 L 439.02,221.67 L 438.36,221.01 L 438.02,220.22 L 437.36,219.56 L 437.02,218.77 L 436.36,218.11 L 436.27,217.21 L 435.83,216.47 L 435.83,215.53 L 436.34,214.82 L 437.00,214.16 L 437.66,213.50 L 438.33,212.86 L 439.11,212.49 L 439.91,212.15 L 440.76,211.97 L 441.62,212.15 L 442.44,212.42 L 443.20,212.83 L 444.12,212.86 L 445.05,212.86 L 445.99,212.86 L 446.92,212.86 L 447.85,212.86 L 448.78,212.86 L 449.72,212.86 L 450.46,213.31 L 451.37,213.37 L 452.14,213.76 L 452.89,214.21 L 453.75,214.39 L 454.54,214.74 L 455.32,215.11 L 456.12,215.42 L 456.91,215.76 L 457.70,216.10 L 458.49,216.45 L 459.24,216.90 L 459.94,217.45 L 460.60,218.11 L 461.26,218.77 L 461.92,219.43 L 462.58,220.09 L 463.24,220.75 L 463.90,221.40 L 464.56,222.06 L 464.91,222.85 L 465.56,223.51 L 466.22,224.17 L 466.15,224.96 L 465.49,225.62 L 465.77,226.42 L 466.43,227.07 L 467.09,226.72 L 467.75,226.06 L 468.54,226.04 L 469.20,226.70 L 469.86,227.36 L 469.70,228.15 L 469.04,228.81 Z"/><path fill="#888" d="M 359.71,288.72 L 358.72,288.27 L 357.54,288.27 L 356.42,288.12 L 355.46,287.60 L 354.49,287.09 L 353.56,286.47 L 352.69,285.74 L 351.86,284.90 L 351.86,283.72 L 351.41,282.73 L 351.26,281.61 L 350.96,280.56 L 350.96,279.38 L 350.51,278.38 L 350.51,277.20 L 350.51,276.02 L 350.51,274.84 L 350.51,273.66 L 350.51,272.48 L 350.92,271.47 L 350.96,270.31 L 351.00,269.15 L 351.41,268.14 L 351.86,267.14 L 351.92,265.99 L 352.44,265.02 L 352.95,264.06 L 353.47,263.09 L 353.99,262.13 L 354.82,261.29 L 355.34,260.33 L 356.17,259.49 L 357.14,258.98 L 358.00,258.20 L 358.94,257.62 L 359.91,257.11 L 360.87,256.59 L 361.97,256.39 L 362.97,255.95 L 364.03,255.68 L 365.14,255.50 L 366.32,255.50 L 367.50,255.50 L 368.68,255.50 L 369.86,255.50 L 370.85,255.95 L 371.98,256.09 L 373.03,256.40 L 374.02,256.85 L 375.01,257.30 L 376.01,257.75 L 377.07,258.04 L 378.03,258.55 L 378.99,259.09 L 379.97,259.59 L 380.80,260.42 L 381.63,261.26 L 382.39,262.12 L 382.84,263.12 L 383.29,264.11 L 383.74,265.10 L 383.74,266.28 L 383.74,267.46 L 383.74,268.64 L 383.29,269.64 L 382.84,270.63 L 382.26,271.57 L 381.74,272.54 L 380.78,273.05 L 379.76,273.46 L 379.33,274.22 L 380.15,275.06 L 380.68,276.02 L 381.52,276.85 L 382.04,277.82 L 382.39,278.85 L 382.61,279.75 L 382.39,280.84 L 381.52,281.54 L 380.35,281.56 L 379.34,281.99 L 378.35,282.43 L 377.32,282.79 L 376.22,282.99 L 375.25,283.51 L 374.19,283.78 L 373.19,284.23 L 372.23,284.74 L 371.21,285.13 L 370.21,285.58 L 369.22,286.02 L 368.22,286.47 L 367.23,286.92 L 366.17,287.21 L 365.07,287.40 L 364.06,287.82 L 363.01,288.12 L 361.89,288.27 L 360.71,288.27 Z"/><path fill="#888" d="M 462.99,285.13 L 461.99,285.13 L 460.98,285.13 L 459.97,285.13 L 459.15,284.68 L 458.15,284.68 L 457.28,284.35 L 456.32,284.23 L 455.46,283.88 L 454.49,283.78 L 453.64,283.41 L 452.67,283.33 L 451.82,282.94 L 450.84,282.88 L 449.83,282.88 L 449.01,282.43 L 448.01,282.43 L 447.00,282.43 L 446.11,282.16 L 445.17,281.99 L 444.29,281.69 L 443.44,281.30 L 442.53,281.09 L 441.70,280.64 L 440.91,280.12 L 440.07,279.72 L 439.42,278.99 L 438.97,278.17 L 438.57,277.32 L 438.49,276.35 L 438.07,275.52 L 438.07,274.51 L 438.07,273.51 L 438.07,272.50 L 438.07,271.49 L 438.11,270.50 L 438.52,269.67 L 438.58,268.68 L 438.97,267.84 L 439.42,267.02 L 439.76,266.16 L 440.16,265.31 L 440.77,264.56 L 441.26,263.76 L 441.98,263.05 L 442.69,262.34 L 443.40,261.62 L 444.11,260.91 L 444.82,260.20 L 445.67,259.81 L 446.51,259.41 L 447.22,258.70 L 448.06,258.31 L 449.02,258.20 L 449.84,257.75 L 450.72,257.44 L 451.67,257.30 L 452.49,256.85 L 453.50,256.85 L 454.49,256.82 L 455.33,256.40 L 456.33,256.40 L 457.34,256.40 L 458.26,256.61 L 459.17,256.85 L 460.08,257.08 L 460.92,257.47 L 461.76,257.87 L 462.48,258.58 L 463.19,259.29 L 463.90,260.00 L 464.29,260.84 L 464.56,261.74 L 465.01,262.56 L 465.01,263.56 L 464.79,264.48 L 464.73,265.32 L 465.13,266.16 L 465.84,266.88 L 465.92,267.85 L 466.36,268.67 L 466.36,269.68 L 466.78,270.51 L 466.81,271.51 L 467.25,272.33 L 467.26,273.33 L 467.41,274.28 L 467.71,275.16 L 467.71,276.17 L 467.71,277.17 L 468.16,277.99 L 468.16,279.00 L 467.71,279.82 L 467.71,280.82 L 467.34,281.68 L 466.95,282.52 L 466.23,283.23 L 465.52,283.95 L 464.68,284.34 L 463.81,284.68 Z"/>
  </g>
  <g inkscape:groupmode="layer" inkscape:label="horse (move/scale onto marduk)">
    <g id="horse-group" transform="matrix(0.45949,0,0,0.45949,136.05734,30.724615)">
      <g inkscape:label="snout-front" id="horse-snout-front"><path
       id="part-12"
       inkscape:label="part-12"
       fill="#e6194B"
       fill-rule="evenodd"
       fill-opacity="0.7"
       d="m 531,666.5 c -2.8,0.8 -3.6,-0.3 -5,-1 -1.4,-0.7 -3.5,-1.5 -3.5,-3.5 0,-2 1.3,-6.4 3.5,-8.5 2.2,-2.1 7.2,-3.3 10,-4 2.8,-0.7 5.2,0.5 7,0 1.8,-0.5 0.5,-2 4,-3 3.5,-1 5.2,-2.5 17,-3 11.8,-0.5 41.2,-0.8 54,0 12.8,0.8 18.4,3.6 23,5 4.6,1.4 3.6,2.3 4.5,3.5 0.9,1.2 0.2,3 1,4 0.8,1 3.4,1.4 4,2 0.6,0.6 0.9,1.4 -0.5,1.5 -1.4,0.1 -6.2,-0.7 -8,-1 -1.8,-0.3 -2.3,-0.3 -3,-1 -0.7,-0.7 1.3,-2.2 -1,-3 -2.3,-0.8 -10,-2.2 -13,-2 -3,0.2 -2.7,2.8 -5,3 -2.3,0.2 -5.7,-2.2 -9,-2 -3.3,0.2 -3.3,2.3 -11,3 -7.7,0.7 -27.7,0.2 -35,1 -7.3,0.8 -5.3,3.5 -9,4 -3.7,0.5 -8.8,-1.8 -13,-1 -4.2,0.8 -9.2,5.2 -12,6 z" /><path
       id="path1464"
       inkscape:label="part-1"
       fill="#e6194B"
       fill-rule="evenodd"
       fill-opacity="0.7"
       d="m 672,804.5 c -5.3,2.5 -13.3,9 -20,12 -6.7,3 -12.3,4.5 -20,6 -7.7,1.5 -17.2,2.5 -26,3 -8.8,0.5 -18,0.5 -27,0 -9,-0.5 -19,-1.5 -27,-3 -8,-1.5 -12.7,-2.2 -21,-6 -8.3,-3.8 -23.9,-14.4 -29,-17 -10.04937,-9.26053 -13.60822,-15.52367 -20.5,-33.5 -0.6,-2.4 -3.5,-7.5 -5,-13 -1.5,-5.5 -3.5,-10.8 -4,-20 -0.5,-9.2 -0.2,-25.8 1,-35 1.2,-9.2 3.26923,-15.9218 6,-20 4.31222,-6.43999 16.55576,-0.41187 15,7 -0.94915,4.52187 -4,8.7 -5,16 -1,7.3 -1.7,19.5 -1,28 0.7,8.5 2.8,16.3 5,23 2.2,6.7 4.3,11.2 8,17 3.7,5.8 9.1,12.6 14.5,17.5 5.4,4.9 9.7,8.7 18,12 8.3,3.3 19,6.5 32,8 13,1.5 35.7,1.2 46,1 10.3,-0.2 11,-1 16,-2 5,-1 9,-2 14,-4 5,-2 10.2,-3.7 16,-8 5.8,-4.3 14.4,-13.1 18.5,-17.5 4.1,-4.4 3.2,-2.8 6,-9 2.8,-6.2 8.8,-18 11,-28 2.2,-10 2.5,-23.3 2,-32 -0.5,-8.7 -1.7,-13.2 -5,-20 -3.3,-6.8 -13.3,-17.3 -15,-21 -1.7,-3.7 2.16184,0.0573 5.47857,1.09392 11.76652,3.67743 14.45106,-5.01046 17.52143,0.90617 3.32933,6.41565 4.8,6.3 7,12 2.2,5.7 5,13.2 6,22 1,8.8 0.7,22.7 0,31 -0.7,8.3 -1.8,12.3 -4,19 -2.2,6.7 -7.7,17.1 -9,21 -16.70988,21.90239 -12.10557,16.73048 -26.5,31.5 z"
       sodipodi:nodetypes="cssssssccssssssssssssssssssssssssssssccc"
       style="display:inline;fill:#000080" /></g>
      <g inkscape:label="hair" id="horse-hair"><path
       id="path1302"
       inkscape:label="part-1"
       d="m 708,350.5 c -7.59999,0.4 -23.50001,-10.3 -35,-14 -11.49999,-3.7 -25.20001,-6.2 -34,-8 -8.79999,-1.8 -13.50001,-2.8 -19,-3 -5.49999,-0.2 -10.7,2.2 -14,2 -3.3,-0.2 1.19999,-2.5 -6,-3 -7.19999,-0.5 -21.80002,-1.5 -37,0 -15.19998,1.5 -39.50001,4.7 -54,9 -31.5709,14.2603 -45.57335,35.22817 -13,23 6.59999,-2.3 3.4,-0.6 1.5,1.5 -1.9,2.1 -10.8,8.2 -13,11 -2.2,2.8 -0.4,4.4 0,6 0.4,1.6 0.9,3.2 2.5,3.5 1.6,0.3 5.3,-2 7,-2 1.7,0 1.2,2.3 3,2 1.8,-0.3 3.7,-2.8 8,-4 4.3,-1.2 14.8,-2.7 18,-3 3.2,-0.3 2.1,-1.3 1.5,1.5 -0.6,2.8 -4.5,10.2 -5,15 -0.5,4.8 0.7,9.7 2,14 1.3,4.3 3.4,8.6 6,12 2.6,3.4 7.5,7.2 9.5,8.5 2,1.3 2.4,-0.1 2.5,-0.5 0.1,-0.4 -1.9,-1.4 -2,-2 -0.1,-0.6 0.7,-1 1.5,-1.5 0.8,-0.5 3.2,0.9 3.5,-1.5 0.3,-2.4 -2.2,-8.8 -2,-13 0.2,-4.2 0.9,-8.1 3,-12 2.1,-3.9 6,-12.7 9.5,-11.5 3.5,1.2 6.5,12.50001 11.5,18.5 5,5.99999 11.70001,12.6 18.5,17.5 6.79999,4.9 16.80001,9.8 22,12 5.19999,2.2 6.8,0.2 9,1 2.2,0.8 1.3,3.3 4,4 2.7,0.7 10.1,2.1 12,0 1.9,-2.1 1.9,-8.6 -0.5,-12.5 -2.4,-3.9 -10.7,-7.8 -14,-11 -3.3,-3.2 -5.3,-6.2 -6,-8 -0.7,-1.8 -2.4,-4.1 1.5,-2.5 3.9,1.6 13.70001,9.2 22,12 8.29999,2.8 22.10001,4.9 28,5 5.89999,0.1 6.9,-3.3 7.5,-4.5 0.6,-1.2 -3.2,-1.7 -4,-3 -0.8,-1.3 2.5,-1.2 -1,-5 -3.5,-3.8 -16.9,-14.6 -20,-18 -3.1,-3.4 -1.9,-3.4 1.5,-2.5 3.4,0.9 15,6.8 19,8 4,1.2 2.3,-1.5 5,-1 2.7,0.5 8.2,4.3 11,4 2.8,-0.3 4.6,-3.6 5.5,-5.5 0.9,-1.9 1.8,-3 0,-6 -1.8,-3 -8.7,-9.2 -11,-12 -2.3,-2.8 -2.7,-3.9 -3,-5 -0.3,-1.1 -2.6,-2.4 1.5,-1.5 4.1,0.9 15.20001,5.7 23,7 7.79999,1.3 19.1,2.1 24,1 4.9,-1.1 5.6,-5.6 5.5,-7.5 34.41615,11.34322 -10.70743,-16.47124 -17.5,-14.5 z m -142,-10 c 0.5,0.2 0.9,2.3 0.5,2.5 -0.4,0.2 -2.9,-0.6 -3,-1 -0.1,-0.4 2,-1.7 2.5,-1.5 z m 90,24 c 1.2,0.5 4.1,6.7 3.5,7.5 -0.6,0.8 -6.4,-1.8 -7,-3 -0.6,-1.2 2.3,-5 3.5,-4.5 z m 70,1 c -0.2,0.4 2.4,2.4 2.5,3.5 0.1,1.1 -1.9,2.4 -2,3 -0.1,0.6 0.5,0.8 1.5,0.5 1,-0.3 4.2,-1.5 4.5,-2.5 0.3,-1 -1.4,-2.8 -2.5,-3.5 -1.1,-0.7 -3.8,-1.4 -4,-1 z M 623.69336,381.40039 C 624.16211,381.24414 624.625,381.25 625,381.5 c 1.5,1 6.1,8.9 5.5,9.5 -0.6,0.6 -8.1,-4.4 -9,-6 -0.675,-1.2 0.78711,-3.13086 2.19336,-3.59961 z m -37.98438,10.83008 C 586.12461,392.11172 586.575,392.175 587,392.5 c 1.7,1.3 7.9,10.9 7.5,11.5 -0.4,0.6 -8.7,-6.1 -10,-8 -0.975,-1.425 -0.0379,-3.41328 1.20898,-3.76953 z"
       sodipodi:nodetypes="cssssssccsssssssssssssssssssssssssssssssssssssssssssssssccsssssssssssssssssssssssss" /></g>
      <g inkscape:label="head" id="horse-head"><path
       id="path1356"
       inkscape:label="part-1"
       d="m 402.65039,303.875 c -2.15,-0.05 -3.85039,0.275 -5.65039,0.625 -3.6,0.7 -5.9,3.9 -7.5,5.5 -1.6,1.6 -1.5,0.8 -2,4 -0.5,3.2 -2,7.20001 -1,15 1,7.79999 4,22.80001 7,32 3,9.19999 6.18198,14.8859 11,23 6.3816,10.74736 5.70966,11.49138 14.5,11.5 7.5822,0.007 8.8,-4.2 9.5,-6.5 0.7,-2.3 -3.8,-5.8 -5.5,-7.5 -1.7,-1.7 -3.4,-0.3 -4.5,-2.5 -1.1,-2.2 -0.8,-8 -2,-11 -1.2,-3 -2.8,-0.30001 -5,-7 -2.2,-6.69999 -6.9,-26.40001 -8,-33 -1.1,-6.59999 -2.4,-7.1 1.5,-6.5 3.9,0.6 14.70001,5.3 22,10 7.29999,4.7 17.7,14.8 22,18 4.3,3.2 1.4,-1.4 4,1 2.6,2.4 10.7,10 11.5,13.5 10.57955,12.83325 16.66908,-0.60637 11.5,-13.5 -5.99999,2 -1.6,-3.9 -3,-5 -1.4,-1.1 -3.2,0.7 -5.5,-1.5 -2.3,-2.2 -3.9,-7.2 -8.5,-11.5 -4.6,-4.3 -11.00001,-9.5 -19,-14 -7.99999,-4.5 -21.80001,-10.7 -29,-13 -3.6,-1.15 -6.19961,-1.575 -8.34961,-1.625 z m 84.54102,62.51953 C 486.01797,367.39297 485.05,368.3 484.5,369 c 0.55,-0.7 1.51797,-1.60703 2.69141,-2.60547 z M 484.5,369 c -0.55,0.7 -0.85,1.32578 -0.98438,1.89453 C 483.65,370.32578 483.95,369.7 484.5,369 Z m -0.98438,1.89453 c -0.13437,0.56875 -0.10273,1.07969 0.01,1.55469 -0.1125,-0.475 -0.14414,-0.98594 -0.01,-1.55469 z m 0.01,1.55469 c 0.225,0.95 0.77461,1.75078 0.97461,2.55078 -0.2,-0.8 -0.74961,-1.60078 -0.97461,-2.55078 z M 484.5,375 c 0.2,0.8 0.42578,1.60078 0.80078,2.23828 C 484.92578,376.60078 484.7,375.8 484.5,375 Z m 4.0293,3.31445 C 487.93086,378.48789 487.4,378.575 487,378.5 c 0.4,0.075 0.93086,-0.0121 1.5293,-0.18555 z"
       style="fill:#ff2a2a"
       sodipodi:nodetypes="ssssssssssssssssssccsssssscccccccccccccccccc" /></g>
      <g inkscape:label="l-ear" id="horse-l-ear"><path
       id="path1356"
       inkscape:label="part-1"
       d="m 402.65039,303.875 c -2.15,-0.05 -3.85039,0.275 -5.65039,0.625 -3.6,0.7 -5.9,3.9 -7.5,5.5 -1.6,1.6 -1.5,0.8 -2,4 -0.5,3.2 -2,7.20001 -1,15 1,7.79999 4,22.80001 7,32 3,9.19999 6.18198,14.8859 11,23 6.3816,10.74736 5.70966,11.49138 14.5,11.5 7.5822,0.007 8.8,-4.2 9.5,-6.5 0.7,-2.3 -3.8,-5.8 -5.5,-7.5 -1.7,-1.7 -3.4,-0.3 -4.5,-2.5 -1.1,-2.2 -0.8,-8 -2,-11 -1.2,-3 -2.8,-0.30001 -5,-7 -2.2,-6.69999 -6.9,-26.40001 -8,-33 -1.1,-6.59999 -2.4,-7.1 1.5,-6.5 3.9,0.6 14.70001,5.3 22,10 7.29999,4.7 17.7,14.8 22,18 4.3,3.2 1.4,-1.4 4,1 2.6,2.4 10.7,10 11.5,13.5 10.57955,12.83325 16.66908,-0.60637 11.5,-13.5 -5.99999,2 -1.6,-3.9 -3,-5 -1.4,-1.1 -3.2,0.7 -5.5,-1.5 -2.3,-2.2 -3.9,-7.2 -8.5,-11.5 -4.6,-4.3 -11.00001,-9.5 -19,-14 -7.99999,-4.5 -21.80001,-10.7 -29,-13 -3.6,-1.15 -6.19961,-1.575 -8.34961,-1.625 z m 84.54102,62.51953 C 486.01797,367.39297 485.05,368.3 484.5,369 c 0.55,-0.7 1.51797,-1.60703 2.69141,-2.60547 z M 484.5,369 c -0.55,0.7 -0.85,1.32578 -0.98438,1.89453 C 483.65,370.32578 483.95,369.7 484.5,369 Z m -0.98438,1.89453 c -0.13437,0.56875 -0.10273,1.07969 0.01,1.55469 -0.1125,-0.475 -0.14414,-0.98594 -0.01,-1.55469 z m 0.01,1.55469 c 0.225,0.95 0.77461,1.75078 0.97461,2.55078 -0.2,-0.8 -0.74961,-1.60078 -0.97461,-2.55078 z M 484.5,375 c 0.2,0.8 0.42578,1.60078 0.80078,2.23828 C 484.92578,376.60078 484.7,375.8 484.5,375 Z m 4.0293,3.31445 C 487.93086,378.48789 487.4,378.575 487,378.5 c 0.4,0.075 0.93086,-0.0121 1.5293,-0.18555 z"
       style="fill:#ff2a2a"
       sodipodi:nodetypes="ssssssssssssssssssccsssssscccccccccccccccccc" /></g>
      <g inkscape:label="r-ear" id="horse-r-ear"><path
       id="path1359"
       inkscape:label="part-1"
       d="M 774.5625,295.01172 C 773.7,294.92422 772.65,295 771,295.5 c -3.3,1 -8.30001,2.7 -14,6 -5.69999,3.3 -13.60001,8.60001 -20,14 -6.39999,5.39999 -13.7,12.70001 -18.5,18.5 -4.8,5.79999 -11.47149,14.94629 -10.5,16.5 3.42067,5.47071 8.49878,7.99666 15.98047,5.88086 1.08839,-0.89286 2.09615,-1.74579 2.51953,-2.38086 1.2,-1.8 -4.4,0.9 0,-4 4.4,-4.9 18.90001,-19.20001 26.5,-25.5 7.59999,-6.29999 15.2,-10.4 19,-12 3.8,-1.6 2.6,0.7 3.5,2.5 0.9,1.8 1.8,2.20001 2,8 0.2,5.79999 -0.2,20.50001 -1,27 -0.8,6.49999 -3.3,8.8 -4,12 -0.7,3.2 1.3,4 0,7 -1.3,3 -6.5,8.3 -8,11 -1.78627,2.36073 -2.39116,2.43183 -5,6 -2.97502,9.41769 12.73421,20.44314 18,6 2.12066,-5.81659 5,-4.8 6,-7 1,-2.2 -1.2,-3.7 0,-6 1.2,-2.3 5.3,-3.5 7,-8 1.7,-4.5 2.3,-11.50001 3,-19 0.7,-7.49999 1.5,-18.70001 1,-26 -0.5,-7.29999 -1.9,-13.2 -4,-18 -2.1,-4.8 -6.3,-8.4 -8.5,-10.5 -2.2,-2.1 -3.2,-1.7 -5,-2 -0.9,-0.15 -1.575,-0.40078 -2.4375,-0.48828 z"
       style="fill:#d4aa00"
       sodipodi:nodetypes="sssssscsssssssssccssssssssss" /></g>
      <g inkscape:label="forelock" id="horse-forelock"><path
       id="part-17"
       inkscape:label="part-17"
       fill="#42d4f4"
       fill-rule="evenodd"
       fill-opacity="0.7"
       d="M 447.0,460.5 C 444.1,461.2 439.9,458.6 438.5,457.0 C 437.1,455.4 436.1,454.9 438.5,451.0 C 440.9,447.1 447.1,437.6 453.0,433.5 C 458.9,429.4 467.4,427.1 474.0,426.5 C 480.6,425.9 489.2,428.9 492.5,430.0 C 495.8,431.1 493.7,432.2 493.5,433.0 C 493.3,433.8 491.2,434.2 491.5,435.0 C 491.8,435.8 495.1,436.8 495.0,437.5 C 494.9,438.2 491.8,439.7 491.0,439.5 C 490.2,439.3 490.7,437.0 490.0,436.5 C 489.3,436.0 488.7,435.2 487.0,436.5 C 485.3,437.8 484.2,441.7 480.0,444.5 C 475.8,447.3 466.0,452.2 462.0,453.5 C 458.0,454.8 458.5,451.3 456.0,452.5 C 453.5,453.7 449.9,459.8 447.0,460.5 Z" /></g>
      <g inkscape:label="l-brow" id="horse-l-brow"><path
       id="part-17"
       inkscape:label="part-17"
       fill="#f032e6"
       fill-rule="evenodd"
       fill-opacity="0.7"
       d="M 447.0,460.5 C 444.1,461.2 439.9,458.6 438.5,457.0 C 437.1,455.4 436.1,454.9 438.5,451.0 C 440.9,447.1 447.1,437.6 453.0,433.5 C 458.9,429.4 467.4,427.1 474.0,426.5 C 480.6,425.9 489.2,428.9 492.5,430.0 C 495.8,431.1 493.7,432.2 493.5,433.0 C 493.3,433.8 491.2,434.2 491.5,435.0 C 491.8,435.8 495.1,436.8 495.0,437.5 C 494.9,438.2 491.8,439.7 491.0,439.5 C 490.2,439.3 490.7,437.0 490.0,436.5 C 489.3,436.0 488.7,435.2 487.0,436.5 C 485.3,437.8 484.2,441.7 480.0,444.5 C 475.8,447.3 466.0,452.2 462.0,453.5 C 458.0,454.8 458.5,451.3 456.0,452.5 C 453.5,453.7 449.9,459.8 447.0,460.5 Z" /></g>
      <g inkscape:label="r-brow" id="horse-r-brow"><path
       id="part-16"
       inkscape:label="part-16"
       fill="#bfef45"
       fill-rule="evenodd"
       fill-opacity="0.7"
       d="M 737.0,458.5 C 735.1,458.2 733.7,454.5 731.0,453.5 C 728.3,452.5 724.5,454.0 721.0,452.5 C 717.5,451.0 712.7,445.8 710.0,444.5 C 707.3,443.2 706.5,445.5 705.0,444.5 C 703.5,443.5 703.3,439.5 701.0,438.5 C 698.7,437.5 693.6,439.4 691.0,438.5 C 688.4,437.6 686.4,434.4 685.5,433.0 C 684.6,431.6 684.2,431.4 685.5,430.0 C 686.8,428.6 687.6,425.1 693.0,424.5 C 698.4,423.9 710.4,423.6 718.0,426.5 C 725.6,429.4 734.4,437.2 738.5,442.0 C 742.6,446.8 742.8,452.2 742.5,455.0 C 742.2,457.8 738.9,458.8 737.0,458.5 Z" /></g>
      <g inkscape:label="l-eye" id="horse-l-eye"><path
       id="part-6"
       inkscape:label="part-6"
       fill="#fabed4"
       fill-rule="evenodd"
       fill-opacity="0.7"
       d="M 480.0,574.5 C 474.5,576.0 472.4,574.8 469.0,572.5 C 465.6,570.2 461.4,565.8 459.5,561.0 C 457.6,556.2 457.2,549.5 457.5,544.0 C 457.8,538.5 461.0,531.5 461.5,528.0 C 462.0,524.5 459.7,525.5 460.5,523.0 C 461.3,520.5 464.1,515.9 466.5,513.0 C 468.9,510.1 471.8,507.6 475.0,505.5 C 478.2,503.4 482.7,501.5 486.0,500.5 C 489.3,499.5 491.2,498.5 495.0,499.5 C 498.8,500.5 505.4,503.8 509.0,506.5 C 512.6,509.2 514.9,511.4 516.5,516.0 C 518.1,520.6 519.0,529.7 518.5,534.0 C 518.0,538.3 513.8,538.3 513.5,542.0 C 513.2,545.7 516.6,552.9 516.5,556.0 C 516.4,559.1 515.4,559.2 513.0,560.5 C 510.6,561.8 507.5,561.2 502.0,563.5 C 496.5,565.8 485.5,573.0 480.0,574.5 Z" /></g>
      <g inkscape:label="r-eye" id="horse-r-eye"><path
       id="part-7"
       inkscape:label="part-7"
       fill="#469990"
       fill-rule="evenodd"
       fill-opacity="0.7"
       d="M 711.0,570.5 C 707.9,571.8 707.3,571.8 703.0,570.5 C 698.7,569.2 689.3,563.8 685.0,562.5 C 680.7,561.2 679.7,563.2 677.0,562.5 C 674.3,561.8 670.9,559.9 669.0,558.5 C 667.1,557.1 666.4,556.6 665.5,554.0 C 664.6,551.4 663.5,547.7 663.5,543.0 C 663.5,538.3 664.2,531.0 665.5,526.0 C 666.8,521.0 668.1,517.1 671.5,513.0 C 674.9,508.9 682.4,503.8 686.0,501.5 C 689.6,499.2 689.5,499.5 693.0,499.5 C 696.5,499.5 703.0,500.2 707.0,501.5 C 711.0,502.8 714.2,505.1 717.0,507.5 C 719.8,509.9 722.6,512.8 723.5,516.0 C 724.4,519.2 722.3,524.5 722.5,527.0 C 722.7,529.5 724.0,527.0 724.5,531.0 C 725.0,535.0 726.0,545.7 725.5,551.0 C 725.0,556.3 723.9,559.8 721.5,563.0 C 719.1,566.2 714.1,569.2 711.0,570.5 Z" /></g>
      <g inkscape:label="snout-trunk" id="horse-snout-trunk"><path
       id="path1299"
       inkscape:label="part-1"
       fill="#dcbeff"
       fill-rule="evenodd"
       fill-opacity="0.7"
       d="M 682.02381,668.7077 C 680.047,668.07094 681.5,670.3 680.5,665 c -1,-5.3 -8.2,-21.5 -11,-31 -2.8,-9.5 -4.5,-21.2 -6,-26 -1.5,-4.8 -2.5,1.2 -3,-3 -0.5,-4.2 -0.7,-17.1 0,-22 0.7,-4.9 2.2,-8.7 4.5,-7.5 2.3,1.2 7.8,10.4 9.5,14.5 1.7,4.1 -0.7,3.3 1,10 1.7,6.7 5.2,18.7 9,30 3.8,11.3 12.87857,29.78926 14,38 1.37249,10.04896 -6.5971,3.88992 -16.47619,0.7077 z"
       sodipodi:nodetypes="ssssssssssss"
       style="display:inline;fill:#550000" /><path
       id="path1462"
       inkscape:label="part-1"
       fill="#dcbeff"
       fill-rule="evenodd"
       fill-opacity="0.7"
       d="M 482.90974,669.22648 C 488.70974,654.72648 508.9,603.4 514.5,591 c 5.6,-12.4 3.2,2 4.5,1.5 1.3,-0.5 2.9,-4.7 3.5,-4.5 0.6,0.2 0.7,4.8 0,6 -0.7,1.2 -3.2,-1 -4,1 -0.8,2 -1.2,8.5 -1,11 0.2,2.5 2,3 2,4 0,1 -2,1.2 -2,2 0,0.8 2,2.2 2,3 0,0.8 -1.7,0.3 -2,2 -0.3,1.7 2.7,-0.7 0,8 -2.7,8.7 -19.10797,49.02701 -21.40797,56.82701 0.26813,7.06288 -21.34134,8.97952 -13.18229,-12.60053 z"
       sodipodi:nodetypes="cssssssssssscc"
       style="display:inline;fill:#550000" /></g>
      <g inkscape:label="l-nostril" id="horse-l-nostril"><path
       id="part-18"
       inkscape:label="part-18"
       fill="#9A6324"
       fill-rule="evenodd"
       fill-opacity="0.7"
       d="M 538.0,726.5 C 535.5,726.3 530.4,724.8 528.0,723.5 C 525.6,722.2 525.4,722.2 523.5,719.0 C 521.6,715.8 517.5,708.2 516.5,704.0 C 515.5,699.8 516.1,696.9 517.5,694.0 C 518.9,691.1 521.9,687.4 525.0,686.5 C 528.1,685.6 532.4,685.6 536.0,688.5 C 539.6,691.4 544.6,699.1 546.5,704.0 C 548.4,708.9 548.1,714.6 547.5,718.0 C 546.9,721.4 544.6,723.1 543.0,724.5 C 541.4,725.9 540.5,726.7 538.0,726.5 Z" /></g>
      <g inkscape:label="r-nostril" id="horse-r-nostril"><path
       id="part-19"
       inkscape:label="part-19"
       fill="#800000"
       fill-rule="evenodd"
       fill-opacity="0.7"
       d="M 650.0,722.5 C 647.2,723.8 646.1,723.4 644.0,722.5 C 641.9,721.6 638.8,719.9 637.5,717.0 C 636.2,714.1 635.5,709.7 636.5,705.0 C 637.5,700.3 641.1,692.6 643.5,689.0 C 645.9,685.4 648.6,684.4 651.0,683.5 C 653.4,682.6 655.8,682.6 658.0,683.5 C 660.2,684.4 663.1,686.2 664.5,689.0 C 665.9,691.8 667.2,695.7 666.5,700.0 C 665.8,704.3 663.2,711.2 660.5,715.0 C 657.8,718.8 652.8,721.2 650.0,722.5 Z" /></g>
      <g inkscape:label="mouth" id="horse-mouth"><path
       id="part-13"
       inkscape:label="part-13"
       fill="#808000"
       fill-rule="evenodd"
       fill-opacity="0.7"
       d="M 597.0,794.5 C 591.3,795.2 586.5,794.5 581.0,793.5 C 575.5,792.5 567.7,790.3 564.0,788.5 C 560.3,786.7 561.4,784.4 559.0,782.5 C 556.6,780.6 551.4,778.4 549.5,777.0 C 547.6,775.6 547.7,775.7 547.5,774.0 C 547.3,772.3 546.9,768.4 548.5,767.0 C 550.1,765.6 553.8,764.1 557.0,765.5 C 560.2,766.9 563.8,773.2 568.0,775.5 C 572.2,777.8 577.3,778.7 582.0,779.5 C 586.7,780.3 592.0,780.7 596.0,780.5 C 600.0,780.3 601.8,780.0 606.0,778.5 C 610.2,777.0 617.0,774.2 621.0,771.5 C 625.0,768.8 627.1,764.1 630.0,762.5 C 632.9,760.9 637.1,761.1 638.5,762.0 C 639.9,762.9 639.8,765.1 638.5,768.0 C 637.2,770.9 634.9,775.9 631.0,779.5 C 627.1,783.1 620.7,787.0 615.0,789.5 C 609.3,792.0 602.7,793.8 597.0,794.5 Z" /></g>
    </g>
  </g>
</svg>