<?xml version="1.0" encoding="UTF-8" standalone="no"?>
<svg
   viewBox="0 0 1254 1254"
   width="1254"
   height="1254"
   version="1.1"
   id="svg1289"
   sodipodi:docname="horse.svg"
   inkscape:version="1.2.2 (b0a8486541, 2022-12-01)"
   xmlns:inkscape="http://www.inkscape.org/namespaces/inkscape"
   xmlns:sodipodi="http://sodipodi.sourceforge.net/DTD/sodipodi-0.dtd"
   xmlns:xlink="http://www.w3.org/1999/xlink"
   xmlns="http://www.w3.org/2000/svg"
   xmlns:svg="http://www.w3.org/2000/svg"
   xmlns:sodipodi0="http://sodipodi.sourceforge.net/DTD/sodipodi-0.0.dtd">
  <defs
     id="defs1293" />
  <sodipodi:namedview
     id="namedview1291"
     pagecolor="#ffffff"
     bordercolor="#000000"
     borderopacity="0.25"
     inkscape:showpageshadow="2"
     inkscape:pageopacity="0.0"
     inkscape:pagecheckerboard="0"
     inkscape:deskcolor="#d1d1d1"
     showgrid="false"
     inkscape:zoom="1.6059331"
     inkscape:cx="572.25298"
     inkscape:cy="701.77269"
     inkscape:window-width="1678"
     inkscape:window-height="912"
     inkscape:window-x="0"
     inkscape:window-y="0"
     inkscape:window-maximized="1"
     inkscape:current-layer="g1251" />
  <g
     inkscape:groupmode="layer"
     inkscape:label="reference (source png)"
     sodipodi0:insensitive="true"
     style="opacity:0.18"
     id="g1251">
    <!-- reference stripped; regenerate via tools/trace_png.py -->
  </g>
  <g
     inkscape:groupmode="layer"
     id="layer3"
     inkscape:label="snout-front"
     style="display:inline">
    <path
       id="part-12"
       inkscape:label="part-12"
       fill="#9a6324"
       fill-rule="evenodd"
       fill-opacity="0.85"
       d="m 531,666.5 c -2.8,0.8 -3.6,-0.3 -5,-1 -1.4,-0.7 -3.5,-1.5 -3.5,-3.5 0,-2 1.3,-6.4 3.5,-8.5 2.2,-2.1 7.2,-3.3 10,-4 2.8,-0.7 5.2,0.5 7,0 1.8,-0.5 0.5,-2 4,-3 3.5,-1 5.2,-2.5 17,-3 11.8,-0.5 41.2,-0.8 54,0 12.8,0.8 18.4,3.6 23,5 4.6,1.4 3.6,2.3 4.5,3.5 0.9,1.2 0.2,3 1,4 0.8,1 3.4,1.4 4,2 0.6,0.6 0.9,1.4 -0.5,1.5 -1.4,0.1 -6.2,-0.7 -8,-1 -1.8,-0.3 -2.3,-0.3 -3,-1 -0.7,-0.7 1.3,-2.2 -1,-3 -2.3,-0.8 -10,-2.2 -13,-2 -3,0.2 -2.7,2.8 -5,3 -2.3,0.2 -5.7,-2.2 -9,-2 -3.3,0.2 -3.3,2.3 -11,3 -7.7,0.7 -27.7,0.2 -35,1 -7.3,0.8 -5.3,3.5 -9,4 -3.7,0.5 -8.8,-1.8 -13,-1 -4.2,0.8 -9.2,5.2 -12,6 z" />
    <path
       id="path1464"
       inkscape:label="part-1"
       fill="#e6194b"
       fill-rule="evenodd"
       fill-opacity="0.85"
       d="m 672,804.5 c -5.3,2.5 -13.3,9 -20,12 -6.7,3 -12.3,4.5 -20,6 -7.7,1.5 -17.2,2.5 -26,3 -8.8,0.5 -18,0.5 -27,0 -9,-0.5 -19,-1.5 -27,-3 -8,-1.5 -12.7,-2.2 -21,-6 -8.3,-3.8 -23.9,-14.4 -29,-17 -10.04937,-9.26053 -13.60822,-15.52367 -20.5,-33.5 -0.6,-2.4 -3.5,-7.5 -5,-13 -1.5,-5.5 -3.5,-10.8 -4,-20 -0.5,-9.2 -0.2,-25.8 1,-35 1.2,-9.2 3.26923,-15.9218 6,-20 4.31222,-6.43999 16.55576,-0.41187 15,7 -0.94915,4.52187 -4,8.7 -5,16 -1,7.3 -1.7,19.5 -1,28 0.7,8.5 2.8,16.3 5,23 2.2,6.7 4.3,11.2 8,17 3.7,5.8 9.1,12.6 14.5,17.5 5.4,4.9 9.7,8.7 18,12 8.3,3.3 19,6.5 32,8 13,1.5 35.7,1.2 46,1 10.3,-0.2 11,-1 16,-2 5,-1 9,-2 14,-4 5,-2 10.2,-3.7 16,-8 5.8,-4.3 14.4,-13.1 18.5,-17.5 4.1,-4.4 3.2,-2.8 6,-9 2.8,-6.2 8.8,-18 11,-28 2.2,-10 2.5,-23.3 2,-32 -0.5,-8.7 -1.7,-13.2 -5,-20 -3.3,-6.8 -13.3,-17.3 -15,-21 -1.7,-3.7 2.16184,0.0573 5.47857,1.09392 11.76652,3.67743 14.45106,-5.01046 17.52143,0.90617 3.32933,6.41565 4.8,6.3 7,12 2.2,5.7 5,13.2 6,22 1,8.8 0.7,22.7 0,31 -0.7,8.3 -1.8,12.3 -4,19 -2.2,6.7 -7.7,17.1 -9,21 -16.70988,21.90239 -12.10557,16.73048 -26.5,31.5 z"
       sodipodi:nodetypes="cssssssccssssssssssssssssssssssssssssccc"
       style="display:inline;fill:#000080" />
  </g>
  <g
     inkscape:groupmode="layer"
     id="layer-traced"
     inkscape:label="traced parts">
    <path
       id="part-1"
       inkscape:label="part-1"
       d="M 774.5625,295.01172 C 773.7,294.92422 772.65,295 771,295.5 c -3.3,1 -8.30001,2.7 -14,6 -5.69999,3.3 -13.60001,8.60001 -20,14 -6.39999,5.39999 -13.7,12.70001 -18.5,18.5 -4.8,5.79999 -2.90001,16.1 -10.5,16.5 2.3554,-0.68355 9.32169,2.27599 15.98047,5.88086 1.08839,-0.89286 2.09615,-1.74579 2.51953,-2.38086 1.2,-1.8 -4.4,0.9 0,-4 4.4,-4.9 18.90001,-19.20001 26.5,-25.5 7.59999,-6.29999 15.2,-10.4 19,-12 3.8,-1.6 2.6,0.7 3.5,2.5 0.9,1.8 1.8,2.20001 2,8 0.2,5.79999 -0.2,20.50001 -1,27 -0.8,6.49999 -3.3,8.8 -4,12 -0.7,3.2 1.3,4 0,7 -1.3,3 -6.5,8.3 -8,11 -1.5,2.7 -0.2,4 -1,5 -0.8,1 -11.19999,-6.79999 -4,1 7.19999,7.79999 35.70001,33.70001 47,46 11.29999,12.29999 17.2,22.70001 21,28 3.8,5.29999 1.9,3.1 2,4 0.0373,0.33533 0.12298,0.91539 0.14062,1.43359 0.13125,-0.01 0.26737,-0.0256 0.35938,0.0664 0.5,0.5 1.8,4.3 1.5,4.5 -0.3,0.2 -2.7,-2.2 -3,-3 -0.10568,-0.28182 0.0186,-0.59742 0.20508,-0.88672 C 828.5082,465.97449 828.27841,465.77841 828,465.5 c -2.3,-2.3 -13.9,-19.6 -12.5,-15.5 1.4,4.1 15.60001,26.80001 21,40 5.39999,13.19999 9.5,34.20001 11.5,39.5 2,5.29999 2.9,1.39999 0.5,-7.5 -2.4,-8.89999 -13,-37.30001 -15,-46 -2,-8.69999 3.5,-2.8 3,-6 -0.5,-3.2 -0.30001,-4.20001 -6,-13 -5.69999,-8.79999 -19.20001,-29.20001 -28,-40 -8.79999,-10.79999 -21.8,-19.70001 -25,-25 -3.2,-5.29999 5,-4.8 6,-7 1,-2.2 -1.2,-3.7 0,-6 1.2,-2.3 5.3,-3.5 7,-8 1.7,-4.5 2.3,-11.50001 3,-19 0.7,-7.49999 1.5,-18.70001 1,-26 -0.5,-7.29999 -1.9,-13.2 -4,-18 -2.1,-4.8 -6.3,-8.4 -8.5,-10.5 -2.2,-2.1 -3.2,-1.7 -5,-2 -0.9,-0.15 -1.575,-0.40078 -2.4375,-0.48828 z m 54.14258,171.10156 c 0.82358,0.58059 0.95952,0.0246 0.93554,-0.67969 -0.33069,0.0253 -0.69004,0.2989 -0.93554,0.67969 z M 402.65039,303.875 c -2.15,-0.05 -3.85039,0.275 -5.65039,0.625 -3.6,0.7 -5.9,3.9 -7.5,5.5 -1.6,1.6 -1.5,0.8 -2,4 -0.5,3.2 -2,7.20001 -1,15 1,7.79999 4,22.80001 7,32 3,9.19999 14.2,14.50001 11,23 -3.2,8.49999 -22.70001,20.50001 -30,28 -7.29999,7.49999 -8.70001,9.50001 -14,17 -5.29999,7.49999 -13.3,19.80001 -18,28 -4.7,8.19999 -6.7,12.70001 -10,21 -3.3,8.29999 -7.3,19.50001 -10,29 -2.7,9.49999 -4.7,19.70001 -6,28 -1.3,8.29999 -1.8,13.20001 -2,22 -0.2,8.79999 0,21.20001 1,31 1,9.79999 2.3,17.80001 5,28 2.7,10.19999 6.2,21.70001 11,33 4.8,11.29999 11.30001,24.20001 18,35 6.69999,10.79999 14.40001,20.90001 22,30 7.59999,9.09999 14.10001,16.10001 23.5,24.5 9.39999,8.39999 24.00001,19.50001 33,26 8.99999,6.49999 10.10001,7.40001 21,13 10.89999,5.59999 38.60001,16.1 44.5,20.5 5.89999,4.4 -7.2,4 -9,6 -1.8,2 -1.8,4 -2,6 -0.2,2 2.3,3.3 1,6 -1.3,2.7 -7.3,5.5 -9,10 -1.7,4.5 0,10.80001 -1,17 -1,6.19999 -4,10.30001 -5,20 -1,9.69999 -1.2,31.00001 -1,38 0.2,6.99999 1.8,1.8 2,4 0.2,2.2 -1.3,7.2 -1,9 0.3,1.8 2.8,0.8 3,2 0.2,1.2 -2,3.7 -2,5 0,1.3 1.8,2 2,3 0.2,1 -1.3,1.8 -1,3 0.3,1.2 2.8,2.5 3,4 0.2,1.5 -2.2,3.2 -2,5 0.2,1.8 2.7,4.6 3,6 0.3,1.4 -0.7,2.5 -1.5,2.5 -0.8,0 -3.1,-3.7 -3.5,-2.5 -0.4,1.2 0.5,8.2 1,10 0.5,1.8 1.8,1.5 2,1 0.2,-0.5 -1.3,-2.8 -1,-4 0.3,-1.2 1.6,-3.1 2.5,-3.5 0.9,-0.4 2.2,1.3 3,1 0.8,-0.3 -0.6,10.39999 1.5,-2.5 2.1,-12.89999 8,-59.00002 11,-75 3,-15.99998 5.5,-15.00001 7,-21 1.5,-5.99999 0.5,-10.2 2,-15 1.5,-4.8 5.8,-9.8 7,-14 1.2,-4.2 0.8,-8 0,-11 -0.8,-3 -4.4,-5.6 -5,-7 -0.6,-1.4 -3.59999,-4.1 1.5,-1.5 5.09999,2.6 20.70001,13.2 29,17 8.29999,3.8 13.00001,4.5 21,6 7.99999,1.5 18.00001,2.5 27,3 8.99999,0.5 18.20001,0.5 27,0 8.79999,-0.5 18.30001,-1.5 26,-3 7.69999,-1.5 13.30001,-3 20,-6 6.69999,-3 14.70001,-9.5 20,-12 5.29999,-2.5 9.8,-2.7 12,-3 2.2,-0.3 1.8,0.6 1.5,1.5 -0.3,0.9 -2.3,1.8 -3,4 -0.7,2.2 -1.5,6.7 -1,9 0.5,2.3 4,2.7 4,5 0,2.3 -3.3,6.2 -4,9 -0.7,2.8 -0.8,4.7 0,8 0.8,3.3 3.8,6.50001 5,12 1.2,5.49999 0,10.50001 2,21 2,10.49999 7.3,33.20001 10,42 2.7,8.79999 5,7.5 6,11 1,3.5 -0.4,8.8 0,10 0.4,1.2 1.8,-2.3 2.5,-2.5 0.7,-0.2 1.6,0.6 1.5,1.5 -0.1,0.9 -2.7,1.8 -2,4 0.7,2.2 5.2,6.5 6,9 0.8,2.5 -1.5,4 -1,6 0.5,2 3.6,4.6 4,6 0.4,1.4 -0.7,2.5 -1.5,2.5 -0.8,0 -3.1,-3.6 -3.5,-2.5 -0.4,1.1 0.4,6.9 1,9 0.6,2.1 2.2,4.2 2.5,3.5 0.3,-0.7 -0.8,-5.8 -0.5,-7.5 0.3,-1.7 1.5,-2.2 2.5,-2.5 1,-0.3 3.1,7.09999 3.5,0.5 0.4,-6.59999 0.3,-25.30001 -1,-40 -1.3,-14.69999 -5.7,-36.20001 -7,-48 -1.3,-11.79999 0,-15.70001 -1,-23 -1,-7.29999 -4.3,-15.00001 -5,-21 -0.7,-5.99999 1.5,-10.2 1,-15 -0.5,-4.8 -2.5,-11.2 -4,-14 -1.5,-2.8 -6.9,-1.2 -5,-3 1.9,-1.8 13.3,-6.5 16.5,-7.5 3.2,-1 2.2,-0.1 2.5,1.5 0.3,1.6 -1.5,5.5 -1,8 0.5,2.5 2.7,5.8 4,7 1.3,1.2 2.2,-0.5 3.5,0.5 1.3,1 3.1,1.9 4.5,5.5 1.4,3.6 1,10.80001 4,16 3,5.19999 4.80001,3.00001 14,15 9.19999,11.99999 32.50001,46.00001 41,57 8.49999,10.99999 7.8,6.2 10,9 2.2,2.8 1.9,6.9 3,8 1.1,1.1 2.7,-1.5 3.5,-1.5 0.8,0 1.4,0.9 1.5,1.5 0.1,0.6 -1.5,1 -1,2 0.5,1 3.5,3 4,4 0.5,1 -1.8,1 -1,2 0.8,1 4.8,2.5 6,4 1.2,1.5 -0.3,3 1,5 1.3,2 6.3,5.6 7,7 0.7,1.4 -1.7,1.6 -2.5,1.5 -0.8,-0.1 -1.6,-2.1 -2,-2 -0.4,0.1 -1.1,0.7 -0.5,2.5 0.6,1.8 2.7,6.2 4,8 1.3,1.8 4,4.2 4,3 0,-1.2 -3.6,-8.1 -4,-10 -0.4,-1.9 0.9,-1.6 1.5,-1.5 0.6,0.1 1.2,2.3 2,2 0.8,-0.3 5.8,5.29999 2.5,-3.5 -3.3,-8.79999 -12.50001,-31.20002 -22,-49 -9.49999,-17.79998 -25.80001,-44.00001 -35,-58 -9.19999,-13.99999 -15.5,-19.20001 -20,-26 -4.5,-6.79999 -3.8,-10.7 -7,-15 -3.2,-4.3 -15.9,-5.20001 -12,-11 3.9,-5.79999 25.80001,-16.00001 35.5,-23.5 9.69999,-7.49999 16.80001,-15.10001 22.5,-21.5 5.69999,-6.39999 9.7,-12.3 12,-17 2.3,-4.7 2.6,-9.2 2,-11 -0.6,-1.8 1.29999,-4.4 -5.5,0.5 -6.79999,4.9 -24.30001,20.80001 -35,29 -10.69999,8.19999 -18.80001,13.80001 -29,20 -10.19999,6.19999 -26.40001,14.6 -32,17 -5.59999,2.4 -2.8,1.4 -1.5,-2.5 1.3,-3.9 6.8,-14.30001 9,-21 2.2,-6.69999 3.3,-10.70001 4,-19 0.7,-8.29999 1,-22.20001 0,-31 -1,-8.79999 -3.8,-16.30001 -6,-22 -2.2,-5.69999 -3.5,-3.70001 -7,-12 -3.5,-8.29999 -10.2,-26.70001 -14,-38 -3.8,-11.29999 -7.3,-23.30001 -9,-30 -1.7,-6.69999 0.7,-5.9 -1,-10 -1.7,-4.1 -7.2,-13.3 -9.5,-14.5 -2.3,-1.2 -3.8,2.6 -4.5,7.5 -0.7,4.9 -0.5,17.8 0,22 0.5,4.2 1.5,-1.8 3,3 1.5,4.8 3.2,16.50001 6,26 2.8,9.49999 10,25.70001 11,31 1,5.29999 -6.7,-2.7 -5,1 1.7,3.7 11.7,14.20001 15,21 3.3,6.79999 4.5,11.30001 5,20 0.5,8.69999 0.2,22.00001 -2,32 -2.2,9.99999 -8.2,21.80001 -11,28 -2.8,6.19999 -1.9,4.6 -6,9 -4.1,4.4 -12.70001,13.2 -18.5,17.5 -5.79999,4.3 -11,6 -16,8 -5,2 -9,3 -14,4 -5,1 -5.70001,1.8 -16,2 -10.29999,0.2 -33.00001,0.5 -46,-1 -12.99999,-1.5 -23.70001,-4.7 -32,-8 -8.29999,-3.3 -12.60001,-7.1 -18,-12 -5.39999,-4.9 -10.8,-11.70001 -14.5,-17.5 -3.7,-5.79999 -5.8,-10.30001 -8,-17 -2.2,-6.69999 -4.3,-14.50001 -5,-23 -0.7,-8.49999 0,-20.70001 1,-28 1,-7.29999 2.7,-11.2 5,-16 2.3,-4.8 7.8,-10.3 9,-13 1.2,-2.7 -4.3,4.79999 -2,-3 2.3,-7.79999 13.3,-35.30001 16,-44 2.7,-8.69999 -0.3,-6.3 0,-8 0.3,-1.7 2,-1.2 2,-2 0,-0.8 -2,-2.2 -2,-3 0,-0.8 2,-1 2,-2 0,-1 -1.8,-1.5 -2,-4 -0.2,-2.5 0.2,-9 1,-11 0.8,-2 3.3,0.2 4,-1 0.7,-1.2 0.6,-5.8 0,-6 -0.6,-0.2 -2.2,4 -3.5,4.5 -1.3,0.5 1.09999,-13.89999 -4.5,-1.5 -5.59999,12.39999 -23.20001,61.50001 -29,76 -5.79999,14.49999 -4,5.80001 -6,11 -2,5.19999 -4.8,10.80001 -6,20 -1.2,9.19999 -1.5,25.80001 -1,35 0.5,9.19999 2.5,14.50001 4,20 1.5,5.49999 4.4,10.6 5,13 0.6,2.4 3.59999,3.8 -1.5,1.5 -5.09999,-2.3 -17.50001,-7.50001 -29,-15 -11.49999,-7.49999 -29.80001,-21.30001 -40,-30 -10.19999,-8.69999 -14.40001,-13.90001 -21.5,-22.5 -7.09999,-8.59999 -15.00001,-19.50001 -21,-29 -5.99999,-9.49999 -10.7,-17.80001 -15,-28 -4.3,-10.19999 -8.3,-22.70001 -11,-33 -2.7,-10.29999 -4.3,-16.80001 -5,-29 -0.7,-12.19999 -1,-29.20001 1,-44 2,-14.79999 6,-31.00001 11,-45 5,-13.99999 11.50001,-26.80001 19,-39 7.49999,-12.19999 17.60001,-24.40001 26,-34 8.39999,-9.59999 18.80001,-18.5 24.5,-23.5 5.69999,-4.99999 8.8,-4.2 9.5,-6.5 0.7,-2.3 -3.8,-5.8 -5.5,-7.5 -1.7,-1.7 -3.4,-0.3 -4.5,-2.5 -1.1,-2.2 -0.8,-8 -2,-11 -1.2,-3 -2.8,-0.30001 -5,-7 -2.2,-6.69999 -6.9,-26.40001 -8,-33 -1.1,-6.59999 -2.4,-7.1 1.5,-6.5 3.9,0.6 14.70001,5.3 22,10 7.29999,4.7 17.7,14.8 22,18 4.3,3.2 1.4,-1.4 4,1 2.6,2.4 10.7,10 11.5,13.5 0.8,3.5 -11.69999,8.8 -6.5,7.5 5.19999,-1.3 31.40001,-12.7 38,-15 -32.57332,12.22816 -18.57087,-8.73971 13,-23 -14.49999,4.3 -27.00001,15 -33,17 -5.99999,2 -1.6,-3.9 -3,-5 -1.4,-1.1 -3.2,0.7 -5.5,-1.5 -2.3,-2.2 -3.9,-7.2 -8.5,-11.5 -4.6,-4.3 -11.00001,-9.5 -19,-14 -7.99999,-4.5 -21.80001,-10.7 -29,-13 -3.6,-1.15 -6.19961,-1.575 -8.34961,-1.625 z M 509,333.5 c 3.62499,-1.075 7.86328,-2.08164 12.41797,-3.00977 C 516.86329,331.41836 512.625,332.425 509,333.5 Z m 12.41797,-3.00977 c 4.55468,-0.92812 9.42656,-1.77851 14.32031,-2.54101 -4.89374,0.7625 -9.76563,1.61289 -14.32031,2.54101 z m 14.32031,-2.54101 C 545.52578,326.42422 555.40002,325.25 563,324.5 c -7.59999,0.75 -17.47423,1.92422 -27.26172,3.44922 z M 563,324.5 c 3.79999,-0.375 7.56289,-0.59375 11.18164,-0.70312 C 570.56289,323.90625 566.8,324.125 563,324.5 Z m 21.5,-0.75 c 6.45,0.125 11.90001,0.5 15.5,0.75 -3.6,-0.25 -9.05001,-0.625 -15.5,-0.75 z m 15.5,0.75 c 1.8,0.125 2.86953,0.36328 3.51172,0.65234 C 602.86953,324.86328 601.8,324.625 600,324.5 Z m 3.51172,0.65234 c 0.64219,0.28907 0.85742,0.62969 0.95117,0.96094 -0.0937,-0.33125 -0.30898,-0.67187 -0.95117,-0.96094 z M 620,325.5 c 2.74999,0.1 5.29922,0.40039 8.26172,0.90039 C 625.29922,325.90039 622.75,325.6 620,325.5 Z m 0,0 c -1.375,-0.05 -2.73047,0.0621 -4.04297,0.25586 C 617.26953,325.56211 618.625,325.45 620,325.5 Z m 53,11 c 2.87499,0.925 6.02539,2.2875 9.25195,3.80469 C 679.02539,338.7875 675.875,337.425 673,336.5 Z m -2.40039,28 c 0.1,0.35 0.75039,0.95 0.90039,1.5 -0.15,-0.55 -0.80039,-1.15 -0.90039,-1.5 z m 55.95508,0.88867 C 726.25625,365.36836 726.05,365.4 726,365.5 c 0.1,-0.2 0.82461,-0.12461 1.66211,0.0879 -0.41875,-0.10625 -0.80899,-0.17891 -1.10742,-0.19922 z m 1.10742,0.19922 c 0.8375,0.2125 1.78789,0.56211 2.33789,0.91211 -0.55,-0.35 -1.50039,-0.69961 -2.33789,-0.91211 z M 730,366.5 c 0.55,0.35 1.25039,0.97422 1.77539,1.63672 C 731.25039,367.47422 730.55,366.85 730,366.5 Z m -4,-1 c -0.1,0.2 0.49922,0.80078 1.13672,1.48828 C 726.49922,366.30078 725.9,365.7 726,365.5 Z m -238.80859,0.89453 C 486.01797,367.39297 485.05,368.3 484.5,369 c 0.55,-0.7 1.51797,-1.60703 2.69141,-2.60547 z M 484.5,369 c -0.55,0.7 -0.85,1.32578 -0.98438,1.89453 C 483.65,370.32578 483.95,369.7 484.5,369 Z m -0.98438,1.89453 c -0.13437,0.56875 -0.10273,1.07969 0.01,1.55469 -0.1125,-0.475 -0.14414,-0.98594 -0.01,-1.55469 z m 0.01,1.55469 c 0.225,0.95 0.77461,1.75078 0.97461,2.55078 -0.2,-0.8 -0.74961,-1.60078 -0.97461,-2.55078 z M 484.5,375 c 0.2,0.8 0.42578,1.60078 0.80078,2.23828 C 484.92578,376.60078 484.7,375.8 484.5,375 Z m 240.87109,-8.18164 c -0.12812,0.70625 -0.35859,1.48242 -0.74609,2.23242 0.3875,-0.75 0.61797,-1.52617 0.74609,-2.23242 z m -0.74609,2.23242 c -0.3875,0.75 -0.93047,1.47383 -1.68359,2.08008 0.75312,-0.60625 1.29609,-1.33008 1.68359,-2.08008 z m -1.68359,2.08008 C 722.18828,371.73711 721.225,372.225 720,372.5 c 1.225,-0.275 2.18828,-0.76289 2.94141,-1.36914 z M 720,372.5 c -1.225,0.275 -2.85039,0.43086 -4.7207,0.49023 1.87031,-0.0594 3.4957,-0.21523 4.7207,-0.49023 z m -30.30859,-2.51562 C 691.89297,370.63125 694.05,371.175 696,371.5 c -1.95,-0.325 -4.10703,-0.86875 -6.30859,-1.51562 z M 696,371.5 c 3.9,0.65 8.6754,1.17539 13.08789,1.40039 C 704.67539,372.67539 699.89999,372.15 696,371.5 Z m 36.5,-1.5 c -0.075,0.25 -0.33164,0.51172 -0.68945,0.76953 C 732.16836,370.51172 732.425,370.25 732.5,370 Z m -4.92578,0.6875 C 727.07422,371.225 726.55,371.7 726.5,372 c 0.05,-0.3 0.57422,-0.775 1.07422,-1.3125 z M 726.5,372 c -0.05,0.3 0.0754,0.50039 0.33789,0.58789 C 726.57539,372.50039 726.45,372.3 726.5,372 Z m 0.33789,0.58789 c 0.2625,0.0875 0.66211,0.0621 1.16211,-0.0879 -0.5,0.15 -0.89961,0.17539 -1.16211,0.0879 z m -201.66211,-1.5 C 525.22578,371.15039 524.8,371.6 524.5,373 c 0.3,-1.4 0.72578,-1.84961 0.67578,-1.91211 z m 0,0 C 525.12578,371.02539 524.6,371.35 523,371.5 c 1.6,-0.15 2.12578,-0.47461 2.17578,-0.41211 z m -36.64648,7.22656 C 487.93086,378.48789 487.4,378.575 487,378.5 c 0.4,0.075 0.93086,-0.0121 1.5293,-0.18555 z m 7.48242,0 C 496.24453,378.48789 496.55,378.575 497,378.5 c -0.45,0.075 -0.75547,-0.0121 -0.98828,-0.18555 z m 187.33398,1.93946 c 0.93594,1.04687 1.7043,1.99609 2.1543,2.74609 -0.45,-0.75 -1.21836,-1.69922 -2.1543,-2.74609 z m -61.92968,3.60937 c -0.0204,0.083 -0.0311,0.15847 -0.041,0.24024 0.01,-0.0795 0.0213,-0.1596 0.041,-0.24024 z M 520.4082,384.02539 C 519.96289,385.43789 519.625,386.8 519.5,388 c 0.125,-1.2 0.46289,-2.56211 0.9082,-3.97461 z m 165.97852,0.91016 c 0.15469,0.55468 0.18125,1.03281 0.125,1.47656 0.0562,-0.44375 0.0297,-0.92188 -0.125,-1.47656 z m 0.125,1.47656 C 686.39922,387.29961 685.95,388.05 685.5,389 c 0.45,-0.95 0.89922,-1.70039 1.01172,-2.58789 z M 685.5,389 c -0.45,0.95 -1.12461,2.24961 -2.03711,3.34961 0.9125,-1.1 1.58711,-2.39961 2.03711,-3.34961 z m -2.03711,3.34961 c -0.45625,0.55 -0.97227,1.05039 -1.54883,1.43164 0.57656,-0.38125 1.09258,-0.88164 1.54883,-1.43164 z m -1.54883,1.43164 C 681.3375,394.1625 680.7,394.425 680,394.5 c 0.7,-0.075 1.3375,-0.3375 1.91406,-0.71875 z M 680,394.5 c -0.7,0.075 -1.56797,-0.10586 -2.51953,-0.42773 C 678.43203,394.39414 679.3,394.575 680,394.5 Z m -25.72461,-7.11328 C 658.10039,389.12422 662,390.9 664,391.5 c -2,-0.6 -5.89961,-2.37578 -9.72461,-4.11328 z M 664,391.5 c 1,0.3 1.64453,0.35586 2.08984,0.2793 C 665.64453,391.85586 665,391.8 664,391.5 Z m 2.08984,0.2793 c 0.44532,-0.0766 0.69219,-0.28633 0.89844,-0.51758 -0.20625,0.23125 -0.45312,0.44101 -0.89844,0.51758 z m -81.13867,0.92968 c -0.0584,0.0552 -0.10831,0.10781 -0.16211,0.16993 0.0521,-0.0599 0.10571,-0.1165 0.16211,-0.16993 z m -23.86523,1.03711 C 562.125,395.66797 563.25,397.5 564.5,399 c -1.25,-1.5 -2.375,-3.33203 -3.41406,-5.25391 z M 564.5,399 c 2.5,3 5.42422,6.14961 8.57422,9.16211 C 569.92422,405.14961 567,401.99999 564.5,399 Z m 19.62305,-4.2832 c 0.002,0.0897 0.008,0.17203 0.0195,0.26172 -0.011,-0.0875 -0.0179,-0.1742 -0.0195,-0.26172 z m 69.22656,0.13281 c 4.175,3.6 8.40039,7.25039 10.15039,9.15039 -1.75,-1.9 -5.97539,-5.55039 -10.15039,-9.15039 z M 663.5,404 c 0.875,0.95 1.32422,1.65586 1.51953,2.20117 C 664.82422,405.65586 664.375,404.95 663.5,404 Z m 1.51953,2.20117 c 0.19531,0.54531 0.13594,0.93008 -0.008,1.23633 0.14375,-0.30625 0.20312,-0.69102 0.008,-1.23633 z M 519.82422,395.1875 c 0.4,2.3625 1.02578,4.6625 1.67578,6.8125 -0.65,-2.15 -1.27578,-4.45 -1.67578,-6.8125 z M 521.5,402 c 0.65,2.15 1.49922,4.30039 2.51172,6.33789 C 522.99922,406.30039 522.15,404.15 521.5,402 Z m 2.51172,6.33789 C 525.02422,410.37539 526.2,412.3 527.5,414 c -1.3,-1.7 -2.47578,-3.62461 -3.48828,-5.66211 z M 527.5,414 c 1.3,1.7 3.17461,3.49961 4.97461,5.03711 C 530.67461,417.49961 528.8,415.7 527.5,414 Z m 4.97461,5.03711 c 1.8,1.5375 3.52539,2.81289 4.52539,3.46289 -1,-0.65 -2.72539,-1.92539 -4.52539,-3.46289 z m 94.13477,-10.36914 C 628.75625,409.79922 630.925,410.8 633,411.5 c -2.075,-0.7 -4.24375,-1.70078 -6.39062,-2.83203 z M 633,411.5 c 2.075,0.7 4.49375,1.35703 7.04688,1.94922 C 637.49375,412.85703 635.075,412.2 633,411.5 Z m 35.24023,-0.29297 C 668.52461,411.44297 668.65,411.7 668.5,412 c 0.15,-0.3 0.0246,-0.55703 -0.25977,-0.79297 z m -0.33593,2.01563 c -0.27032,0.48593 -0.63477,1.02187 -1.16602,1.51562 0.53125,-0.49375 0.8957,-1.02969 1.16602,-1.51562 z m -1.16602,1.51562 c -0.53125,0.49375 -1.2293,0.9461 -2.16211,1.26953 0.93281,-0.32343 1.63086,-0.77578 2.16211,-1.26953 z m -2.16211,1.26953 C 663.64336,416.33125 662.475,416.525 661,416.5 c 1.475,0.025 2.64336,-0.16875 3.57617,-0.49219 z M 542.28516,414.54688 C 542.47422,415.55 542.575,416.4 542.5,417 c 0.075,-0.6 -0.0258,-1.45 -0.21484,-2.45312 z M 542.5,417 c -0.075,0.6 -0.28086,0.96172 -0.56055,1.17578 C 542.21914,417.96172 542.425,417.6 542.5,417 Z m -0.56055,1.17578 c -0.27968,0.21406 -0.6332,0.28086 -1.00195,0.28711 0.36875,-0.006 0.72227,-0.0731 1.00195,-0.28711 z m 84.82422,-0.0898 C 627.93086,419.05 628.9,420.025 629.5,421 c -0.6,-0.975 -1.56914,-1.95 -2.73633,-2.91406 z M 629.5,421 c 0.6,0.975 1.04961,2.11211 1.35742,3.30273 C 630.54961,423.11211 630.1,421.975 629.5,421 Z m 1.35742,3.30273 c 0.30781,1.19063 0.47461,2.43555 0.50586,3.62305 -0.0312,-1.1875 -0.19805,-2.43242 -0.50586,-3.62305 z m 0.50586,3.62305 c 0.0312,1.1875 -0.0731,2.31758 -0.30273,3.2832 0.22968,-0.96562 0.33398,-2.0957 0.30273,-3.2832 z m -0.30273,3.2832 C 630.83086,432.17461 630.475,432.975 630,433.5 c 0.475,-0.525 0.83086,-1.32539 1.06055,-2.29102 z m -92.48633,-10.13476 c 0.5,0.375 0.97578,0.72578 0.92578,0.92578 0.05,-0.2 -0.42578,-0.55078 -0.92578,-0.92578 z M 539.5,422 c -0.05,0.2 -0.17461,0.64922 -0.53711,0.88672 C 539.32539,422.64922 539.45,422.2 539.5,422 Z m 55.09961,1.51172 c 4,2.1125 7.80039,3.88828 10.40039,4.98828 -2.59999,-1.1 -6.40039,-2.87578 -10.40039,-4.98828 z M 605,428.5 c 1.3,0.55 2.37539,0.83828 3.29102,0.97266 C 607.37539,429.33828 606.3,429.05 605,428.5 Z m 3.29102,0.97266 c 0.91562,0.13437 1.67148,0.11523 2.33398,0.0527 -0.6625,0.0625 -1.41836,0.0816 -2.33398,-0.0527 z m 8.2539,3.21875 c 0.32969,0.34531 0.78008,0.63359 1.45508,0.80859 -0.675,-0.175 -1.12539,-0.46328 -1.45508,-0.80859 z M 618,433.5 c 1.35,0.35 3.87578,0.87578 6.30078,1.05078 C 621.87578,434.37578 619.35,433.85 618,433.5 Z m 6.30078,1.05078 c 1.2125,0.0875 2.39922,0.0867 3.40234,-0.0664 -1.00312,0.15312 -2.18984,0.1539 -3.40234,0.0664 z"
       style="display:none;fill:#00ff00" />
    <path
       id="part-2"
       inkscape:label="part-2"
       fill="#3cb44b"
       fill-rule="evenodd"
       fill-opacity="0.85"
       d="M 917.0,577.5 C 915.4,583.1 915.2,578.1 914.5,577.0 C 913.8,575.9 913.2,576.4 912.5,571.0 C 911.8,565.6 915.1,549.1 910.0,544.5 C 904.9,539.9 887.6,544.8 882.0,543.5 C 876.4,542.2 877.2,538.9 876.5,537.0 C 875.8,535.1 876.6,533.6 877.5,532.0 C 878.4,530.4 876.9,528.2 882.0,527.5 C 887.1,526.8 903.4,527.8 908.0,527.5 C 912.6,527.2 909.4,552.8 909.5,526.0 C 909.6,499.2 908.9,393.8 908.5,367.0 C 908.1,340.2 921.4,365.8 907.0,365.5 C 892.6,365.2 836.8,366.2 822.0,365.5 C 807.2,364.8 819.1,362.8 818.5,361.0 C 817.9,359.2 817.9,356.8 818.5,355.0 C 819.1,353.2 807.2,351.2 822.0,350.5 C 836.8,349.8 892.6,350.8 907.0,350.5 C 921.4,350.2 908.2,371.8 908.5,349.0 C 908.8,326.2 907.6,237.4 908.5,214.0 C 909.4,190.6 912.1,209.4 914.0,208.5 C 915.9,207.6 918.2,207.8 920.0,208.5 C 921.8,209.2 923.8,189.6 924.5,213.0 C 925.2,236.4 924.2,326.1 924.5,349.0 C 924.8,371.9 902.8,350.4 926.0,350.5 C 949.2,350.6 1034.2,349.0 1064.0,349.5 C 1093.8,350.0 1095.4,352.1 1105.0,353.5 C 1114.6,354.9 1119.8,356.7 1121.5,358.0 C 1123.2,359.3 1122.2,360.2 1115.0,361.5 C 1107.8,362.8 1109.5,364.8 1078.0,365.5 C 1046.5,366.2 951.6,365.2 926.0,365.5 C 900.4,365.8 924.8,340.2 924.5,367.0 C 924.2,393.8 924.2,499.2 924.5,526.0 C 924.8,552.8 901.6,527.2 926.0,527.5 C 950.4,527.8 1039.7,526.7 1071.0,527.5 C 1102.3,528.3 1105.6,531.1 1114.0,532.5 C 1122.4,533.9 1120.8,535.0 1121.5,536.0 C 1122.2,537.0 1120.8,537.8 1118.0,538.5 C 1115.2,539.2 1113.7,539.7 1105.0,540.5 C 1096.3,541.3 1096.2,543.0 1066.0,543.5 C 1035.8,544.0 948.8,537.8 924.0,543.5 C 899.2,549.2 918.6,571.9 917.0,577.5 Z" />
    <path
       id="part-3"
       inkscape:label="part-3"
       fill="#4363d8"
       fill-rule="evenodd"
       fill-opacity="0.85"
       d="M 896.0,1005.5 C 894.8,1007.2 893.6,1006.6 892.5,1003.0 C 891.4,999.4 890.3,999.0 889.5,984.0 C 888.7,969.0 890.2,925.1 887.5,913.0 C 884.8,900.9 876.2,912.5 873.0,911.5 C 869.8,910.5 869.2,908.8 868.5,907.0 C 867.8,905.2 867.6,902.9 868.5,901.0 C 869.4,899.1 870.8,896.7 874.0,895.5 C 877.2,894.3 885.2,921.8 887.5,894.0 C 889.8,866.2 887.8,756.8 887.5,729.0 C 887.2,701.2 891.9,727.8 886.0,727.5 C 880.1,727.2 858.4,728.6 852.0,727.5 C 845.6,726.4 847.5,723.5 847.5,721.0 C 847.5,718.5 845.6,713.9 852.0,712.5 C 858.4,711.1 880.1,712.8 886.0,712.5 C 891.9,712.2 887.2,723.9 887.5,711.0 C 887.8,698.1 886.4,648.6 887.5,635.0 C 888.6,621.4 891.9,630.1 894.0,629.5 C 896.1,628.9 898.4,630.4 900.0,631.5 C 901.6,632.6 902.9,622.8 903.5,636.0 C 904.1,649.2 903.2,698.2 903.5,711.0 C 903.8,723.8 878.1,712.2 905.0,712.5 C 931.9,712.8 1032.2,711.8 1065.0,712.5 C 1097.8,713.2 1093.6,715.2 1102.0,716.5 C 1110.4,717.8 1113.3,719.0 1115.5,720.0 C 1117.7,721.0 1116.4,721.8 1115.0,722.5 C 1113.6,723.2 1116.3,723.5 1107.0,724.5 C 1097.7,725.5 1092.7,728.0 1059.0,728.5 C 1025.3,729.0 930.9,727.4 905.0,727.5 C 879.1,727.6 903.8,701.2 903.5,729.0 C 903.2,756.8 903.2,866.2 903.5,894.0 C 903.8,921.8 878.2,895.2 905.0,895.5 C 931.8,895.8 1030.3,894.7 1064.0,895.5 C 1097.7,896.3 1098.4,899.1 1107.0,900.5 C 1115.6,901.9 1116.5,902.7 1115.5,904.0 C 1114.5,905.3 1109.8,907.2 1101.0,908.5 C 1092.2,909.8 1095.7,911.0 1063.0,911.5 C 1030.3,912.0 931.6,911.2 905.0,911.5 C 878.4,911.8 903.9,903.9 903.5,913.0 C 903.1,922.1 903.2,952.7 902.5,966.0 C 901.8,979.3 900.6,986.4 899.5,993.0 C 898.4,999.6 897.2,1003.8 896.0,1005.5 Z" />
    <path
       id="part-4"
       inkscape:label="part-4"
       fill="#f58231"
       fill-rule="evenodd"
       fill-opacity="0.85"
       d="M 267.0,565.5 C 265.4,568.6 264.2,563.1 263.5,560.0 C 262.8,556.9 263.1,549.9 262.5,547.0 C 261.9,544.1 280.9,543.1 260.0,542.5 C 239.1,541.9 158.4,544.2 137.0,543.5 C 115.6,542.8 132.4,539.8 131.5,538.0 C 130.6,536.2 130.8,534.8 131.5,533.0 C 132.2,531.2 114.8,528.2 136.0,527.5 C 157.2,526.8 238.2,528.6 259.0,528.5 C 279.8,528.4 260.4,553.9 260.5,527.0 C 260.6,500.1 259.9,393.9 259.5,367.0 C 259.1,340.1 279.1,365.8 258.0,365.5 C 236.9,365.2 154.6,366.6 133.0,365.5 C 111.4,364.4 128.9,361.1 128.5,359.0 C 128.1,356.9 129.4,354.6 130.5,353.0 C 131.6,351.4 113.8,349.9 135.0,349.5 C 156.2,349.1 237.2,350.6 258.0,350.5 C 278.8,350.4 259.2,375.1 259.5,349.0 C 259.8,322.9 258.4,220.8 259.5,194.0 C 260.6,167.2 263.5,188.5 266.0,188.5 C 268.5,188.5 273.1,167.2 274.5,194.0 C 275.9,220.8 274.2,322.9 274.5,349.0 C 274.8,375.1 262.2,350.2 276.0,350.5 C 289.8,350.8 340.0,349.8 357.0,350.5 C 374.0,351.2 373.4,353.2 378.0,354.5 C 382.6,355.8 384.0,356.8 384.5,358.0 C 385.0,359.2 384.6,360.2 381.0,361.5 C 377.4,362.8 380.5,364.8 363.0,365.5 C 345.5,366.2 290.8,365.2 276.0,365.5 C 261.2,365.8 274.8,341.8 274.5,367.0 C 274.2,392.2 274.8,490.2 274.5,517.0 C 274.2,543.8 272.1,525.8 272.5,528.0 C 272.9,530.2 271.8,529.6 277.0,530.5 C 282.2,531.4 299.1,532.6 304.0,533.5 C 308.9,534.4 307.5,535.0 306.5,536.0 C 305.5,537.0 303.6,538.6 298.0,539.5 C 292.4,540.4 278.2,537.2 273.0,541.5 C 267.8,545.8 268.6,562.4 267.0,565.5 Z" />
    <path
       id="part-5"
       inkscape:label="part-5"
       fill="#911eb4"
       fill-rule="evenodd"
       fill-opacity="0.85"
       d="M 344.0,907.5 C 339.8,908.0 334.2,908.3 330.0,907.5 C 325.8,906.7 323.4,905.9 319.0,902.5 C 314.6,899.1 308.8,894.9 303.5,887.0 C 298.2,879.1 292.6,868.2 287.5,855.0 C 282.4,841.8 274.8,815.5 273.0,807.5 C 271.2,799.5 274.4,804.6 276.5,807.0 C 278.6,809.4 283.8,818.0 285.5,822.0 C 287.2,826.0 285.3,828.5 286.5,831.0 C 287.7,833.5 291.7,835.5 292.5,837.0 C 293.3,838.5 290.7,838.2 291.5,840.0 C 292.3,841.8 296.7,846.2 297.5,848.0 C 298.3,849.8 295.7,850.2 296.5,851.0 C 297.3,851.8 300.7,850.5 302.5,853.0 C 304.3,855.5 303.6,860.8 307.5,866.0 C 311.4,871.2 321.8,880.8 326.0,884.5 C 330.2,888.2 331.0,887.8 333.0,888.5 C 335.0,889.2 334.0,890.0 338.0,888.5 C 342.0,887.0 349.8,883.8 357.0,879.5 C 364.2,875.2 373.4,868.8 381.0,862.5 C 388.6,856.2 396.8,848.0 402.5,842.0 C 408.2,836.0 409.2,831.2 415.0,826.5 C 420.8,821.8 432.2,816.9 437.0,813.5 C 441.8,810.1 442.4,807.8 443.5,806.0 C 444.6,804.2 441.8,805.1 443.5,803.0 C 445.2,800.9 450.2,795.6 454.0,793.5 C 457.8,791.4 462.8,790.1 466.0,790.5 C 469.2,790.9 472.1,794.1 473.5,796.0 C 474.9,797.9 474.7,800.3 474.5,802.0 C 474.3,803.7 475.3,802.3 472.5,806.0 C 469.7,809.7 464.1,817.6 457.5,824.0 C 450.9,830.4 442.1,836.1 433.0,844.5 C 423.9,852.9 413.0,866.0 403.0,874.5 C 393.0,883.0 381.0,890.5 373.0,895.5 C 365.0,900.5 359.8,902.5 355.0,904.5 C 350.2,906.5 348.2,907.0 344.0,907.5 Z" />
    <path
       id="part-8"
       inkscape:label="part-8"
       fill="#bfef45"
       fill-rule="evenodd"
       fill-opacity="0.85"
       d="M 267.0,978.5 C 266.0,978.5 264.2,975.8 263.5,974.0 C 262.8,972.2 263.4,978.9 262.5,968.0 C 261.6,957.1 264.1,917.9 258.0,908.5 C 251.9,899.1 244.8,911.0 226.0,911.5 C 207.2,912.0 159.4,912.6 145.0,911.5 C 130.6,910.4 140.2,906.9 139.5,905.0 C 138.8,903.1 139.6,901.6 140.5,900.0 C 141.4,898.4 131.1,896.2 145.0,895.5 C 158.9,894.8 205.2,894.8 224.0,895.5 C 242.8,896.2 252.1,899.1 258.0,899.5 C 263.9,899.9 259.2,902.4 259.5,898.0 C 259.8,893.6 258.8,877.9 259.5,873.0 C 260.2,868.1 262.2,869.2 264.0,868.5 C 265.8,867.8 268.2,867.8 270.0,868.5 C 271.8,869.2 273.8,867.6 274.5,873.0 C 275.2,878.4 273.7,895.8 274.5,901.0 C 275.3,906.2 279.5,902.8 279.5,904.0 C 279.5,905.2 275.7,899.8 274.5,908.0 C 273.3,916.2 273.3,942.0 272.5,953.0 C 271.7,964.0 270.4,969.8 269.5,974.0 C 268.6,978.2 268.0,978.5 267.0,978.5 Z" />
    <path
       id="part-9"
       inkscape:label="part-9"
       fill="#fabed4"
       fill-rule="evenodd"
       fill-opacity="0.85"
       d="M 466.0,326.5 C 464.8,328.5 464.2,326.4 463.5,325.0 C 462.8,323.6 462.3,325.7 461.5,318.0 C 460.7,310.3 459.0,300.2 458.5,279.0 C 458.0,257.8 457.8,206.4 458.5,191.0 C 459.2,175.6 461.2,187.2 463.0,186.5 C 464.8,185.8 467.1,185.6 469.0,186.5 C 470.9,187.4 473.6,177.4 474.5,192.0 C 475.4,206.6 475.2,253.8 474.5,274.0 C 473.8,294.2 471.9,304.2 470.5,313.0 C 469.1,321.8 467.2,324.5 466.0,326.5 Z" />
    <path
       id="part-10"
       inkscape:label="part-10"
       fill="#469990"
       fill-rule="evenodd"
       fill-opacity="0.85"
       d="M 671.0,324.5 C 669.8,326.7 669.2,323.9 668.5,322.0 C 667.8,320.1 667.3,320.5 666.5,313.0 C 665.7,305.5 664.0,296.0 663.5,277.0 C 663.0,258.0 662.6,212.8 663.5,199.0 C 664.4,185.2 667.1,195.1 669.0,194.5 C 670.9,193.9 673.2,194.4 675.0,195.5 C 676.8,196.6 678.8,188.8 679.5,201.0 C 680.2,213.2 680.2,251.0 679.5,269.0 C 678.8,287.0 676.9,299.8 675.5,309.0 C 674.1,318.2 672.2,322.3 671.0,324.5 Z" />
    <path
       id="part-11"
       inkscape:label="part-11"
       fill="#dcbeff"
       fill-rule="evenodd"
       fill-opacity="0.85"
       d="M 261.0,724.5 C 255.0,724.7 248.5,722.8 242.0,720.5 C 235.5,718.2 225.9,713.2 222.0,710.5 C 218.1,707.8 220.2,705.9 218.5,704.0 C 216.8,702.1 212.3,700.8 211.5,699.0 C 210.7,697.2 214.8,694.6 213.5,693.0 C 212.2,691.4 206.3,690.8 204.0,689.5 C 201.7,688.2 200.4,686.8 199.5,685.0 C 198.6,683.2 198.3,680.7 198.5,679.0 C 198.7,677.3 197.1,677.4 200.5,675.0 C 203.9,672.6 212.1,666.2 219.0,664.5 C 225.9,662.8 237.9,663.4 242.0,664.5 C 246.1,665.6 243.7,669.5 243.5,671.0 C 243.3,672.5 244.6,672.6 241.0,673.5 C 237.4,674.4 226.2,675.2 222.0,676.5 C 217.8,677.8 215.0,679.7 215.5,681.0 C 216.0,682.3 217.6,683.4 225.0,684.5 C 232.4,685.6 253.5,686.7 260.0,687.5 C 266.5,688.3 263.5,688.8 264.0,689.5 C 264.5,690.2 264.3,691.3 263.0,691.5 C 261.7,691.7 258.8,690.2 256.0,690.5 C 253.2,690.8 251.2,692.8 246.0,693.5 C 240.8,694.2 227.2,693.8 224.5,695.0 C 221.8,696.2 225.2,697.4 230.0,700.5 C 234.8,703.6 246.8,710.7 253.0,713.5 C 259.2,716.3 261.8,717.4 267.0,717.5 C 272.2,717.6 282.7,713.7 284.5,714.0 C 286.3,714.3 281.9,717.8 278.0,719.5 C 274.1,721.2 267.0,724.3 261.0,724.5 Z" />
    <path
       id="part-14"
       inkscape:label="part-14"
       fill="#808000"
       fill-rule="evenodd"
       fill-opacity="0.85"
       d="M 174.0,728.5 C 162.5,729.3 130.9,730.6 122.0,728.5 C 113.1,726.4 120.5,718.7 120.5,716.0 C 120.5,713.3 112.6,713.1 122.0,712.5 C 131.4,711.9 165.2,711.4 177.0,712.5 C 188.8,713.6 190.2,717.2 192.5,719.0 C 194.8,720.8 194.1,721.9 191.0,723.5 C 187.9,725.1 185.5,727.7 174.0,728.5 Z" />
    <path
       id="part-15"
       inkscape:label="part-15"
       fill="#000075"
       fill-rule="evenodd"
       fill-opacity="0.85"
       d="M 355.0,728.5 C 344.3,729.0 313.8,729.1 305.0,728.5 C 296.2,727.9 302.9,727.1 302.5,725.0 C 302.1,722.9 302.1,718.1 302.5,716.0 C 302.9,713.9 295.9,713.1 305.0,712.5 C 314.1,711.9 346.2,711.8 357.0,712.5 C 367.8,713.2 367.1,715.2 370.0,716.5 C 372.9,717.8 374.7,718.5 374.5,720.0 C 374.3,721.5 372.2,724.1 369.0,725.5 C 365.8,726.9 365.7,728.0 355.0,728.5 Z" />
    <path
       id="part-20"
       inkscape:label="part-20"
       fill="#3cb44b"
       fill-rule="evenodd"
       fill-opacity="0.85"
       d="M 262.0,674.5 C 260.6,674.9 257.4,674.9 256.0,674.5 C 254.6,674.1 253.9,673.4 253.5,672.0 C 253.1,670.6 252.8,668.3 253.5,666.0 C 254.2,663.7 256.2,662.8 257.5,658.0 C 258.8,653.2 260.5,644.5 261.5,637.0 C 262.5,629.5 263.5,618.7 263.5,613.0 C 263.5,607.3 261.4,605.8 261.5,603.0 C 261.6,600.2 262.3,593.5 264.0,596.5 C 265.7,599.5 270.1,613.9 271.5,621.0 C 272.9,628.1 272.7,632.7 272.5,639.0 C 272.3,645.3 271.7,654.7 270.5,659.0 C 269.3,663.3 266.5,662.8 265.5,665.0 C 264.5,667.2 265.1,670.4 264.5,672.0 C 263.9,673.6 263.4,674.1 262.0,674.5 Z" />
    <path
       id="part-21"
       inkscape:label="part-21"
       fill="#4363d8"
       fill-rule="evenodd"
       fill-opacity="0.85"
       d="M 245.0,748.5 C 239.1,748.6 233.9,746.4 229.0,743.5 C 224.1,740.6 218.6,735.2 215.5,731.0 C 212.4,726.8 210.9,721.1 210.5,718.0 C 210.1,714.9 211.4,713.6 213.0,712.5 C 214.6,711.4 218.1,709.9 220.0,711.5 C 221.9,713.1 221.2,717.7 224.5,722.0 C 227.8,726.3 235.6,734.2 240.0,737.5 C 244.4,740.8 247.3,741.0 251.0,741.5 C 254.7,742.0 259.8,740.2 262.0,740.5 C 264.2,740.8 267.3,741.7 264.5,743.0 C 261.7,744.3 250.9,748.4 245.0,748.5 Z" />
  </g>
  <g
     inkscape:groupmode="layer"
     id="layer2"
     inkscape:label="hair">
    <path
       id="path1302"
       inkscape:label="part-1"
       d="m 708,350.5 c -7.59999,0.4 -23.50001,-10.3 -35,-14 -11.49999,-3.7 -25.20001,-6.2 -34,-8 -8.79999,-1.8 -13.50001,-2.8 -19,-3 -5.49999,-0.2 -10.7,2.2 -14,2 -3.3,-0.2 1.19999,-2.5 -6,-3 -7.19999,-0.5 -21.80002,-1.5 -37,0 -15.19998,1.5 -39.50001,4.7 -54,9 -31.5709,14.2603 -45.57335,35.22817 -13,23 6.59999,-2.3 3.4,-0.6 1.5,1.5 -1.9,2.1 -10.8,8.2 -13,11 -2.2,2.8 -0.4,4.4 0,6 0.4,1.6 0.9,3.2 2.5,3.5 1.6,0.3 5.3,-2 7,-2 1.7,0 1.2,2.3 3,2 1.8,-0.3 3.7,-2.8 8,-4 4.3,-1.2 14.8,-2.7 18,-3 3.2,-0.3 2.1,-1.3 1.5,1.5 -0.6,2.8 -4.5,10.2 -5,15 -0.5,4.8 0.7,9.7 2,14 1.3,4.3 3.4,8.6 6,12 2.6,3.4 7.5,7.2 9.5,8.5 2,1.3 2.4,-0.1 2.5,-0.5 0.1,-0.4 -1.9,-1.4 -2,-2 -0.1,-0.6 0.7,-1 1.5,-1.5 0.8,-0.5 3.2,0.9 3.5,-1.5 0.3,-2.4 -2.2,-8.8 -2,-13 0.2,-4.2 0.9,-8.1 3,-12 2.1,-3.9 6,-12.7 9.5,-11.5 3.5,1.2 6.5,12.50001 11.5,18.5 5,5.99999 11.70001,12.6 18.5,17.5 6.79999,4.9 16.80001,9.8 22,12 5.19999,2.2 6.8,0.2 9,1 2.2,0.8 1.3,3.3 4,4 2.7,0.7 10.1,2.1 12,0 1.9,-2.1 1.9,-8.6 -0.5,-12.5 -2.4,-3.9 -10.7,-7.8 -14,-11 -3.3,-3.2 -5.3,-6.2 -6,-8 -0.7,-1.8 -2.4,-4.1 1.5,-2.5 3.9,1.6 13.70001,9.2 22,12 8.29999,2.8 22.10001,4.9 28,5 5.89999,0.1 6.9,-3.3 7.5,-4.5 0.6,-1.2 -3.2,-1.7 -4,-3 -0.8,-1.3 2.5,-1.2 -1,-5 -3.5,-3.8 -16.9,-14.6 -20,-18 -3.1,-3.4 -1.9,-3.4 1.5,-2.5 3.4,0.9 15,6.8 19,8 4,1.2 2.3,-1.5 5,-1 2.7,0.5 8.2,4.3 11,4 2.8,-0.3 4.6,-3.6 5.5,-5.5 0.9,-1.9 1.8,-3 0,-6 -1.8,-3 -8.7,-9.2 -11,-12 -2.3,-2.8 -2.7,-3.9 -3,-5 -0.3,-1.1 -2.6,-2.4 1.5,-1.5 4.1,0.9 15.20001,5.7 23,7 7.79999,1.3 19.1,2.1 24,1 4.9,-1.1 5.6,-5.6 5.5,-7.5 34.41615,11.34322 -10.70743,-16.47124 -17.5,-14.5 z m -142,-10 c 0.5,0.2 0.9,2.3 0.5,2.5 -0.4,0.2 -2.9,-0.6 -3,-1 -0.1,-0.4 2,-1.7 2.5,-1.5 z m 90,24 c 1.2,0.5 4.1,6.7 3.5,7.5 -0.6,0.8 -6.4,-1.8 -7,-3 -0.6,-1.2 2.3,-5 3.5,-4.5 z m 70,1 c -0.2,0.4 2.4,2.4 2.5,3.5 0.1,1.1 -1.9,2.4 -2,3 -0.1,0.6 0.5,0.8 1.5,0.5 1,-0.3 4.2,-1.5 4.5,-2.5 0.3,-1 -1.4,-2.8 -2.5,-3.5 -1.1,-0.7 -3.8,-1.4 -4,-1 z M 623.69336,381.40039 C 624.16211,381.24414 624.625,381.25 625,381.5 c 1.5,1 6.1,8.9 5.5,9.5 -0.6,0.6 -8.1,-4.4 -9,-6 -0.675,-1.2 0.78711,-3.13086 2.19336,-3.59961 z m -37.98438,10.83008 C 586.12461,392.11172 586.575,392.175 587,392.5 c 1.7,1.3 7.9,10.9 7.5,11.5 -0.4,0.6 -8.7,-6.1 -10,-8 -0.975,-1.425 -0.0379,-3.41328 1.20898,-3.76953 z"
       sodipodi:nodetypes="cssssssccsssssssssssssssssssssssssssssssssssssssssssssssccsssssssssssssssssssssssss" />
  </g>
  <g
     inkscape:groupmode="layer"
     id="layer-head"
     inkscape:label="head" />
  <g
     inkscape:groupmode="layer"
     id="layer-l-ear"
     inkscape:label="l-ear">
    <path
       id="path1356"
       inkscape:label="part-1"
       d="m 402.65039,303.875 c -2.15,-0.05 -3.85039,0.275 -5.65039,0.625 -3.6,0.7 -5.9,3.9 -7.5,5.5 -1.6,1.6 -1.5,0.8 -2,4 -0.5,3.2 -2,7.20001 -1,15 1,7.79999 4,22.80001 7,32 3,9.19999 6.18198,14.8859 11,23 6.3816,10.74736 5.70966,11.49138 14.5,11.5 7.5822,0.007 8.8,-4.2 9.5,-6.5 0.7,-2.3 -3.8,-5.8 -5.5,-7.5 -1.7,-1.7 -3.4,-0.3 -4.5,-2.5 -1.1,-2.2 -0.8,-8 -2,-11 -1.2,-3 -2.8,-0.30001 -5,-7 -2.2,-6.69999 -6.9,-26.40001 -8,-33 -1.1,-6.59999 -2.4,-7.1 1.5,-6.5 3.9,0.6 14.70001,5.3 22,10 7.29999,4.7 17.7,14.8 22,18 4.3,3.2 1.4,-1.4 4,1 2.6,2.4 10.7,10 11.5,13.5 10.57955,12.83325 16.66908,-0.60637 11.5,-13.5 -5.99999,2 -1.6,-3.9 -3,-5 -1.4,-1.1 -3.2,0.7 -5.5,-1.5 -2.3,-2.2 -3.9,-7.2 -8.5,-11.5 -4.6,-4.3 -11.00001,-9.5 -19,-14 -7.99999,-4.5 -21.80001,-10.7 -29,-13 -3.6,-1.15 -6.19961,-1.575 -8.34961,-1.625 z m 84.54102,62.51953 C 486.01797,367.39297 485.05,368.3 484.5,369 c 0.55,-0.7 1.51797,-1.60703 2.69141,-2.60547 z M 484.5,369 c -0.55,0.7 -0.85,1.32578 -0.98438,1.89453 C 483.65,370.32578 483.95,369.7 484.5,369 Z m -0.98438,1.89453 c -0.13437,0.56875 -0.10273,1.07969 0.01,1.55469 -0.1125,-0.475 -0.14414,-0.98594 -0.01,-1.55469 z m 0.01,1.55469 c 0.225,0.95 0.77461,1.75078 0.97461,2.55078 -0.2,-0.8 -0.74961,-1.60078 -0.97461,-2.55078 z M 484.5,375 c 0.2,0.8 0.42578,1.60078 0.80078,2.23828 C 484.92578,376.60078 484.7,375.8 484.5,375 Z m 4.0293,3.31445 C 487.93086,378.48789 487.4,378.575 487,378.5 c 0.4,0.075 0.93086,-0.0121 1.5293,-0.18555 z"
       style="fill:#ff2a2a"
       sodipodi:nodetypes="ssssssssssssssssssccsssssscccccccccccccccccc" />
  </g>
  <g
     inkscape:groupmode="layer"
     id="layer-r-ear"
     inkscape:label="r-ear">
    <path
       id="path1359"
       inkscape:label="part-1"
       d="M 774.5625,295.01172 C 773.7,294.92422 772.65,295 771,295.5 c -3.3,1 -8.30001,2.7 -14,6 -5.69999,3.3 -13.60001,8.60001 -20,14 -6.39999,5.39999 -13.7,12.70001 -18.5,18.5 -4.8,5.79999 -11.47149,14.94629 -10.5,16.5 3.42067,5.47071 8.49878,7.99666 15.98047,5.88086 1.08839,-0.89286 2.09615,-1.74579 2.51953,-2.38086 1.2,-1.8 -4.4,0.9 0,-4 4.4,-4.9 18.90001,-19.20001 26.5,-25.5 7.59999,-6.29999 15.2,-10.4 19,-12 3.8,-1.6 2.6,0.7 3.5,2.5 0.9,1.8 1.8,2.20001 2,8 0.2,5.79999 -0.2,20.50001 -1,27 -0.8,6.49999 -3.3,8.8 -4,12 -0.7,3.2 1.3,4 0,7 -1.3,3 -6.5,8.3 -8,11 -1.78627,2.36073 -2.39116,2.43183 -5,6 -2.97502,9.41769 12.73421,20.44314 18,6 2.12066,-5.81659 5,-4.8 6,-7 1,-2.2 -1.2,-3.7 0,-6 1.2,-2.3 5.3,-3.5 7,-8 1.7,-4.5 2.3,-11.50001 3,-19 0.7,-7.49999 1.5,-18.70001 1,-26 -0.5,-7.29999 -1.9,-13.2 -4,-18 -2.1,-4.8 -6.3,-8.4 -8.5,-10.5 -2.2,-2.1 -3.2,-1.7 -5,-2 -0.9,-0.15 -1.575,-0.40078 -2.4375,-0.48828 z"
       style="fill:#d4aa00"
       sodipodi:nodetypes="sssssscsssssssssccssssssssss" />
  </g>
  <g
     inkscape:groupmode="layer"
     id="layer-forelock"
     inkscape:label="forelock" />
  <g
     inkscape:groupmode="layer"
     id="layer-l-brow"
     inkscape:label="l-brow">
    <path
       id="part-17"
       inkscape:label="part-17"
       fill="#e07b00"
       fill-rule="evenodd"
       fill-opacity="0.85"
       d="M 447.0,460.5 C 444.1,461.2 439.9,458.6 438.5,457.0 C 437.1,455.4 436.1,454.9 438.5,451.0 C 440.9,447.1 447.1,437.6 453.0,433.5 C 458.9,429.4 467.4,427.1 474.0,426.5 C 480.6,425.9 489.2,428.9 492.5,430.0 C 495.8,431.1 493.7,432.2 493.5,433.0 C 493.3,433.8 491.2,434.2 491.5,435.0 C 491.8,435.8 495.1,436.8 495.0,437.5 C 494.9,438.2 491.8,439.7 491.0,439.5 C 490.2,439.3 490.7,437.0 490.0,436.5 C 489.3,436.0 488.7,435.2 487.0,436.5 C 485.3,437.8 484.2,441.7 480.0,444.5 C 475.8,447.3 466.0,452.2 462.0,453.5 C 458.0,454.8 458.5,451.3 456.0,452.5 C 453.5,453.7 449.9,459.8 447.0,460.5 Z" />
  </g>
  <g
     inkscape:groupmode="layer"
     id="layer-r-brow"
     inkscape:label="r-brow">
    <path
       id="part-16"
       inkscape:label="part-16"
       fill="#a9a9a9"
       fill-rule="evenodd"
       fill-opacity="0.85"
       d="M 737.0,458.5 C 735.1,458.2 733.7,454.5 731.0,453.5 C 728.3,452.5 724.5,454.0 721.0,452.5 C 717.5,451.0 712.7,445.8 710.0,444.5 C 707.3,443.2 706.5,445.5 705.0,444.5 C 703.5,443.5 703.3,439.5 701.0,438.5 C 698.7,437.5 693.6,439.4 691.0,438.5 C 688.4,437.6 686.4,434.4 685.5,433.0 C 684.6,431.6 684.2,431.4 685.5,430.0 C 686.8,428.6 687.6,425.1 693.0,424.5 C 698.4,423.9 710.4,423.6 718.0,426.5 C 725.6,429.4 734.4,437.2 738.5,442.0 C 742.6,446.8 742.8,452.2 742.5,455.0 C 742.2,457.8 738.9,458.8 737.0,458.5 Z" />
  </g>
  <g
     inkscape:groupmode="layer"
     id="layer-l-eye"
     inkscape:label="l-eye">
    <path
       id="part-6"
       inkscape:label="part-6"
       fill="#42d4f4"
       fill-rule="evenodd"
       fill-opacity="0.85"
       d="M 480.0,574.5 C 474.5,576.0 472.4,574.8 469.0,572.5 C 465.6,570.2 461.4,565.8 459.5,561.0 C 457.6,556.2 457.2,549.5 457.5,544.0 C 457.8,538.5 461.0,531.5 461.5,528.0 C 462.0,524.5 459.7,525.5 460.5,523.0 C 461.3,520.5 464.1,515.9 466.5,513.0 C 468.9,510.1 471.8,507.6 475.0,505.5 C 478.2,503.4 482.7,501.5 486.0,500.5 C 489.3,499.5 491.2,498.5 495.0,499.5 C 498.8,500.5 505.4,503.8 509.0,506.5 C 512.6,509.2 514.9,511.4 516.5,516.0 C 518.1,520.6 519.0,529.7 518.5,534.0 C 518.0,538.3 513.8,538.3 513.5,542.0 C 513.2,545.7 516.6,552.9 516.5,556.0 C 516.4,559.1 515.4,559.2 513.0,560.5 C 510.6,561.8 507.5,561.2 502.0,563.5 C 496.5,565.8 485.5,573.0 480.0,574.5 Z" />
  </g>
  <g
     inkscape:groupmode="layer"
     id="layer-r-eye"
     inkscape:label="r-eye">
    <path
       id="part-7"
       inkscape:label="part-7"
       fill="#f032e6"
       fill-rule="evenodd"
       fill-opacity="0.85"
       d="M 711.0,570.5 C 707.9,571.8 707.3,571.8 703.0,570.5 C 698.7,569.2 689.3,563.8 685.0,562.5 C 680.7,561.2 679.7,563.2 677.0,562.5 C 674.3,561.8 670.9,559.9 669.0,558.5 C 667.1,557.1 666.4,556.6 665.5,554.0 C 664.6,551.4 663.5,547.7 663.5,543.0 C 663.5,538.3 664.2,531.0 665.5,526.0 C 666.8,521.0 668.1,517.1 671.5,513.0 C 674.9,508.9 682.4,503.8 686.0,501.5 C 689.6,499.2 689.5,499.5 693.0,499.5 C 696.5,499.5 703.0,500.2 707.0,501.5 C 711.0,502.8 714.2,505.1 717.0,507.5 C 719.8,509.9 722.6,512.8 723.5,516.0 C 724.4,519.2 722.3,524.5 722.5,527.0 C 722.7,529.5 724.0,527.0 724.5,531.0 C 725.0,535.0 726.0,545.7 725.5,551.0 C 725.0,556.3 723.9,559.8 721.5,563.0 C 719.1,566.2 714.1,569.2 711.0,570.5 Z" />
  </g>
  <g
     inkscape:groupmode="layer"
     id="layer-snout"
     inkscape:label="snout-trunk"
     style="display:inline">
    <path
       id="path1299"
       inkscape:label="part-1"
       fill="#e6194b"
       fill-rule="evenodd"
       fill-opacity="0.85"
       d="M 682.02381,668.7077 C 680.047,668.07094 681.5,670.3 680.5,665 c -1,-5.3 -8.2,-21.5 -11,-31 -2.8,-9.5 -4.5,-21.2 -6,-26 -1.5,-4.8 -2.5,1.2 -3,-3 -0.5,-4.2 -0.7,-17.1 0,-22 0.7,-4.9 2.2,-8.7 4.5,-7.5 2.3,1.2 7.8,10.4 9.5,14.5 1.7,4.1 -0.7,3.3 1,10 1.7,6.7 5.2,18.7 9,30 3.8,11.3 12.87857,29.78926 14,38 1.37249,10.04896 -6.5971,3.88992 -16.47619,0.7077 z"
       sodipodi:nodetypes="ssssssssssss"
       style="display:inline;fill:#550000" />
    <path
       id="path1462"
       inkscape:label="part-1"
       fill="#e6194b"
       fill-rule="evenodd"
       fill-opacity="0.85"
       d="M 482.90974,669.22648 C 488.70974,654.72648 508.9,603.4 514.5,591 c 5.6,-12.4 3.2,2 4.5,1.5 1.3,-0.5 2.9,-4.7 3.5,-4.5 0.6,0.2 0.7,4.8 0,6 -0.7,1.2 -3.2,-1 -4,1 -0.8,2 -1.2,8.5 -1,11 0.2,2.5 2,3 2,4 0,1 -2,1.2 -2,2 0,0.8 2,2.2 2,3 0,0.8 -1.7,0.3 -2,2 -0.3,1.7 2.7,-0.7 0,8 -2.7,8.7 -19.10797,49.02701 -21.40797,56.82701 0.26813,7.06288 -21.34134,8.97952 -13.18229,-12.60053 z"
       sodipodi:nodetypes="cssssssssssscc"
       style="display:inline;fill:#550000" />
  </g>
  <g
     inkscape:groupmode="layer"
     id="layer-l-nostril"
     inkscape:label="l-nostril">
    <path
       id="part-18"
       inkscape:label="part-18"
       fill="#00a86b"
       fill-rule="evenodd"
       fill-opacity="0.85"
       d="M 538.0,726.5 C 535.5,726.3 530.4,724.8 528.0,723.5 C 525.6,722.2 525.4,722.2 523.5,719.0 C 521.6,715.8 517.5,708.2 516.5,704.0 C 515.5,699.8 516.1,696.9 517.5,694.0 C 518.9,691.1 521.9,687.4 525.0,686.5 C 528.1,685.6 532.4,685.6 536.0,688.5 C 539.6,691.4 544.6,699.1 546.5,704.0 C 548.4,708.9 548.1,714.6 547.5,718.0 C 546.9,721.4 544.6,723.1 543.0,724.5 C 541.4,725.9 540.5,726.7 538.0,726.5 Z" />
  </g>
  <g
     inkscape:groupmode="layer"
     id="layer-r-nostril"
     inkscape:label="r-nostril">
    <path
       id="part-19"
       inkscape:label="part-19"
       fill="#e6194B"
       fill-rule="evenodd"
       fill-opacity="0.85"
       d="M 650.0,722.5 C 647.2,723.8 646.1,723.4 644.0,722.5 C 641.9,721.6 638.8,719.9 637.5,717.0 C 636.2,714.1 635.5,709.7 636.5,705.0 C 637.5,700.3 641.1,692.6 643.5,689.0 C 645.9,685.4 648.6,684.4 651.0,683.5 C 653.4,682.6 655.8,682.6 658.0,683.5 C 660.2,684.4 663.1,686.2 664.5,689.0 C 665.9,691.8 667.2,695.7 666.5,700.0 C 665.8,704.3 663.2,711.2 660.5,715.0 C 657.8,718.8 652.8,721.2 650.0,722.5 Z" />
  </g>
  <g
     inkscape:groupmode="layer"
     id="layer-mouth"
     inkscape:label="mouth">
    <path
       id="part-13"
       inkscape:label="part-13"
       fill="#800000"
       fill-rule="evenodd"
       fill-opacity="0.85"
       d="M 597.0,794.5 C 591.3,795.2 586.5,794.5 581.0,793.5 C 575.5,792.5 567.7,790.3 564.0,788.5 C 560.3,786.7 561.4,784.4 559.0,782.5 C 556.6,780.6 551.4,778.4 549.5,777.0 C 547.6,775.6 547.7,775.7 547.5,774.0 C 547.3,772.3 546.9,768.4 548.5,767.0 C 550.1,765.6 553.8,764.1 557.0,765.5 C 560.2,766.9 563.8,773.2 568.0,775.5 C 572.2,777.8 577.3,778.7 582.0,779.5 C 586.7,780.3 592.0,780.7 596.0,780.5 C 600.0,780.3 601.8,780.0 606.0,778.5 C 610.2,777.0 617.0,774.2 621.0,771.5 C 625.0,768.8 627.1,764.1 630.0,762.5 C 632.9,760.9 637.1,761.1 638.5,762.0 C 639.9,762.9 639.8,765.1 638.5,768.0 C 637.2,770.9 634.9,775.9 631.0,779.5 C 627.1,783.1 620.7,787.0 615.0,789.5 C 609.3,792.0 602.7,793.8 597.0,794.5 Z" />
  </g>
</svg>
