<?xml version="1.0" encoding="UTF-8" standalone="no"?>
<svg
   viewBox="0 0 1254 1254"
   width="1254"
   height="1254"
   version="1.1"
   id="svg43"
   sodipodi:docname="king.svg"
   inkscape:version="1.2.2 (b0a8486541, 2022-12-01)"
   xmlns:inkscape="http://www.inkscape.org/namespaces/inkscape"
   xmlns:sodipodi="http://sodipodi.sourceforge.net/DTD/sodipodi-0.dtd"
   xmlns:xlink="http://www.w3.org/1999/xlink"
   xmlns="http://www.w3.org/2000/svg"
   xmlns:svg="http://www.w3.org/2000/svg"
   xmlns:sodipodi0="http://sodipodi.sourceforge.net/DTD/sodipodi-0.0.dtd">
  <defs
     id="defs47" />
  <sodipodi:namedview
     id="namedview45"
     pagecolor="#ffffff"
     bordercolor="#000000"
     borderopacity="0.25"
     inkscape:showpageshadow="2"
     inkscape:pageopacity="0.0"
     inkscape:pagecheckerboard="0"
     inkscape:deskcolor="#d1d1d1"
     showgrid="false"
     inkscape:zoom="0.80296655"
     inkscape:cx="561.66723"
     inkscape:cy="448.33748"
     inkscape:window-width="1678"
     inkscape:window-height="912"
     inkscape:window-x="0"
     inkscape:window-y="0"
     inkscape:window-maximized="1"
     inkscape:current-layer="g4" />
  <g
     inkscape:groupmode="layer"
     inkscape:label="reference (source png)"
     sodipodi0:insensitive="true"
     style="opacity:0.18"
     id="g4">
    <!-- reference image stripped; regenerate via tools/trace_png.py -->
  </g>
  <g
     inkscape:groupmode="layer"
     id="layer-traced"
     inkscape:label="traced parts">
    <path
       id="part-1"
       inkscape:label="part-1"
       d="m 505.39844,808.19727 -8.98633,-3.22852 c -2.3007,-0.82657 -7.74985,1.54614 -8.91211,3.03125 -1.8,2.3 -2.7,5.3 -3,8 -0.3,2.7 2.5,4.7 1,8 -1.5,3.3 -8.2,7.3 -10,12 -1.8,4.7 0.2,8.80001 -1,16 -1.2,7.19999 -4.7,16.30001 -6,27 -1.3,10.69999 -2.2,29.20001 -2,37 0.2,7.79999 2.7,7 3,10 0.3,3 -1.3,6.2 -1,8 0.3,1.8 2.8,1.7 3,3 0.2,1.3 -2.2,2.8 -2,5 0.2,2.2 2.7,5.5 3,8 0.3,2.5 -1.3,4.5 -1,7 0.3,2.5 2.1,6.4 3,8 0.9,1.6 0.2,13.69999 2.5,1.5 2.3,-12.19999 8.4,-58.10002 11.5,-74.5 3.1,-16.39998 5.2,-15.50001 7,-24 1.8,-8.49999 2,-19.50001 4,-27 2,-7.49999 6.4,-12.10001 8,-18 1.17542,-4.33438 1.56475,-13.48554 -2.10156,-14.80273 z"
       sodipodi:nodetypes="ssssssssssssssssssssss" />
    <path
       id="part-3"
       inkscape:label="part-3"
       fill="#4363d8"
       fill-rule="evenodd"
       fill-opacity="0.85"
       d="M 896.0,577.5 C 894.1,581.9 892.6,575.4 891.5,570.0 C 890.4,564.6 892.6,549.4 889.5,545.0 C 886.4,540.6 876.5,544.7 873.0,543.5 C 869.5,542.3 869.2,539.8 868.5,538.0 C 867.8,536.2 867.9,534.6 868.5,533.0 C 869.1,531.4 868.7,529.7 872.0,528.5 C 875.3,527.3 885.9,552.8 888.5,526.0 C 891.1,499.2 887.9,394.6 887.5,368.0 C 887.1,341.4 903.8,366.8 886.0,366.5 C 868.2,366.2 799.2,367.4 781.0,366.5 C 762.8,365.6 776.9,363.2 776.5,361.0 C 776.1,358.8 777.6,354.8 778.5,353.0 C 779.4,351.2 764.1,350.9 782.0,350.5 C 799.9,350.1 868.4,350.8 886.0,350.5 C 903.6,350.2 887.2,371.8 887.5,349.0 C 887.8,326.2 886.6,237.4 887.5,214.0 C 888.4,190.6 891.2,209.4 893.0,208.5 C 894.8,207.6 896.2,207.6 898.0,208.5 C 899.8,209.4 902.6,190.6 903.5,214.0 C 904.4,237.4 903.2,326.2 903.5,349.0 C 903.8,371.8 877.9,350.2 905.0,350.5 C 932.1,350.8 1033.0,349.8 1066.0,350.5 C 1099.0,351.2 1094.8,353.2 1103.0,354.5 C 1111.2,355.8 1113.7,357.0 1115.5,358.0 C 1117.3,359.0 1116.6,359.6 1114.0,360.5 C 1111.4,361.4 1109.3,362.5 1100.0,363.5 C 1090.7,364.5 1090.6,365.9 1058.0,366.5 C 1025.4,367.1 930.4,340.4 904.5,367.0 C 878.6,393.6 902.6,499.2 902.5,526.0 C 902.4,552.8 877.1,527.2 904.0,527.5 C 930.9,527.8 1031.0,526.8 1064.0,527.5 C 1097.0,528.2 1093.8,530.5 1102.0,531.5 C 1110.2,532.5 1110.8,532.8 1113.0,533.5 C 1115.2,534.2 1118.0,534.8 1115.5,536.0 C 1113.0,537.2 1107.6,539.2 1098.0,540.5 C 1088.4,541.8 1090.5,543.0 1058.0,543.5 C 1025.5,544.0 930.0,537.8 903.0,543.5 C 876.0,549.2 897.9,573.1 896.0,577.5 Z" />
    <path
       id="part-4"
       inkscape:label="part-4"
       fill="#f58231"
       fill-rule="evenodd"
       fill-opacity="0.85"
       d="M 896.0,1005.5 C 895.2,1006.4 894.6,1006.1 894.0,1005.5 C 893.4,1004.9 893.2,1006.1 892.5,1002.0 C 891.8,997.9 890.3,995.8 889.5,981.0 C 888.7,966.2 890.2,924.6 887.5,913.0 C 884.8,901.4 876.2,912.5 873.0,911.5 C 869.8,910.5 869.2,908.6 868.5,907.0 C 867.8,905.4 867.8,903.8 868.5,902.0 C 869.2,900.2 869.8,897.8 873.0,896.5 C 876.2,895.2 885.1,921.8 887.5,894.0 C 889.9,866.2 887.8,757.6 887.5,730.0 C 887.2,702.4 891.8,728.8 886.0,728.5 C 880.2,728.2 859.2,729.4 853.0,728.5 C 846.8,727.6 849.2,724.8 848.5,723.0 C 847.8,721.2 847.8,719.8 848.5,718.0 C 849.2,716.2 846.8,713.4 853.0,712.5 C 859.2,711.6 880.2,712.8 886.0,712.5 C 891.8,712.2 887.2,723.8 887.5,711.0 C 887.8,698.2 886.2,649.6 887.5,636.0 C 888.8,622.4 892.3,629.7 895.0,629.5 C 897.7,629.3 902.1,621.4 903.5,635.0 C 904.9,648.6 903.2,698.1 903.5,711.0 C 903.8,723.9 878.6,712.2 905.0,712.5 C 931.4,712.8 1028.5,711.7 1062.0,712.5 C 1095.5,713.3 1097.1,716.1 1106.0,717.5 C 1114.9,718.9 1116.3,719.7 1115.5,721.0 C 1114.7,722.3 1110.1,724.2 1101.0,725.5 C 1091.9,726.8 1093.7,728.0 1061.0,728.5 C 1028.3,729.0 931.2,728.2 905.0,728.5 C 878.8,728.8 903.8,702.4 903.5,730.0 C 903.2,757.6 903.2,866.4 903.5,894.0 C 903.8,921.6 878.6,895.2 905.0,895.5 C 931.4,895.8 1028.3,894.7 1062.0,895.5 C 1095.7,896.3 1098.1,899.1 1107.0,900.5 C 1115.9,901.9 1116.7,902.7 1115.5,904.0 C 1114.3,905.3 1108.8,907.2 1100.0,908.5 C 1091.2,909.8 1095.5,911.0 1063.0,911.5 C 1030.5,912.0 931.6,911.2 905.0,911.5 C 878.4,911.8 903.9,903.8 903.5,913.0 C 903.1,922.2 903.3,952.5 902.5,967.0 C 901.7,981.5 899.6,993.6 898.5,1000.0 C 897.4,1006.4 896.8,1004.6 896.0,1005.5 Z" />
    <path
       id="part-5"
       inkscape:label="part-5"
       fill="#911eb4"
       fill-rule="evenodd"
       fill-opacity="0.85"
       d="M 267.0,565.5 C 265.4,568.6 264.7,563.8 263.5,560.0 C 262.3,556.2 281.1,545.2 260.0,542.5 C 238.9,539.8 158.4,544.4 137.0,543.5 C 115.6,542.6 132.2,538.9 131.5,537.0 C 130.8,535.1 131.6,533.6 132.5,532.0 C 133.4,530.4 115.9,528.1 137.0,527.5 C 158.1,526.9 238.4,528.6 259.0,528.5 C 279.6,528.4 260.6,530.8 260.5,527.0 C 260.4,523.2 258.8,532.5 258.5,506.0 C 258.2,479.5 258.8,391.2 258.5,368.0 C 258.2,344.8 277.8,366.8 257.0,366.5 C 236.2,366.2 155.2,367.4 134.0,366.5 C 112.8,365.6 130.2,362.9 129.5,361.0 C 128.8,359.1 128.8,356.8 129.5,355.0 C 130.2,353.2 112.8,351.2 134.0,350.5 C 155.2,349.8 236.2,350.8 257.0,350.5 C 277.8,350.2 258.2,374.9 258.5,349.0 C 258.8,323.1 257.4,221.8 258.5,195.0 C 259.6,168.2 263.1,189.4 265.0,188.5 C 266.9,187.6 268.4,188.6 270.0,189.5 C 271.6,190.4 273.8,167.4 274.5,194.0 C 275.2,220.6 274.2,322.9 274.5,349.0 C 274.8,375.1 261.2,350.2 276.0,350.5 C 290.8,350.8 345.8,350.0 363.0,350.5 C 380.2,351.0 374.9,352.2 379.0,353.5 C 383.1,354.8 386.8,356.5 387.5,358.0 C 388.2,359.5 387.2,361.1 383.0,362.5 C 378.8,363.9 379.8,365.8 362.0,366.5 C 344.2,367.2 290.6,366.2 276.0,366.5 C 261.4,366.8 274.8,343.2 274.5,368.0 C 274.2,392.8 274.8,488.3 274.5,515.0 C 274.2,541.7 271.9,525.4 272.5,528.0 C 273.1,530.6 273.4,529.8 278.0,530.5 C 282.6,531.2 295.2,531.6 300.0,532.5 C 304.8,533.4 306.8,534.8 306.5,536.0 C 306.2,537.2 303.6,538.6 298.0,539.5 C 292.4,540.4 278.2,537.2 273.0,541.5 C 267.8,545.8 268.6,562.4 267.0,565.5 Z" />
    <path
       id="part-9"
       inkscape:label="part-9"
       fill="#fabed4"
       fill-rule="evenodd"
       fill-opacity="0.85"
       d="M 339.0,928.5 C 334.3,929.0 331.5,928.5 328.0,927.5 C 324.5,926.5 321.2,924.8 318.0,922.5 C 314.8,920.2 311.9,918.1 308.5,914.0 C 305.1,909.9 299.8,901.7 297.5,898.0 C 295.2,894.3 294.8,893.5 294.5,892.0 C 294.2,890.5 295.8,889.8 295.5,889.0 C 295.2,888.2 293.7,888.8 292.5,887.0 C 291.3,885.2 291.7,887.2 288.5,878.0 C 285.3,868.8 275.9,840.4 273.5,832.0 C 271.1,823.6 273.6,827.9 274.0,827.5 C 274.4,827.1 275.2,829.6 276.0,829.5 C 276.8,829.4 278.7,829.8 278.5,827.0 C 278.3,824.2 274.2,811.8 275.0,812.5 C 275.8,813.2 282.8,828.3 283.5,831.0 C 284.2,833.7 280.0,828.7 279.0,828.5 C 278.0,828.3 276.6,827.9 277.5,830.0 C 278.4,832.1 283.0,837.3 284.5,841.0 C 286.0,844.7 285.2,849.2 286.5,852.0 C 287.8,854.8 291.7,856.7 292.5,858.0 C 293.3,859.3 290.8,858.3 291.5,860.0 C 292.2,861.7 295.7,866.0 296.5,868.0 C 297.3,870.0 295.5,871.0 296.5,872.0 C 297.5,873.0 300.7,871.5 302.5,874.0 C 304.3,876.5 303.6,881.8 307.5,887.0 C 311.4,892.2 322.1,901.9 326.0,905.5 C 329.9,909.1 328.7,908.0 331.0,908.5 C 333.3,909.0 335.8,909.8 340.0,908.5 C 344.2,907.2 349.5,904.5 356.0,900.5 C 362.5,896.5 368.5,894.0 379.0,884.5 C 389.5,875.0 409.7,851.7 419.0,843.5 C 428.3,835.3 430.9,838.4 435.0,835.5 C 439.1,832.6 442.2,827.9 443.5,826.0 C 444.8,824.1 440.2,826.8 442.5,824.0 C 444.8,821.2 452.8,812.4 457.0,809.5 C 461.2,806.6 465.1,806.2 468.0,806.5 C 470.9,806.8 473.4,808.6 474.5,811.0 C 475.6,813.4 477.5,815.3 474.5,821.0 C 471.5,826.7 462.1,838.9 456.5,845.0 C 450.9,851.1 449.6,849.4 441.0,857.5 C 432.4,865.6 416.2,883.8 405.0,893.5 C 393.8,903.2 382.2,910.3 374.0,915.5 C 365.8,920.7 361.8,922.3 356.0,924.5 C 350.2,926.7 343.7,928.0 339.0,928.5 Z" />
    <path
       id="part-11"
       inkscape:label="part-11"
       fill="#dcbeff"
       fill-rule="evenodd"
       fill-opacity="0.85"
       d="M 823.0,965.5 C 821.2,964.5 815.2,957.6 813.5,955.0 C 811.8,952.4 813.7,951.5 812.5,950.0 C 811.3,948.5 807.3,947.0 806.5,946.0 C 805.7,945.0 808.0,944.8 807.5,944.0 C 807.0,943.2 804.0,941.8 803.5,941.0 C 803.0,940.2 804.9,939.9 804.5,939.0 C 804.1,938.1 801.9,935.9 801.0,935.5 C 800.1,935.1 799.9,937.6 799.0,936.5 C 798.1,935.4 797.9,931.9 795.5,929.0 C 793.1,926.1 792.8,929.8 784.5,919.0 C 776.2,908.2 754.5,875.8 745.5,864.0 C 736.5,852.2 733.7,853.5 730.5,848.0 C 727.3,842.5 728.5,834.8 726.5,831.0 C 724.5,827.2 720.7,827.5 718.5,825.0 C 716.3,822.5 714.3,818.7 713.5,816.0 C 712.7,813.3 712.2,811.6 713.5,809.0 C 714.8,806.4 718.8,801.9 721.0,800.5 C 723.2,799.1 723.6,798.1 727.0,800.5 C 730.4,802.9 737.9,810.2 741.5,815.0 C 745.1,819.8 743.8,822.0 748.5,829.0 C 753.2,836.0 759.8,842.0 769.5,857.0 C 779.2,872.0 797.3,901.7 806.5,919.0 C 815.7,936.3 821.8,953.2 824.5,961.0 C 827.2,968.8 824.8,966.5 823.0,965.5 Z" />
    <path
       id="part-12"
       inkscape:label="part-12"
       fill="#9A6324"
       fill-rule="evenodd"
       fill-opacity="0.85"
       d="M 713.0,990.5 C 712.5,989.8 710.5,980.7 710.5,979.0 C 710.5,977.3 712.2,980.5 713.0,980.5 C 713.8,980.5 715.8,980.1 715.5,979.0 C 715.2,977.9 712.2,976.2 711.5,974.0 C 710.8,971.8 712.0,967.8 711.5,966.0 C 711.0,964.2 708.8,964.0 708.5,963.0 C 708.2,962.0 710.0,961.0 709.5,960.0 C 709.0,959.0 705.7,958.0 705.5,957.0 C 705.3,956.0 708.7,955.0 708.5,954.0 C 708.3,953.0 705.3,952.8 704.5,951.0 C 703.7,949.2 704.5,945.7 703.5,943.0 C 702.5,940.3 701.0,943.3 698.5,935.0 C 696.0,926.7 690.5,903.5 688.5,893.0 C 686.5,882.5 687.8,878.7 686.5,872.0 C 685.2,865.3 680.8,858.5 680.5,853.0 C 680.2,847.5 684.5,844.5 684.5,839.0 C 684.5,833.5 680.8,823.8 680.5,820.0 C 680.2,816.2 680.9,817.6 682.5,816.0 C 684.1,814.4 687.6,811.4 690.0,810.5 C 692.4,809.6 695.1,809.8 697.0,810.5 C 698.9,811.2 700.1,811.6 701.5,815.0 C 702.9,818.4 705.0,825.8 705.5,831.0 C 706.0,836.2 703.7,838.8 704.5,846.0 C 705.3,853.2 709.3,865.5 710.5,874.0 C 711.7,882.5 710.2,885.0 711.5,897.0 C 712.8,909.0 717.2,932.0 718.5,946.0 C 719.8,960.0 720.3,974.8 719.5,981.0 C 718.7,987.2 714.6,981.4 713.5,983.0 C 712.4,984.6 713.5,991.2 713.0,990.5 Z" />
    <path
       id="part-14"
       inkscape:label="part-14"
       fill="#808000"
       fill-rule="evenodd"
       fill-opacity="0.85"
       d="M 267.0,978.5 C 265.7,982.8 265.2,978.6 264.5,977.0 C 263.8,975.4 263.8,980.4 262.5,969.0 C 261.2,957.6 263.4,918.1 257.0,908.5 C 250.6,898.9 242.7,911.0 224.0,911.5 C 205.3,912.0 158.9,912.4 145.0,911.5 C 131.1,910.6 141.1,908.1 140.5,906.0 C 139.9,903.9 140.8,900.8 141.5,899.0 C 142.2,897.2 131.2,896.1 145.0,895.5 C 158.8,894.9 205.3,894.8 224.0,895.5 C 242.7,896.2 251.2,899.1 257.0,899.5 C 262.8,899.9 258.2,902.1 258.5,898.0 C 258.8,893.9 257.6,879.9 258.5,875.0 C 259.4,870.1 262.2,869.6 264.0,868.5 C 265.8,867.4 267.2,867.8 269.0,868.5 C 270.8,869.2 273.6,867.6 274.5,873.0 C 275.4,878.4 273.8,895.7 274.5,901.0 C 275.2,906.3 278.5,904.0 278.5,905.0 C 278.5,906.0 275.5,899.3 274.5,907.0 C 273.5,914.7 273.8,939.1 272.5,951.0 C 271.2,962.9 268.3,974.2 267.0,978.5 Z" />
    <path
       id="part-16"
       inkscape:label="part-16"
       fill="#a9a9a9"
       fill-rule="evenodd"
       fill-opacity="0.85"
       d="M 262.0,745.5 C 256.3,745.8 250.7,744.8 244.0,742.5 C 237.3,740.2 226.2,734.4 222.0,731.5 C 217.8,728.6 220.1,726.8 218.5,725.0 C 216.9,723.2 213.7,722.2 212.5,721.0 C 211.3,719.8 211.3,719.2 211.5,718.0 C 211.7,716.8 214.8,715.2 213.5,714.0 C 212.2,712.8 206.3,711.8 204.0,710.5 C 201.7,709.2 200.4,707.6 199.5,706.0 C 198.6,704.4 198.3,702.7 198.5,701.0 C 198.7,699.3 197.1,698.6 200.5,696.0 C 203.9,693.4 212.1,687.2 219.0,685.5 C 225.9,683.8 237.9,684.4 242.0,685.5 C 246.1,686.6 243.7,690.5 243.5,692.0 C 243.3,693.5 244.6,693.6 241.0,694.5 C 237.4,695.4 226.2,696.2 222.0,697.5 C 217.8,698.8 212.2,700.2 215.5,702.0 C 218.8,703.8 233.9,707.2 242.0,708.5 C 250.1,709.8 260.7,708.8 264.0,709.5 C 267.3,710.2 263.3,712.2 262.0,712.5 C 260.7,712.8 258.7,711.2 256.0,711.5 C 253.3,711.8 251.2,713.8 246.0,714.5 C 240.8,715.2 226.7,714.5 224.5,716.0 C 222.3,717.5 227.9,720.2 233.0,723.5 C 238.1,726.8 248.3,733.0 255.0,735.5 C 261.7,738.0 268.1,738.8 273.0,738.5 C 277.9,738.2 282.6,734.4 284.5,734.0 C 286.4,733.6 285.6,734.9 284.5,736.0 C 283.4,737.1 281.8,738.9 278.0,740.5 C 274.2,742.1 267.7,745.2 262.0,745.5 Z" />
    <path
       id="part-19"
       inkscape:label="part-19"
       fill="#e6194B"
       fill-rule="evenodd"
       fill-opacity="0.85"
       d="M 175.0,728.5 C 163.8,729.2 132.1,729.1 123.0,728.5 C 113.9,727.9 120.9,726.9 120.5,725.0 C 120.1,723.1 120.1,719.1 120.5,717.0 C 120.9,714.9 113.8,713.2 123.0,712.5 C 132.2,711.8 164.2,711.2 176.0,712.5 C 187.8,713.8 191.2,718.0 193.5,720.0 C 195.8,722.0 193.1,723.1 190.0,724.5 C 186.9,725.9 186.2,727.8 175.0,728.5 Z" />
    <path
       id="part-23"
       inkscape:label="part-23"
       fill="#911eb4"
       fill-rule="evenodd"
       fill-opacity="0.85"
       d="M 349.0,731.5 C 340.2,732.0 312.8,732.1 305.0,731.5 C 297.2,730.9 302.9,729.9 302.5,728.0 C 302.1,726.1 302.1,721.9 302.5,720.0 C 302.9,718.1 296.9,717.1 305.0,716.5 C 313.1,715.9 341.6,715.2 351.0,716.5 C 360.4,717.8 360.3,722.0 361.5,724.0 C 362.7,726.0 360.1,727.2 358.0,728.5 C 355.9,729.8 357.8,731.0 349.0,731.5 Z" />
    <path
       id="part-24"
       inkscape:label="part-24"
       fill="#42d4f4"
       fill-rule="evenodd"
       fill-opacity="0.85"
       d="M 262.0,695.5 C 260.6,695.9 257.4,695.9 256.0,695.5 C 254.6,695.1 253.9,694.2 253.5,693.0 C 253.1,691.8 252.8,690.2 253.5,688.0 C 254.2,685.8 256.2,684.8 257.5,680.0 C 258.8,675.2 260.7,668.8 261.5,659.0 C 262.3,649.2 261.9,627.8 262.5,621.0 C 263.1,614.2 264.7,618.2 265.0,618.5 C 265.3,618.8 263.4,618.9 264.5,623.0 C 265.6,627.1 270.2,636.8 271.5,643.0 C 272.8,649.2 272.7,653.8 272.5,660.0 C 272.3,666.2 271.7,675.7 270.5,680.0 C 269.3,684.3 266.5,683.8 265.5,686.0 C 264.5,688.2 265.1,691.4 264.5,693.0 C 263.9,694.6 263.4,695.1 262.0,695.5 Z" />
    <path
       id="part-28"
       inkscape:label="part-28"
       fill="#469990"
       fill-rule="evenodd"
       fill-opacity="0.85"
       d="M 245.0,769.5 C 240.7,768.7 232.1,766.6 227.0,763.5 C 221.9,760.4 216.6,754.2 214.5,751.0 C 212.4,747.8 215.2,746.2 214.5,744.0 C 213.8,741.8 210.4,739.9 210.5,738.0 C 210.6,736.1 213.2,733.2 215.0,732.5 C 216.8,731.8 219.9,732.2 221.5,734.0 C 223.1,735.8 221.8,739.1 224.5,743.0 C 227.2,746.9 234.4,754.4 238.0,757.5 C 241.6,760.6 241.9,760.4 246.0,761.5 C 250.1,762.6 261.3,762.8 262.5,764.0 C 263.7,765.2 255.9,767.6 253.0,768.5 C 250.1,769.4 249.3,770.3 245.0,769.5 Z" />
  </g>
  <g
     inkscape:groupmode="layer"
     id="layer-head"
     inkscape:label="head">
    <path
       id="path272"
       inkscape:label="part-1"
       d="m 403,410.5 c -1.3,1 -2.8,1.8 -4,1 -1.2,-0.8 -1.8,-6 -3,-6 -1.2,0 -1.7,4 -4,6 -2.3,2 -6.9,3.6 -10,6 -3.1,2.4 -5.1,4.7 -8.5,8.5 -3.4,3.8 -6.70001,6.70001 -12,14 -5.29999,7.29999 -14.80001,21.30001 -20,30 -5.19999,8.69999 -7.3,13.00001 -11,22 -3.7,8.99999 -8.3,22.50001 -11,32 -2.7,9.49999 -4,12.50001 -5,25 -1,12.49999 -2,35.50001 -1,50 1,14.49999 4.2,26.20001 7,37 2.8,10.79999 6.8,20.30001 10,28 3.2,7.69999 3.30001,9.00001 9,18 5.69999,8.99999 14.40001,23.90001 25,36 10.59999,12.09999 24.40001,25.60001 38.5,36.5 14.09999,10.89999 30.60002,21.10001 46,29 15.39998,7.89999 39.13358,16.62765 46.5,18.5 5.97489,1.51866 8.48113,2.66363 13.5,3.5 8.38437,1.39722 33.70002,7.8 49,10 15.29998,2.2 28.20001,2.8 43,3 14.79999,0.2 30.70002,-0.2 46,-2 15.29998,-1.8 32.00001,-5.2 46,-9 13.99999,-3.8 26.50001,-8.70001 38,-14 11.49999,-5.29999 21.80001,-11.60001 31,-18 9.19999,-6.39999 18.40001,-14.40001 24.5,-20.5 6.09999,-6.09999 9.5,-11.8 12,-16 2.5,-4.2 2.7,-7.2 3,-9 0.3,-1.8 0.1,-1.4 -1.5,-1.5 -1.6,-0.1 -0.30001,-3.5 -8,1 -7.69999,4.5 -26.50001,18.80001 -38,26 -11.49999,7.19999 -19.80001,12.3 -31,17 -11.19999,4.7 -28.70001,8.3 -36,11 -7.29999,2.7 -0.30001,3 -8,5 -7.69999,2 -24.50001,5.8 -38,7 -13.49999,1.2 -24.20002,1.8 -43,0 -18.79998,-1.8 -51.80002,-7.3 -70,-11 -18.19998,-3.7 -26.30001,-6.5 -39,-11 -12.69999,-4.5 -25.20001,-9.80001 -37,-16 -11.79999,-6.19999 -22.80001,-12.30001 -34,-21 -11.19999,-8.69999 -23.90001,-20.70001 -33.5,-31.5 -9.59999,-10.79999 -17.70001,-22.50001 -24,-33 -6.29999,-10.49999 -10,-18.00001 -14,-30 -4,-11.99999 -8.2,-28.50001 -10,-42 -1.8,-13.49999 -1.8,-26.50001 -1,-39 0.8,-12.49999 3,-24.50001 6,-36 3,-11.49999 6.20001,-21.00001 12,-33 5.79999,-11.99999 13.60001,-26.40001 23,-39 9.39999,-12.59999 26.65388,-31.20001 32.75387,-36.5 -2.92738,-3.82683 -1.85925,-9.64764 -6.25387,-6 z"
       sodipodi:nodetypes="csssssssssssssssssssssssssssssssssssssssssssssssscc" />
    <path
       id="part-22"
       inkscape:label="part-22"
       fill="#f58231"
       fill-rule="evenodd"
       fill-opacity="0.85"
       d="M 848.0,537.5 C 846.2,532.8 841.8,512.0 836.5,499.0 C 831.2,486.0 816.9,462.8 816.0,459.5 C 815.1,456.2 828.4,476.8 831.0,479.5 C 833.6,482.2 835.1,481.8 831.5,476.0 C 827.9,470.2 820.3,457.0 809.5,445.0 C 798.7,433.0 773.4,411.9 766.5,404.0 C 759.6,396.1 765.9,397.4 768.0,397.5 C 770.1,397.6 774.1,400.4 779.0,404.5 C 783.9,408.6 791.2,415.2 797.5,422.0 C 803.8,428.8 810.7,437.0 816.5,445.0 C 822.3,453.0 829.2,464.0 832.5,470.0 C 835.8,476.0 836.2,479.6 836.5,481.0 C 836.8,482.4 834.8,478.5 834.0,478.5 C 833.2,478.5 829.2,472.9 831.5,481.0 C 833.8,489.1 844.8,517.6 847.5,527.0 C 850.2,536.4 849.8,542.2 848.0,537.5 Z" />
  </g>
  <g
     inkscape:groupmode="layer"
     id="layer-l-brow"
     inkscape:label="l-brow">
    <path
       id="part-17"
       inkscape:label="part-17"
       fill="#e07b00"
       fill-rule="evenodd"
       fill-opacity="0.85"
       d="M 444.0,466.5 C 442.7,467.0 440.2,467.2 438.0,466.5 C 435.8,465.8 433.1,464.1 431.0,462.5 C 428.9,460.9 426.4,458.6 425.5,457.0 C 424.6,455.4 422.2,455.6 425.5,453.0 C 428.8,450.4 440.1,443.8 445.0,441.5 C 449.9,439.2 451.7,440.7 455.0,439.5 C 458.3,438.3 460.2,435.4 465.0,434.5 C 469.8,433.6 480.4,433.4 483.5,434.0 C 486.6,434.6 483.0,437.0 483.5,438.0 C 484.0,439.0 486.4,439.2 486.5,440.0 C 486.6,440.8 484.8,442.6 484.0,442.5 C 483.2,442.4 485.0,437.0 482.0,439.5 C 479.0,442.0 469.8,454.0 466.0,457.5 C 462.2,461.0 460.8,459.2 459.0,460.5 C 457.2,461.8 457.2,465.0 455.0,465.5 C 452.8,466.0 447.8,463.3 446.0,463.5 C 444.2,463.7 445.3,466.0 444.0,466.5 Z" />
  </g>
  <g
     inkscape:groupmode="layer"
     id="layer-r-brow"
     inkscape:label="r-brow">
    <path
       id="part-18"
       inkscape:label="part-18"
       fill="#00a86b"
       fill-rule="evenodd"
       fill-opacity="0.85"
       d="M 712.0,453.5 C 711.6,453.9 707.9,453.1 707.0,452.5 C 706.1,451.9 707.3,450.8 706.5,450.0 C 705.7,449.2 703.1,447.6 702.0,447.5 C 700.9,447.4 702.7,449.2 700.0,449.5 C 697.3,449.8 689.5,450.0 686.0,449.5 C 682.5,449.0 681.0,446.7 679.0,446.5 C 677.0,446.3 675.8,449.2 674.0,448.5 C 672.2,447.8 669.7,443.2 668.0,442.5 C 666.3,441.8 666.2,445.8 664.0,444.5 C 661.8,443.2 656.4,438.1 654.5,435.0 C 652.6,431.9 651.9,428.1 652.5,426.0 C 653.1,423.9 655.6,422.8 658.0,422.5 C 660.4,422.2 663.5,424.3 667.0,424.5 C 670.5,424.7 674.0,422.5 679.0,423.5 C 684.0,424.5 693.3,429.0 697.0,430.5 C 700.7,432.0 698.2,429.8 701.0,432.5 C 703.8,435.2 712.1,444.1 713.5,447.0 C 714.9,449.9 709.8,448.9 709.5,450.0 C 709.2,451.1 712.4,453.1 712.0,453.5 Z" />
  </g>
  <g
     inkscape:groupmode="layer"
     id="layer-l-eye"
     inkscape:label="l-eye">
    <path
       id="part-10"
       inkscape:label="part-10"
       fill="#469990"
       fill-rule="evenodd"
       fill-opacity="0.85"
       d="M 487.0,586.5 C 477.3,588.5 475.4,584.8 472.0,583.5 C 468.6,582.2 467.8,580.6 466.5,579.0 C 465.2,577.4 465.2,578.3 464.5,574.0 C 463.8,569.7 462.3,559.0 462.5,553.0 C 462.7,547.0 464.3,541.8 465.5,538.0 C 466.7,534.2 467.4,532.9 469.5,530.0 C 471.6,527.1 474.4,523.1 478.0,520.5 C 481.6,517.9 486.2,515.5 491.0,514.5 C 495.8,513.5 501.3,513.3 507.0,514.5 C 512.7,515.7 520.8,519.2 525.0,521.5 C 529.2,523.8 530.8,525.9 532.5,528.0 C 534.2,530.1 535.0,531.3 535.5,534.0 C 536.0,536.7 536.0,541.3 535.5,544.0 C 535.0,546.7 534.0,548.2 532.5,550.0 C 531.0,551.8 526.5,552.8 526.5,555.0 C 526.5,557.2 531.5,560.7 532.5,563.0 C 533.5,565.3 532.9,567.6 532.5,569.0 C 532.1,570.4 537.6,568.6 530.0,571.5 C 522.4,574.4 496.7,584.5 487.0,586.5 Z" />
  </g>
  <g
     inkscape:groupmode="layer"
     id="layer-r-eye"
     inkscape:label="r-eye">
    <path
       id="part-13"
       inkscape:label="part-13"
       fill="#800000"
       fill-rule="evenodd"
       fill-opacity="0.85"
       d="M 705.0,579.5 C 697.5,578.8 676.7,574.5 669.0,572.5 C 661.3,570.5 661.2,569.1 659.0,567.5 C 656.8,565.9 656.4,564.6 655.5,563.0 C 654.6,561.4 653.7,561.2 653.5,558.0 C 653.3,554.8 653.3,548.3 654.5,544.0 C 655.7,539.7 657.9,535.4 660.5,532.0 C 663.1,528.6 665.4,526.1 670.0,523.5 C 674.6,520.9 683.0,517.7 688.0,516.5 C 693.0,515.3 696.2,515.2 700.0,516.5 C 703.8,517.8 707.2,515.8 710.5,524.0 C 713.8,532.2 718.9,557.2 719.5,566.0 C 720.1,574.8 716.4,574.2 714.0,576.5 C 711.6,578.8 712.5,580.2 705.0,579.5 Z" />
  </g>
  <g
     inkscape:groupmode="layer"
     id="layer-mouth"
     inkscape:label="mouth">
    <path
       id="part-6"
       inkscape:label="part-6"
       fill="#42d4f4"
       fill-rule="evenodd"
       fill-opacity="0.85"
       d="M 596.0,756.5 C 586.7,757.0 577.7,756.2 568.0,753.5 C 558.3,750.8 547.4,746.4 538.0,740.5 C 528.6,734.6 517.6,724.1 511.5,718.0 C 505.4,711.9 503.7,707.7 501.5,704.0 C 499.3,700.3 496.2,698.8 498.5,696.0 C 500.8,693.2 507.8,690.1 515.0,687.5 C 522.2,684.9 529.5,680.5 542.0,680.5 C 554.5,680.5 573.8,687.5 590.0,687.5 C 606.2,687.5 628.2,681.2 639.0,680.5 C 649.8,679.8 647.6,681.1 655.0,683.5 C 662.4,685.9 679.4,691.2 683.5,695.0 C 687.6,698.8 681.3,702.5 679.5,706.0 C 677.7,709.5 677.6,710.8 672.5,716.0 C 667.4,721.2 657.1,731.8 649.0,737.5 C 640.9,743.2 632.8,747.3 624.0,750.5 C 615.2,753.7 605.3,756.0 596.0,756.5 Z" />
  </g>
  <g
     inkscape:groupmode="layer"
     id="layer-crown"
     inkscape:label="crown"
     style="display:inline">
    <path
       id="part-2"
       inkscape:label="part-2"
       d="M 579.10938 194.29102 C 578.06809 194.35864 577.05937 195.19375 574.5 199 C 570.6 204.79998 564.29998 218.20002 557.5 229 C 550.70002 239.79998 540.89998 254.60002 533.5 264 C 526.10002 273.39998 517.9 280.9 513 285.5 C 508.1 290.1 505.8 290.9 504 291.5 C 503.30793 291.73069 502.96816 291.5168 502.74805 291.17773 L 493.61914 293.83203 C 494.28265 293.88163 495.15704 293.90393 495.5 294 C 498 294.7 493.8 296.2 490 296.5 C 486.2 296.8 478.49998 296.8 473 295.5 C 467.50002 294.2 463.99998 293 457 288.5 C 450.00002 284 442.99998 279.29998 431 268.5 C 419.00002 257.70002 393.69998 231.29998 385 223.5 C 376.30002 215.70002 380.4 221.4 379 221.5 C 377.6 221.6 375.8 219.2 376.5 224 C 377.2 228.8 382.8 245.2 383.5 250 C 384.2 254.8 381.8 252.5 381 252.5 C 380.2 252.5 378.9 249.6 378.5 250 C 378.1 250.4 377.5 251.8 378.5 255 C 379.5 258.2 383.5 264.8 384.5 269 C 385.5 273.2 384.1 277.2 384.5 280 C 384.9 282.8 386.3 284.8 387 285.5 C 387.53011 286.03011 388.28699 285.58473 388.49414 284.81641 C 388.49152 284.87596 388.49013 284.93582 388.5 285 C 388.7 286.3 391.3 288.7 391.5 290 C 391.7 291.3 389 292 389.5 293 C 390 294 393.5 295 394.5 296 C 395.5 297 396 298 395.5 299 C 395 300 390.2 294.50002 391.5 302 C 392.8 309.49998 401.5 335.80002 403.5 344 C 405.5 352.19998 402.3 348.8 403.5 351 C 404.7 353.2 409.6 355.6 410.5 357 C 411.4 358.4 409.6 359.4 409 359.5 C 408.4 359.6 407.6 357.6 407 357.5 C 406.4 357.4 405.3 358 405.5 359 C 405.7 360 407.2 363.2 408 363.5 C 408.8 363.8 409.1 360.6 410 360.5 C 410.9 360.4 413.4 362.2 413.5 363 C 413.6 363.8 410.2 364.2 410.5 365 C 410.8 365.8 414.8 367 415.5 368 C 416.2 369 413.4 369.4 414.5 371 C 415.6 372.6 420 376.8 422 377.5 C 424 378.2 426.9 380.59998 426.5 375 C 426.1 369.40002 421.2 349.69998 419.5 344 C 417.8 338.30002 416.8 342.2 416.5 341 C 416.2 339.8 417.8 339.5 417.5 337 C 417.2 334.5 416 329.7 414.5 326 C 413 322.3 409.3 317.8 408.5 315 C 407.7 312.2 410.7 314.19998 409.5 309 C 408.3 303.80002 402.8 289.29998 401.5 284 C 400.2 278.70002 402.2 279.2 401.5 277 C 400.8 274.8 398 272.8 397.5 271 C 397 269.2 398.7 267.8 398.5 266 C 398.3 264.2 396.6 261.2 396.5 260 C 396.4 258.8 390.90002 252.60002 398 258.5 C 405.09998 264.39998 428.70002 287.30002 439 295.5 C 449.29998 303.69998 454.20002 304.8 460 307.5 C 465.79998 310.2 467.20002 311.2 474 311.5 C 480.79998 311.8 494.50002 310.7 501 309.5 C 507.49998 308.3 508.7 307 513 304.5 C 517.3 302 520.80002 300.59998 527 294.5 C 533.19998 288.40002 541.50002 280.29998 550.5 268 C 559.49998 255.70002 573.20002 223.8 581 220.5 C 588.79998 217.2 590.90002 238.10002 597.5 248 C 604.09998 257.89998 612.60002 270.90002 620.5 280 C 628.39998 289.09998 637.10002 297.20002 645 302.5 C 652.89998 307.79998 660.20002 310.2 668 311.5 C 675.79998 312.8 684.70002 312 692 310.5 C 699.29998 309 704.50002 306.8 712 302.5 C 719.49998 298.2 728.20002 291.99998 737 284.5 C 745.79998 277.00002 760.1 261.8 765 257.5 C 766.55979 256.13121 767.39063 254.74582 767.93164 253.61914 C 767.56775 254.71709 767.1067 256.2586 766.5 259 C 763.8 271.19998 751.5 317.80002 748.5 331 C 745.5 344.19998 749.2 335.3 748.5 338 C 747.8 340.7 744.3 345.3 744.5 347 C 744.7 348.7 749.2 347.5 749.5 348 C 749.8 348.5 746.8 349 746.5 350 C 746.2 351 747.8 353 747.5 354 C 747.2 355 744.7 354.7 744.5 356 C 744.3 357.3 746.7 359.7 746.5 362 C 746.3 364.3 743.8 368 743.5 370 C 743.2 372 744.8 372.8 744.5 374 C 744.2 375.2 743 377.2 742 377.5 C 741 377.8 739.2 375 738.5 376 C 737.8 377 744.19998 383.6 738 383.5 C 731.80002 383.4 716.29996 377.8 701 375.5 C 685.70004 373.2 661.29996 370.8 646 369.5 C 630.70004 368.2 628.19996 367.7 609 367.5 C 589.80004 367.3 554.19996 367.3 531 368.5 C 507.80004 369.7 482.29998 373.2 470 374.5 C 457.70002 375.8 460.2 375.5 457 376.5 C 453.8 377.5 453.2 380.2 451 380.5 C 448.8 380.8 446.5 378 444 378.5 C 441.5 379 438.8 383 436 383.5 C 433.2 384 429.2 381 427 381.5 C 424.8 382 424.5 386.2 423 386.5 C 421.5 386.8 420.2 383.5 418 383.5 C 415.8 383.5 411.9 385.1 410 386.5 C 408.1 387.9 406.5 390.2 406.5 392 C 406.5 393.8 408.8 396.2 410 397.5 C 411.2 398.8 409.5 400 414 399.5 C 418.5 399 420.70004 396.8 437 394.5 C 453.29996 392.2 482.00006 387.3 512 385.5 C 541.99994 383.7 587.70006 382.8 617 383.5 C 646.29994 384.2 668.50004 387.5 688 389.5 C 707.49996 391.5 723.80002 393.8 734 395.5 C 744.19998 397.2 745.8 399.2 749 399.5 C 752.2 399.8 753.4 397.8 753.5 397 C 753.6 396.2 750.4 396.2 749.5 395 C 748.6 393.8 748.9 390.4 748 389.5 C 747.1 388.6 745.1 389.9 744 389.5 C 742.9 389.1 741.6 387.8 741.5 387 C 741.4 386.2 743.5 385.8 743.5 385 C 743.5 384.2 741.4 383.1 741.5 382 C 741.6 380.9 743.1 378.6 744 378.5 C 744.9 378.4 745.8 381.1 747 381.5 C 748.2 381.9 748.9 387.09998 751.5 381 C 754.1 374.90002 756.20002 369.99996 762.5 345 C 768.79998 320.00004 785.3 251.19996 789.5 231 C 793.7 210.80004 788.4 225.6 787.5 224 C 786.6 222.4 785.9 221.4 784 221.5 C 782.1 221.6 783.79998 217.50002 776 224.5 C 768.20002 231.49998 747.29998 253.80002 737 263.5 C 726.70002 273.19998 720.29998 277.8 714 282.5 C 707.70002 287.2 704 289.2 699 291.5 C 694 293.8 688.5 295.7 684 296.5 C 679.5 297.3 675.1 297.1 672 296.5 C 668.9 295.9 666.2 293.8 665.5 293 C 665.37566 292.8579 665.30155 292.71713 665.25391 292.58008 L 661.67773 291.64062 C 662.02254 292.78552 662.36119 293.68059 660 292.5 C 657.2 291.1 650.39998 287.4 645 282.5 C 639.60002 277.6 634.09998 271.59998 627.5 263 C 620.90002 254.40002 611.99998 241.49998 605.5 231 C 599.00002 220.50002 592.6 206.09998 588.5 200 C 584.4 193.90002 583.3 194.7 581 194.5 C 580.425 194.45 579.975 194.34336 579.5625 194.30273 C 579.40781 194.2875 579.25813 194.28135 579.10938 194.29102 z M 696.92578 212.75 C 697.61328 212.7375 698.30606 212.78828 698.99023 212.91016 C 698.30586 212.78828 697.61328 212.7375 696.92578 212.75 z M 696.92578 212.75 C 696.23828 212.7625 695.55586 212.83672 694.89648 212.96484 C 695.55605 212.83672 696.23828 212.7625 696.92578 212.75 z M 694.89648 212.96484 C 694.23711 213.09297 693.6 213.275 693 213.5 C 693.6 213.275 694.23692 213.09297 694.89648 212.96484 z M 693 213.5 C 692.4 213.725 691.76289 214.00078 691.12695 214.33203 C 691.76289 214.00078 692.4 213.725 693 213.5 z M 691.12695 214.33203 C 690.49102 214.66328 689.85547 215.05 689.26172 215.5 C 689.85547 215.05 690.49102 214.66328 691.12695 214.33203 z M 689.26172 215.5 C 688.66797 215.95 688.11602 216.46172 687.64258 217.04297 C 688.11602 216.46172 688.66797 215.95 689.26172 215.5 z M 687.64258 217.04297 C 687.16914 217.62422 686.775 218.275 686.5 219 C 686.775 218.275 687.16914 217.62422 687.64258 217.04297 z M 686.5 219 C 686.225 219.725 686.00664 220.6375 685.85352 221.64844 C 686.00664 220.6375 686.225 219.725 686.5 219 z M 685.85352 221.64844 C 685.70039 222.65937 685.61211 223.76797 685.59961 224.88672 C 685.61211 223.76797 685.70039 222.65937 685.85352 221.64844 z M 685.59961 224.88672 C 685.58711 226.00547 685.65 227.13516 685.79688 228.18359 C 685.65 227.13516 685.58711 226.00547 685.59961 224.88672 z M 685.79688 228.18359 C 685.94375 229.23203 686.175 230.2 686.5 231 C 686.175 230.2 685.94375 229.23203 685.79688 228.18359 z M 686.5 231 C 686.6625 231.4 686.90508 231.77734 687.20508 232.13672 C 686.90508 231.77734 686.6625 231.4 686.5 231 z M 687.20508 232.13672 C 687.50508 232.49609 687.86211 232.83711 688.25586 233.16211 C 687.86211 232.83711 687.50508 232.49609 687.20508 232.13672 z M 688.25586 233.16211 C 689.04336 233.81211 689.975 234.39922 690.875 234.94922 C 689.975 234.39922 689.04336 233.81211 688.25586 233.16211 z M 698.99023 212.91016 C 699.67441 213.03203 700.35 213.225 701 213.5 C 700.35 213.225 699.67461 213.03203 698.99023 212.91016 z M 701 213.5 C 701.65 213.775 702.35664 214.18086 703.07227 214.66992 C 702.35664 214.18086 701.65 213.775 701 213.5 z M 703.07227 214.66992 C 703.78789 215.15898 704.51172 215.73164 705.19922 216.33789 C 704.51172 215.73164 703.78789 215.15898 703.07227 214.66992 z M 705.19922 216.33789 C 705.88672 216.94414 706.53789 217.58438 707.10352 218.21094 C 706.53789 217.58438 705.88672 216.94414 705.19922 216.33789 z M 707.10352 218.21094 C 707.66914 218.8375 708.15 219.45 708.5 220 C 708.15 219.45 707.66914 218.8375 707.10352 218.21094 z M 708.5 220 C 708.85 220.55 709.14336 221.1 709.37305 221.65625 C 709.14336 221.1 708.85 220.55 708.5 220 z M 709.37305 221.65625 C 709.60273 222.2125 709.76953 222.77461 709.86328 223.34961 C 709.76953 222.77461 709.60273 222.2125 709.37305 221.65625 z M 709.86328 223.34961 C 709.95703 223.92461 709.97773 224.51289 709.91992 225.11914 C 709.97773 224.51289 709.95703 223.92461 709.86328 223.34961 z M 709.91992 225.11914 C 709.86211 225.72539 709.725 226.35 709.5 227 C 709.725 226.35 709.86211 225.72539 709.91992 225.11914 z M 709.5 227 C 709.275 227.65 708.89375 228.38203 708.41406 229.14453 C 708.89375 228.38203 709.275 227.65 709.5 227 z M 708.41406 229.14453 C 707.93438 229.90703 707.35703 230.69961 706.73828 231.47461 C 707.35703 230.69961 707.93438 229.90703 708.41406 229.14453 z M 706.73828 231.47461 C 705.50078 233.02461 704.1 234.5 703 235.5 C 704.1 234.5 705.50078 233.02461 706.73828 231.47461 z M 703 235.5 C 702.725 235.75 702.39629 235.8957 702.03516 235.9707 C 702.39629 235.8957 702.725 235.75 703 235.5 z M 702.03516 235.9707 C 701.67402 236.0457 701.28008 236.05078 700.87305 236.01953 C 701.28008 236.05078 701.67402 236.0457 702.03516 235.9707 z M 700.87305 236.01953 C 700.05899 235.95703 699.19375 235.75078 698.4375 235.67578 C 699.19375 235.75078 700.05899 235.95703 700.87305 236.01953 z M 467.02148 235.21875 C 467.06828 235.23472 467.10269 235.27656 467.12109 235.34766 C 467.10274 235.27654 467.06829 235.2349 467.02148 235.21875 z M 693.86328 238.36328 C 694.25703 238.34453 694.45351 238.50391 694.5332 238.54297 C 694.45351 238.50391 694.25703 238.34453 693.86328 238.36328 z M 693.86328 238.36328 C 693.66641 238.37266 693.41855 238.42676 693.11328 238.5625 C 693.41855 238.42676 693.66641 238.37266 693.86328 238.36328 z M 693.11328 238.5625 C 692.80801 238.69824 692.44531 238.91523 692.01172 239.25195 C 692.44531 238.91523 692.80801 238.69824 693.11328 238.5625 z M 692.01172 239.25195 C 691.57813 239.58867 691.07402 240.04395 690.49219 240.65625 C 691.07402 240.04395 691.57813 239.58867 692.01172 239.25195 z M 690.49219 240.65625 C 689.91035 241.26855 689.25 242.0375 688.5 243 C 689.25 242.0375 689.91035 241.26855 690.49219 240.65625 z M 688.5 243 C 685.50001 246.84999 679.125 255.09922 672.9375 263.38672 C 679.125 255.09922 685.50001 246.84999 688.5 243 z M 672.9375 263.38672 C 669.84375 267.53047 666.79687 271.6836 664.24219 275.30078 C 666.79687 271.6836 669.84375 267.53047 672.9375 263.38672 z M 707.44141 265.69141 C 708.76953 268.71328 709.875 271.3 710.5 273 C 709.875 271.3 708.76953 268.71328 707.44141 265.69141 z M 710.5 273 C 711.125 274.7 711.52539 275.87461 711.76758 276.70898 C 711.52539 275.87461 711.125 274.7 710.5 273 z M 711.76758 276.70898 C 712.00977 277.54336 712.09414 278.0375 712.08789 278.375 C 712.09414 278.0375 712.00977 277.54336 711.76758 276.70898 z M 712.08789 278.375 C 712.08164 278.7125 711.98359 278.89414 711.86328 279.10352 C 711.98359 278.89414 712.08164 278.7125 712.08789 278.375 z M 386.38672 276.26953 C 386.58828 276.25547 386.8 276.325 387 276.5 C 387.8 277.2 390.2 280.6 390.5 282 C 390.77128 283.26599 388.75856 283.63445 388.51758 284.6543 C 388.55068 284.44892 388.55771 284.23086 388.5 284 C 388.2 282.8 385.8 279.2 385.5 278 C 385.275 277.1 385.78203 276.31172 386.38672 276.26953 z M 449.82422 279.52734 C 449.94609 279.52574 450.07109 279.54488 450.1875 279.61328 C 450.07109 279.54498 449.94609 279.52534 449.82422 279.52734 z M 711.5 280 C 711.4 280.45 711.23164 280.84922 711.00977 281.20703 C 711.23164 280.84922 711.4 280.45 711.5 280 z M 711.00977 281.20703 C 710.78789 281.56484 710.51172 281.88086 710.19922 282.16211 C 710.51172 281.88086 710.78789 281.56484 711.00977 281.20703 z M 710.19922 282.16211 C 709.88672 282.44336 709.53789 282.68984 709.16602 282.91016 C 709.53789 282.68984 709.88672 282.44336 710.19922 282.16211 z M 660.83594 280.25781 C 659.86035 281.73027 659.0625 283 658.5 284 C 659.0625 283 659.86035 281.73027 660.83594 280.25781 z M 658.5 284 C 657.9375 285 657.55742 285.83828 657.32422 286.54102 C 657.55742 285.83828 657.9375 285 658.5 284 z M 657.32422 286.54102 C 657.09102 287.24375 657.00391 287.81055 657.02734 288.27148 C 657.00391 287.81055 657.09102 287.24375 657.32422 286.54102 z M 657.02734 288.27148 C 657.05078 288.73242 657.18516 289.08672 657.39258 289.36133 C 657.18516 289.08672 657.05078 288.73242 657.02734 288.27148 z M 657.39258 289.36133 C 657.6 289.63594 657.88047 289.83086 658.19922 289.97461 C 657.88047 289.83086 657.6 289.63594 657.39258 289.36133 z M 658.19922 289.97461 C 658.83672 290.26211 659.62461 290.34453 660.27148 290.44141 C 659.62461 290.34453 658.83672 290.26211 658.19922 289.97461 z M 708 283.5 C 707.6 283.675 707.21172 283.74453 706.80859 283.76953 C 707.21172 283.74453 707.6 283.675 708 283.5 z M 502.5 289 C 502.4579 289.46332 502.43525 290.05138 502.53125 290.55469 C 502.45955 290.04071 502.4587 289.45321 502.5 289 z M 692.8457 289.95703 C 691.80039 290.58203 690.825 291.125 690 291.5 C 690.825 291.125 691.80039 290.58203 692.8457 289.95703 z M 690 291.5 C 688.35 292.25 687.27539 292.75 686.15039 293.0625 C 687.27539 292.75 688.35 292.25 690 291.5 z M 686.15039 293.0625 C 685.58789 293.21875 685.01328 293.32813 684.34766 293.39844 C 685.01328 293.32813 685.58789 293.21875 686.15039 293.0625 z M 684.34766 293.39844 C 683.68203 293.46875 682.925 293.5 682 293.5 C 682.925 293.5 683.68203 293.46875 684.34766 293.39844 z M 682 293.5 C 681.075 293.5 679.91172 293.38086 678.64453 293.20117 C 679.91172 293.38086 681.075 293.5 682 293.5 z M 666.70898 291.54102 C 666.64106 291.54827 666.5684 291.55346 666.50586 291.5625 C 666.56869 291.55373 666.64099 291.54805 666.70898 291.54102 z M 477.39453 292.98047 C 477.51988 292.99927 477.65532 293.0117 477.7832 293.0293 C 477.65629 293.0113 477.51908 292.99957 477.39453 292.98047 z M 406.8457 349.49023 C 406.90977 349.47305 406.9625 349.475 407 349.5 C 407.3 349.7 407.8 351.8 407.5 352 C 407.2 352.2 405.6 351.4 405.5 351 C 405.4125 350.65 406.39727 349.61055 406.8457 349.49023 z " />
    <path
       id="path272-5"
       inkscape:label="part-1"
       d="m 583.65837,393.29138 c -17.17498,0.0188 -33.50587,0.71328 -46.63086,1.23828 -17.49998,0.7 -25.70002,1.3 -41,3 -15.29998,1.7 -41.00001,5 -51,7 -9.99999,2 -6.2,4.5 -9,5 -2.8,0.5 -5.2,-2 -8,-2 -2.8,0 -7,2.3 -9,2 -2,-0.3 -1.5,-3.7 -3,-4 -1.5,-0.3 -4.5,2 -6,2 -0.34664,3.38696 -1.07096,4.55507 0,9 6.09999,-5.29999 0.3,4.5 3,5 2.7,0.5 7.50001,-1.8 13,-2 5.49999,-0.2 16.2,1.2 20,1 1.47564,-0.0777 2.0541,-0.36719 2.29492,-0.70312 0.86463,0.0775 2.53113,0.0259 5.70508,-0.29688 11.79999,-1.2 41.20002,-6.3 66,-8 24.79998,-1.7 58.50002,-2.3 83,-2 24.49998,0.3 45.00002,2.2 64,4 18.99998,1.8 39.30001,5.8 50,7 10.69999,1.2 10,-0.7 14,0 4,0.7 7.2,3.5 10,4 2.8,0.5 5.1,-0.1 7,-1 1.9,-0.9 5,-3.2 4.5,-4.5 -0.5,-1.3 -5.4,-1.8 -7.5,-3.5 -2.1,-1.7 -3.5,-6.2 -5,-7 -1.5,-0.8 -2.2,2.3 -4,2 -1.8,-0.3 2.79999,-2 -7,-4 -9.79999,-2 -30.70002,-5.8 -52,-8 -21.29998,-2.2 -52.70002,-4.3 -76,-5 -5.82499,-0.175 -11.64415,-0.24453 -17.36914,-0.23828 z m -134.63086,25.23828 c 0.35886,-0.0552 0.0121,0.096 -0.44531,0.30664 0.0571,-0.14614 0.16384,-0.26334 0.44531,-0.30664 z"
       sodipodi:nodetypes="ssssssssccssscssssssssssssssssscs"
       style="fill:#ffff00" />
  </g>
  <g
     inkscape:groupmode="layer"
     id="layer4"
     inkscape:label="crown-jewels">
    <path
       id="part-21"
       inkscape:label="part-21"
       fill="#4363d8"
       fill-rule="evenodd"
       fill-opacity="0.85"
       d="m 482,365.5 c -1.2,0.4 -0.6,1.7 -5,-1 -4.4,-2.7 -18.1,-10.4 -21.5,-15.5 -3.4,-5.1 0.1,-9.8 1,-15 0.9,-5.2 3.3,-14 4.5,-16.5 1.2,-2.5 0.7,-2.7 2.5,1.5 1.8,4.2 5.7,20.3 8.5,23.5 2.8,3.2 8.8,-1.7 8.5,-4.5 -0.3,-2.8 -12,-12.3 -10.5,-12.5 1.5,-0.2 17.1,5.4 19.5,11.5 2.4,6.1 -3.7,20.2 -5,25 -1.3,4.8 -1.3,3.1 -2.5,3.5 z"
       style="display:inline" />
    <path
       id="part-20"
       inkscape:label="part-20"
       fill="#3cb44b"
       fill-rule="evenodd"
       fill-opacity="0.85"
       d="m 681,366.5 c -3.4,0.7 -2.9,-0.6 -4.5,-5.5 -1.6,-4.9 -8.9,-16.6 -5,-24 3.9,-7.4 23.3,-17.5 28.5,-20.5 5.2,-3 2.1,-0.4 2.5,2.5 0.4,2.9 -0.5,10.2 0,15 0.5,4.8 3.9,10.2 3,14 -0.9,3.8 -4.4,5.4 -8.5,8.5 -4.1,3.1 -12.6,9.3 -16,10 z M 697.5,344 c 1.3,-0.8 1.3,-1.9 1,-4 -0.3,-2.1 -0.8,-8.8 -2.5,-8.5 -1.7,0.3 -6.7,8.3 -7.5,10.5 -0.8,2.2 1,2.2 2.5,2.5 1.5,0.3 5.2,0.3 6.5,-0.5 z"
       style="display:inline" />
    <path
       id="part-15"
       inkscape:label="part-15"
       fill="#000075"
       fill-rule="evenodd"
       fill-opacity="0.85"
       d="m 581,358.5 c -3.8,2.3 -3.2,-1.6 -7.5,-7.5 -4.3,-5.9 -16.5,-20.2 -18,-28 -1.5,-7.8 4.9,-11.9 9,-19 4.1,-7.1 12.3,-19.8 15.5,-23.5 3.2,-3.7 2.6,-0.1 3.5,1.5 0.9,1.6 -1.3,1.5 2,8 3.3,6.5 16.2,23.2 18,31 1.8,7.8 -3.3,9.8 -7,16 -3.7,6.2 -11.7,19.2 -15.5,21.5 z m 0.5,-35.5 c 2.7,0 12.9,0.1 13,-4 0.1,-4.1 -9.8,-20.5 -12.5,-20.5 -2.7,0 -3.4,16.4 -3.5,20.5 -0.1,4.1 0.3,4 3,4 z"
       style="display:inline" />
  </g>
  <g
     inkscape:groupmode="layer"
     id="layer5"
     inkscape:label="crown-pearls">
    <path
       id="part-25"
       inkscape:label="part-25"
       fill="#f032e6"
       fill-rule="evenodd"
       fill-opacity="0.85"
       d="m 584,191.5 c -2.7,1.3 -6.2,0.3 -9,-1 -2.8,-1.3 -5.9,-4.6 -7.5,-6.5 -1.6,-1.9 -2,-2.3 -2,-5 0,-2.7 -0.1,-7.9 2,-11 2.1,-3.1 7.6,-6.2 10.5,-7.5 2.9,-1.3 4.8,-0.5 7,0 2.2,0.5 4.1,1.1 6,3 1.9,1.9 4.8,5.4 5.5,8.5 0.7,3.1 -0.1,8.2 -1,10 -0.9,1.8 -2.6,-1.1 -4.5,0.5 -1.9,1.6 -4.3,7.7 -7,9 z m -0.5,-5.5 c 1.3,-0.3 4.3,-1.9 5,-3 0.7,-1.1 0.8,-3.8 -0.5,-3.5 -1.3,0.3 -6.8,4.4 -7.5,5.5 -0.7,1.1 1.7,1.3 3,1 z"
       style="display:inline" />
    <path
       id="part-26"
       inkscape:label="part-26"
       fill="#bfef45"
       fill-rule="evenodd"
       fill-opacity="0.85"
       d="m 379,220.5 c -3.2,1.1 -7.8,0.6 -11,-1 -3.2,-1.6 -6.9,-5.9 -8.5,-8.5 -1.6,-2.6 -1.1,-5.9 -1,-7 0.1,-1.1 0,2 1.5,0.5 1.5,-1.5 6.4,-7.4 7.5,-9.5 1.1,-2.1 -1.7,-2.1 -1,-3 0.7,-0.9 3.7,-2.1 5.5,-2.5 1.8,-0.4 2.8,-0.7 5,0 2.2,0.7 5.9,1.9 8,4 2.1,2.1 4.1,5.3 4.5,8.5 0.4,3.2 -0.3,7.9 -2,11 -1.7,3.1 -5.3,6.4 -8.5,7.5 z M 371.5,206 c 1.2,-0.5 3.6,-2.8 4,-4 0.4,-1.2 -0.3,-3.3 -1.5,-3.5 -1.2,-0.2 -4.6,1.4 -5.5,2.5 -0.9,1.1 -0.5,3.2 0,4 0.5,0.8 1.8,1.5 3,1 z"
       style="display:inline" />
    <path
       id="part-27"
       inkscape:label="part-27"
       fill="#fabed4"
       fill-rule="evenodd"
       fill-opacity="0.85"
       d="m 786,219.5 c -2.4,0.7 -3.2,-0.9 -3.5,-1.5 -0.3,-0.6 1.9,-0.9 2,-2 0.1,-1.1 -0.4,-4.2 -1.5,-4.5 -1.1,-0.3 -3.8,2.9 -5,3 -1.2,0.1 -1.9,-0.3 -2.5,-2.5 -0.6,-2.2 -2.1,-7.6 -1,-11 1.1,-3.4 4.4,-7.6 7.5,-9.5 3.1,-1.9 7.4,-2.9 11,-2 3.6,0.9 8.4,5.1 10.5,7.5 2.1,2.4 1.8,4.8 2,7 0.2,2.2 -0.4,4.4 -1,6 -0.6,1.6 -1.3,2.9 -2.5,3.5 -1.2,0.6 -2.3,-1 -5,0 -2.7,1 -8.6,5.3 -11,6 z m 8.5,-6.5 c 0.8,-0.2 2.7,-1.4 3,-2 0.3,-0.6 -0.7,-1.7 -1.5,-1.5 -0.8,0.2 -3.2,1.9 -3.5,2.5 -0.3,0.6 1.2,1.2 2,1 z"
       style="display:inline" />
  </g>
  <g
     inkscape:groupmode="layer"
     id="layer3"
     inkscape:label="crown-background-right">
    <path
       id="path694"
       style="display:inline;opacity:0.18;fill:#ffff00;stroke:#000000"
       d="m 696.92578,212.75 c -1.375,0.025 -2.72578,0.3 -3.92578,0.75 -2.4,0.9 -5.4,2.6 -6.5,5.5 -1.1,2.9 -1.3,8.8 0,12 1.3,3.2 7.7,5 8,7 0.3,2 -10e-6,-2.69999 -6,5 -5.99999,7.69999 -25.5,33.00001 -30,41 -4.5,7.99999 2.7,5.6 3,7 0.0525,0.24524 0.0732,0.39561 0.14453,0.63086 l 3.64649,0.95898 C 665.0639,291.95255 665.68991,291.4175 668,291.5 c 2.8,0.1 10.3,2 14,2 3.7,0 4.7,-0.5 8,-2 3.3,-1.5 9,-5.7 12,-7 3,-1.3 4.4,-0.3 6,-1 1.6,-0.7 3.1,-1.7 3.5,-3.5 0.4,-1.8 1.5,-0.20001 -1,-7 -2.5,-6.79999 -12.7,-27.80001 -14,-34 -1.3,-6.19999 4.3,-1.5 6.5,-3.5 2.2,-2 5.6,-5.9 6.5,-8.5 0.9,-2.6 0.4,-4.8 -1,-7 -1.4,-2.2 -4.9,-5.4 -7.5,-6.5 -1.3,-0.55 -2.69922,-0.775 -4.07422,-0.75 z" />
  </g>
  <g
     inkscape:groupmode="layer"
     id="layer2"
     inkscape:label="crown-background-left"
     style="display:inline">
    <path
       id="path705"
       inkscape:label="part-2"
       d="M 465.88672,210.9375 C 464.89922,210.975 463.95,211.2 463,211.5 c -1.9,0.6 -4.1,1.1 -5.5,3.5 -1.4,2.4 -3.9,7.4 -3,11 0.9,3.6 6.5,8.5 8.5,10.5 2,2 5.6,-4.89999 3.5,1.5 -2.1,6.39999 -13.3,30.00001 -16,37 -2.7,6.99999 -0.7,3.4 0,5 0.7,1.6 2.9,3.8 4.5,4.5 1.6,0.7 1.7,-1.3 5,0 3.3,1.3 9.10001,6.4 15,8 5.09061,1.3805 14.44606,1.01983 18.61914,1.33203 l 9.12891,-2.6543 C 502.39566,290.6349 502.43845,289.67707 502.5,289 c 0.1,-1.1 7.69999,4.69999 2,-4 -5.69999,-8.69999 -31.5,-38.70001 -36,-48 -4.5,-9.29999 7.3,-5.5 9,-8 1.7,-2.5 1.2,-5 1,-7 -0.2,-2 -0.4,-3.2 -2,-5 -1.6,-1.8 -5.3,-4.6 -7.5,-5.5 -1.1,-0.45 -2.12578,-0.6 -3.11328,-0.5625 z"
       style="display:inline;fill:#0000ff" />
  </g>
  <g
     inkscape:groupmode="layer"
     id="layer-mustache"
     inkscape:label="l-mustache">
    <path
       id="part-8"
       inkscape:label="part-8"
       fill="#bfef45"
       fill-rule="evenodd"
       fill-opacity="0.85"
       d="M 475.0,690.5 C 468.0,691.3 458.0,690.8 453.0,690.5 C 448.0,690.2 448.0,689.7 445.0,688.5 C 442.0,687.3 438.2,685.8 435.0,683.5 C 431.8,681.2 428.2,678.8 425.5,675.0 C 422.8,671.2 419.7,666.0 418.5,661.0 C 417.3,656.0 416.9,650.2 418.5,645.0 C 420.1,639.8 424.4,633.1 428.0,629.5 C 431.6,625.9 436.2,624.5 440.0,623.5 C 443.8,622.5 447.2,622.2 451.0,623.5 C 454.8,624.8 460.1,628.2 462.5,631.0 C 464.9,633.8 465.3,637.3 465.5,640.0 C 465.7,642.7 464.4,645.2 463.5,647.0 C 462.6,648.8 461.5,649.8 460.0,650.5 C 458.5,651.2 455.4,652.1 454.5,651.0 C 453.6,649.9 455.2,645.9 454.5,644.0 C 453.8,642.1 452.1,640.1 450.0,639.5 C 447.9,638.9 444.1,639.4 442.0,640.5 C 439.9,641.6 438.2,643.4 437.5,646.0 C 436.8,648.6 437.0,653.5 437.5,656.0 C 438.0,658.5 438.1,659.1 440.5,661.0 C 442.9,662.9 448.2,666.4 452.0,667.5 C 455.8,668.6 458.7,668.5 463.0,667.5 C 467.3,666.5 469.0,667.5 478.0,661.5 C 487.0,655.5 506.7,638.0 517.0,631.5 C 527.3,625.0 533.0,624.0 540.0,622.5 C 547.0,621.0 554.7,622.2 559.0,622.5 C 563.3,622.8 563.3,623.3 566.0,624.5 C 568.7,625.7 572.1,626.8 575.0,629.5 C 577.9,632.2 582.1,637.2 583.5,641.0 C 584.9,644.8 584.0,649.2 583.5,652.0 C 583.0,654.8 582.9,655.4 580.5,658.0 C 578.1,660.6 572.6,665.4 569.0,667.5 C 565.4,669.6 565.7,669.7 559.0,670.5 C 552.3,671.3 539.7,670.0 529.0,672.5 C 518.3,675.0 504.0,682.5 495.0,685.5 C 486.0,688.5 482.0,689.7 475.0,690.5 Z" />
  </g>
  <g
     inkscape:groupmode="layer"
     id="layer1"
     inkscape:label="r-mustache">
    <path
       id="part-7"
       inkscape:label="part-7"
       fill="#f032e6"
       fill-rule="evenodd"
       fill-opacity="0.85"
       d="M 729.0,690.5 C 721.2,691.7 714.7,692.5 702.0,689.5 C 689.3,686.5 666.0,675.7 653.0,672.5 C 640.0,669.3 630.5,671.3 624.0,670.5 C 617.5,669.7 617.6,669.6 614.0,667.5 C 610.4,665.4 604.9,660.8 602.5,658.0 C 600.1,655.2 600.0,653.8 599.5,651.0 C 599.0,648.2 598.8,643.8 599.5,641.0 C 600.2,638.2 600.9,636.6 603.5,634.0 C 606.1,631.4 611.6,627.4 615.0,625.5 C 618.4,623.6 619.3,623.0 624.0,622.5 C 628.7,622.0 637.5,621.8 643.0,622.5 C 648.5,623.2 652.8,624.8 657.0,626.5 C 661.2,628.2 659.7,626.5 668.0,632.5 C 676.3,638.5 699.0,656.8 707.0,662.5 C 715.0,668.2 712.2,665.7 716.0,666.5 C 719.8,667.3 726.3,667.8 730.0,667.5 C 733.7,667.2 735.8,665.9 738.0,664.5 C 740.2,663.1 742.2,661.9 743.5,659.0 C 744.8,656.1 746.2,650.2 745.5,647.0 C 744.8,643.8 741.2,640.8 739.0,639.5 C 736.8,638.2 733.9,638.6 732.0,639.5 C 730.1,640.4 727.9,643.1 727.5,645.0 C 727.1,646.9 729.9,649.9 729.5,651.0 C 729.1,652.1 726.8,652.3 725.0,651.5 C 723.2,650.7 719.6,648.9 718.5,646.0 C 717.4,643.1 717.4,637.2 718.5,634.0 C 719.6,630.8 722.8,628.2 725.0,626.5 C 727.2,624.8 728.3,623.8 732.0,623.5 C 735.7,623.2 743.2,623.5 747.0,624.5 C 750.8,625.5 752.4,626.9 755.0,629.5 C 757.6,632.1 760.9,637.2 762.5,640.0 C 764.1,642.8 764.3,642.2 764.5,646.0 C 764.7,649.8 764.5,658.5 763.5,663.0 C 762.5,667.5 760.9,669.8 758.5,673.0 C 756.1,676.2 753.9,679.6 749.0,682.5 C 744.1,685.4 736.8,689.3 729.0,690.5 Z" />
  </g>
</svg>
