<?xml version="1.0" encoding="UTF-8" standalone="no"?>
<svg
   viewBox="255.17 95.30 301.20 413.18"
   width="301"
   height="413"
   version="1.1"
   id="svg936"
   sodipodi:docname="king_align.svg"
   inkscape:version="1.2.2 (b0a8486541, 2022-12-01)"
   xmlns:inkscape="http://www.inkscape.org/namespaces/inkscape"
   xmlns:sodipodi="http://sodipodi.sourceforge.net/DTD/sodipodi-0.dtd"
   xmlns="http://www.w3.org/2000/svg"
   xmlns:svg="http://www.w3.org/2000/svg"
   xmlns:sodipodi0="http://sodipodi.sourceforge.net/DTD/sodipodi-0.0.dtd">
  <defs
     id="defs940" />
  <sodipodi:namedview
     id="namedview938"
     pagecolor="#ffffff"
     bordercolor="#000000"
     borderopacity="0.25"
     inkscape:showpageshadow="2"
     inkscape:pageopacity="0.0"
     inkscape:pagecheckerboard="0"
     inkscape:deskcolor="#d1d1d1"
     showgrid="false"
     inkscape:zoom="1.7239709"
     inkscape:cx="150.23455"
     inkscape:cy="206.5"
     inkscape:window-width="1678"
     inkscape:window-height="912"
     inkscape:window-x="0"
     inkscape:window-y="0"
     inkscape:window-maximized="1"
     inkscape:current-layer="g934" />
  <g
     inkscape:groupmode="layer"
     inkscape:label="marduk-happy (align to this)"
     sodipodi0:insensitive="true"
     style="display:inline;opacity:0.5"
     id="g899">
    <path
       fill="#081c1a"
       d="m 526.963,274.054 c -0.303,-1.171 0.854,-1.047 0.25,-3.387 -1.297,-5.493 -2.953,-10.005 -4.713,-14.919 -1.047,-2.127 -1.268,-6.115 -2.568,-8.178 -0.336,-0.623 -0.734,-1.366 -1.193,-2.16 -0.498,-0.773 -1.039,-1.609 -1.588,-2.457 -1.059,-1.706 -2.354,-3.33 -3.348,-4.604 -0.979,-1.287 -1.828,-2.124 -2.072,-2.253 -0.27,-0.111 0.109,0.457 1.199,2.234 3.414,5.275 5.748,9.93 7.727,14.55 1.045,2.293 1.824,4.644 2.701,7.046 0.721,2.447 1.537,4.956 2.102,7.727 0.645,2.215 1.008,4.466 1.486,6.698 0.215,1.12 0.336,2.251 0.508,3.379 0.162,1.128 0.352,2.258 0.416,3.399 0.479,4.555 0.537,9.192 0.215,13.965 -0.121,1.333 -0.279,2.618 -0.533,3.868 -0.232,1.253 -0.453,2.487 -0.773,3.706 0.461,-1.582 0.746,-3.221 1.129,-4.903 0.301,-1.693 0.627,-3.448 0.85,-5.31 0.355,-2.45 0.205,-5.202 -0.191,-8.251 -0.234,-1.524 -0.434,-3.128 -0.711,-4.815 -0.342,-1.682 -0.575,-3.462 -0.893,-5.335 z"
       id="path284" />
    <path
       fill="#081c1a"
       d="m 520.225,242.4 c -7.707,-14.551 -18.338,-26.282 -30.285,-35.509 -1.068,-0.516 -1.871,-0.791 -3.047,-1.821 -0.818,-0.878 -1.758,-1.614 -2.688,-2.344 l -2.738,-1.861 c -0.938,-0.58 -1.873,-1.158 -2.803,-1.734 -0.672,-0.371 -1.352,-0.745 -2.041,-1.125 -0.01,-0.004 -0.043,-0.019 -0.059,-0.025 -1.15,-0.483 -0.91,-0.155 -0.324,0.355 0.682,0.524 1.27,1.065 1.766,1.533 -0.316,-0.296 -1.197,-1.027 -1.766,-1.533 -0.84,-0.621 -1.799,-1.273 -2.959,-1.979 -1.775,-0.939 -3.711,-1.767 -5.623,-2.796 2.219,0.951 4.115,1.827 5.623,2.796 1.145,0.564 2.242,1.106 3.342,1.649 0.32,0.152 0.639,0.305 0.973,0.464 -4.344,-2.561 -8.771,-4.942 -13.369,-6.971 -1.074,-0.431 -2.098,-0.842 -2.934,-1.178 -1.727,-0.583 -3.447,-1.166 -4.975,-1.766 -1.535,-0.577 -2.902,-1.105 -3.881,-1.733 -0.842,-0.283 -1.688,-0.611 -2.557,-0.874 0.152,0.078 0.316,0.163 0.471,0.243 -0.375,-0.152 -0.688,-0.28 -0.943,-0.384 -1.818,-0.535 -3.629,-1.126 -5.471,-1.618 -1.848,-0.464 -3.695,-0.962 -5.559,-1.402 -1.234,-0.129 -2.488,-0.26 -3.752,-0.392 l -1.895,-0.206 -1.906,-0.152 c 0,0 -1.641,-0.631 -2.447,-0.941 -1.061,0.102 -2.553,0.105 -4.285,0.029 2.008,0.524 3.795,1.17 5.473,1.671 2.412,0.882 5.801,-0.143 8.541,1.478 -2.74,-1.621 -6.129,-0.595 -8.541,-1.478 -1.678,-0.5 -3.465,-1.146 -5.473,-1.671 -1.799,-0.093 -3.842,-0.343 -5.917,-0.534 -2.071,-0.225 -4.157,-0.579 -6.03,-0.856 2.344,-0.23 4.497,-0.024 6.482,0.213 1.99,0.219 3.793,0.724 5.465,1.177 1.732,0.077 3.225,0.073 4.285,-0.029 0.807,0.31 2.447,0.941 2.447,0.941 l 1.906,0.152 1.895,0.206 c 1.264,0.131 2.518,0.262 3.752,0.392 -7.281,-1.692 -14.785,-2.767 -22.497,-3.282 -24.793,-1.666 -49.17,2.982 -70.947,13.708 -5.426,2.711 -10.725,5.737 -15.765,9.224 -5.033,3.493 -9.854,7.358 -14.392,11.622 -9.069,8.523 -16.9,18.769 -22.726,30.517 -6.308,12.727 -9.684,26.652 -9.936,40.482 -0.245,13.838 2.614,27.544 8.033,39.997 5.405,12.433 13.301,23.416 22.701,32.508 9.384,9.131 20.14,16.573 31.714,22.304 5.777,2.886 11.749,5.401 17.903,7.446 6.148,2.053 12.433,3.814 18.867,5.091 6.435,1.272 12.984,2.219 19.649,2.774 3.324,0.199 6.717,0.463 10.028,0.508 1.669,0.045 3.342,0.09 5.019,0.136 1.686,0 3.377,0 5.072,0 10.391,-0.051 25.499,-1.689 39.959,-6.543 l 2.699,-0.922 c 0.902,-0.295 1.793,-0.62 2.666,-0.997 1.754,-0.725 3.51,-1.42 5.223,-2.164 1.688,-0.818 3.354,-1.628 4.996,-2.424 1.635,-0.808 3.174,-1.763 4.713,-2.614 6.064,-3.582 11.293,-7.409 15.18,-10.898 2.561,-2.398 4.305,-4.656 5.707,-6.444 0.346,-0.452 0.67,-0.876 0.959,-1.286 0.264,-0.428 0.512,-0.827 0.742,-1.205 0.451,-0.757 0.811,-1.424 1.092,-2.012 1.125,-2.343 1.006,-3.394 0.346,-3.763 -1.334,-0.722 -4.76,1.198 -5.258,1.553 -1.67,1.186 -3.408,2.184 -4.992,3.294 -1.561,1.138 -3.188,2.161 -4.781,3.256 -0.791,0.556 -1.586,1.113 -2.389,1.682 -0.828,0.538 -1.666,1.085 -2.521,1.64 -0.854,0.554 -1.686,1.17 -2.588,1.728 -0.908,0.55 -1.84,1.111 -2.799,1.689 -3.797,2.348 -8.246,4.612 -13.648,6.801 -5.42,2.145 -11.908,3.981 -19.732,5.18 2.676,-0.378 4.408,-0.738 5.412,-0.846 1.006,-0.111 1.268,-0.028 0.918,0.209 -0.348,0.237 -1.309,0.627 -2.74,1.122 -1.432,0.491 -3.375,0.94 -5.635,1.499 -2.256,0.567 -4.904,0.931 -7.703,1.41 -1.412,0.188 -2.875,0.329 -4.361,0.486 -1.488,0.151 -2.998,0.313 -4.533,0.357 -1.531,0.057 -3.068,0.115 -4.596,0.174 -1.526,0.043 -3.051,-0.025 -4.539,-0.053 -2.974,-0.045 -5.832,-0.303 -8.411,-0.62 -7.434,-0.971 -15.4,-1.972 -23.78,-3.584 -8.354,-1.61 -17.099,-3.737 -25.712,-6.913 -8.609,-3.146 -17.174,-7.138 -24.957,-12.252 -3.941,-2.477 -7.595,-5.34 -11.1,-8.272 -1.678,-1.55 -3.426,-3.012 -4.966,-4.653 -0.785,-0.806 -1.581,-1.595 -2.343,-2.409 -0.731,-0.838 -1.462,-1.674 -2.188,-2.505 -0.738,-0.818 -1.438,-1.68 -2.128,-2.561 -0.701,-0.869 -1.41,-1.747 -2.126,-2.633 -1.326,-1.845 -2.795,-3.644 -4.07,-5.638 -2.698,-3.888 -5.183,-8.178 -7.334,-12.926 -5.373,-12.401 -7.854,-25.597 -7.325,-38.649 0.495,-13.041 4.019,-25.843 10.212,-37.465 12.375,-23.302 35.119,-41.669 62.713,-50.644 7.301,-2.432 14.307,-4.322 21.142,-5.734 6.833,-1.392 13.497,-2.378 20.081,-2.677 9.641,-0.378 19.842,1.35 27.456,2.836 3.016,0.534 5.881,1.242 8.68,1.869 2.764,0.753 5.48,1.377 8.063,2.216 5.221,1.507 10.07,3.313 14.766,5.224 -5.18,-2.284 -9.762,-4.037 -14.613,-5.468 -2.4,-0.797 -4.906,-1.377 -7.529,-2.095 -1.328,-0.298 -2.693,-0.606 -4.109,-0.927 -1.412,-0.342 -2.896,-0.612 -4.447,-0.885 -4.121,-0.777 -2.639,-0.852 0.604,-0.633 1.629,0.078 3.672,0.346 5.662,0.648 2.002,0.258 3.918,0.664 5.293,0.982 2.418,0.37 5.592,2.812 7.936,3.328 2.416,0.964 4.834,1.644 7.215,2.562 1.199,0.441 2.428,0.848 3.664,1.322 1.225,0.505 2.477,1.022 3.777,1.558 2.279,0.844 1.473,1.772 2.59,2.214 1.719,0.828 3.34,1.609 4.877,2.35 1.535,0.748 3.039,1.375 4.383,2.102 1.359,0.705 2.66,1.354 3.832,2.063 1.156,0.732 2.217,1.475 3.156,2.266 2.863,2.394 5.332,4.68 7.621,7.011 0.762,0.696 1.486,1.424 2.209,2.175 0.73,0.741 1.482,1.482 2.277,2.229 1.014,0.897 2.01,1.886 3.039,2.846 -0.5,-1.048 -0.465,-1.632 -0.408,-2.199 0.668,0.773 1.449,1.728 2.221,2.685 0.729,0.996 1.455,1.987 2.084,2.789 -0.629,-0.802 -1.355,-1.793 -2.084,-2.789 -0.771,-0.958 -1.553,-1.912 -2.221,-2.685 -0.057,0.567 -0.092,1.15 0.408,2.199 3.588,3.537 7.299,7.569 10.529,12.098 3.268,4.498 6.199,9.376 8.605,14.308 0.014,-0.053 0.027,-0.122 0.039,-0.177 -2.662,-5.847 -5.598,-11.346 -8.844,-17.252 1.418,2.546 0.951,2.413 -0.941,-0.271 -0.303,-0.818 -0.691,-1.584 -1.033,-2.369 3.658,4.436 7.037,9.23 8.754,14.477 0,0 0.355,0.51 0.736,1.178 0.395,0.664 0.867,1.461 1.18,1.988 0.627,1.721 0.266,1.784 0.148,2.25 0.49,1.151 0.986,2.318 1.48,3.486 -0.232,-1.339 -0.92,-4.07 -1.787,-6.391 -0.763,-2.362 -1.649,-4.314 -1.649,-4.314 z"
       id="path286" />
    <path
       fill="#081c1a"
       d="m 473.168,196.257 c 0.789,0.402 1.76,0.896 2.793,1.423 -3.652,-2.092 -7.379,-4.07 -11.236,-5.811 0.457,0.349 1.012,0.691 1.637,1.031 0.621,0.355 1.303,0.73 2.037,1.094 1.46,0.743 3.15,1.424 4.769,2.263 z"
       id="path288" />
    <path
       fill="#081c1a"
       d="m 512.338,341.377 c 0.314,-0.533 0.789,-1.337 1.184,-2.008 0.371,-0.686 0.668,-1.235 0.668,-1.235 3.807,-4.092 6.49,-9.379 8.609,-14.78 -0.531,0.686 -1.029,1.398 -1.598,2.085 -1.443,2.967 -1.346,3.467 0.217,0.95 -3.656,5.726 -7.137,11.006 -11.023,16.229 0.498,-0.13 0.716,0.148 1.943,-1.241 z"
       id="path295" />
    <path
       fill="#081c1a"
       d="m 354.375,467.427 c -0.119,-0.163 1.006,-0.075 0.768,-0.399 -0.285,-0.741 -0.764,-1.388 -0.738,-2.069 -0.238,-0.323 1.031,-0.752 0.792,-1.072 -0.286,-0.745 -1.719,-2.694 -1.697,-1.591 0.097,1.664 0.355,2.76 0.5,4.253 0.401,1.227 0.89,2.408 1.245,3.655 0.039,0.347 -0.061,0.665 -0.151,0.989 0.193,-0.418 0.384,-0.845 0.571,-1.318 0.335,-0.62 -1.076,-1.444 -1.29,-2.448 z"
       id="path338" />
    <path
       fill="#081c1a"
       d="m 357.739,476.548 c -0.12,-0.156 -0.358,-0.473 -0.358,-0.473 0.84,-0.666 0.553,-1.397 0.268,-2.133 l -0.576,0.304 c 0.047,0.417 0.359,0.473 0.621,0.114 -0.721,0.819 -0.859,1.616 -0.779,2.438 0.307,-0.044 0.658,-0.023 0.824,-0.25 z"
       id="path340" />
    <path
       fill="#081c1a"
       d="m 357.771,463.441 c 0.021,-2.062 0.215,-3.994 0.459,-5.876 -0.21,-0.158 -0.457,-0.276 -0.312,-0.464 0.204,-0.135 0.339,-0.276 0.43,-0.418 l 0.116,-0.821 c -0.022,-0.097 -0.045,-0.197 -0.067,-0.295 l -0.006,-0.011 c -0.117,-0.163 -0.294,-0.127 -0.466,-0.041 -0.127,0.098 -0.273,0.188 -0.428,0.262 0.1,-0.048 0.26,-0.18 0.428,-0.262 0.15,-0.122 0.273,-0.261 0.349,-0.426 -0.052,-0.257 -0.075,-0.521 0.009,-0.79 0.113,0.313 0.096,0.572 -0.009,0.79 0.034,0.161 0.08,0.318 0.123,0.478 l 0.091,0.139 0.291,-1.872 c -0.02,-0.146 -0.035,-0.285 -0.064,-0.4 -0.119,-0.463 -0.239,-0.927 0.326,-1.17 l 0.057,-0.333 c -0.035,0.019 -0.066,0.036 -0.105,0.057 0.037,-0.049 0.077,-0.087 0.115,-0.12 0.08,-0.468 0.16,-0.938 0.242,-1.411 -0.191,-0.323 -0.436,-0.659 -0.572,-0.991 0,0 0.388,-0.185 0.582,-0.276 -0.273,-0.15 -0.445,-0.349 -0.525,-0.571 -0.354,0.23 -0.74,0.438 -0.986,0.641 -0.584,0.277 1.079,0.796 -0.006,1.095 1.085,-0.299 -0.578,-0.817 0.006,-1.095 0.246,-0.202 0.633,-0.41 0.986,-0.641 -0.17,-0.465 0.07,-1.033 0.65,-1.46 0.436,0.618 -0.057,1.074 -0.65,1.46 0.08,0.223 0.252,0.421 0.525,0.571 -0.194,0.092 -0.582,0.276 -0.582,0.276 0.137,0.332 0.381,0.668 0.572,0.991 0.158,-0.923 0.318,-1.854 0.481,-2.806 1.172,-6.111 1.604,-11.797 2.708,-18.13 0.693,-3.422 1.525,-6.689 2.525,-9.866 0.977,-3.167 1.346,-6.257 1.846,-9.339 0.502,-3.083 1.23,-6.146 3.08,-9.21 1.304,-2.368 1.424,-7.049 1.654,-9.461 -1.373,-3.435 -6.397,-2.556 -6.691,-2.43 -4.383,1.39 -2.332,3.29 -5.309,7.041 1.738,-2.593 2.352,2.406 -0.791,4.664 -4.799,3.259 -2.006,9.153 -3.675,13.727 -0.424,1.146 -0.357,2.423 -0.593,3.825 -1.117,3.578 -1.404,7.124 -1.555,10.725 -0.1,3.608 -0.047,7.274 -0.56,11.115 -0.157,2.048 0.685,3.922 1.155,5.691 0.105,1.271 -0.537,2.573 -0.605,3.598 -0.1,1.61 0.199,3.022 0.603,4.379 -0.104,-1.492 -0.332,-2.597 -0.39,-4.261 0.008,-1.104 1.39,0.871 1.656,1.62 0.231,0.328 -1.051,0.73 -0.818,1.061 -0.045,0.679 0.416,1.336 0.685,2.083 0.229,0.328 -0.893,0.218 -0.778,0.383 0.187,1.009 1.577,1.863 1.227,2.476 -0.201,0.471 -0.404,0.895 -0.605,1.307 -0.08,0.264 -0.149,0.525 -0.125,0.812 0.081,0.182 0.163,0.367 0.246,0.554 0.354,-0.124 0.779,-0.15 1.206,-0.174 -0.079,0.257 -0.353,0.611 -0.434,0.87 0.081,-0.259 0.354,-0.613 0.434,-0.87 -0.427,0.023 -0.852,0.05 -1.206,0.174 0.563,1.344 1.125,2.882 1.541,4.304 l 0.1,-0.015 c -0.078,-0.822 0.057,-1.615 0.778,-2.425 -0.265,0.354 -0.575,0.293 -0.623,-0.13 l 0.575,-0.291 c 0.285,0.747 0.572,1.486 -0.268,2.134 0,0 0.24,0.324 0.358,0.484 -0.165,0.224 -0.519,0.194 -0.821,0.228 0.014,0.161 0.04,0.323 0.069,0.487 0.575,-0.315 1.341,-1.35 1.341,-1.35 z"
       id="path342" />
    <path
       fill="#081c1a"
       d="m 358.308,455.074 c 0.03,0.112 0.045,0.25 0.063,0.397 l 0.262,-1.571 c -0.565,0.244 -0.445,0.708 -0.325,1.174 z"
       id="path344" />
    <path
       fill="#081c1a"
       d="m 464.984,474.932 c -0.129,-0.16 1,-0.115 0.744,-0.434 -0.322,-0.745 -0.834,-1.367 -0.844,-2.054 -0.246,-0.301 0.967,-0.842 0.705,-1.152 -0.352,-0.747 -1.945,-2.545 -1.828,-1.439 0.25,1.654 0.596,2.729 0.801,4.212 0.488,1.214 0.941,2.374 1.32,3.652 0.039,0.354 -0.088,0.666 -0.189,0.985 0.213,-0.408 0.434,-0.831 0.605,-1.316 0.331,-0.64 -1.077,-1.469 -1.314,-2.454 z"
       id="path346" />
    <path
       fill="#081c1a"
       d="m 468.117,470.594 c -0.127,-2.173 -0.242,-4.214 -0.316,-6.216 -0.232,-0.132 -0.498,-0.215 -0.387,-0.433 0.178,-0.175 0.285,-0.343 0.354,-0.506 l -0.027,-0.876 c -0.039,-0.097 -0.078,-0.197 -0.119,-0.298 l -0.006,-0.008 c -0.143,-0.148 -0.309,-0.08 -0.467,0.037 -0.107,0.124 -0.238,0.242 -0.377,0.347 0.092,-0.066 0.225,-0.231 0.377,-0.347 0.129,-0.151 0.229,-0.316 0.27,-0.503 -0.102,-0.255 -0.174,-0.525 -0.145,-0.819 0.172,0.302 0.203,0.576 0.145,0.819 0.068,0.161 0.137,0.317 0.203,0.474 l 0.113,0.131 c -0.02,-0.668 -0.041,-1.332 -0.064,-1.998 -0.049,-0.15 -0.09,-0.292 -0.143,-0.405 -0.205,-0.46 -0.412,-0.915 0.094,-1.278 l -0.008,-0.359 c -0.031,0.027 -0.059,0.053 -0.094,0.08 0.027,-0.058 0.061,-0.104 0.09,-0.146 -0.02,-0.502 -0.041,-1.006 -0.063,-1.515 -0.254,-0.295 -0.564,-0.591 -0.768,-0.9 0,0 0.34,-0.276 0.508,-0.414 -0.299,-0.097 -0.508,-0.263 -0.635,-0.477 -0.293,0.316 -0.631,0.614 -0.826,0.874 -0.512,0.411 1.225,0.588 0.225,1.128 1,-0.54 -0.736,-0.717 -0.225,-1.128 0.195,-0.26 0.533,-0.558 0.826,-0.874 -0.262,-0.442 -0.158,-1.078 0.309,-1.651 0.566,0.538 0.193,1.121 -0.309,1.651 0.127,0.214 0.336,0.38 0.635,0.477 -0.168,0.138 -0.508,0.414 -0.508,0.414 0.203,0.31 0.514,0.605 0.768,0.9 -0.045,-0.991 -0.088,-1.992 -0.135,-3.015 -0.277,-6.593 -1.514,-12.526 -2.379,-19.286 -0.445,-3.673 -0.736,-7.233 -0.881,-10.77 -0.297,-7.067 -3.295,-12.821 -2.35,-20.327 0.273,-2.866 -1.578,-7.56 -2.414,-10.041 -2.777,-2.867 -6.91,0.258 -7.127,0.48 -3.375,3.172 -0.717,4.128 -1.916,8.916 0.553,-3.188 3.139,1.392 1.107,4.79 -3.137,4.942 1.594,9.574 1.668,14.62 0.01,1.258 0.508,2.479 0.754,3.926 0.281,7.709 3.52,14.201 4.586,22.075 0.361,2.06 1.707,3.704 2.533,5.364 0.396,1.25 0.043,2.694 0.186,3.727 0.248,1.627 0.797,2.973 1.453,4.261 -0.389,-1.479 -0.807,-2.536 -1.219,-4.188 -0.225,-1.108 1.539,0.578 1.959,1.288 0.291,0.287 -0.893,0.945 -0.6,1.229 0.086,0.69 0.662,1.264 1.068,1.975 0.289,0.29 -0.838,0.379 -0.691,0.524 0.352,0.977 1.867,1.616 1.627,2.299 -0.123,0.509 -0.24,0.971 -0.385,1.415 -0.043,0.28 -0.072,0.555 -0.006,0.84 0.104,0.173 0.215,0.352 0.32,0.531 0.336,-0.175 0.75,-0.259 1.17,-0.34 -0.043,0.274 -0.262,0.672 -0.305,0.944 0.043,-0.272 0.262,-0.67 0.305,-0.944 -0.42,0.081 -0.834,0.165 -1.17,0.34 0.779,1.285 1.434,2.799 1.98,4.234 l 0.102,-0.022 c -0.152,-0.846 -0.088,-1.671 0.559,-2.599 -0.232,0.399 -0.547,0.366 -0.633,-0.063 l 0.539,-0.369 c 0.367,0.74 0.707,1.495 -0.068,2.25 0,0 0.268,0.315 0.4,0.472 -0.145,0.249 -0.5,0.249 -0.797,0.309 0.027,0.165 0.068,0.331 0.109,0.499 0.549,-0.367 1.221,-1.525 1.221,-1.525 z"
       id="path348" />
    <path
       fill="#081c1a"
       d="m 467.67,484.545 c -0.084,-0.193 -0.246,-0.583 -0.246,-0.583 0.996,-0.538 0.805,-1.414 0.609,-2.225 l -0.607,0.25 c -0.004,0.442 0.297,0.553 0.6,0.202 -0.785,0.788 -1.117,1.554 -1.213,2.423 0.308,0.03 0.644,0.137 0.857,-0.067 z"
       id="path297" />
    <path
       fill="#081c1a"
       d="m 531.238,276.676 c 0.096,-0.779 0.236,-1.176 0.479,0.08 0,0.016 0.002,0.031 0.006,0.052 -0.174,-1.238 -0.291,-2.47 -0.557,-3.737 0.166,1.34 0.107,2.562 0.072,3.605 z"
       id="path293" />
    <path
       fill="#081c1a"
       d="m 531.762,293.013 c 0.09,-1.192 0.184,-2.386 0.275,-3.585 l 0.117,-3.604 c -0.111,1.208 -0.262,2.399 -0.49,3.612 -0.238,1.552 -0.043,2.38 0.098,3.577 z"
       id="path291" />
    <path
       fill="#888888"
       d="m 413.6,364.12 h -2.47 -2.47 l -2.28,-0.45 -2.28,-0.44 -2.28,-0.45 -2.29,-0.45 -2.09,-0.9 -2.14,-0.79 -2.05,-1.01 -2.1,-0.89 -2.01,-1.11 -2,-1.14 -1.89,-1.4 -1.93,-1.29 -1.91,-1.35 -1.79,-1.64 -1.87,-1.43 -1.75,-1.74 -1.74,-1.75 -1.56,-1.56 -1.75,-1.74 -1.58,-1.81 -1.59,-1.81 -1.43,-1.88 -1.11,-2.01 -1.11,-2 -1.05,-2.04 -0.45,-2.28 0.45,-2.28 0.45,-2.28 0.94,-2.08 1.43,-1.88 1.74,-1.74 1.75,-1.75 1.88,-1.43 2.14,-0.79 2.27,-0.47 2.38,-0.21 2.28,0.45 2.1,0.9 2.06,0.98 1.95,1.26 1.8,1.6 1.88,1.43 1.75,1.74 1.87,1.43 2.06,0.98 2.1,0.9 2.09,0.9 2.29,0.45 2.28,0.45 2.28,0.44 2.47,0.01 h 2.47 l 2.28,-0.45 2.4,-0.17 2.16,-0.73 2.25,-0.54 2.01,-1.11 1.87,-1.43 1.88,-1.43 1.88,-1.42 1.95,-1.25 2.06,-0.97 2.13,-0.83 2.28,-0.45 2.28,-0.44 2.29,0.44 2.28,0.45 2.1,0.9 1.88,1.4 1.75,1.74 1.57,1.82 1.29,1.93 0.79,2.14 0.17,2.4 v 2.47 l -0.63,2.21 -0.72,2.17 -0.9,2.09 -1.34,1.91 -1.16,1.99 -1.43,1.88 -1.43,1.87 -1.74,1.75 -1.75,1.74 -1.76,1.71 -1.86,1.47 -1.88,1.42 -1.87,1.43 -2.01,1.11 -1.93,1.3 -2.09,0.92 -2.01,1.11 -2.14,0.79 -2.15,0.77 -2.13,0.82 -2.25,0.53 -2.28,0.44 z"
       id="path889" />
    <path
       fill="#888888"
       d="m 341.3,235.31 h -0.83 -0.83 l -0.65,-0.45 -0.7,-0.32 -0.72,-0.27 -0.7,-0.31 -0.61,-0.55 -0.69,-0.35 -0.62,-0.51 -0.58,-0.59 -0.59,-0.59 -0.59,-0.59 -0.59,-0.58 -0.5,-0.63 -0.36,-0.68 -0.09,-0.8 0.45,-0.64 0.45,-0.65 0.41,-0.66 0.59,-0.59 0.59,-0.59 0.65,-0.43 0.66,-0.43 0.82,-0.01 h 0.83 l 0.77,-0.16 0.71,-0.29 0.65,-0.45 0.67,-0.39 0.59,-0.59 0.68,-0.37 0.65,-0.45 0.7,-0.31 0.77,-0.14 0.67,-0.4 0.81,-0.05 0.76,-0.18 0.72,-0.26 0.72,-0.28 0.72,-0.27 0.69,-0.35 0.75,-0.19 0.72,-0.27 0.65,-0.44 0.79,-0.11 0.69,-0.34 0.75,-0.2 0.73,-0.25 h 0.83 0.83 0.84 0.83 0.83 0.83 0.84 l 0.71,0.29 0.59,0.59 0.59,0.58 -0.31,0.59 0.72,0.12 0.59,-0.16 0.58,0.59 0.59,0.59 -0.23,0.59 -0.59,0.59 -0.59,0.59 -0.59,0.58 -0.58,0.59 -0.59,0.59 -0.59,-0.56 -0.7,-0.32 -0.61,0.53 -0.27,0.72 -0.59,0.59 -0.59,0.59 -0.03,0.82 -0.51,0.62 -0.59,0.59 -0.64,0.47 -0.67,0.39 -0.59,0.59 -0.59,0.58 -0.58,0.59 -0.72,0.27 -0.59,0.59 -0.72,0.27 -0.71,0.32 -0.64,0.44 -0.68,0.37 -0.59,0.59 -0.59,0.59 -0.59,0.59 -0.6,0.56 -0.71,-0.3 -0.77,-0.15 -0.67,-0.4 -0.81,-0.05 -0.76,0.17 -0.59,0.59 z"
       id="path891" />
    <path
       fill="#888888"
       d="m 468.38,229.47 -0.79,-0.34 -0.66,-0.66 -0.79,-0.35 -0.66,0.66 -0.79,0.14 -0.66,-0.04 -0.88,0.14 -0.74,-0.45 -0.76,-0.44 -0.65,-0.66 -0.48,-0.73 -0.53,-0.11 -0.66,-0.23 -0.66,0.66 -0.66,-0.32 -0.66,-0.16 -0.79,0.34 -0.8,0.31 -0.78,-0.38 -0.9,-0.07 h -0.94 -0.93 l -0.92,-0.03 -0.76,-0.42 -0.82,-0.26 -0.67,0.26 -0.78,0.37 -0.9,0.08 -0.69,-0.6 -0.66,-0.66 -0.65,-0.66 -0.66,-0.66 -0.66,0.43 -0.79,0.35 -0.75,-0.45 -0.84,-0.22 -0.66,-0.66 -0.66,-0.66 -0.66,-0.66 -0.66,-0.66 -0.66,-0.66 -0.34,-0.79 -0.66,-0.66 -0.34,-0.79 -0.66,-0.66 -0.09,-0.9 -0.44,-0.74 v -0.94 l 0.51,-0.71 0.66,-0.66 0.66,-0.66 0.67,-0.64 0.78,-0.37 0.8,-0.34 0.85,-0.18 0.86,0.18 0.82,0.27 0.76,0.41 0.92,0.03 h 0.93 0.94 0.93 0.93 0.93 0.94 l 0.74,0.45 0.91,0.06 0.77,0.39 0.75,0.45 0.86,0.18 0.79,0.35 0.78,0.37 0.8,0.31 0.79,0.34 0.79,0.34 0.79,0.35 0.75,0.45 0.7,0.55 0.66,0.66 0.66,0.66 0.66,0.66 0.66,0.66 0.66,0.66 0.66,0.65 0.66,0.66 0.35,0.79 0.65,0.66 0.66,0.66 -0.07,0.79 -0.66,0.66 0.28,0.8 0.66,0.65 0.66,-0.35 0.66,-0.66 0.79,-0.02 0.66,0.66 0.66,0.66 -0.16,0.79 -0.66,0.66 z"
       id="path893" />
    <path
       fill="#888888"
       d="m 359.71,288.72 -0.99,-0.45 h -1.18 l -1.12,-0.15 -0.96,-0.52 -0.97,-0.51 -0.93,-0.62 -0.87,-0.73 -0.83,-0.84 v -1.18 l -0.45,-0.99 -0.15,-1.12 -0.3,-1.05 v -1.18 l -0.45,-1 v -1.18 -1.18 -1.18 -1.18 -1.18 l 0.41,-1.01 0.04,-1.16 0.04,-1.16 0.41,-1.01 0.45,-1 0.06,-1.15 0.52,-0.97 0.51,-0.96 0.52,-0.97 0.52,-0.96 0.83,-0.84 0.52,-0.96 0.83,-0.84 0.97,-0.51 0.86,-0.78 0.94,-0.58 0.97,-0.51 0.96,-0.52 1.1,-0.2 1,-0.44 1.06,-0.27 1.11,-0.18 h 1.18 1.18 1.18 1.18 l 0.99,0.45 1.13,0.14 1.05,0.31 0.99,0.45 0.99,0.45 1,0.45 1.06,0.29 0.96,0.51 0.96,0.54 0.98,0.5 0.83,0.83 0.83,0.84 0.76,0.86 0.45,1 0.45,0.99 0.45,0.99 v 1.18 1.18 1.18 l -0.45,1 -0.45,0.99 -0.58,0.94 -0.52,0.97 -0.96,0.51 -1.02,0.41 -0.43,0.76 0.82,0.84 0.53,0.96 0.84,0.83 0.52,0.97 0.35,1.03 0.22,0.9 -0.22,1.09 -0.87,0.7 -1.17,0.02 -1.01,0.43 -0.99,0.44 -1.03,0.36 -1.1,0.2 -0.97,0.52 -1.06,0.27 -1,0.45 -0.96,0.51 -1.02,0.39 -1,0.45 -0.99,0.44 -1,0.45 -0.99,0.45 -1.06,0.29 -1.1,0.19 -1.01,0.42 -1.05,0.3 -1.12,0.15 h -1.18 z"
       id="path895" />
    <path
       fill="#888888"
       d="m 462.99,285.13 h -1 -1.01 -1.01 l -0.82,-0.45 h -1 l -0.87,-0.33 -0.96,-0.12 -0.86,-0.35 -0.97,-0.1 -0.85,-0.37 -0.97,-0.08 -0.85,-0.39 -0.98,-0.06 h -1.01 l -0.82,-0.45 h -1 -1.01 l -0.89,-0.27 -0.94,-0.17 -0.88,-0.3 -0.85,-0.39 -0.91,-0.21 -0.83,-0.45 -0.79,-0.52 -0.84,-0.4 -0.65,-0.73 -0.45,-0.82 -0.4,-0.85 -0.08,-0.97 -0.42,-0.83 v -1.01 -1 -1.01 -1.01 l 0.04,-0.99 0.41,-0.83 0.06,-0.99 0.39,-0.84 0.45,-0.82 0.34,-0.86 0.4,-0.85 0.61,-0.75 0.49,-0.8 0.72,-0.71 0.71,-0.71 0.71,-0.72 0.71,-0.71 0.71,-0.71 0.85,-0.39 0.84,-0.4 0.71,-0.71 0.84,-0.39 0.96,-0.11 0.82,-0.45 0.88,-0.31 0.95,-0.14 0.82,-0.45 h 1.01 l 0.99,-0.03 0.84,-0.42 h 1 1.01 l 0.92,0.21 0.91,0.24 0.91,0.23 0.84,0.39 0.84,0.4 0.72,0.71 0.71,0.71 0.71,0.71 0.39,0.84 0.27,0.9 0.45,0.82 v 1 l -0.22,0.92 -0.06,0.84 0.4,0.84 0.71,0.72 0.08,0.97 0.44,0.82 v 1.01 l 0.42,0.83 0.03,1 0.44,0.82 0.01,1 0.15,0.95 0.3,0.88 v 1.01 1 l 0.45,0.82 V 279 l -0.45,0.82 v 1 l -0.37,0.86 -0.39,0.84 -0.72,0.71 -0.71,0.72 -0.84,0.39 -0.87,0.34 z"
       id="path897" />
  </g>
  <g
     inkscape:groupmode="layer"
     inkscape:label="king (move/scale onto marduk)"
     id="g934"
     transform="translate(2.0013289,-12.007974)">
    <g
       id="king-group"
       transform="matrix(0.45949,0,0,0.45949,136.05734,30.724615)">
      <g
         inkscape:label="head"
         id="king-head">
        <path
           id="path272"
           inkscape:label="part-1"
           d="m 403,410.5 c -1.3,1 -2.8,1.8 -4,1 -1.2,-0.8 -1.8,-6 -3,-6 -1.2,0 -1.7,4 -4,6 -2.3,2 -6.9,3.6 -10,6 -3.1,2.4 -5.1,4.7 -8.5,8.5 -3.4,3.8 -6.70001,6.70001 -12,14 -5.29999,7.29999 -14.80001,21.30001 -20,30 -5.19999,8.69999 -7.3,13.00001 -11,22 -3.7,8.99999 -8.3,22.50001 -11,32 -2.7,9.49999 -4,12.50001 -5,25 -1,12.49999 -2,35.50001 -1,50 1,14.49999 4.2,26.20001 7,37 2.8,10.79999 6.8,20.30001 10,28 3.2,7.69999 3.30001,9.00001 9,18 5.69999,8.99999 14.40001,23.90001 25,36 10.59999,12.09999 24.40001,25.60001 38.5,36.5 14.09999,10.89999 30.60002,21.10001 46,29 15.39998,7.89999 39.13358,16.62765 46.5,18.5 5.97489,1.51866 8.48113,2.66363 13.5,3.5 8.38437,1.39722 33.70002,7.8 49,10 15.29998,2.2 28.20001,2.8 43,3 14.79999,0.2 30.70002,-0.2 46,-2 15.29998,-1.8 32.00001,-5.2 46,-9 13.99999,-3.8 26.50001,-8.70001 38,-14 11.49999,-5.29999 21.80001,-11.60001 31,-18 9.19999,-6.39999 18.40001,-14.40001 24.5,-20.5 6.09999,-6.09999 9.5,-11.8 12,-16 2.5,-4.2 2.7,-7.2 3,-9 0.3,-1.8 0.1,-1.4 -1.5,-1.5 -1.6,-0.1 -0.30001,-3.5 -8,1 -7.69999,4.5 -26.50001,18.80001 -38,26 -11.49999,7.19999 -19.80001,12.3 -31,17 -11.19999,4.7 -28.70001,8.3 -36,11 -7.29999,2.7 -0.30001,3 -8,5 -7.69999,2 -24.50001,5.8 -38,7 -13.49999,1.2 -24.20002,1.8 -43,0 -18.79998,-1.8 -51.80002,-7.3 -70,-11 -18.19998,-3.7 -26.30001,-6.5 -39,-11 -12.69999,-4.5 -25.20001,-9.80001 -37,-16 -11.79999,-6.19999 -22.80001,-12.30001 -34,-21 -11.19999,-8.69999 -23.90001,-20.70001 -33.5,-31.5 -9.59999,-10.79999 -17.70001,-22.50001 -24,-33 -6.29999,-10.49999 -10,-18.00001 -14,-30 -4,-11.99999 -8.2,-28.50001 -10,-42 -1.8,-13.49999 -1.8,-26.50001 -1,-39 0.8,-12.49999 3,-24.50001 6,-36 3,-11.49999 6.20001,-21.00001 12,-33 5.79999,-11.99999 13.60001,-26.40001 23,-39 9.39999,-12.59999 26.65388,-31.20001 32.75387,-36.5 -2.92738,-3.82683 -1.85925,-9.64764 -6.25387,-6 z"
           sodipodi0:nodetypes="csssssssssssssssssssssssssssssssssssssssssssssssscc" />
        <path
           id="part-22"
           inkscape:label="part-22"
           fill="#e6194b"
           fill-rule="evenodd"
           fill-opacity="0.7"
           d="m 848,537.5 c -1.8,-4.7 -6.2,-25.5 -11.5,-38.5 -5.3,-13 -19.6,-36.2 -20.5,-39.5 -0.9,-3.3 12.4,17.3 15,20 2.6,2.7 4.1,2.3 0.5,-3.5 -3.6,-5.8 -11.2,-19 -22,-31 -10.8,-12 -36.1,-33.1 -43,-41 -6.9,-7.9 -0.6,-6.6 1.5,-6.5 2.1,0.1 6.1,2.9 11,7 4.9,4.1 12.2,10.7 18.5,17.5 6.3,6.8 13.2,15 19,23 5.8,8 12.7,19 16,25 3.3,6 3.7,9.6 4,11 0.3,1.4 -1.7,-2.5 -2.5,-2.5 -0.8,0 -4.8,-5.6 -2.5,2.5 2.3,8.1 13.3,36.6 16,46 2.7,9.4 2.3,15.2 0.5,10.5 z" />
      </g>
      <g
         inkscape:label="l-brow"
         id="king-l-brow">
        <path
           id="part-17"
           inkscape:label="part-17"
           fill="#3cb44b"
           fill-rule="evenodd"
           fill-opacity="0.7"
           d="m 444,466.5 c -1.3,0.5 -3.8,0.7 -6,0 -2.2,-0.7 -4.9,-2.4 -7,-4 -2.1,-1.6 -4.6,-3.9 -5.5,-5.5 -0.9,-1.6 -3.3,-1.4 0,-4 3.3,-2.6 14.6,-9.2 19.5,-11.5 4.9,-2.3 6.7,-0.8 10,-2 3.3,-1.2 5.2,-4.1 10,-5 4.8,-0.9 15.4,-1.1 18.5,-0.5 3.1,0.6 -0.5,3 0,4 0.5,1 2.9,1.2 3,2 0.1,0.8 -1.7,2.6 -2.5,2.5 -0.8,-0.1 1,-5.5 -2,-3 -3,2.5 -12.2,14.5 -16,18 -3.8,3.5 -5.2,1.7 -7,3 -1.8,1.3 -1.8,4.5 -4,5 -2.2,0.5 -7.2,-2.2 -9,-2 -1.8,0.2 -0.7,2.5 -2,3 z" />
      </g>
      <g
         inkscape:label="r-brow"
         id="king-r-brow">
        <path
           id="part-18"
           inkscape:label="part-18"
           fill="#4363d8"
           fill-rule="evenodd"
           fill-opacity="0.7"
           d="m 712,453.5 c -0.4,0.4 -4.1,-0.4 -5,-1 -0.9,-0.6 0.3,-1.7 -0.5,-2.5 -0.8,-0.8 -3.4,-2.4 -4.5,-2.5 -1.1,-0.1 0.7,1.7 -2,2 -2.7,0.3 -10.5,0.5 -14,0 -3.5,-0.5 -5,-2.8 -7,-3 -2,-0.2 -3.2,2.7 -5,2 -1.8,-0.7 -4.3,-5.3 -6,-6 -1.7,-0.7 -1.8,3.3 -4,2 -2.2,-1.3 -7.6,-6.4 -9.5,-9.5 -1.9,-3.1 -2.6,-6.9 -2,-9 0.6,-2.1 3.1,-3.2 5.5,-3.5 2.4,-0.3 5.5,1.8 9,2 3.5,0.2 7,-2 12,-1 5,1 14.3,5.5 18,7 3.7,1.5 1.2,-0.7 4,2 2.8,2.7 11.1,11.6 12.5,14.5 1.4,2.9 -3.7,1.9 -4,3 -0.3,1.1 2.9,3.1 2.5,3.5 z" />
      </g>
      <g
         inkscape:label="l-eye"
         id="king-l-eye">
        <path
           id="part-10"
           inkscape:label="part-10"
           fill="#f58231"
           fill-rule="evenodd"
           fill-opacity="0.7"
           d="m 487,586.5 c -9.7,2 -11.6,-1.7 -15,-3 -3.4,-1.3 -4.2,-2.9 -5.5,-4.5 -1.3,-1.6 -1.3,-0.7 -2,-5 -0.7,-4.3 -2.2,-15 -2,-21 0.2,-6 1.8,-11.2 3,-15 1.2,-3.8 1.9,-5.1 4,-8 2.1,-2.9 4.9,-6.9 8.5,-9.5 3.6,-2.6 8.2,-5 13,-6 4.8,-1 10.3,-1.2 16,0 5.7,1.2 13.8,4.7 18,7 4.2,2.3 5.8,4.4 7.5,6.5 1.7,2.1 2.5,3.3 3,6 0.5,2.7 0.5,7.3 0,10 -0.5,2.7 -1.5,4.2 -3,6 -1.5,1.8 -6,2.8 -6,5 0,2.2 5,5.7 6,8 1,2.3 0.4,4.6 0,6 -0.4,1.4 5.1,-0.4 -2.5,2.5 -7.6,2.9 -33.3,13 -43,15 z" />
      </g>
      <g
         inkscape:label="r-eye"
         id="king-r-eye">
        <path
           id="part-13"
           inkscape:label="part-13"
           fill="#911eb4"
           fill-rule="evenodd"
           fill-opacity="0.7"
           d="m 705,579.5 c -7.5,-0.7 -28.3,-5 -36,-7 -7.7,-2 -7.8,-3.4 -10,-5 -2.2,-1.6 -2.6,-2.9 -3.5,-4.5 -0.9,-1.6 -1.8,-1.8 -2,-5 -0.2,-3.2 -0.2,-9.7 1,-14 1.2,-4.3 3.4,-8.6 6,-12 2.6,-3.4 4.9,-5.9 9.5,-8.5 4.6,-2.6 13,-5.8 18,-7 5,-1.2 8.2,-1.3 12,0 3.8,1.3 7.2,-0.7 10.5,7.5 3.3,8.2 8.4,33.2 9,42 0.6,8.8 -3.1,8.2 -5.5,10.5 -2.4,2.3 -1.5,3.7 -9,3 z" />
      </g>
      <g
         inkscape:label="mouth"
         id="king-mouth">
        <path
           id="part-6"
           inkscape:label="part-6"
           fill="#42d4f4"
           fill-rule="evenodd"
           fill-opacity="0.7"
           d="m 596,756.5 c -9.3,0.5 -18.3,-0.3 -28,-3 -9.7,-2.7 -20.6,-7.1 -30,-13 -9.4,-5.9 -20.4,-16.4 -26.5,-22.5 -6.1,-6.1 -7.8,-10.3 -10,-14 -2.2,-3.7 -5.3,-5.2 -3,-8 2.3,-2.8 9.3,-5.9 16.5,-8.5 7.2,-2.6 14.5,-7 27,-7 12.5,0 31.8,7 48,7 16.2,0 38.2,-6.3 49,-7 10.8,-0.7 8.6,0.6 16,3 7.4,2.4 24.4,7.7 28.5,11.5 4.1,3.8 -2.2,7.5 -4,11 -1.8,3.5 -1.9,4.8 -7,10 -5.1,5.2 -15.4,15.8 -23.5,21.5 -8.1,5.7 -16.2,9.8 -25,13 -8.8,3.2 -18.7,5.5 -28,6 z" />
      </g>
      <g
         inkscape:label="crown"
         id="king-crown">
        <path
           id="part-2"
           inkscape:label="part-2"
           d="m 579.10938,194.29102 c -1.04129,0.0676 -2.05001,0.90273 -4.60938,4.70898 -3.9,5.79998 -10.20002,19.20002 -17,30 -6.79998,10.79998 -16.60002,25.60002 -24,35 -7.39998,9.39998 -15.6,16.9 -20.5,21.5 -4.9,4.6 -7.2,5.4 -9,6 -0.69207,0.23069 -1.03184,0.0168 -1.25195,-0.32227 l -9.12891,2.6543 c 0.66351,0.0496 1.5379,0.0719 1.88086,0.16797 2.5,0.7 -1.7,2.2 -5.5,2.5 -3.8,0.3 -11.50002,0.3 -17,-1 -5.49998,-1.3 -9.00002,-2.5 -16,-7 -6.99998,-4.5 -14.00002,-9.20002 -26,-20 -11.99998,-10.79998 -37.30002,-37.20002 -46,-45 -8.69998,-7.79998 -4.6,-2.1 -6,-2 -1.4,0.1 -3.2,-2.3 -2.5,2.5 0.7,4.8 6.3,21.2 7,26 0.7,4.8 -1.7,2.5 -2.5,2.5 -0.8,0 -2.1,-2.9 -2.5,-2.5 -0.4,0.4 -1,1.8 0,5 1,3.2 5,9.8 6,14 1,4.2 -0.4,8.2 0,11 0.4,2.8 1.8,4.8 2.5,5.5 0.53011,0.53011 1.28699,0.0847 1.49414,-0.68359 -0.003,0.0596 -0.004,0.11941 0.006,0.18359 0.2,1.3 2.8,3.7 3,5 0.2,1.3 -2.5,2 -2,3 0.5,1 4,2 5,3 1,1 1.5,2 1,3 -0.5,1 -5.3,-4.49998 -4,3 1.3,7.49998 10,33.80002 12,42 2,8.19998 -1.2,4.8 0,7 1.2,2.2 6.1,4.6 7,6 0.9,1.4 -0.9,2.4 -1.5,2.5 -0.6,0.1 -1.4,-1.9 -2,-2 -0.6,-0.1 -1.7,0.5 -1.5,1.5 0.2,1 1.7,4.2 2.5,4.5 0.8,0.3 1.1,-2.9 2,-3 0.9,-0.1 3.4,1.7 3.5,2.5 0.1,0.8 -3.3,1.2 -3,2 0.3,0.8 4.3,2 5,3 0.7,1 -2.1,1.4 -1,3 1.1,1.6 5.5,5.8 7.5,6.5 2,0.7 4.9,3.09998 4.5,-2.5 -0.4,-5.59998 -5.3,-25.30002 -7,-31 -1.7,-5.69998 -2.7,-1.8 -3,-3 -0.3,-1.2 1.3,-1.5 1,-4 -0.3,-2.5 -1.5,-7.3 -3,-11 -1.5,-3.7 -5.2,-8.2 -6,-11 -0.8,-2.8 2.2,-0.80002 1,-6 -1.2,-5.19998 -6.7,-19.70002 -8,-25 -1.3,-5.29998 0.7,-4.8 0,-7 -0.7,-2.2 -3.5,-4.2 -4,-6 -0.5,-1.8 1.2,-3.2 1,-5 -0.2,-1.8 -1.9,-4.8 -2,-6 -0.1,-1.2 -5.59998,-7.39998 1.5,-1.5 7.09998,5.89998 30.70002,28.80002 41,37 10.29998,8.19998 15.20002,9.3 21,12 5.79998,2.7 7.20002,3.7 14,4 6.79998,0.3 20.50002,-0.8 27,-2 6.49998,-1.2 7.7,-2.5 12,-5 4.3,-2.5 7.80002,-3.90002 14,-10 6.19998,-6.09998 14.50002,-14.20002 23.5,-26.5 8.99998,-12.29998 22.70002,-44.2 30.5,-47.5 7.79998,-3.3 9.90002,17.60002 16.5,27.5 6.59998,9.89998 15.10002,22.90002 23,32 7.89998,9.09998 16.60002,17.20002 24.5,22.5 7.89998,5.29998 15.20002,7.7 23,9 7.79998,1.3 16.70002,0.5 24,-1 7.29998,-1.5 12.50002,-3.7 20,-8 7.49998,-4.3 16.20002,-10.50002 25,-18 8.79998,-7.49998 23.1,-22.7 28,-27 1.55979,-1.36879 2.39063,-2.75418 2.93164,-3.88086 -0.36389,1.09795 -0.82494,2.63946 -1.43164,5.38086 -2.7,12.19998 -15,58.80002 -18,72 -3,13.19998 0.7,4.3 0,7 -0.7,2.7 -4.2,7.3 -4,9 0.2,1.7 4.7,0.5 5,1 0.3,0.5 -2.7,1 -3,2 -0.3,1 1.3,3 1,4 -0.3,1 -2.8,0.7 -3,2 -0.2,1.3 2.2,3.7 2,6 -0.2,2.3 -2.7,6 -3,8 -0.3,2 1.3,2.8 1,4 -0.3,1.2 -1.5,3.2 -2.5,3.5 -1,0.3 -2.8,-2.5 -3.5,-1.5 -0.7,1 5.69998,7.6 -0.5,7.5 -6.19998,-0.1 -21.70004,-5.7 -37,-8 -15.29996,-2.3 -39.70004,-4.7 -55,-6 -15.29996,-1.3 -17.80004,-1.8 -37,-2 -19.19996,-0.2 -54.80004,-0.2 -78,1 -23.19996,1.2 -48.70002,4.7 -61,6 -12.29998,1.3 -9.8,1 -13,2 -3.2,1 -3.8,3.7 -6,4 -2.2,0.3 -4.5,-2.5 -7,-2 -2.5,0.5 -5.2,4.5 -8,5 -2.8,0.5 -6.8,-2.5 -9,-2 -2.2,0.5 -2.5,4.7 -4,5 -1.5,0.3 -2.8,-3 -5,-3 -2.2,0 -6.1,1.6 -8,3 -1.9,1.4 -3.5,3.7 -3.5,5.5 0,1.8 2.3,4.2 3.5,5.5 1.2,1.3 -0.5,2.5 4,2 4.5,-0.5 6.70004,-2.7 23,-5 16.29996,-2.3 45.00006,-7.2 75,-9 29.99994,-1.8 75.70006,-2.7 105,-2 29.29994,0.7 51.50004,4 71,6 19.49996,2 35.80002,4.3 46,6 10.19998,1.7 11.8,3.7 15,4 3.2,0.3 4.4,-1.7 4.5,-2.5 0.1,-0.8 -3.1,-0.8 -4,-2 -0.9,-1.2 -0.6,-4.6 -1.5,-5.5 -0.9,-0.9 -2.9,0.4 -4,0 -1.1,-0.4 -2.4,-1.7 -2.5,-2.5 -0.1,-0.8 2,-1.2 2,-2 0,-0.8 -2.1,-1.9 -2,-3 0.1,-1.1 1.6,-3.4 2.5,-3.5 0.9,-0.1 1.8,2.6 3,3 1.2,0.4 1.9,5.59998 4.5,-0.5 2.6,-6.09998 4.70002,-11.00004 11,-36 6.29998,-24.99996 22.8,-93.80004 27,-114 4.2,-20.19996 -1.1,-5.4 -2,-7 -0.9,-1.6 -1.6,-2.6 -3.5,-2.5 -1.9,0.1 -0.20002,-3.99998 -8,3 -7.79998,6.99998 -28.70002,29.30002 -39,39 -10.29998,9.69998 -16.70002,14.3 -23,19 -6.29998,4.7 -10,6.7 -15,9 -5,2.3 -10.5,4.2 -15,5 -4.5,0.8 -8.9,0.6 -12,0 -3.1,-0.6 -5.8,-2.7 -6.5,-3.5 -0.12434,-0.1421 -0.19845,-0.28287 -0.24609,-0.41992 l -3.57618,-0.93946 c 0.34481,1.1449 0.68346,2.03997 -1.67773,0.85938 -2.8,-1.4 -9.60002,-5.1 -15,-10 -5.39998,-4.9 -10.90002,-10.90002 -17.5,-19.5 -6.59998,-8.59998 -15.50002,-21.50002 -22,-32 -6.49998,-10.49998 -12.9,-24.90002 -17,-31 -4.1,-6.09998 -5.2,-5.3 -7.5,-5.5 -0.575,-0.05 -1.025,-0.15664 -1.4375,-0.19727 -0.15469,-0.0152 -0.30437,-0.0214 -0.45312,-0.0117 z M 696.92578,212.75 c 0.6875,-0.0125 1.38028,0.0383 2.06445,0.16016 -0.68437,-0.12188 -1.37695,-0.17266 -2.06445,-0.16016 z m 0,0 c -0.6875,0.0125 -1.36992,0.0867 -2.0293,0.21484 0.65957,-0.12812 1.3418,-0.20234 2.0293,-0.21484 z m -2.0293,0.21484 C 694.23711,213.09297 693.6,213.275 693,213.5 c 0.6,-0.225 1.23692,-0.40703 1.89648,-0.53516 z M 693,213.5 c -0.6,0.225 -1.23711,0.50078 -1.87305,0.83203 C 691.76289,214.00078 692.4,213.725 693,213.5 Z m -1.87305,0.83203 c -0.63593,0.33125 -1.27148,0.71797 -1.86523,1.16797 0.59375,-0.45 1.2293,-0.83672 1.86523,-1.16797 z M 689.26172,215.5 c -0.59375,0.45 -1.1457,0.96172 -1.61914,1.54297 0.47344,-0.58125 1.02539,-1.09297 1.61914,-1.54297 z m -1.61914,1.54297 C 687.16914,217.62422 686.775,218.275 686.5,219 c 0.275,-0.725 0.66914,-1.37578 1.14258,-1.95703 z M 686.5,219 c -0.275,0.725 -0.49336,1.6375 -0.64648,2.64844 C 686.00664,220.6375 686.225,219.725 686.5,219 Z m -0.64648,2.64844 c -0.15313,1.01093 -0.24141,2.11953 -0.25391,3.23828 0.0125,-1.11875 0.10078,-2.22735 0.25391,-3.23828 z m -0.25391,3.23828 c -0.0125,1.11875 0.0504,2.24844 0.19727,3.29687 -0.14688,-1.04843 -0.20977,-2.17812 -0.19727,-3.29687 z m 0.19727,3.29687 C 685.94375,229.23203 686.175,230.2 686.5,231 c -0.325,-0.8 -0.55625,-1.76797 -0.70312,-2.81641 z M 686.5,231 c 0.1625,0.4 0.40508,0.77734 0.70508,1.13672 C 686.90508,231.77734 686.6625,231.4 686.5,231 Z m 0.70508,1.13672 c 0.3,0.35937 0.65703,0.70039 1.05078,1.02539 -0.39375,-0.325 -0.75078,-0.66602 -1.05078,-1.02539 z m 1.05078,1.02539 c 0.7875,0.65 1.71914,1.23711 2.61914,1.78711 -0.9,-0.55 -1.83164,-1.13711 -2.61914,-1.78711 z m 10.73437,-20.25195 C 699.67441,213.03203 700.35,213.225 701,213.5 c -0.65,-0.275 -1.32539,-0.46797 -2.00977,-0.58984 z M 701,213.5 c 0.65,0.275 1.35664,0.68086 2.07227,1.16992 C 702.35664,214.18086 701.65,213.775 701,213.5 Z m 2.07227,1.16992 c 0.71562,0.48906 1.43945,1.06172 2.12695,1.66797 -0.6875,-0.60625 -1.41133,-1.17891 -2.12695,-1.66797 z m 2.12695,1.66797 c 0.6875,0.60625 1.33867,1.24649 1.9043,1.87305 -0.56563,-0.62656 -1.2168,-1.2668 -1.9043,-1.87305 z m 1.9043,1.87305 C 707.66914,218.8375 708.15,219.45 708.5,220 c -0.35,-0.55 -0.83086,-1.1625 -1.39648,-1.78906 z M 708.5,220 c 0.35,0.55 0.64336,1.1 0.87305,1.65625 C 709.14336,221.1 708.85,220.55 708.5,220 Z m 0.87305,1.65625 c 0.22968,0.55625 0.39648,1.11836 0.49023,1.69336 -0.0937,-0.575 -0.26055,-1.13711 -0.49023,-1.69336 z m 0.49023,1.69336 c 0.0937,0.575 0.11445,1.16328 0.0566,1.76953 0.0578,-0.60625 0.0371,-1.19453 -0.0566,-1.76953 z m 0.0566,1.76953 C 709.86211,225.72539 709.725,226.35 709.5,227 c 0.225,-0.65 0.36211,-1.27461 0.41992,-1.88086 z M 709.5,227 c -0.225,0.65 -0.60625,1.38203 -1.08594,2.14453 C 708.89375,228.38203 709.275,227.65 709.5,227 Z m -1.08594,2.14453 c -0.47968,0.7625 -1.05703,1.55508 -1.67578,2.33008 0.61875,-0.775 1.1961,-1.56758 1.67578,-2.33008 z m -1.67578,2.33008 C 705.50078,233.02461 704.1,234.5 703,235.5 c 1.1,-1 2.50078,-2.47539 3.73828,-4.02539 z M 703,235.5 c -0.275,0.25 -0.60371,0.3957 -0.96484,0.4707 C 702.39629,235.8957 702.725,235.75 703,235.5 Z m -0.96484,0.4707 c -0.36114,0.075 -0.75508,0.0801 -1.16211,0.0488 0.40703,0.0312 0.80097,0.0262 1.16211,-0.0488 z m -1.16211,0.0488 c -0.81406,-0.0625 -1.6793,-0.26875 -2.43555,-0.34375 0.75625,0.075 1.62149,0.28125 2.43555,0.34375 z m -233.85157,-0.80078 c 0.0468,0.016 0.0812,0.0578 0.0996,0.12891 -0.0183,-0.0711 -0.0528,-0.11276 -0.0996,-0.12891 z m 226.8418,3.14453 c 0.39375,-0.0188 0.59023,0.14063 0.66992,0.17969 -0.0797,-0.0391 -0.27617,-0.19844 -0.66992,-0.17969 z m 0,0 c -0.19687,0.009 -0.44473,0.0635 -0.75,0.19922 0.30527,-0.13574 0.55313,-0.18984 0.75,-0.19922 z m -0.75,0.19922 c -0.30527,0.13574 -0.66797,0.35273 -1.10156,0.68945 0.43359,-0.33672 0.79629,-0.55371 1.10156,-0.68945 z m -1.10156,0.68945 c -0.43359,0.33672 -0.9377,0.792 -1.51953,1.4043 0.58183,-0.6123 1.08594,-1.06758 1.51953,-1.4043 z m -1.51953,1.4043 C 689.91035,241.26855 689.25,242.0375 688.5,243 c 0.75,-0.9625 1.41035,-1.73145 1.99219,-2.34375 z M 688.5,243 c -2.99999,3.84999 -9.375,12.09922 -15.5625,20.38672 C 679.125,255.09922 685.50001,246.84999 688.5,243 Z m -15.5625,20.38672 c -3.09375,4.14375 -6.14063,8.29688 -8.69531,11.91406 2.55468,-3.61718 5.60156,-7.77031 8.69531,-11.91406 z m 34.50391,2.30469 C 708.76953,268.71328 709.875,271.3 710.5,273 c -0.625,-1.7 -1.73047,-4.28672 -3.05859,-7.30859 z M 710.5,273 c 0.625,1.7 1.02539,2.87461 1.26758,3.70898 C 711.52539,275.87461 711.125,274.7 710.5,273 Z m 1.26758,3.70898 c 0.24219,0.83438 0.32656,1.32852 0.32031,1.66602 0.006,-0.3375 -0.0781,-0.83164 -0.32031,-1.66602 z m 0.32031,1.66602 c -0.006,0.3375 -0.1043,0.51914 -0.22461,0.72852 0.12031,-0.20938 0.21836,-0.39102 0.22461,-0.72852 z M 386.38672,276.26953 C 386.58828,276.25547 386.8,276.325 387,276.5 c 0.8,0.7 3.2,4.1 3.5,5.5 0.27128,1.26599 -1.74144,1.63445 -1.98242,2.6543 0.0331,-0.20538 0.0401,-0.42344 -0.0176,-0.6543 -0.3,-1.2 -2.7,-4.8 -3,-6 -0.225,-0.9 0.28203,-1.68828 0.88672,-1.73047 z m 63.4375,3.25781 c 0.12187,-0.002 0.24687,0.0175 0.36328,0.0859 -0.11641,-0.0683 -0.24141,-0.0879 -0.36328,-0.0859 z M 711.5,280 c -0.1,0.45 -0.26836,0.84922 -0.49023,1.20703 C 711.23164,280.84922 711.4,280.45 711.5,280 Z m -0.49023,1.20703 c -0.22188,0.35781 -0.49805,0.67383 -0.81055,0.95508 0.3125,-0.28125 0.58867,-0.59727 0.81055,-0.95508 z m -0.81055,0.95508 c -0.3125,0.28125 -0.66133,0.52773 -1.0332,0.74805 0.37187,-0.22032 0.7207,-0.4668 1.0332,-0.74805 z m -49.36328,-1.9043 C 659.86035,281.73027 659.0625,283 658.5,284 c 0.5625,-1 1.36035,-2.26973 2.33594,-3.74219 z M 658.5,284 c -0.5625,1 -0.94258,1.83828 -1.17578,2.54102 C 657.55742,285.83828 657.9375,285 658.5,284 Z m -1.17578,2.54102 c -0.2332,0.70273 -0.32031,1.26953 -0.29688,1.73046 -0.0234,-0.46093 0.0637,-1.02773 0.29688,-1.73046 z m -0.29688,1.73046 c 0.0234,0.46094 0.15782,0.81524 0.36524,1.08985 -0.20742,-0.27461 -0.3418,-0.62891 -0.36524,-1.08985 z m 0.36524,1.08985 c 0.20742,0.27461 0.48789,0.46953 0.80664,0.61328 -0.31875,-0.14375 -0.59922,-0.33867 -0.80664,-0.61328 z m 0.80664,0.61328 c 0.6375,0.2875 1.42539,0.36992 2.07226,0.4668 -0.64687,-0.0969 -1.43476,-0.1793 -2.07226,-0.4668 z M 708,283.5 c -0.4,0.175 -0.78828,0.24453 -1.19141,0.26953 C 707.21172,283.74453 707.6,283.675 708,283.5 Z M 502.5,289 c -0.0421,0.46332 -0.0648,1.05138 0.0312,1.55469 C 502.4595,290.04071 502.4587,289.45321 502.5,289 Z m 190.3457,0.95703 c -1.04531,0.625 -2.0207,1.16797 -2.8457,1.54297 0.825,-0.375 1.80039,-0.91797 2.8457,-1.54297 z M 690,291.5 c -1.65,0.75 -2.72461,1.25 -3.84961,1.5625 C 687.27539,292.75 688.35,292.25 690,291.5 Z m -3.84961,1.5625 c -0.5625,0.15625 -1.13711,0.26563 -1.80273,0.33594 0.66562,-0.0703 1.24023,-0.17969 1.80273,-0.33594 z m -1.80273,0.33594 C 683.68203,293.46875 682.925,293.5 682,293.5 c 0.925,0 1.68203,-0.0312 2.34766,-0.10156 z M 682,293.5 c -0.925,0 -2.08828,-0.11914 -3.35547,-0.29883 C 679.91172,293.38086 681.075,293.5 682,293.5 Z m -15.29102,-1.95898 c -0.0679,0.007 -0.14058,0.0124 -0.20312,0.0215 0.0628,-0.009 0.13513,-0.0145 0.20312,-0.0215 z m -189.31445,1.43945 c 0.12535,0.0188 0.26079,0.0312 0.38867,0.0488 -0.12691,-0.018 -0.26412,-0.0297 -0.38867,-0.0488 z m -70.54883,56.50976 c 0.0641,-0.0172 0.1168,-0.0152 0.1543,0.01 0.3,0.2 0.8,2.3 0.5,2.5 -0.3,0.2 -1.9,-0.6 -2,-1 -0.0875,-0.35 0.89727,-1.38945 1.3457,-1.50977 z" />
        <path
           id="path272-5"
           inkscape:label="part-1"
           d="m 583.65837,393.29138 c -17.17498,0.0188 -33.50587,0.71328 -46.63086,1.23828 -17.49998,0.7 -25.70002,1.3 -41,3 -15.29998,1.7 -41.00001,5 -51,7 -9.99999,2 -6.2,4.5 -9,5 -2.8,0.5 -5.2,-2 -8,-2 -2.8,0 -7,2.3 -9,2 -2,-0.3 -1.5,-3.7 -3,-4 -1.5,-0.3 -4.5,2 -6,2 -0.34664,3.38696 -1.07096,4.55507 0,9 6.09999,-5.29999 0.3,4.5 3,5 2.7,0.5 7.50001,-1.8 13,-2 5.49999,-0.2 16.2,1.2 20,1 1.47564,-0.0777 2.0541,-0.36719 2.29492,-0.70312 0.86463,0.0775 2.53113,0.0259 5.70508,-0.29688 11.79999,-1.2 41.20002,-6.3 66,-8 24.79998,-1.7 58.50002,-2.3 83,-2 24.49998,0.3 45.00002,2.2 64,4 18.99998,1.8 39.30001,5.8 50,7 10.69999,1.2 10,-0.7 14,0 4,0.7 7.2,3.5 10,4 2.8,0.5 5.1,-0.1 7,-1 1.9,-0.9 5,-3.2 4.5,-4.5 -0.5,-1.3 -5.4,-1.8 -7.5,-3.5 -2.1,-1.7 -3.5,-6.2 -5,-7 -1.5,-0.8 -2.2,2.3 -4,2 -1.8,-0.3 2.79999,-2 -7,-4 -9.79999,-2 -30.70002,-5.8 -52,-8 -21.29998,-2.2 -52.70002,-4.3 -76,-5 -5.82499,-0.175 -11.64415,-0.24453 -17.36914,-0.23828 z m -134.63086,25.23828 c 0.35886,-0.0552 0.0121,0.096 -0.44531,0.30664 0.0571,-0.14614 0.16384,-0.26334 0.44531,-0.30664 z"
           sodipodi0:nodetypes="ssssssssccssscssssssssssssssssscs"
           style="fill:#ffff00" />
      </g>
      <g
         inkscape:label="crown-jewels"
         id="king-crown-jewels">
        <path
           id="part-21"
           inkscape:label="part-21"
           fill="#bfef45"
           fill-rule="evenodd"
           fill-opacity="0.7"
           d="m 482,365.5 c -1.2,0.4 -0.6,1.7 -5,-1 -4.4,-2.7 -18.1,-10.4 -21.5,-15.5 -3.4,-5.1 0.1,-9.8 1,-15 0.9,-5.2 3.3,-14 4.5,-16.5 1.2,-2.5 0.7,-2.7 2.5,1.5 1.8,4.2 5.7,20.3 8.5,23.5 2.8,3.2 8.8,-1.7 8.5,-4.5 -0.3,-2.8 -12,-12.3 -10.5,-12.5 1.5,-0.2 17.1,5.4 19.5,11.5 2.4,6.1 -3.7,20.2 -5,25 -1.3,4.8 -1.3,3.1 -2.5,3.5 z"
           style="display:inline" />
        <path
           id="part-20"
           inkscape:label="part-20"
           fill="#bfef45"
           fill-rule="evenodd"
           fill-opacity="0.7"
           d="m 681,366.5 c -3.4,0.7 -2.9,-0.6 -4.5,-5.5 -1.6,-4.9 -8.9,-16.6 -5,-24 3.9,-7.4 23.3,-17.5 28.5,-20.5 5.2,-3 2.1,-0.4 2.5,2.5 0.4,2.9 -0.5,10.2 0,15 0.5,4.8 3.9,10.2 3,14 -0.9,3.8 -4.4,5.4 -8.5,8.5 -4.1,3.1 -12.6,9.3 -16,10 z M 697.5,344 c 1.3,-0.8 1.3,-1.9 1,-4 -0.3,-2.1 -0.8,-8.8 -2.5,-8.5 -1.7,0.3 -6.7,8.3 -7.5,10.5 -0.8,2.2 1,2.2 2.5,2.5 1.5,0.3 5.2,0.3 6.5,-0.5 z"
           style="display:inline" />
        <path
           id="part-15"
           inkscape:label="part-15"
           fill="#bfef45"
           fill-rule="evenodd"
           fill-opacity="0.7"
           d="m 581,358.5 c -3.8,2.3 -3.2,-1.6 -7.5,-7.5 -4.3,-5.9 -16.5,-20.2 -18,-28 -1.5,-7.8 4.9,-11.9 9,-19 4.1,-7.1 12.3,-19.8 15.5,-23.5 3.2,-3.7 2.6,-0.1 3.5,1.5 0.9,1.6 -1.3,1.5 2,8 3.3,6.5 16.2,23.2 18,31 1.8,7.8 -3.3,9.8 -7,16 -3.7,6.2 -11.7,19.2 -15.5,21.5 z m 0.5,-35.5 c 2.7,0 12.9,0.1 13,-4 0.1,-4.1 -9.8,-20.5 -12.5,-20.5 -2.7,0 -3.4,16.4 -3.5,20.5 -0.1,4.1 0.3,4 3,4 z"
           style="display:inline" />
      </g>
      <g
         inkscape:label="crown-pearls"
         id="king-crown-pearls">
        <path
           id="part-25"
           inkscape:label="part-25"
           fill="#fabed4"
           fill-rule="evenodd"
           fill-opacity="0.7"
           d="m 584,191.5 c -2.7,1.3 -6.2,0.3 -9,-1 -2.8,-1.3 -5.9,-4.6 -7.5,-6.5 -1.6,-1.9 -2,-2.3 -2,-5 0,-2.7 -0.1,-7.9 2,-11 2.1,-3.1 7.6,-6.2 10.5,-7.5 2.9,-1.3 4.8,-0.5 7,0 2.2,0.5 4.1,1.1 6,3 1.9,1.9 4.8,5.4 5.5,8.5 0.7,3.1 -0.1,8.2 -1,10 -0.9,1.8 -2.6,-1.1 -4.5,0.5 -1.9,1.6 -4.3,7.7 -7,9 z m -0.5,-5.5 c 1.3,-0.3 4.3,-1.9 5,-3 0.7,-1.1 0.8,-3.8 -0.5,-3.5 -1.3,0.3 -6.8,4.4 -7.5,5.5 -0.7,1.1 1.7,1.3 3,1 z"
           style="display:inline" />
        <path
           id="part-26"
           inkscape:label="part-26"
           fill="#fabed4"
           fill-rule="evenodd"
           fill-opacity="0.7"
           d="m 379,220.5 c -3.2,1.1 -7.8,0.6 -11,-1 -3.2,-1.6 -6.9,-5.9 -8.5,-8.5 -1.6,-2.6 -1.1,-5.9 -1,-7 0.1,-1.1 0,2 1.5,0.5 1.5,-1.5 6.4,-7.4 7.5,-9.5 1.1,-2.1 -1.7,-2.1 -1,-3 0.7,-0.9 3.7,-2.1 5.5,-2.5 1.8,-0.4 2.8,-0.7 5,0 2.2,0.7 5.9,1.9 8,4 2.1,2.1 4.1,5.3 4.5,8.5 0.4,3.2 -0.3,7.9 -2,11 -1.7,3.1 -5.3,6.4 -8.5,7.5 z M 371.5,206 c 1.2,-0.5 3.6,-2.8 4,-4 0.4,-1.2 -0.3,-3.3 -1.5,-3.5 -1.2,-0.2 -4.6,1.4 -5.5,2.5 -0.9,1.1 -0.5,3.2 0,4 0.5,0.8 1.8,1.5 3,1 z"
           style="display:inline" />
        <path
           id="part-27"
           inkscape:label="part-27"
           fill="#fabed4"
           fill-rule="evenodd"
           fill-opacity="0.7"
           d="m 786,219.5 c -2.4,0.7 -3.2,-0.9 -3.5,-1.5 -0.3,-0.6 1.9,-0.9 2,-2 0.1,-1.1 -0.4,-4.2 -1.5,-4.5 -1.1,-0.3 -3.8,2.9 -5,3 -1.2,0.1 -1.9,-0.3 -2.5,-2.5 -0.6,-2.2 -2.1,-7.6 -1,-11 1.1,-3.4 4.4,-7.6 7.5,-9.5 3.1,-1.9 7.4,-2.9 11,-2 3.6,0.9 8.4,5.1 10.5,7.5 2.1,2.4 1.8,4.8 2,7 0.2,2.2 -0.4,4.4 -1,6 -0.6,1.6 -1.3,2.9 -2.5,3.5 -1.2,0.6 -2.3,-1 -5,0 -2.7,1 -8.6,5.3 -11,6 z m 8.5,-6.5 c 0.8,-0.2 2.7,-1.4 3,-2 0.3,-0.6 -0.7,-1.7 -1.5,-1.5 -0.8,0.2 -3.2,1.9 -3.5,2.5 -0.3,0.6 1.2,1.2 2,1 z"
           style="display:inline" />
      </g>
      <g
         inkscape:label="crown-background-right"
         id="king-crown-background-right">
        <path
           id="path694"
           style="display:inline;opacity:0.18;fill:#ffff00;stroke:#000000"
           d="m 696.92578,212.75 c -1.375,0.025 -2.72578,0.3 -3.92578,0.75 -2.4,0.9 -5.4,2.6 -6.5,5.5 -1.1,2.9 -1.3,8.8 0,12 1.3,3.2 7.7,5 8,7 0.3,2 -10e-6,-2.69999 -6,5 -5.99999,7.69999 -25.5,33.00001 -30,41 -4.5,7.99999 2.7,5.6 3,7 0.0525,0.24524 0.0732,0.39561 0.14453,0.63086 l 3.64649,0.95898 C 665.0639,291.95255 665.68991,291.4175 668,291.5 c 2.8,0.1 10.3,2 14,2 3.7,0 4.7,-0.5 8,-2 3.3,-1.5 9,-5.7 12,-7 3,-1.3 4.4,-0.3 6,-1 1.6,-0.7 3.1,-1.7 3.5,-3.5 0.4,-1.8 1.5,-0.20001 -1,-7 -2.5,-6.79999 -12.7,-27.80001 -14,-34 -1.3,-6.19999 4.3,-1.5 6.5,-3.5 2.2,-2 5.6,-5.9 6.5,-8.5 0.9,-2.6 0.4,-4.8 -1,-7 -1.4,-2.2 -4.9,-5.4 -7.5,-6.5 -1.3,-0.55 -2.69922,-0.775 -4.07422,-0.75 z" />
      </g>
      <g
         inkscape:label="crown-background-left"
         id="king-crown-background-left">
        <path
           id="path705"
           inkscape:label="part-2"
           d="M 465.88672,210.9375 C 464.89922,210.975 463.95,211.2 463,211.5 c -1.9,0.6 -4.1,1.1 -5.5,3.5 -1.4,2.4 -3.9,7.4 -3,11 0.9,3.6 6.5,8.5 8.5,10.5 2,2 5.6,-4.89999 3.5,1.5 -2.1,6.39999 -13.3,30.00001 -16,37 -2.7,6.99999 -0.7,3.4 0,5 0.7,1.6 2.9,3.8 4.5,4.5 1.6,0.7 1.7,-1.3 5,0 3.3,1.3 9.10001,6.4 15,8 5.09061,1.3805 14.44606,1.01983 18.61914,1.33203 l 9.12891,-2.6543 C 502.39566,290.6349 502.43845,289.67707 502.5,289 c 0.1,-1.1 7.69999,4.69999 2,-4 -5.69999,-8.69999 -31.5,-38.70001 -36,-48 -4.5,-9.29999 7.3,-5.5 9,-8 1.7,-2.5 1.2,-5 1,-7 -0.2,-2 -0.4,-3.2 -2,-5 -1.6,-1.8 -5.3,-4.6 -7.5,-5.5 -1.1,-0.45 -2.12578,-0.6 -3.11328,-0.5625 z"
           style="display:inline;fill:#0000ff" />
      </g>
      <g
         inkscape:label="l-mustache"
         id="king-l-mustache">
        <path
           id="part-8"
           inkscape:label="part-8"
           fill="#9a6324"
           fill-rule="evenodd"
           fill-opacity="0.7"
           d="m 475,690.5 c -7,0.8 -17,0.3 -22,0 -5,-0.3 -5,-0.8 -8,-2 -3,-1.2 -6.8,-2.7 -10,-5 -3.2,-2.3 -6.8,-4.7 -9.5,-8.5 -2.7,-3.8 -5.8,-9 -7,-14 -1.2,-5 -1.6,-10.8 0,-16 1.6,-5.2 5.9,-11.9 9.5,-15.5 3.6,-3.6 8.2,-5 12,-6 3.8,-1 7.2,-1.3 11,0 3.8,1.3 9.1,4.7 11.5,7.5 2.4,2.8 2.8,6.3 3,9 0.2,2.7 -1.1,5.2 -2,7 -0.9,1.8 -2,2.8 -3.5,3.5 -1.5,0.7 -4.6,1.6 -5.5,0.5 -0.9,-1.1 0.7,-5.1 0,-7 -0.7,-1.9 -2.4,-3.9 -4.5,-4.5 -2.1,-0.6 -5.9,-0.1 -8,1 -2.1,1.1 -3.8,2.9 -4.5,5.5 -0.7,2.6 -0.5,7.5 0,10 0.5,2.5 0.6,3.1 3,5 2.4,1.9 7.7,5.4 11.5,6.5 3.8,1.1 6.7,1 11,0 4.3,-1 6,0 15,-6 9,-6 28.7,-23.5 39,-30 10.3,-6.5 16,-7.5 23,-9 7,-1.5 14.7,-0.3 19,0 4.3,0.3 4.3,0.8 7,2 2.7,1.2 6.1,2.3 9,5 2.9,2.7 7.1,7.7 8.5,11.5 1.4,3.8 0.5,8.2 0,11 -0.5,2.8 -0.6,3.4 -3,6 -2.4,2.6 -7.9,7.4 -11.5,9.5 -3.6,2.1 -3.3,2.2 -10,3 -6.7,0.8 -19.3,-0.5 -30,2 -10.7,2.5 -25,10 -34,13 -9,3 -13,4.2 -20,5 z" />
      </g>
      <g
         inkscape:label="r-mustache"
         id="king-r-mustache">
        <path
           id="part-7"
           inkscape:label="part-7"
           fill="#800000"
           fill-rule="evenodd"
           fill-opacity="0.7"
           d="m 729,690.5 c -7.8,1.2 -14.3,2 -27,-1 -12.7,-3 -36,-13.8 -49,-17 -13,-3.2 -22.5,-1.2 -29,-2 -6.5,-0.8 -6.4,-0.9 -10,-3 -3.6,-2.1 -9.1,-6.7 -11.5,-9.5 -2.4,-2.8 -2.5,-4.2 -3,-7 -0.5,-2.8 -0.7,-7.2 0,-10 0.7,-2.8 1.4,-4.4 4,-7 2.6,-2.6 8.1,-6.6 11.5,-8.5 3.4,-1.9 4.3,-2.5 9,-3 4.7,-0.5 13.5,-0.7 19,0 5.5,0.7 9.8,2.3 14,4 4.2,1.7 2.7,0 11,6 8.3,6 31,24.3 39,30 8,5.7 5.2,3.2 9,4 3.8,0.8 10.3,1.3 14,1 3.7,-0.3 5.8,-1.6 8,-3 2.2,-1.4 4.2,-2.6 5.5,-5.5 1.3,-2.9 2.7,-8.8 2,-12 -0.7,-3.2 -4.3,-6.2 -6.5,-7.5 -2.2,-1.3 -5.1,-0.9 -7,0 -1.9,0.9 -4.1,3.6 -4.5,5.5 -0.4,1.9 2.4,4.9 2,6 -0.4,1.1 -2.7,1.3 -4.5,0.5 -1.8,-0.8 -5.4,-2.6 -6.5,-5.5 -1.1,-2.9 -1.1,-8.8 0,-12 1.1,-3.2 4.3,-5.8 6.5,-7.5 2.2,-1.7 3.3,-2.7 7,-3 3.7,-0.3 11.2,0 15,1 3.8,1 5.4,2.4 8,5 2.6,2.6 5.9,7.7 7.5,10.5 1.6,2.8 1.8,2.2 2,6 0.2,3.8 0,12.5 -1,17 -1,4.5 -2.6,6.8 -5,10 -2.4,3.2 -4.6,6.6 -9.5,9.5 -4.9,2.9 -12.2,6.8 -20,8 z" />
      </g>
    </g>
  </g>
</svg>
