<?xml version="1.0" encoding="UTF-8" standalone="no"?>
<svg
   viewBox="0 0 1254 1254"
   width="1254"
   height="1254"
   version="1.1"
   id="svg22"
   sodipodi:docname="thoughtful.svg"
   inkscape:version="1.2.2 (b0a8486541, 2022-12-01)"
   xmlns:inkscape="http://www.inkscape.org/namespaces/inkscape"
   xmlns:sodipodi="http://sodipodi.sourceforge.net/DTD/sodipodi-0.dtd"
   xmlns:xlink="http://www.w3.org/1999/xlink"
   xmlns="http://www.w3.org/2000/svg"
   xmlns:svg="http://www.w3.org/2000/svg"
   xmlns:sodipodi0="http://sodipodi.sourceforge.net/DTD/sodipodi-0.0.dtd">
  <defs
     id="defs26" />
  <sodipodi:namedview
     id="namedview24"
     pagecolor="#ffffff"
     bordercolor="#000000"
     borderopacity="0.25"
     inkscape:showpageshadow="2"
     inkscape:pageopacity="0.0"
     inkscape:pagecheckerboard="0"
     inkscape:deskcolor="#d1d1d1"
     showgrid="false"
     inkscape:zoom="0.77364474"
     inkscape:cx="660.50989"
     inkscape:cy="727.7242"
     inkscape:window-width="1678"
     inkscape:window-height="912"
     inkscape:window-x="0"
     inkscape:window-y="0"
     inkscape:window-maximized="1"
     inkscape:current-layer="layer6" />
  <g
     inkscape:groupmode="layer"
     inkscape:label="reference (source png)"
     sodipodi0:insensitive="true"
     style="opacity:0.18"
     id="g4">
    <!-- reference image stripped; regenerate via tools/trace_png.py -->
  </g>
  <g
     inkscape:groupmode="layer"
     inkscape:label="traced parts"
     id="g20">
    <path
       id="part-2"
       inkscape:label="part-2"
       fill="#3cb44b"
       fill-rule="evenodd"
       fill-opacity="0.85"
       d="M 896.0,577.5 L 892.5,575.0 L 891.5,571.0 L 889.5,545.0 L 874.0,543.5 L 868.5,538.0 L 868.5,533.0 L 872.0,528.5 L 887.5,526.0 L 887.5,368.0 L 886.0,366.5 L 780.0,366.5 L 775.5,361.0 L 775.5,356.0 L 781.0,350.5 L 886.0,350.5 L 887.5,349.0 L 887.5,214.0 L 893.0,208.5 L 898.0,208.5 L 903.5,214.0 L 903.5,349.0 L 905.0,350.5 L 1066.0,350.5 L 1103.0,354.5 L 1115.5,358.0 L 1114.0,360.5 L 1100.0,363.5 L 1060.0,366.5 L 904.5,367.0 L 902.5,524.0 L 904.0,527.5 L 1066.0,527.5 L 1109.0,532.5 L 1115.5,536.0 L 1098.0,540.5 L 1057.0,543.5 L 903.0,543.5 L 896.0,577.5 Z" />
    <path
       id="part-3"
       inkscape:label="part-3"
       fill="#4363d8"
       fill-rule="evenodd"
       fill-opacity="0.85"
       d="M 895.0,1006.5 L 891.5,998.0 L 888.5,972.0 L 887.5,913.0 L 873.0,911.5 L 868.5,907.0 L 868.5,901.0 L 874.0,895.5 L 887.5,894.0 L 887.5,729.0 L 886.0,727.5 L 852.0,727.5 L 848.5,723.0 L 848.5,717.0 L 852.0,712.5 L 886.0,712.5 L 887.5,711.0 L 887.5,635.0 L 892.0,630.5 L 897.0,629.5 L 903.5,635.0 L 903.5,711.0 L 905.0,712.5 L 1066.0,712.5 L 1108.0,717.5 L 1115.5,721.0 L 1106.0,724.5 L 1074.0,727.5 L 905.0,727.5 L 903.5,729.0 L 903.5,894.0 L 905.0,895.5 L 1063.0,895.5 L 1101.0,899.5 L 1115.5,904.0 L 1099.0,908.5 L 1061.0,911.5 L 905.0,911.5 L 903.5,913.0 L 903.5,952.0 L 900.5,986.0 L 897.5,1004.0 L 895.0,1006.5 Z" />
    <path
       id="part-4"
       inkscape:label="part-4"
       fill="#f58231"
       fill-rule="evenodd"
       fill-opacity="0.85"
       d="M 267.0,565.5 L 263.5,560.0 L 262.5,547.0 L 260.0,542.5 L 137.0,543.5 L 132.5,538.0 L 132.5,532.0 L 137.0,527.5 L 259.0,528.5 L 260.5,527.0 L 259.5,368.0 L 258.0,366.5 L 134.0,366.5 L 129.5,361.0 L 129.5,355.0 L 134.0,350.5 L 258.0,350.5 L 259.5,349.0 L 259.5,193.0 L 265.0,188.5 L 269.0,188.5 L 274.5,194.0 L 274.5,349.0 L 276.0,350.5 L 367.0,350.5 L 399.0,353.5 L 420.5,358.0 L 418.0,361.5 L 384.0,365.5 L 276.0,366.5 L 274.5,368.0 L 273.5,528.0 L 279.0,530.5 L 301.0,532.5 L 306.5,536.0 L 297.0,539.5 L 273.0,541.5 L 267.0,565.5 Z" />
    <path
       id="part-5"
       inkscape:label="part-5"
       fill="#911eb4"
       fill-rule="evenodd"
       fill-opacity="0.85"
       d="M 267.0,979.5 L 264.5,977.0 L 262.5,968.0 L 258.0,908.5 L 225.0,911.5 L 145.0,911.5 L 140.5,906.0 L 140.5,901.0 L 145.0,895.5 L 227.0,895.5 L 249.0,898.5 L 258.5,897.0 L 259.5,729.0 L 258.0,727.5 L 123.0,728.5 L 120.5,724.0 L 123.0,712.5 L 258.0,712.5 L 259.5,711.0 L 261.5,602.0 L 264.5,598.0 L 263.0,595.5 L 267.5,600.0 L 265.5,603.0 L 271.5,614.0 L 270.5,617.0 L 273.5,625.0 L 275.5,711.0 L 277.0,712.5 L 320.0,712.5 L 333.0,716.5 L 336.5,720.0 L 335.0,723.5 L 322.0,727.5 L 277.0,727.5 L 275.5,729.0 L 275.5,896.0 L 281.0,898.5 L 304.0,901.5 L 306.5,904.0 L 303.0,906.5 L 274.5,911.0 L 272.5,953.0 L 267.0,979.5 Z" />
    <path
       id="part-8"
       inkscape:label="part-8"
       fill="#bfef45"
       fill-rule="evenodd"
       fill-opacity="0.85"
       d="M 823.0,968.5 L 815.5,955.0 L 821.0,959.5 L 822.5,957.0 L 812.5,947.0 L 812.5,943.0 L 806.5,938.0 L 804.5,931.0 L 802.0,928.5 L 799.5,930.0 L 796.5,922.0 L 786.5,913.0 L 745.5,856.0 L 730.5,840.0 L 726.5,824.0 L 718.5,818.0 L 713.5,809.0 L 713.5,802.0 L 720.0,793.5 L 724.0,792.5 L 729.0,794.5 L 741.5,808.0 L 748.5,822.0 L 767.5,846.0 L 801.5,901.0 L 825.5,954.0 L 821.5,962.0 L 823.0,968.5 Z" />
    <path
       id="part-9"
       inkscape:label="part-9"
       fill="#fabed4"
       fill-rule="evenodd"
       fill-opacity="0.85"
       d="M 714.0,986.5 L 711.5,984.0 L 709.5,975.0 L 710.0,972.5 L 713.0,974.5 L 714.5,973.0 L 710.5,966.0 L 711.5,960.0 L 705.5,951.0 L 708.5,948.0 L 706.0,945.5 L 703.5,948.0 L 703.5,937.0 L 697.5,926.0 L 688.5,887.0 L 685.5,862.0 L 680.5,848.0 L 680.5,842.0 L 684.5,832.0 L 683.5,826.0 L 680.5,824.0 L 680.5,815.0 L 682.5,809.0 L 690.0,803.5 L 696.0,803.5 L 700.5,807.0 L 705.5,825.0 L 704.5,841.0 L 710.5,868.0 L 711.5,892.0 L 717.5,929.0 L 716.5,938.0 L 718.5,942.0 L 719.5,975.0 L 713.5,976.0 L 714.0,986.5 Z" />
    <path
       id="part-10"
       inkscape:label="part-10"
       fill="#469990"
       fill-rule="evenodd"
       fill-opacity="0.85"
       d="M 466.0,331.5 L 461.5,321.0 L 458.5,285.0 L 458.5,190.0 L 463.0,186.5 L 470.0,186.5 L 474.5,193.0 L 474.5,271.0 L 470.5,314.0 L 466.0,331.5 Z" />
    <path
       id="part-11"
       inkscape:label="part-11"
       fill="#dcbeff"
       fill-rule="evenodd"
       fill-opacity="0.85"
       d="M 671.0,326.5 L 668.5,324.0 L 666.5,314.0 L 663.5,278.0 L 663.5,199.0 L 669.0,194.5 L 675.0,195.5 L 679.5,201.0 L 679.5,269.0 L 674.5,317.0 L 671.0,326.5 Z" />
  </g>
  <g
     inkscape:groupmode="layer"
     id="layer6"
     inkscape:label="head">
    <path
       id="part-1"
       inkscape:label="part-1"
       fill="#e6194b"
       fill-rule="evenodd"
       fill-opacity="0.85"
       d="M 408.5,755 385,736.5 352.5,701 l -16,-25 -13,-28 -9,-30 -4,-27 1,-43 8,-37 19,-45 18,-28 13,-16 42.5,-39.5 47,-29 44,-17 55,-11 h 62 l 59,12 34,13 43,24 25,20 19.5,19.5 16,20 20,35 10,30 3,16 -2.5,-3.5 -1.5,2.5 8,28 v 5 l -3,1 3,17 -0.5,12.5 -1.5,-0.5 -1,-26 -12,-48 -19,-39 1,-5 -27,-35 -32.5,-32.5 -40,-22 -44,-16 -50,-10 -44,-2 -47,7 -43,13 -45,22 -39,29 -30.5,32.5 -23,36 -15,37 -7,34 -1,37 5,31 10,29 22,38 30.5,33.5 c 39.41269,31.35171 70.09108,53.3982 139,62 l 50,7 h 49 l 39,-6 41,-13 23,-11 57.5,-33.5 -8,8 -6,13 -24.5,21.5 -38,21 -25,9 -35,8 -39,4 -51,-1 -35,-5 C 459.39197,785.48604 456.93334,785.92291 408.5,755 Z m 414,-291 -0.5,-2.5 -1.5,1.5 z m 2,3 -0.5,-2.5 -1.5,1.5 z m -403,293 c -281,-506.66667 -140.5,-253.33333 0,0 z m 380.5,-37.5 3,-5 z"
       sodipodi:nodetypes="ccccccccccccccccccccccccccccccccccccccccccccccccccccccccccccccccccccccccccccccccccccccc" />
  </g>
  <g
     inkscape:groupmode="layer"
     id="layer1"
     inkscape:label="l-brow">
    <path
       id="part-13"
       inkscape:label="part-13"
       fill="#800000"
       fill-rule="evenodd"
       fill-opacity="0.85"
       d="m 461,482.5 c -2.52796,0.2321 -4.47147,-2.77425 -7,-3 -4.4296,-0.39549 -8.67175,4.02176 -13,3 -4.83913,-1.14236 -8.94845,-5.23247 -11.5,-9.5 -0.87222,-1.45881 -1.41089,-3.35074 -1,-5 0.57265,-2.29852 2.39435,-4.41494 4.5,-5.5 4.45446,-2.29541 10.09657,0.0332 15,-1 3.81774,-0.80443 7.19472,-3.13858 11,-4 10.12541,-2.29213 20.63886,-3.65158 31,-3 5.28631,0.33244 12.07263,-0.5384 15.5,3.5 1.83653,2.16395 2.64112,6.6369 0.5,8.5 -1.28221,1.11572 -3.33971,-1.36378 -5,-1 -4.42876,0.97038 -6.99097,5.88264 -11,8 -4.38178,2.31422 -9.11735,4.15426 -14,5 -2.95598,0.51202 -6.12872,-0.86935 -9,0 -2.30056,0.69655 -3.60637,3.78024 -6,4 z"
       sodipodi:nodetypes="ssssssssssssssss" />
  </g>
  <g
     inkscape:groupmode="layer"
     id="layer2"
     inkscape:label="r-brow">
    <path
       id="part-14"
       inkscape:label="part-14"
       fill="#808000"
       fill-rule="evenodd"
       fill-opacity="0.85"
       d="m 719,469.5 c -4.10358,0.96872 -7.83807,-4.67539 -12,-4 -1.64515,0.26697 -1.28289,1.46077 -2.94536,1.34262 -0.94044,-0.0668 -2.17129,-0.0131 -3.05464,-0.34262 -4.3835,-1.63519 -9.37724,1.72042 -14,1 -5.32094,-0.82923 -9.712,-4.98162 -15,-6 -1.63659,-0.31518 -3.40485,0.48297 -5,0 -2.30056,-0.69655 -3.65585,-3.46828 -6,-4 -2.29863,-0.52139 -4.78144,1.79594 -7,1 -4.88588,-1.75289 -8.23021,-6.83176 -10.5,-11.5 -0.8866,-1.82347 -1.52182,-4.04071 -1,-6 0.60963,-2.28899 2.35941,-4.48562 4.5,-5.5 3.9159,-1.85566 8.83948,-1.21155 13,0 4.17281,1.21513 6.91076,5.52793 11,7 2.52857,0.91025 5.43911,0.18509 8,1 10.08973,3.21069 18.21342,10.95848 28,15 3.21661,1.32835 7.7714,0.32709 10,3 0.96649,1.15917 -0.28464,3.21077 0.5,4.5 0.62483,1.02666 2.88157,0.804 3,2 0.0697,0.70367 -0.81181,1.33754 -1.5,1.5 z"
       sodipodi:nodetypes="ssssssssssssssssssss" />
  </g>
  <g
     inkscape:groupmode="layer"
     id="layer3"
     inkscape:label="l-eye">
    <path
       id="part-7"
       inkscape:label="part-7"
       fill="#f032e6"
       fill-rule="evenodd"
       fill-opacity="0.85"
       d="m 478,572.5 c -5.29262,0.73741 -10.84005,0.38943 -16,-1 -2.87888,-0.7752 -5.58134,-2.25673 -8,-4 -2.48575,-1.79163 -4.81322,-3.94194 -6.5,-6.5 -1.97632,-2.99717 -3.32108,-6.47467 -4,-10 -1.00857,-5.2371 -0.90045,-10.74323 0,-16 1.01456,-5.92299 2.92401,-11.83769 6,-17 2.41602,-4.05471 5.68892,-7.71549 9.5,-10.5 3.25212,-2.37612 7.10244,-3.98449 11,-5 3.88419,-1.01203 8.00523,-1.39105 12,-1 4.83032,0.47284 9.56534,2.02785 14,4 2.87334,1.27781 5.72481,2.82919 8,5 1.90661,1.81914 3.57636,4.03194 4.5,6.5 1.05796,2.82698 1.40603,6.00897 1,9 -0.24146,1.77874 -0.95506,3.54044 -2,5 -1.78897,2.4988 -6.58004,2.95565 -7,6 -0.49272,3.57173 5.24336,5.47474 6,9 0.851,3.96488 -0.0451,8.44714 -2,12 -2.04843,3.72283 -5.84369,6.33507 -9.5,8.5 -5.17081,3.06168 -11.04824,5.17075 -17,6 z"
       sodipodi:nodetypes="ssssssssssssssssssss" />
  </g>
  <g
     inkscape:groupmode="layer"
     id="layer4"
     inkscape:label="r-eye">
    <path
       id="part-6"
       inkscape:label="part-6"
       fill="#42d4f4"
       fill-rule="evenodd"
       fill-opacity="0.85"
       d="m 674,582.5 c -6.69941,0.0827 -13.53072,-0.25721 -20,-2 -3.88903,-1.04769 -7.85248,-2.48696 -11,-5 -4.08978,-3.26536 -7.68428,-7.59164 -9.5,-12.5 -1.96943,-5.32387 -1.93755,-11.4015 -1,-17 1.01218,-6.04409 3.76142,-11.79739 7,-17 1.99686,-3.20785 4.53207,-6.16138 7.5,-8.5 5.03621,-3.96834 10.87839,-7.09291 17,-9 5.44752,-1.69708 11.33585,-2.68775 17,-2 2.82724,0.34329 5.66196,1.37376 8,3 2.71587,1.88904 5.12693,4.49016 6.5,7.5 0.97827,2.14442 1.48754,4.69395 1,7 -0.65046,3.07665 -5.35584,4.87554 -5,8 0.58677,5.15214 8.62723,6.38927 11,11 1.85557,3.60573 2.3172,7.95725 2,12 -0.24736,3.15259 -1.41277,6.26491 -3,9 -2.13278,3.67516 -5.07599,6.98372 -8.5,9.5 -3.24553,2.38511 -7.1242,3.90439 -11,5 -2.58608,0.73103 -5.31279,0.96683 -8,1 z"
       sodipodi:nodetypes="sssssssssssssssssss" />
  </g>
  <g
     inkscape:groupmode="layer"
     id="layer5"
     inkscape:label="mouth">
    <path
       id="part-12"
       inkscape:label="part-12"
       fill="#9a6324"
       fill-rule="evenodd"
       fill-opacity="0.85"
       d="m 520,688.5 c -2.63836,0.51116 -5.58585,0.18072 -8,-1 -1.48214,-0.72489 -2.72147,-2.04531 -3.5,-3.5 -1.60401,-2.99712 -2.58017,-6.65053 -2,-10 0.33173,-1.91513 1.64383,-3.60767 3,-5 1.51624,-1.55667 3.49235,-2.6684 5.5,-3.5 5.6785,-2.35211 11.88088,-3.42194 18,-4 10.95627,-1.03501 22.06619,-0.25016 33,1 6.75468,0.77232 13.51489,1.95903 20,4 5.55291,1.74759 11.39207,3.44249 16,7 3.19356,2.46556 8.06751,5.50554 7.5,9.5 -0.20167,1.41947 -2.0901,2.23975 -3.5,2.5 -7.79161,1.43824 -15.14116,-4.9918 -23,-6 -10.24934,-1.31487 -20.70494,-0.88855 -31,0 -7.75292,0.66915 -15.6628,1.4075 -23,4 -3.23582,1.14334 -5.63077,4.34724 -9,5 z"
       sodipodi:nodetypes="ssssssssssssssss" />
  </g>
</svg>
